<?xml version="1.0" encoding="UTF-8"?>
<svg xmlns="http://www.w3.org/2000/svg" xmlns:xlink="http://www.w3.org/1999/xlink" width="500px" height="600px" viewBox="0 0 500 600" version="1.1">
    <title>0qaA5aw5</title>
    <g id="Page-1" stroke="none" stroke-width="1" fill="none" fill-rule="evenodd">
        <g id="0qaA5aw5">
            <rect fill="#BD3024" x="0" y="0" width="500" height="600"/>
            <g id="bug" transform="translate(115.682436, 32.852595)" stroke="#000000">
                <g id="leg-3-right" transform="translate(189.005535, 290.884710)" fill="#F17F62">
                    <path d="M33.7993334,87.6118164 C36.9484298,90.0555013 39.4743852,92.9744466 41.3771994,96.3686523 C44.2314209,101.459961 46.230974,101.128224 46.230974,99.5244141 C46.230974,98.4552076 47.0692242,97.4032871 48.7457246,96.3686523 C48.7470296,95.2516798 48.3925034,94.6175652 47.6821459,94.4663086 C46.6166097,94.2394237 44.7700365,94.3224486 42.7470873,93.1953125 C40.7241381,92.0681764 36.1313646,87.5107422 36.1313646,86.0561523 C36.1313646,85.0864258 35.1167162,84.7648112 33.0874193,85.0913086 L33.7993334,87.6118164 Z" id="segment-5"/>
                    <path d="M23.559099,78.7236328 C29.1144376,84.1223958 32.2824063,87.9829102 33.0630053,90.3051758 C34.2339037,93.7885742 34.5810717,94.1953125 36.0395678,94.1953125 C37.4980639,94.1953125 37.0136889,91.2133789 37.9389818,90.3051758 C38.8642748,89.3969727 39.5583803,88.7050781 41.6230639,88.7050781 C42.9428881,88.7050781 41.875017,85.3894043 38.6631029,85.3894043 C37.5926694,85.3894043 36.3031279,85.5906167 33.0630053,83.0107422 C27.6787279,78.7236328 24.3299946,76.9312387 23.559099,76.5834961 C23.0451686,76.3516677 23.0451686,77.0650466 23.559099,78.7236328 Z" id="segment-4"/>
                    <path d="M7.6845873,61.8803711 C12.0582852,65.7556966 16.0654467,70.7200521 19.7060717,76.7734375 C21.2494265,79.3396236 22.4062406,81.2359465 22.9262865,81.6523438 C24.2463477,82.7093078 24.7004349,80.6655685 25.0854662,79.6030273 C25.61067,78.1536631 27.9895263,77.5118028 26.2324389,75.0170898 C25.5836093,74.0958815 23.4790199,74.5593815 21.6660326,72.7841797 C14.8381829,66.0986328 14.9263207,66.0986328 10.5856062,58.4130859 C7.69179655,53.289388 6.72479025,54.4451497 7.6845873,61.8803711 Z" id="segment-3"/>
                    <path d="M24.8584154,16.4658203 C27.0408277,22.0208333 21.6515048,33.0071615 8.69044668,49.4248047 C4.86086857,52.8550234 3.74846509,54.5982308 2.68165761,56.1674805 C0.944125278,58.7233512 0.0172117753,62.4039358 3.38380605,64.0742188 C8.81741679,66.7700195 9.66891633,62.0142338 12.1831225,59.5405273 C13.7671982,57.9819684 13.3255722,55.6471909 14.8381829,53.2836914 C21.9714836,42.1376953 28.7348803,35.0776367 28.7348803,14.2490234 C26.1505704,11.7360026 24.8584154,12.4749349 24.8584154,16.4658203 Z" id="segment-2"/>
                    <path d="M4.7080248,14.3110352 C12.89602,15.3390288 15.9023607,12.2958984 20.828142,16.2255859 C25.7539232,20.1552734 26.2993334,17.9277344 27.6801928,17.0766602 C29.0610521,16.2255859 31.3803881,14.3110352 27.6801928,10.1416016 C23.9799975,5.97216797 14.8381829,0 4.7080248,0 C-0.708501825,1.61865234 -0.708501825,3.97730017 1.03029043,7.96728516 C2.06533434,10.3423876 -3.4799704,13.2830415 4.7080248,14.3110352 Z" id="segment-1"/>
                </g>
                <g id="leg-3-right" transform="translate(55.505535, 341.384710) scale(-1, 1) translate(-55.505535, -341.384710) translate(31.005535, 290.884710)" fill="#F17F62">
                    <path d="M33.7993334,87.6118164 C36.9484298,90.0555013 39.4743852,92.9744466 41.3771994,96.3686523 C44.2314209,101.459961 46.230974,101.128224 46.230974,99.5244141 C46.230974,98.4552076 47.0692242,97.4032871 48.7457246,96.3686523 C48.7470296,95.2516798 48.3925034,94.6175652 47.6821459,94.4663086 C46.6166097,94.2394237 44.7700365,94.3224486 42.7470873,93.1953125 C40.7241381,92.0681764 36.1313646,87.5107422 36.1313646,86.0561523 C36.1313646,85.0864258 35.1167162,84.7648112 33.0874193,85.0913086 L33.7993334,87.6118164 Z" id="segment-5"/>
                    <path d="M23.559099,78.7236328 C29.1144376,84.1223958 32.2824063,87.9829102 33.0630053,90.3051758 C34.2339037,93.7885742 34.5810717,94.1953125 36.0395678,94.1953125 C37.4980639,94.1953125 37.0136889,91.2133789 37.9389818,90.3051758 C38.8642748,89.3969727 39.5583803,88.7050781 41.6230639,88.7050781 C42.9428881,88.7050781 41.875017,85.3894043 38.6631029,85.3894043 C37.5926694,85.3894043 36.3031279,85.5906167 33.0630053,83.0107422 C27.6787279,78.7236328 24.3299946,76.9312387 23.559099,76.5834961 C23.0451686,76.3516677 23.0451686,77.0650466 23.559099,78.7236328 Z" id="segment-4"/>
                    <path d="M7.6845873,61.8803711 C12.0582852,65.7556966 16.0654467,70.7200521 19.7060717,76.7734375 C21.2494265,79.3396236 22.4062406,81.2359465 22.9262865,81.6523438 C24.2463477,82.7093078 24.7004349,80.6655685 25.0854662,79.6030273 C25.61067,78.1536631 27.9895263,77.5118028 26.2324389,75.0170898 C25.5836093,74.0958815 23.4790199,74.5593815 21.6660326,72.7841797 C14.8381829,66.0986328 14.9263207,66.0986328 10.5856062,58.4130859 C7.69179655,53.289388 6.72479025,54.4451497 7.6845873,61.8803711 Z" id="segment-3"/>
                    <path d="M24.8584154,16.4658203 C27.0408277,22.0208333 21.6515048,33.0071615 8.69044668,49.4248047 C4.86086857,52.8550234 3.74846509,54.5982308 2.68165761,56.1674805 C0.944125278,58.7233512 0.0172117753,62.4039358 3.38380605,64.0742188 C8.81741679,66.7700195 9.66891633,62.0142338 12.1831225,59.5405273 C13.7671982,57.9819684 13.3255722,55.6471909 14.8381829,53.2836914 C21.9714836,42.1376953 28.7348803,35.0776367 28.7348803,14.2490234 C26.1505704,11.7360026 24.8584154,12.4749349 24.8584154,16.4658203 Z" id="segment-2"/>
                    <path d="M4.7080248,14.3110352 C12.89602,15.3390288 15.9023607,12.2958984 20.828142,16.2255859 C25.7539232,20.1552734 26.2993334,17.9277344 27.6801928,17.0766602 C29.0610521,16.2255859 31.3803881,14.3110352 27.6801928,10.1416016 C23.9799975,5.97216797 14.8381829,0 4.7080248,0 C-0.708501825,1.61865234 -0.708501825,3.97730017 1.03029043,7.96728516 C2.06533434,10.3423876 -3.4799704,13.2830415 4.7080248,14.3110352 Z" id="segment-1"/>
                </g>
                <g id="leg-2-right" transform="translate(177.000000, 231.088420)" fill="#F17F62">
                    <path d="M75.9223,60.7267103 C81.7325214,62.6061048 84.7951028,64.0810397 85.1100442,65.151515 C85.5824563,66.7572279 87.8462793,66.8544885 88.5931985,66.4007825 C89.2224479,66.0185535 89.1995656,65.0394251 89.6215188,64.4913587 C90.2113275,63.7252682 90.9895207,62.9178904 89.6215188,62.4110807 C88.3293638,62.8625697 87.2640155,62.9781963 86.4254739,62.7579603 C82.5730976,61.5367689 79.3110533,60.2552747 76.6393411,58.9134779 C73.9676288,57.571681 73.1478046,57.8036146 74.1798684,59.6092786 L75.9223,60.7267103 Z" id="segment-5"/>
                    <path d="M61.3600442,54.9872083 C68.1966327,57.8097995 71.9710468,59.9849297 72.6832864,61.5125989 C73.3603136,62.964742 74.8420798,63.3399781 76.3356725,62.936162 C77.1989919,62.7027501 77.1990751,61.1626689 77.9171731,60.4662122 C78.7737568,59.6354433 80.2261712,59.4828512 80.4605775,58.39603 C80.7626529,56.9954613 78.9503802,56.0418958 77.9171731,56.0418958 C76.6459483,56.0418958 75.8787498,56.3576503 74.1266457,56.0418958 C73.3496593,55.9018716 70.9530518,55.2789591 69.4450051,54.9872083 C64.5363137,54.0375596 61.3600442,54.0799818 61.3600442,54.0799818 C61.3600442,54.0799818 61.3600442,54.3823906 61.3600442,54.9872083 Z" id="segment-4"/>
                    <path d="M45.3517434,49.3114271 C48.3393736,51.513901 50.4985533,52.615138 51.8292825,52.615138 C53.8253762,52.615138 57.6871926,53.0082044 59.6036965,55.8246107 C61.5202004,58.6410169 66.1857278,54.11172 63.4684426,52.8089857 C60.7511575,51.5062513 59.9249503,48.9925794 47.2492043,46.6629896 C44.3491392,46.6629896 43.7166523,47.5458021 45.3517434,49.3114271 Z" id="segment-3"/>
                    <path d="M32.3912942,19.8822279 C41.2374631,38.6720156 38.1207864,40.3958997 39.3556496,44.1385755 C40.5905129,47.8812513 42.8446795,50.7650404 45.0255715,50.7650404 C47.2064635,50.7650404 51.4719596,47.0432516 49.5538918,45.4325208 C45.7500575,42.2381849 45.7500575,37.8142661 44.2141103,33.7472653 C35.6100442,10.9647474 24.1283532,0.652094992 20.3746926,2.8080091 C18.8558777,3.6803401 18.7953281,4.32015771 19.9044941,4.78221072 C23.864919,6.43203254 26.5722209,7.52217096 32.3912942,19.8822279 Z" id="segment-2"/>
                    <path d="M1.92547387,2.22548957 C1.92547387,0.617896527 8.56219262,-0.118757118 21.8356301,0.0155286316 C24.172224,0.365463527 25.0796133,2.16217577 24.5577981,5.40566535 C24.3680299,6.58522263 24.4549373,8.94722969 23.1768873,8.94722969 C20.9204349,8.94722969 16.3851935,8.39980598 13.6671731,8.39980598 C10.0792825,8.39980598 6.25779007,9.66235511 1.92547387,7.61074348 C-2.40684233,5.55913184 1.92547387,4.63687913 1.92547387,2.22548957 Z" id="segment-1"/>
                </g>
                <g id="leg-2-right" transform="translate(45.500000, 264.588420) scale(-1, 1) translate(-45.500000, -264.588420) translate(0.000000, 231.088420)" fill="#F17F62">
                    <path d="M75.9223,60.7267103 C81.7325214,62.6061048 84.7951028,64.0810397 85.1100442,65.151515 C85.5824563,66.7572279 87.8462793,66.8544885 88.5931985,66.4007825 C89.2224479,66.0185535 89.1995656,65.0394251 89.6215188,64.4913587 C90.2113275,63.7252682 90.9895207,62.9178904 89.6215188,62.4110807 C88.3293638,62.8625697 87.2640155,62.9781963 86.4254739,62.7579603 C82.5730976,61.5367689 79.3110533,60.2552747 76.6393411,58.9134779 C73.9676288,57.571681 73.1478046,57.8036146 74.1798684,59.6092786 L75.9223,60.7267103 Z" id="segment-5"/>
                    <path d="M61.3600442,54.9872083 C68.1966327,57.8097995 71.9710468,59.9849297 72.6832864,61.5125989 C73.3603136,62.964742 74.8420798,63.3399781 76.3356725,62.936162 C77.1989919,62.7027501 77.1990751,61.1626689 77.9171731,60.4662122 C78.7737568,59.6354433 80.2261712,59.4828512 80.4605775,58.39603 C80.7626529,56.9954613 78.9503802,56.0418958 77.9171731,56.0418958 C76.6459483,56.0418958 75.8787498,56.3576503 74.1266457,56.0418958 C73.3496593,55.9018716 70.9530518,55.2789591 69.4450051,54.9872083 C64.5363137,54.0375596 61.3600442,54.0799818 61.3600442,54.0799818 C61.3600442,54.0799818 61.3600442,54.3823906 61.3600442,54.9872083 Z" id="segment-4"/>
                    <path d="M45.3517434,49.3114271 C48.3393736,51.513901 50.4985533,52.615138 51.8292825,52.615138 C53.8253762,52.615138 57.6871926,53.0082044 59.6036965,55.8246107 C61.5202004,58.6410169 66.1857278,54.11172 63.4684426,52.8089857 C60.7511575,51.5062513 59.9249503,48.9925794 47.2492043,46.6629896 C44.3491392,46.6629896 43.7166523,47.5458021 45.3517434,49.3114271 Z" id="segment-3"/>
                    <path d="M32.3912942,19.8822279 C41.2374631,38.6720156 38.1207864,40.3958997 39.3556496,44.1385755 C40.5905129,47.8812513 42.8446795,50.7650404 45.0255715,50.7650404 C47.2064635,50.7650404 51.4719596,47.0432516 49.5538918,45.4325208 C45.7500575,42.2381849 45.7500575,37.8142661 44.2141103,33.7472653 C35.6100442,10.9647474 24.1283532,0.652094992 20.3746926,2.8080091 C18.8558777,3.6803401 18.7953281,4.32015771 19.9044941,4.78221072 C23.864919,6.43203254 26.5722209,7.52217096 32.3912942,19.8822279 Z" id="segment-2"/>
                    <path d="M1.92547387,2.22548957 C1.92547387,0.617896527 8.56219262,-0.118757118 21.8356301,0.0155286316 C24.172224,0.365463527 25.0796133,2.16217577 24.5577981,5.40566535 C24.3680299,6.58522263 24.4549373,8.94722969 23.1768873,8.94722969 C20.9204349,8.94722969 16.3851935,8.39980598 13.6671731,8.39980598 C10.0792825,8.39980598 6.25779007,9.66235511 1.92547387,7.61074348 C-2.40684233,5.55913184 1.92547387,4.63687913 1.92547387,2.22548957 Z" id="segment-1"/>
                </g>
                <g id="leg-1-right" transform="translate(163.451460, 130.455067)" fill="#F17F62">
                    <path d="M50.9945216,9.02827543 C57.7777248,4.78901761 61.4137925,2.34256579 61.9027248,1.68891996 C62.4720607,-0.437056604 63.6678615,-0.437056604 63.9840236,1.02583402 C64.3680916,2.802927 65.1493621,2.65967659 64.7794338,3.50972074 C64.4714132,4.21750947 61.9775129,4.59012785 59.0437083,6.44429105 C53.015388,10.2541869 50.3323258,11.7981293 50.9945216,11.0761181 L50.9945216,9.02827543 Z" id="segment-4"/>
                    <path d="M32.9408107,22.3969278 C42.1986232,15.4994668 49.1309963,10.0788757 51.5399318,5.62433071 C53.9488673,1.16978575 53.5658348,6.2324044 55.238174,8.04390043 C57.1407859,10.1048304 58.2896254,10.0559674 57.8862833,11.8354043 C51.4966348,13.5068121 48.8624889,15.3017129 45.8592503,17.2699746 C42.8560116,19.2382364 39.8688199,21.5380411 35.309463,24.9457559 C33.9044076,25.4764095 31.9600447,23.6121996 32.9408107,22.3969278 Z" id="segment-3" stroke-linejoin="round"/>
                    <path d="M32.9481349,56.6522989 C31.2023899,55.3236856 35.4710841,54.6815957 34.3128315,46.2138223 C33.1545789,37.7460489 32.1126857,34.6029825 30.2713771,29.7939004 C28.787745,25.9189886 28.6061924,23.0771034 30.126405,21.484259 C30.4929004,21.1002535 32.3835558,20.1924325 32.9481349,20.5530532 C34.6081517,21.6133768 37.3024207,22.2126376 38.1161037,24.3017129 C38.4426883,25.1401967 39.3552885,29.2174246 39.5565334,30.5868692 C40.2591781,35.3682737 39.5565334,38.4025358 39.5565334,44.2655801 C39.5565334,50.1286244 39.4027805,51.6697922 38.1161037,54.6815957 C36.8294269,57.6933993 34.69388,57.9809121 32.9481349,56.6522989 Z" id="segment-2"/>
                    <path d="M2.15272477,57.716752 C5.95477377,53.6903848 7.28538143,56.1239786 20.1981349,56.1239786 C24.6214748,56.1239786 30.1087306,53.8639574 31.2796779,53.6991739 C34.448815,53.2531917 36.1729797,54.3834008 37.0423732,55.3988809 C37.8348868,56.3245627 37.4228526,58.5127551 35.1751857,60.1503457 C31.9061427,62.532084 32.3395307,62.6277669 23.9525295,65.7353067 C15.5655282,68.8428465 12.276645,70.1650051 5.07459977,69.7216348 C-0.255238885,69.3935207 -1.64932424,61.7431192 2.15272477,57.716752 Z" id="segment-1"/>
                </g>
                <g id="leg-1-left" transform="translate(69.951460, 165.455067) scale(-1, 1) translate(-69.951460, -165.455067) translate(37.451460, 130.455067)" fill="#F17F62">
                    <path d="M50.9945216,9.02827543 C57.7777248,4.78901761 61.4137925,2.34256579 61.9027248,1.68891996 C62.4720607,-0.437056604 63.6678615,-0.437056604 63.9840236,1.02583402 C64.3680916,2.802927 65.1493621,2.65967659 64.7794338,3.50972074 C64.4714132,4.21750947 61.9775129,4.59012785 59.0437083,6.44429105 C53.015388,10.2541869 50.3323258,11.7981293 50.9945216,11.0761181 L50.9945216,9.02827543 Z" id="segment-4"/>
                    <path d="M32.9408107,22.3969278 C42.1986232,15.4994668 49.1309963,10.0788757 51.5399318,5.62433071 C53.9488673,1.16978575 53.5658348,6.2324044 55.238174,8.04390043 C57.1407859,10.1048304 58.2896254,10.0559674 57.8862833,11.8354043 C51.4966348,13.5068121 48.8624889,15.3017129 45.8592503,17.2699746 C42.8560116,19.2382364 39.8688199,21.5380411 35.309463,24.9457559 C33.9044076,25.4764095 31.9600447,23.6121996 32.9408107,22.3969278 Z" id="segment-3" stroke-linejoin="round"/>
                    <path d="M32.9481349,56.6522989 C31.2023899,55.3236856 35.4710841,54.6815957 34.3128315,46.2138223 C33.1545789,37.7460489 32.1126857,34.6029825 30.2713771,29.7939004 C28.787745,25.9189886 28.6061924,23.0771034 30.126405,21.484259 C30.4929004,21.1002535 32.3835558,20.1924325 32.9481349,20.5530532 C34.6081517,21.6133768 37.3024207,22.2126376 38.1161037,24.3017129 C38.4426883,25.1401967 39.3552885,29.2174246 39.5565334,30.5868692 C40.2591781,35.3682737 39.5565334,38.4025358 39.5565334,44.2655801 C39.5565334,50.1286244 39.4027805,51.6697922 38.1161037,54.6815957 C36.8294269,57.6933993 34.69388,57.9809121 32.9481349,56.6522989 Z" id="segment-2"/>
                    <path d="M2.15272477,57.716752 C5.95477377,53.6903848 7.28538143,56.1239786 20.1981349,56.1239786 C24.6214748,56.1239786 30.1087306,53.8639574 31.2796779,53.6991739 C34.448815,53.2531917 36.1729797,54.3834008 37.0423732,55.3988809 C37.8348868,56.3245627 37.4228526,58.5127551 35.1751857,60.1503457 C31.9061427,62.532084 32.3395307,62.6277669 23.9525295,65.7353067 C15.5655282,68.8428465 12.276645,70.1650051 5.07459977,69.7216348 C-0.255238885,69.3935207 -1.64932424,61.7431192 2.15272477,57.716752 Z" id="segment-1"/>
                </g>
                <path d="M121.820005,118.00971 C113.821633,133.449814 109.822447,146.118759 109.822447,156.016546 C109.822447,170.863226 127.113462,173.899358 133.817564,173.899358 C140.521665,173.899358 157.817564,170.863226 157.817564,156.016546 C157.817564,146.118759 153.818378,133.449814 145.820005,118.00971 C141.581398,120.373642 137.582212,121.938177 133.817564,121.938177 C130.052915,121.938177 126.058612,120.373642 121.820005,118.00971 Z" id="head" fill="#99D8F3"/>
                <path d="M134.59081,225.147405 C128.342457,225.147405 111.357845,222.428003 103.300221,216.147017 C95.2425961,209.866031 94.4662556,196.120965 95.8982664,188.06148 C97.6474631,178.216845 102.423493,170.041648 110.332786,166.614949 C116.781956,163.820847 126.390867,164.160385 134.090474,164.160385 C141.79008,164.160385 150.99951,163.820847 157.448681,166.614949 C165.357973,170.041648 170.134004,178.216845 171.8832,188.06148 C173.315211,196.120965 171.379063,208.787013 163.483124,216.147017 C155.587185,223.507021 140.839164,225.147405 134.59081,225.147405 Z" id="mid-body" fill="#99D8F3"/>
                <path d="M69.3175637,221.034124 C96.1235533,213.109645 112.662616,217.165634 118.934751,233.202093 C128.342954,257.25678 159.176939,379.432561 94.79022,409.166936 C91.9932907,410.136025 89.3802002,410.952841 86.9509485,411.617387 C81.7857156,413.030386 75.9079207,413.600939 69.3175637,413.329046 L69.3175637,221.034124 Z" id="bottom-body-left" fill="#F0D656" transform="translate(101.954352, 315.248875) scale(-1, 1) translate(-101.954352, -315.248875) "/>
                <path d="M134.317564,221.034124 C161.123553,213.109645 177.662616,217.165634 183.934751,233.202093 C193.342954,257.25678 224.176939,379.432561 159.79022,409.166936 C156.993291,410.136025 154.3802,410.952841 151.950948,411.617387 C146.785716,413.030386 140.907921,413.600939 134.317564,413.329046 L134.317564,221.034124 Z" id="bottom-body-right" fill="#F0D656"/>
                <path d="M110.822447,150.687933 C106.440122,149.16303 104.368345,142.998479 107.231626,138.011663 C110.094907,133.024847 115.888853,130.832952 117.861997,132.733343 C119.835142,134.633733 121.094419,141.367167 119.835142,144.670354 C118.575864,147.973542 115.204771,152.212835 110.822447,150.687933 Z" id="eye-left" fill="#86D283"/>
                <path d="M152.822447,150.687933 C148.440122,149.16303 146.368345,142.998479 149.231626,138.011663 C152.094907,133.024847 157.888853,130.832952 159.861997,132.733343 C161.835142,134.633733 163.094419,141.367167 161.835142,144.670354 C160.575864,147.973542 157.204771,152.212835 152.822447,150.687933 Z" id="eye-right" fill="#86D283" transform="translate(155.126510, 141.531185) scale(-1, 1) translate(-155.126510, -141.531185) "/>
                <g id="antenna-right" transform="translate(140.559612, 0.000000)" fill="#F17F62">
                    <path d="M97.1739676,12.421331 C101.596448,7.51542749 104.459149,4.68551212 105.762072,3.93158492 C107.635393,2.84760054 109.23024,1.43774226 111.615374,0.540959919 C114.5701,-0.569982593 116.543757,-0.102238947 112.972307,3.19086226 C108.669362,7.15844898 103.669687,10.7525245 97.973284,13.9730888 L97.1739676,12.421331 Z" id="segment-9"/>
                    <path d="M81.7523367,23.402288 C87.2352469,17.8244886 91.9626232,13.6618095 95.9344656,10.9142509 C97.9471245,9.66595992 97.9937553,10.5614539 99.7254812,12.5040947 C101.457207,14.4467354 99.4851713,15.0169862 98.2220633,15.8405205 C92.2734658,20.0239515 86.783557,22.9989677 81.7523367,24.7655693 L81.7523367,23.402288 Z" id="segment-8"/>
                    <path d="M68.0438406,38.2284599 C69.5901487,35.3484484 72.1781207,31.4369087 75.8077566,26.4938408 C76.3905244,25.7001907 79.8460867,21.1063896 82.167864,21.1063896 C83.7767508,22.5136162 83.936907,23.5692802 85.0555594,24.4928642 C85.6135021,26.0503186 79.8342052,31.0590263 67.7176687,39.5189873 L68.0438406,38.2284599 Z" id="segment-7"/>
                    <path d="M55.3265555,51.1652275 C57.4374574,47.442117 60.3077263,43.1090279 63.9373622,38.1659599 C64.52013,37.3723099 67.8835846,33.8161008 68.6754324,34.1293388 C70.4291169,34.8230588 69.7884695,35.6381279 72.1183035,37.0187431 C72.6762462,38.5761975 67.2357351,43.8871513 55.7967703,52.9516045 L55.3265555,51.1652275 Z" id="segment-6"/>
                    <path d="M44.3849051,62.7211357 C47.94202,55.4527471 51.6439243,50.3694951 55.490618,47.4713798 C56.8402273,46.0883232 56.8402273,51.8312431 60.032366,51.216497 C60.790504,52.4575452 55.8608979,56.5690361 45.2435476,63.5509697 L44.3849051,62.7211357 Z" id="segment-5"/>
                    <path d="M34.3399832,77.2763115 C34.2743642,77.0612272 33.7488132,77.1266563 33.865618,76.5985962 C34.6751719,72.9387028 40.5011797,61.7040357 44.433489,60.1330009 C45.8822498,61.506726 46.6114417,62.1960372 48.5006277,62.756292 C48.961598,64.2672495 46.3709969,65.0518541 41.653147,70.0891212 C36.9352972,75.1263883 34.7736543,78.6977884 34.3399832,77.2763115 Z" id="segment-4"/>
                    <path d="M23.3082449,92.4430595 C25.6166759,86.7663017 28.8237885,80.8611097 32.9295828,74.7274834 C34.0366184,75.2126773 35.2292599,74.8251074 35.8819754,75.0656181 C36.7182469,75.3737651 36.9310445,76.2618757 37.7474539,76.5228935 C37.2366066,78.1705883 34.9076749,81.0972716 32.9295828,83.9503837 C30.4239217,87.5644379 27.054475,91.2618589 24.6280691,92.4430595 C24.3453949,92.5806684 23.9054535,92.5806684 23.3082449,92.4430595 Z" id="segment-3"/>
                    <path d="M25.2901785,89.9054619 C24.4755626,89.4941663 23.7213308,88.8326266 23.0274832,87.9208427 C23.0694754,89.2558037 22.8574799,90.1941175 22.3914969,90.7357841 C21.6925222,91.5482841 14.0764199,101.862249 14.5668984,104.406438 C15.0573769,106.950628 16.4825613,105.040028 17.7457449,103.975042 C19.0089285,102.910056 27.2113211,93.5934502 28.3468191,91.1981865 C27.0355398,90.7357841 26.3602469,90.3720146 25.2901785,89.9054619 Z" id="segment-2" stroke-linejoin="round"/>
                    <path d="M13.9762094,102.917758 C13.1527273,102.361028 12.7928807,103.629345 12.334368,104.53095 C10.9986746,107.157415 6.70204373,116.252874 2.62953397,118.00971 C-0.336424014,119.289192 -0.455074994,124.522892 0.61928006,125.984808 C1.02010486,126.530225 1.58636059,126.596624 1.96913358,126.596624 C4.11024686,126.596624 7.41224881,124.429388 7.7523367,121.830511 C8.09242459,119.231634 5.10746773,117.441106 15.1323701,109.365423 C15.4335316,108.950165 19.2047293,106.743622 18.5382254,104.766146 C18.4407639,104.476984 17.0229106,104.901582 15.8683035,104.53095 C14.9744462,104.244019 14.3355398,103.16069 13.9762094,102.917758 Z" id="segment-1"/>
                </g>
                <g id="antenna-left" transform="translate(68.059612, 63.500000) scale(-1, 1) translate(-68.059612, -63.500000) translate(10.559612, 0.000000)" fill="#F17F62">
                    <path d="M97.1739676,12.421331 C101.596448,7.51542749 104.459149,4.68551212 105.762072,3.93158492 C107.635393,2.84760054 109.23024,1.43774226 111.615374,0.540959919 C114.5701,-0.569982593 116.543757,-0.102238947 112.972307,3.19086226 C108.669362,7.15844898 103.669687,10.7525245 97.973284,13.9730888 L97.1739676,12.421331 Z" id="segment-9"/>
                    <path d="M81.7523367,23.402288 C87.2352469,17.8244886 91.9626232,13.6618095 95.9344656,10.9142509 C97.9471245,9.66595992 97.9937553,10.5614539 99.7254812,12.5040947 C101.457207,14.4467354 99.4851713,15.0169862 98.2220633,15.8405205 C92.2734658,20.0239515 86.783557,22.9989677 81.7523367,24.7655693 L81.7523367,23.402288 Z" id="segment-8"/>
                    <path d="M68.0438406,38.2284599 C69.5901487,35.3484484 72.1781207,31.4369087 75.8077566,26.4938408 C76.3905244,25.7001907 79.8460867,21.1063896 82.167864,21.1063896 C83.7767508,22.5136162 83.936907,23.5692802 85.0555594,24.4928642 C85.6135021,26.0503186 79.8342052,31.0590263 67.7176687,39.5189873 L68.0438406,38.2284599 Z" id="segment-7"/>
                    <path d="M55.3265555,51.1652275 C57.4374574,47.442117 60.3077263,43.1090279 63.9373622,38.1659599 C64.52013,37.3723099 67.8835846,33.8161008 68.6754324,34.1293388 C70.4291169,34.8230588 69.7884695,35.6381279 72.1183035,37.0187431 C72.6762462,38.5761975 67.2357351,43.8871513 55.7967703,52.9516045 L55.3265555,51.1652275 Z" id="segment-6"/>
                    <path d="M44.3849051,62.7211357 C47.94202,55.4527471 51.6439243,50.3694951 55.490618,47.4713798 C56.8402273,46.0883232 56.8402273,51.8312431 60.032366,51.216497 C60.790504,52.4575452 55.8608979,56.5690361 45.2435476,63.5509697 L44.3849051,62.7211357 Z" id="segment-5"/>
                    <path d="M34.3399832,77.2763115 C34.2743642,77.0612272 33.7488132,77.1266563 33.865618,76.5985962 C34.6751719,72.9387028 40.5011797,61.7040357 44.433489,60.1330009 C45.8822498,61.506726 46.6114417,62.1960372 48.5006277,62.756292 C48.961598,64.2672495 46.3709969,65.0518541 41.653147,70.0891212 C36.9352972,75.1263883 34.7736543,78.6977884 34.3399832,77.2763115 Z" id="segment-4"/>
                    <path d="M23.3082449,92.4430595 C25.6166759,86.7663017 28.8237885,80.8611097 32.9295828,74.7274834 C34.0366184,75.2126773 35.2292599,74.8251074 35.8819754,75.0656181 C36.7182469,75.3737651 36.9310445,76.2618757 37.7474539,76.5228935 C37.2366066,78.1705883 34.9076749,81.0972716 32.9295828,83.9503837 C30.4239217,87.5644379 27.054475,91.2618589 24.6280691,92.4430595 C24.3453949,92.5806684 23.9054535,92.5806684 23.3082449,92.4430595 Z" id="segment-3"/>
                    <path d="M25.2901785,89.9054619 C24.4755626,89.4941663 23.7213308,88.8326266 23.0274832,87.9208427 C23.0694754,89.2558037 22.8574799,90.1941175 22.3914969,90.7357841 C21.6925222,91.5482841 14.0764199,101.862249 14.5668984,104.406438 C15.0573769,106.950628 16.4825613,105.040028 17.7457449,103.975042 C19.0089285,102.910056 27.2113211,93.5934502 28.3468191,91.1981865 C27.0355398,90.7357841 26.3602469,90.3720146 25.2901785,89.9054619 Z" id="segment-2" stroke-linejoin="round"/>
                    <path d="M13.9762094,102.917758 C13.1527273,102.361028 12.7928807,103.629345 12.334368,104.53095 C10.9986746,107.157415 6.70204373,116.252874 2.62953397,118.00971 C-0.336424014,119.289192 -0.455074994,124.522892 0.61928006,125.984808 C1.02010486,126.530225 1.58636059,126.596624 1.96913358,126.596624 C4.11024686,126.596624 7.41224881,124.429388 7.7523367,121.830511 C8.09242459,119.231634 5.10746773,117.441106 15.1323701,109.365423 C15.4335316,108.950165 19.2047293,106.743622 18.5382254,104.766146 C18.4407639,104.476984 17.0229106,104.901582 15.8683035,104.53095 C14.9744462,104.244019 14.3355398,103.16069 13.9762094,102.917758 Z" id="segment-1"/>
                </g>
            </g>
            <g id="hello" transform="translate(0.000000, 500.000000)">
                <rect id="Rectangle" fill="#FFFFFF" x="0" y="0" width="500" height="100"/>
                <path d="M144.50293,71.8354492 C146.524414,71.8354492 148.329834,71.4143066 149.919189,70.5720215 C151.508545,69.7297363 152.757324,68.5065918 153.665527,66.9025879 C154.57373,65.298584 155.027832,63.390625 155.027832,61.1787109 C155.027832,59.5087891 154.716553,58 154.093994,56.6523438 C153.471436,55.3046875 152.599854,54.2023926 151.479248,53.345459 C150.358643,52.4885254 149.065918,51.9355469 147.601074,51.6865234 L147.601074,51.6865234 L147.601074,51.4887695 C148.846191,51.0786133 149.809326,50.401123 150.490479,49.4562988 C151.171631,48.5114746 151.512207,47.3139648 151.512207,45.8637695 C151.512207,44.6625977 151.193604,43.5566406 150.556396,42.5458984 C149.919189,41.5351562 149.021973,40.7331543 147.864746,40.1398926 C146.70752,39.5466309 145.374512,39.25 143.865723,39.25 C142.459473,39.25 141.177734,39.550293 140.020508,40.1508789 C138.863281,40.7514648 137.947754,41.6193848 137.273926,42.7546387 C136.600098,43.8898926 136.263184,45.2265625 136.263184,46.7646484 L136.263184,46.7646484 L140.174316,46.7646484 C140.174316,45.3876953 140.514893,44.340332 141.196045,43.6225586 C141.877197,42.9047852 142.796387,42.5458984 143.953613,42.5458984 C145.081543,42.5458984 145.986084,42.8718262 146.667236,43.5236816 C147.348389,44.1755371 147.688965,45.0654297 147.688965,46.1933594 C147.688965,47.3945312 147.304443,48.3723145 146.5354,49.126709 C145.766357,49.8811035 144.708008,50.3901367 143.360352,50.6538086 C141.749023,50.9467773 140.236572,51.5253906 138.822998,52.3896484 C137.409424,53.2539062 136.252197,54.4257812 135.351318,55.9052734 C134.450439,57.3847656 134,59.1425781 134,61.1787109 C134,63.4199219 134.454102,65.3425293 135.362305,66.9465332 C136.270508,68.5505371 137.519287,69.7663574 139.108643,70.5939941 C140.697998,71.4216309 142.496094,71.8354492 144.50293,71.8354492 Z M144.546875,68.5175781 C143.199219,68.5175781 142.03833,68.2099609 141.064209,67.5947266 C140.090088,66.9794922 139.34668,66.1152344 138.833984,65.0019531 C138.321289,63.8886719 138.064941,62.6142578 138.064941,61.1787109 C138.064941,59.7285156 138.321289,58.4467773 138.833984,57.3334961 C139.34668,56.2202148 140.090088,55.3596191 141.064209,54.751709 C142.03833,54.1437988 143.18457,53.8398438 144.50293,53.8398438 C145.850586,53.8398438 147.011475,54.1437988 147.985596,54.751709 C148.959717,55.3596191 149.703125,56.2165527 150.21582,57.3225098 C150.728516,58.4284668 150.984863,59.7138672 150.984863,61.1787109 C150.984863,62.5996094 150.728516,63.8666992 150.21582,64.9799805 C149.703125,66.0932617 148.959717,66.9611816 147.985596,67.5837402 C147.011475,68.2062988 145.865234,68.5175781 144.546875,68.5175781 Z M167.925781,62.8486328 C169.976562,62.8486328 171.745361,62.4055176 173.232178,61.5192871 C174.718994,60.6330566 175.850586,59.4685059 176.626953,58.0256348 C177.40332,56.5827637 177.791504,55.0336914 177.791504,53.378418 C177.791504,51.9135742 177.564453,50.6391602 177.110352,49.5551758 C176.65625,48.4711914 176.106934,47.5703125 175.462402,46.8525391 C174.817871,46.1347656 173.968262,45.3217773 172.913574,44.4135742 C172.137207,43.7397461 171.529297,43.1794434 171.089844,42.732666 C170.650391,42.2858887 170.258545,41.7695312 169.914307,41.1835938 C169.570068,40.5976562 169.34668,39.953125 169.244141,39.25 L169.244141,39.25 L165.091309,39.25 C165.091309,40.2900391 165.2854,41.2202148 165.673584,42.0405273 C166.061768,42.8608398 166.537842,43.5639648 167.101807,44.1499023 C167.665771,44.7358398 168.431152,45.4462891 169.397949,46.28125 C170.364746,47.1015625 171.133789,47.8120117 171.705078,48.4125977 C172.276367,49.0131836 172.759766,49.730957 173.155273,50.565918 C173.550781,51.4008789 173.748535,52.3603516 173.748535,53.4443359 C173.748535,54.5283203 173.532471,55.5280762 173.100342,56.4436035 C172.668213,57.3591309 172.016357,58.0915527 171.144775,58.6408691 C170.273193,59.1901855 169.200195,59.4648438 167.925781,59.4648438 C166.651367,59.4648438 165.578369,59.1865234 164.706787,58.6298828 C163.835205,58.0732422 163.187012,57.3151855 162.762207,56.3557129 C162.337402,55.3962402 162.125,54.315918 162.125,53.1147461 C162.125,52.0307617 162.322754,50.9248047 162.718262,49.796875 L162.718262,49.796875 L158.763184,49.796875 C158.309082,51.0126953 158.082031,52.2724609 158.082031,53.5761719 C158.082031,55.3486328 158.451904,56.9343262 159.19165,58.333252 C159.931396,59.7321777 161.041016,60.8344727 162.520508,61.6401367 C164,62.4458008 165.801758,62.8486328 167.925781,62.8486328 Z M192.31543,62.8046875 C194.541992,62.8046875 196.460938,62.317627 198.072266,61.3435059 C199.683594,60.3693848 200.914062,58.9924316 201.763672,57.2126465 C202.613281,55.4328613 203.038086,53.3491211 203.038086,50.9614258 L203.038086,50.9614258 L203.038086,38.4150391 C203.038086,36.3203125 202.638916,34.4892578 201.840576,32.921875 C201.042236,31.3544922 199.877686,30.142334 198.346924,29.2854004 C196.816162,28.4284668 194.98877,28 192.864746,28 C190.843262,28 189.074463,28.3771973 187.55835,29.1315918 C186.042236,29.8859863 184.866699,30.8930664 184.031738,32.152832 C183.196777,33.4125977 182.75,34.7895508 182.691406,36.2836914 L182.691406,36.2836914 L186.69043,36.2836914 C186.749023,35.3168945 187.041992,34.463623 187.569336,33.723877 C188.09668,32.9841309 188.818115,32.4091797 189.733643,31.9990234 C190.64917,31.5888672 191.70752,31.3837891 192.908691,31.3837891 C194.168457,31.3837891 195.26709,31.6657715 196.20459,32.2297363 C197.14209,32.7937012 197.863525,33.6103516 198.368896,34.6796875 C198.874268,35.7490234 199.126953,37.0234375 199.126953,38.5029297 L199.126953,38.5029297 L199.126953,42.9414062 L199.039062,42.9414062 C198.189453,41.7695312 197.167725,40.8942871 195.973877,40.3156738 C194.780029,39.7370605 193.34082,39.4477539 191.65625,39.4477539 C189.766602,39.4477539 188.056396,39.9238281 186.525635,40.8759766 C184.994873,41.828125 183.786377,43.1794434 182.900146,44.9299316 C182.013916,46.6804199 181.570801,48.690918 181.570801,50.9614258 C181.570801,53.3491211 181.995605,55.4328613 182.845215,57.2126465 C183.694824,58.9924316 184.928955,60.3693848 186.547607,61.3435059 C188.16626,62.317627 190.088867,62.8046875 192.31543,62.8046875 Z M192.31543,59.4208984 C190.923828,59.4208984 189.722656,59.0656738 188.711914,58.3552246 C187.701172,57.6447754 186.932129,56.6669922 186.404785,55.421875 C185.877441,54.1767578 185.61377,52.7631836 185.61377,51.1811523 C185.61377,49.5112305 185.870117,48.0500488 186.382812,46.7976074 C186.895508,45.545166 187.649902,44.5673828 188.645996,43.8642578 C189.64209,43.1611328 190.850586,42.8095703 192.271484,42.8095703 C194.483398,42.8095703 196.200928,43.5273438 197.424072,44.9628906 C198.647217,46.3984375 199.258789,48.4711914 199.258789,51.1811523 C199.258789,52.7485352 198.980469,54.1584473 198.423828,55.4108887 C197.867188,56.6633301 197.065186,57.6447754 196.017822,58.3552246 C194.970459,59.0656738 193.736328,59.4208984 192.31543,59.4208984 Z M217.166504,62.8486328 C219.217285,62.8486328 220.986084,62.4055176 222.4729,61.5192871 C223.959717,60.6330566 225.091309,59.4685059 225.867676,58.0256348 C226.644043,56.5827637 227.032227,55.0336914 227.032227,53.378418 C227.032227,51.9135742 226.805176,50.6391602 226.351074,49.5551758 C225.896973,48.4711914 225.347656,47.5703125 224.703125,46.8525391 C224.058594,46.1347656 223.208984,45.3217773 222.154297,44.4135742 C221.37793,43.7397461 220.77002,43.1794434 220.330566,42.732666 C219.891113,42.2858887 219.499268,41.7695312 219.155029,41.1835938 C218.810791,40.5976562 218.587402,39.953125 218.484863,39.25 L218.484863,39.25 L214.332031,39.25 C214.332031,40.2900391 214.526123,41.2202148 214.914307,42.0405273 C215.30249,42.8608398 215.778564,43.5639648 216.342529,44.1499023 C216.906494,44.7358398 217.671875,45.4462891 218.638672,46.28125 C219.605469,47.1015625 220.374512,47.8120117 220.945801,48.4125977 C221.51709,49.0131836 222.000488,49.730957 222.395996,50.565918 C222.791504,51.4008789 222.989258,52.3603516 222.989258,53.4443359 C222.989258,54.5283203 222.773193,55.5280762 222.341064,56.4436035 C221.908936,57.3591309 221.25708,58.0915527 220.385498,58.6408691 C219.513916,59.1901855 218.440918,59.4648438 217.166504,59.4648438 C215.89209,59.4648438 214.819092,59.1865234 213.94751,58.6298828 C213.075928,58.0732422 212.427734,57.3151855 212.00293,56.3557129 C211.578125,55.3962402 211.365723,54.315918 211.365723,53.1147461 C211.365723,52.0307617 211.563477,50.9248047 211.958984,49.796875 L211.958984,49.796875 L208.003906,49.796875 C207.549805,51.0126953 207.322754,52.2724609 207.322754,53.5761719 C207.322754,55.3486328 207.692627,56.9343262 208.432373,58.333252 C209.172119,59.7321777 210.281738,60.8344727 211.76123,61.6401367 C213.240723,62.4458008 215.04248,62.8486328 217.166504,62.8486328 Z M238.282227,62.2993164 C237.212891,60.5854492 236.388916,58.7470703 235.810303,56.7841797 C235.231689,54.8212891 234.942383,52.8217773 234.942383,50.7856445 C234.942383,48.0170898 235.378174,45.9663086 236.249756,44.6333008 C237.121338,43.300293 238.311523,42.6337891 239.820312,42.6337891 C240.992188,42.6337891 241.907715,43.1062012 242.566895,44.0510254 C243.226074,44.9958496 243.555664,46.3105469 243.555664,47.9951172 L243.555664,47.9951172 L243.555664,56.125 L247.554688,56.125 L247.554688,47.9951172 C247.554688,46.3837891 247.891602,45.0874023 248.56543,44.105957 C249.239258,43.1245117 250.176758,42.6337891 251.37793,42.6337891 C252.945312,42.6337891 254.153809,43.3076172 255.003418,44.6552734 C255.853027,46.0029297 256.277832,48.0610352 256.277832,50.8295898 C256.277832,52.9682617 255.999512,54.9787598 255.442871,56.861084 C254.88623,58.7434082 254.043945,60.5561523 252.916016,62.2993164 L252.916016,62.2993164 L257.134766,62.2993164 C258.21875,60.6000977 259.013428,58.8056641 259.518799,56.9160156 C260.02417,55.0263672 260.276855,52.9389648 260.276855,50.6538086 C260.276855,48.3979492 259.95459,46.4130859 259.310059,44.6992188 C258.665527,42.9853516 257.720703,41.6486816 256.475586,40.689209 C255.230469,39.7297363 253.743652,39.25 252.015137,39.25 C250.520996,39.25 249.209961,39.6345215 248.082031,40.4035645 C246.954102,41.1726074 246.119141,42.3334961 245.577148,43.8862305 L245.577148,43.8862305 L245.401367,43.8862305 C245.020508,42.7729492 244.595703,41.8830566 244.126953,41.2165527 C243.658203,40.5500488 243.07959,40.0556641 242.391113,39.7333984 C241.702637,39.4111328 240.845703,39.25 239.820312,39.25 C238.633789,39.25 237.571777,39.5759277 236.634277,40.2277832 C235.696777,40.8796387 234.97168,41.8134766 234.458984,43.0292969 L234.458984,43.0292969 L234.327148,43.0292969 C234.942383,40.421875 236.070312,38.4296875 237.710938,37.0527344 C239.351562,35.6757812 241.416992,34.7456055 243.907227,34.262207 L243.907227,34.262207 L247.554688,33.5371094 C249.063477,33.2441406 250.279297,32.8925781 251.202148,32.4824219 C252.125,32.0722656 252.831787,31.5559082 253.32251,30.9333496 C253.813232,30.310791 254.124512,29.5161133 254.256348,28.5493164 L254.256348,28.5493164 L250.169434,28.5493164 C250.008301,28.9008789 249.704346,29.2084961 249.257568,29.472168 C248.810791,29.7358398 248.257812,29.940918 247.598633,30.0874023 L247.598633,30.0874023 L243.467773,30.9443359 C239.219727,31.8085938 236.070312,33.6542969 234.019531,36.4814453 C231.96875,39.3085938 230.943359,43.2197266 230.943359,48.2148438 C230.943359,51.6132812 231.196045,54.3781738 231.701416,56.5095215 C232.206787,58.6408691 233.008789,60.5708008 234.107422,62.2993164 L234.107422,62.2993164 L238.282227,62.2993164 Z M273.921875,71.8354492 C275.958008,71.8354492 277.734131,71.359375 279.250244,70.4072266 C280.766357,69.4550781 281.919922,68.2209473 282.710938,66.704834 C283.501953,65.1887207 283.897461,63.6030273 283.897461,61.9477539 C283.897461,60.1166992 283.575195,58.4724121 282.930664,57.0148926 C282.286133,55.557373 281.32666,54.3745117 280.052246,53.4663086 C278.777832,52.5581055 277.239746,51.9941406 275.437988,51.7744141 L275.437988,51.7744141 L275.437988,47.3579102 L283.326172,47.3579102 L283.326172,44.2597656 L275.437988,44.2597656 L275.437988,39.25 L271.526855,39.25 L271.526855,44.2597656 L263.660645,44.2597656 L263.660645,47.3579102 L271.526855,47.3579102 L271.526855,54.8286133 L273.592285,54.8286133 C275.730957,54.8286133 277.309326,55.487793 278.327393,56.8061523 C279.345459,58.1245117 279.854492,59.8383789 279.854492,61.9477539 C279.854492,63.0610352 279.645752,64.1157227 279.228271,65.1118164 C278.810791,66.1079102 278.158936,66.9172363 277.272705,67.5397949 C276.386475,68.1623535 275.269531,68.4736328 273.921875,68.4736328 C271.915039,68.4736328 270.398926,67.8950195 269.373535,66.737793 C268.348145,65.5805664 267.835449,63.9985352 267.835449,61.9916992 C267.835449,61.6108398 267.861084,61.1933594 267.912354,60.7392578 C267.963623,60.2851562 268.040527,59.8896484 268.143066,59.5527344 L268.143066,59.5527344 L264.319824,59.5527344 C264.17334,59.9189453 264.048828,60.3693848 263.946289,60.9040527 C263.84375,61.4387207 263.79248,61.9477539 263.79248,62.4311523 C263.79248,64.2036133 264.187988,65.8039551 264.979004,67.2321777 C265.77002,68.6604004 266.930908,69.784668 268.46167,70.6049805 C269.992432,71.425293 271.8125,71.8354492 273.921875,71.8354492 Z M294.708008,62.2993164 C293.638672,60.5854492 292.814697,58.7470703 292.236084,56.7841797 C291.657471,54.8212891 291.368164,52.8217773 291.368164,50.7856445 C291.368164,48.0610352 291.785645,46.0212402 292.620605,44.6662598 C293.455566,43.3112793 294.656738,42.6337891 296.224121,42.6337891 C297.395996,42.6337891 298.311523,43.1062012 298.970703,44.0510254 C299.629883,44.9958496 299.959473,46.3105469 299.959473,47.9951172 L299.959473,47.9951172 L299.959473,56.125 L303.980469,56.125 L303.980469,47.9951172 C303.980469,46.3837891 304.317383,45.0874023 304.991211,44.105957 C305.665039,43.1245117 306.602539,42.6337891 307.803711,42.6337891 C309.371094,42.6337891 310.57959,43.3076172 311.429199,44.6552734 C312.278809,46.0029297 312.703613,48.0610352 312.703613,50.8295898 C312.703613,52.9682617 312.425293,54.9787598 311.868652,56.861084 C311.312012,58.7434082 310.462402,60.5561523 309.319824,62.2993164 L309.319824,62.2993164 L313.428711,62.2993164 C314.541992,60.6586914 315.365967,58.8789062 315.900635,56.9599609 C316.435303,55.0410156 316.702637,52.9389648 316.702637,50.6538086 C316.702637,48.3979492 316.380371,46.4130859 315.73584,44.6992188 C315.091309,42.9853516 314.146484,41.6486816 312.901367,40.689209 C311.65625,39.7297363 310.162109,39.25 308.418945,39.25 C306.910156,39.25 305.599121,39.6271973 304.48584,40.3815918 C303.372559,41.1359863 302.544922,42.2895508 302.00293,43.8422852 L302.00293,43.8422852 L301.805176,43.8422852 C301.277832,42.2456055 300.508789,41.0810547 299.498047,40.3486328 C298.487305,39.6162109 297.190918,39.25 295.608887,39.25 C293.865723,39.25 292.378906,39.7041016 291.148438,40.6123047 C289.917969,41.5205078 288.980469,42.8242188 288.335938,44.5234375 C287.691406,46.2226562 287.369141,48.2294922 287.369141,50.5439453 C287.369141,52.8144531 287.647461,54.9165039 288.204102,56.8500977 C288.760742,58.7836914 289.581055,60.6000977 290.665039,62.2993164 L290.665039,62.2993164 L294.708008,62.2993164 Z M331.380371,62.8486328 C333.63623,62.8486328 335.588135,62.3395996 337.236084,61.3215332 C338.884033,60.3034668 340.140137,58.8972168 341.004395,57.1027832 C341.868652,55.3083496 342.300781,53.2758789 342.300781,51.0053711 C342.300781,49.0571289 341.982178,47.2956543 341.344971,45.7209473 C340.707764,44.1462402 339.784912,42.8278809 338.576416,41.7658691 C337.36792,40.7038574 335.928711,39.9750977 334.258789,39.5795898 L334.258789,39.5795898 L334.258789,37.0966797 C334.258789,36.1445312 334.097656,35.3535156 333.775391,34.7236328 C333.453125,34.09375 333.072266,33.6030273 332.632812,33.2514648 C332.193359,32.8999023 331.592773,32.5043945 330.831055,32.0649414 C330.259766,31.7280273 329.809326,31.4277344 329.479736,31.1640625 C329.150146,30.9003906 328.871826,30.5561523 328.644775,30.1313477 C328.417725,29.706543 328.304199,29.1791992 328.304199,28.5493164 L328.304199,28.5493164 L324.437012,28.5493164 C324.437012,29.6918945 324.579834,30.6074219 324.865479,31.2958984 C325.151123,31.984375 325.495361,32.4970703 325.898193,32.8339844 C326.301025,33.1708984 326.868652,33.5444336 327.601074,33.9545898 C328.187012,34.2915039 328.644775,34.5881348 328.974365,34.8444824 C329.303955,35.1008301 329.5896,35.4487305 329.831299,35.8881836 C330.072998,36.3276367 330.193848,36.8842773 330.193848,37.5581055 L330.193848,37.5581055 L330.193848,39.3598633 C328.157715,39.550293 326.410889,40.1655273 324.953369,41.2055664 C323.49585,42.2456055 322.38623,43.6115723 321.624512,45.3034668 C320.862793,46.9953613 320.481934,48.8959961 320.481934,51.0053711 C320.481934,53.3198242 320.917725,55.3706055 321.789307,57.1577148 C322.660889,58.9448242 323.920654,60.3400879 325.568604,61.3435059 C327.216553,62.3469238 329.153809,62.8486328 331.380371,62.8486328 Z M331.380371,59.4648438 C329.900879,59.4648438 328.644775,59.072998 327.612061,58.2893066 C326.579346,57.5056152 325.806641,56.4692383 325.293945,55.1801758 C324.78125,53.8911133 324.524902,52.4995117 324.524902,51.0053711 C324.524902,49.5112305 324.788574,48.1269531 325.315918,46.8525391 C325.843262,45.578125 326.623291,44.5563965 327.656006,43.7873535 C328.688721,43.0183105 329.930176,42.6337891 331.380371,42.6337891 C332.874512,42.6337891 334.134277,43.0146484 335.159668,43.7763672 C336.185059,44.5380859 336.950439,45.5524902 337.455811,46.8195801 C337.961182,48.0866699 338.213867,49.4819336 338.213867,51.0053711 C338.213867,52.4848633 337.95752,53.8691406 337.444824,55.1582031 C336.932129,56.4472656 336.163086,57.4873047 335.137695,58.2783203 C334.112305,59.0693359 332.859863,59.4648438 331.380371,59.4648438 Z M355.748047,62.8486328 C357.798828,62.8486328 359.567627,62.4055176 361.054443,61.5192871 C362.54126,60.6330566 363.672852,59.4685059 364.449219,58.0256348 C365.225586,56.5827637 365.61377,55.0336914 365.61377,53.378418 C365.61377,51.9135742 365.386719,50.6391602 364.932617,49.5551758 C364.478516,48.4711914 363.929199,47.5703125 363.284668,46.8525391 C362.640137,46.1347656 361.790527,45.3217773 360.73584,44.4135742 C359.959473,43.7397461 359.351562,43.1794434 358.912109,42.732666 C358.472656,42.2858887 358.080811,41.7695312 357.736572,41.1835938 C357.392334,40.5976562 357.168945,39.953125 357.066406,39.25 L357.066406,39.25 L352.913574,39.25 C352.913574,40.2900391 353.107666,41.2202148 353.49585,42.0405273 C353.884033,42.8608398 354.360107,43.5639648 354.924072,44.1499023 C355.488037,44.7358398 356.253418,45.4462891 357.220215,46.28125 C358.187012,47.1015625 358.956055,47.8120117 359.527344,48.4125977 C360.098633,49.0131836 360.582031,49.730957 360.977539,50.565918 C361.373047,51.4008789 361.570801,52.3603516 361.570801,53.4443359 C361.570801,54.5283203 361.354736,55.5280762 360.922607,56.4436035 C360.490479,57.3591309 359.838623,58.0915527 358.967041,58.6408691 C358.095459,59.1901855 357.022461,59.4648438 355.748047,59.4648438 C354.473633,59.4648438 353.400635,59.1865234 352.529053,58.6298828 C351.657471,58.0732422 351.009277,57.3151855 350.584473,56.3557129 C350.159668,55.3962402 349.947266,54.315918 349.947266,53.1147461 C349.947266,52.0307617 350.14502,50.9248047 350.540527,49.796875 L350.540527,49.796875 L346.585449,49.796875 C346.131348,51.0126953 345.904297,52.2724609 345.904297,53.5761719 C345.904297,55.3486328 346.27417,56.9343262 347.013916,58.333252 C347.753662,59.7321777 348.863281,60.8344727 350.342773,61.6401367 C351.822266,62.4458008 353.624023,62.8486328 355.748047,62.8486328 Z" id="გამარჯობა" fill="#414141" fill-rule="nonzero"/>
            </g>
            <g id="identifier" transform="translate(20.000000, 454.000000)" fill="#FFFFFF" font-family="Arial-BoldMT, Arial" font-size="10" font-weight="bold" opacity="0.451421693">
                <text id="ID">
                    <tspan x="0" y="24">0qaA5aw5</tspan>
                </text>
                <text id="BATCH-1">
                    <tspan x="0" y="9">BATCH 1</tspan>
                </text>
            </g>
            <g id="qrcode" opacity="0.448946221" transform="translate(20.000000, 20.000000)" fill="#FFFFFF">
                <rect width="2.5" height="2.5" x="0.0" y="0.0" style="fill:#FFFFFF"/><rect width="2.5" height="2.5" x="2.5" y="0.0" style="fill:#FFFFFF"/><rect width="2.5" height="2.5" x="5.0" y="0.0" style="fill:#FFFFFF"/><rect width="2.5" height="2.5" x="7.5" y="0.0" style="fill:#FFFFFF"/><rect width="2.5" height="2.5" x="10.0" y="0.0" style="fill:#FFFFFF"/><rect width="2.5" height="2.5" x="12.5" y="0.0" style="fill:#FFFFFF"/><rect width="2.5" height="2.5" x="15.0" y="0.0" style="fill:#FFFFFF"/><rect width="2.5" height="2.5" x="27.5" y="0.0" style="fill:#FFFFFF"/><rect width="2.5" height="2.5" x="32.5" y="0.0" style="fill:#FFFFFF"/><rect width="2.5" height="2.5" x="35.0" y="0.0" style="fill:#FFFFFF"/><rect width="2.5" height="2.5" x="37.5" y="0.0" style="fill:#FFFFFF"/><rect width="2.5" height="2.5" x="40.0" y="0.0" style="fill:#FFFFFF"/><rect width="2.5" height="2.5" x="42.5" y="0.0" style="fill:#FFFFFF"/><rect width="2.5" height="2.5" x="45.0" y="0.0" style="fill:#FFFFFF"/><rect width="2.5" height="2.5" x="47.5" y="0.0" style="fill:#FFFFFF"/><rect width="2.5" height="2.5" x="55.0" y="0.0" style="fill:#FFFFFF"/><rect width="2.5" height="2.5" x="60.0" y="0.0" style="fill:#FFFFFF"/><rect width="2.5" height="2.5" x="65.0" y="0.0" style="fill:#FFFFFF"/><rect width="2.5" height="2.5" x="67.5" y="0.0" style="fill:#FFFFFF"/><rect width="2.5" height="2.5" x="70.0" y="0.0" style="fill:#FFFFFF"/><rect width="2.5" height="2.5" x="72.5" y="0.0" style="fill:#FFFFFF"/><rect width="2.5" height="2.5" x="75.0" y="0.0" style="fill:#FFFFFF"/><rect width="2.5" height="2.5" x="77.5" y="0.0" style="fill:#FFFFFF"/><rect width="2.5" height="2.5" x="80.0" y="0.0" style="fill:#FFFFFF"/><rect width="2.5" height="2.5" x="0.0" y="2.5" style="fill:#FFFFFF"/><rect width="2.5" height="2.5" x="15.0" y="2.5" style="fill:#FFFFFF"/><rect width="2.5" height="2.5" x="25.0" y="2.5" style="fill:#FFFFFF"/><rect width="2.5" height="2.5" x="27.5" y="2.5" style="fill:#FFFFFF"/><rect width="2.5" height="2.5" x="30.0" y="2.5" style="fill:#FFFFFF"/><rect width="2.5" height="2.5" x="32.5" y="2.5" style="fill:#FFFFFF"/><rect width="2.5" height="2.5" x="35.0" y="2.5" style="fill:#FFFFFF"/><rect width="2.5" height="2.5" x="37.5" y="2.5" style="fill:#FFFFFF"/><rect width="2.5" height="2.5" x="42.5" y="2.5" style="fill:#FFFFFF"/><rect width="2.5" height="2.5" x="47.5" y="2.5" style="fill:#FFFFFF"/><rect width="2.5" height="2.5" x="50.0" y="2.5" style="fill:#FFFFFF"/><rect width="2.5" height="2.5" x="55.0" y="2.5" style="fill:#FFFFFF"/><rect width="2.5" height="2.5" x="60.0" y="2.5" style="fill:#FFFFFF"/><rect width="2.5" height="2.5" x="65.0" y="2.5" style="fill:#FFFFFF"/><rect width="2.5" height="2.5" x="80.0" y="2.5" style="fill:#FFFFFF"/><rect width="2.5" height="2.5" x="0.0" y="5.0" style="fill:#FFFFFF"/><rect width="2.5" height="2.5" x="5.0" y="5.0" style="fill:#FFFFFF"/><rect width="2.5" height="2.5" x="7.5" y="5.0" style="fill:#FFFFFF"/><rect width="2.5" height="2.5" x="10.0" y="5.0" style="fill:#FFFFFF"/><rect width="2.5" height="2.5" x="15.0" y="5.0" style="fill:#FFFFFF"/><rect width="2.5" height="2.5" x="20.0" y="5.0" style="fill:#FFFFFF"/><rect width="2.5" height="2.5" x="22.5" y="5.0" style="fill:#FFFFFF"/><rect width="2.5" height="2.5" x="32.5" y="5.0" style="fill:#FFFFFF"/><rect width="2.5" height="2.5" x="35.0" y="5.0" style="fill:#FFFFFF"/><rect width="2.5" height="2.5" x="37.5" y="5.0" style="fill:#FFFFFF"/><rect width="2.5" height="2.5" x="45.0" y="5.0" style="fill:#FFFFFF"/><rect width="2.5" height="2.5" x="47.5" y="5.0" style="fill:#FFFFFF"/><rect width="2.5" height="2.5" x="52.5" y="5.0" style="fill:#FFFFFF"/><rect width="2.5" height="2.5" x="55.0" y="5.0" style="fill:#FFFFFF"/><rect width="2.5" height="2.5" x="57.5" y="5.0" style="fill:#FFFFFF"/><rect width="2.5" height="2.5" x="60.0" y="5.0" style="fill:#FFFFFF"/><rect width="2.5" height="2.5" x="65.0" y="5.0" style="fill:#FFFFFF"/><rect width="2.5" height="2.5" x="70.0" y="5.0" style="fill:#FFFFFF"/><rect width="2.5" height="2.5" x="72.5" y="5.0" style="fill:#FFFFFF"/><rect width="2.5" height="2.5" x="75.0" y="5.0" style="fill:#FFFFFF"/><rect width="2.5" height="2.5" x="80.0" y="5.0" style="fill:#FFFFFF"/><rect width="2.5" height="2.5" x="0.0" y="7.5" style="fill:#FFFFFF"/><rect width="2.5" height="2.5" x="5.0" y="7.5" style="fill:#FFFFFF"/><rect width="2.5" height="2.5" x="7.5" y="7.5" style="fill:#FFFFFF"/><rect width="2.5" height="2.5" x="10.0" y="7.5" style="fill:#FFFFFF"/><rect width="2.5" height="2.5" x="15.0" y="7.5" style="fill:#FFFFFF"/><rect width="2.5" height="2.5" x="20.0" y="7.5" style="fill:#FFFFFF"/><rect width="2.5" height="2.5" x="22.5" y="7.5" style="fill:#FFFFFF"/><rect width="2.5" height="2.5" x="25.0" y="7.5" style="fill:#FFFFFF"/><rect width="2.5" height="2.5" x="30.0" y="7.5" style="fill:#FFFFFF"/><rect width="2.5" height="2.5" x="32.5" y="7.5" style="fill:#FFFFFF"/><rect width="2.5" height="2.5" x="37.5" y="7.5" style="fill:#FFFFFF"/><rect width="2.5" height="2.5" x="52.5" y="7.5" style="fill:#FFFFFF"/><rect width="2.5" height="2.5" x="57.5" y="7.5" style="fill:#FFFFFF"/><rect width="2.5" height="2.5" x="60.0" y="7.5" style="fill:#FFFFFF"/><rect width="2.5" height="2.5" x="65.0" y="7.5" style="fill:#FFFFFF"/><rect width="2.5" height="2.5" x="70.0" y="7.5" style="fill:#FFFFFF"/><rect width="2.5" height="2.5" x="72.5" y="7.5" style="fill:#FFFFFF"/><rect width="2.5" height="2.5" x="75.0" y="7.5" style="fill:#FFFFFF"/><rect width="2.5" height="2.5" x="80.0" y="7.5" style="fill:#FFFFFF"/><rect width="2.5" height="2.5" x="0.0" y="10.0" style="fill:#FFFFFF"/><rect width="2.5" height="2.5" x="5.0" y="10.0" style="fill:#FFFFFF"/><rect width="2.5" height="2.5" x="7.5" y="10.0" style="fill:#FFFFFF"/><rect width="2.5" height="2.5" x="10.0" y="10.0" style="fill:#FFFFFF"/><rect width="2.5" height="2.5" x="15.0" y="10.0" style="fill:#FFFFFF"/><rect width="2.5" height="2.5" x="22.5" y="10.0" style="fill:#FFFFFF"/><rect width="2.5" height="2.5" x="30.0" y="10.0" style="fill:#FFFFFF"/><rect width="2.5" height="2.5" x="42.5" y="10.0" style="fill:#FFFFFF"/><rect width="2.5" height="2.5" x="52.5" y="10.0" style="fill:#FFFFFF"/><rect width="2.5" height="2.5" x="57.5" y="10.0" style="fill:#FFFFFF"/><rect width="2.5" height="2.5" x="65.0" y="10.0" style="fill:#FFFFFF"/><rect width="2.5" height="2.5" x="70.0" y="10.0" style="fill:#FFFFFF"/><rect width="2.5" height="2.5" x="72.5" y="10.0" style="fill:#FFFFFF"/><rect width="2.5" height="2.5" x="75.0" y="10.0" style="fill:#FFFFFF"/><rect width="2.5" height="2.5" x="80.0" y="10.0" style="fill:#FFFFFF"/><rect width="2.5" height="2.5" x="0.0" y="12.5" style="fill:#FFFFFF"/><rect width="2.5" height="2.5" x="15.0" y="12.5" style="fill:#FFFFFF"/><rect width="2.5" height="2.5" x="25.0" y="12.5" style="fill:#FFFFFF"/><rect width="2.5" height="2.5" x="30.0" y="12.5" style="fill:#FFFFFF"/><rect width="2.5" height="2.5" x="37.5" y="12.5" style="fill:#FFFFFF"/><rect width="2.5" height="2.5" x="40.0" y="12.5" style="fill:#FFFFFF"/><rect width="2.5" height="2.5" x="45.0" y="12.5" style="fill:#FFFFFF"/><rect width="2.5" height="2.5" x="47.5" y="12.5" style="fill:#FFFFFF"/><rect width="2.5" height="2.5" x="55.0" y="12.5" style="fill:#FFFFFF"/><rect width="2.5" height="2.5" x="60.0" y="12.5" style="fill:#FFFFFF"/><rect width="2.5" height="2.5" x="65.0" y="12.5" style="fill:#FFFFFF"/><rect width="2.5" height="2.5" x="80.0" y="12.5" style="fill:#FFFFFF"/><rect width="2.5" height="2.5" x="0.0" y="15.0" style="fill:#FFFFFF"/><rect width="2.5" height="2.5" x="2.5" y="15.0" style="fill:#FFFFFF"/><rect width="2.5" height="2.5" x="5.0" y="15.0" style="fill:#FFFFFF"/><rect width="2.5" height="2.5" x="7.5" y="15.0" style="fill:#FFFFFF"/><rect width="2.5" height="2.5" x="10.0" y="15.0" style="fill:#FFFFFF"/><rect width="2.5" height="2.5" x="12.5" y="15.0" style="fill:#FFFFFF"/><rect width="2.5" height="2.5" x="15.0" y="15.0" style="fill:#FFFFFF"/><rect width="2.5" height="2.5" x="20.0" y="15.0" style="fill:#FFFFFF"/><rect width="2.5" height="2.5" x="25.0" y="15.0" style="fill:#FFFFFF"/><rect width="2.5" height="2.5" x="30.0" y="15.0" style="fill:#FFFFFF"/><rect width="2.5" height="2.5" x="35.0" y="15.0" style="fill:#FFFFFF"/><rect width="2.5" height="2.5" x="40.0" y="15.0" style="fill:#FFFFFF"/><rect width="2.5" height="2.5" x="45.0" y="15.0" style="fill:#FFFFFF"/><rect width="2.5" height="2.5" x="50.0" y="15.0" style="fill:#FFFFFF"/><rect width="2.5" height="2.5" x="55.0" y="15.0" style="fill:#FFFFFF"/><rect width="2.5" height="2.5" x="60.0" y="15.0" style="fill:#FFFFFF"/><rect width="2.5" height="2.5" x="65.0" y="15.0" style="fill:#FFFFFF"/><rect width="2.5" height="2.5" x="67.5" y="15.0" style="fill:#FFFFFF"/><rect width="2.5" height="2.5" x="70.0" y="15.0" style="fill:#FFFFFF"/><rect width="2.5" height="2.5" x="72.5" y="15.0" style="fill:#FFFFFF"/><rect width="2.5" height="2.5" x="75.0" y="15.0" style="fill:#FFFFFF"/><rect width="2.5" height="2.5" x="77.5" y="15.0" style="fill:#FFFFFF"/><rect width="2.5" height="2.5" x="80.0" y="15.0" style="fill:#FFFFFF"/><rect width="2.5" height="2.5" x="27.5" y="17.5" style="fill:#FFFFFF"/><rect width="2.5" height="2.5" x="30.0" y="17.5" style="fill:#FFFFFF"/><rect width="2.5" height="2.5" x="35.0" y="17.5" style="fill:#FFFFFF"/><rect width="2.5" height="2.5" x="37.5" y="17.5" style="fill:#FFFFFF"/><rect width="2.5" height="2.5" x="42.5" y="17.5" style="fill:#FFFFFF"/><rect width="2.5" height="2.5" x="45.0" y="17.5" style="fill:#FFFFFF"/><rect width="2.5" height="2.5" x="57.5" y="17.5" style="fill:#FFFFFF"/><rect width="2.5" height="2.5" x="7.5" y="20.0" style="fill:#FFFFFF"/><rect width="2.5" height="2.5" x="10.0" y="20.0" style="fill:#FFFFFF"/><rect width="2.5" height="2.5" x="15.0" y="20.0" style="fill:#FFFFFF"/><rect width="2.5" height="2.5" x="17.5" y="20.0" style="fill:#FFFFFF"/><rect width="2.5" height="2.5" x="30.0" y="20.0" style="fill:#FFFFFF"/><rect width="2.5" height="2.5" x="32.5" y="20.0" style="fill:#FFFFFF"/><rect width="2.5" height="2.5" x="40.0" y="20.0" style="fill:#FFFFFF"/><rect width="2.5" height="2.5" x="50.0" y="20.0" style="fill:#FFFFFF"/><rect width="2.5" height="2.5" x="57.5" y="20.0" style="fill:#FFFFFF"/><rect width="2.5" height="2.5" x="72.5" y="20.0" style="fill:#FFFFFF"/><rect width="2.5" height="2.5" x="75.0" y="20.0" style="fill:#FFFFFF"/><rect width="2.5" height="2.5" x="0.0" y="22.5" style="fill:#FFFFFF"/><rect width="2.5" height="2.5" x="5.0" y="22.5" style="fill:#FFFFFF"/><rect width="2.5" height="2.5" x="7.5" y="22.5" style="fill:#FFFFFF"/><rect width="2.5" height="2.5" x="10.0" y="22.5" style="fill:#FFFFFF"/><rect width="2.5" height="2.5" x="12.5" y="22.5" style="fill:#FFFFFF"/><rect width="2.5" height="2.5" x="20.0" y="22.5" style="fill:#FFFFFF"/><rect width="2.5" height="2.5" x="22.5" y="22.5" style="fill:#FFFFFF"/><rect width="2.5" height="2.5" x="25.0" y="22.5" style="fill:#FFFFFF"/><rect width="2.5" height="2.5" x="27.5" y="22.5" style="fill:#FFFFFF"/><rect width="2.5" height="2.5" x="30.0" y="22.5" style="fill:#FFFFFF"/><rect width="2.5" height="2.5" x="32.5" y="22.5" style="fill:#FFFFFF"/><rect width="2.5" height="2.5" x="40.0" y="22.5" style="fill:#FFFFFF"/><rect width="2.5" height="2.5" x="42.5" y="22.5" style="fill:#FFFFFF"/><rect width="2.5" height="2.5" x="57.5" y="22.5" style="fill:#FFFFFF"/><rect width="2.5" height="2.5" x="60.0" y="22.5" style="fill:#FFFFFF"/><rect width="2.5" height="2.5" x="62.5" y="22.5" style="fill:#FFFFFF"/><rect width="2.5" height="2.5" x="67.5" y="22.5" style="fill:#FFFFFF"/><rect width="2.5" height="2.5" x="70.0" y="22.5" style="fill:#FFFFFF"/><rect width="2.5" height="2.5" x="75.0" y="22.5" style="fill:#FFFFFF"/><rect width="2.5" height="2.5" x="77.5" y="22.5" style="fill:#FFFFFF"/><rect width="2.5" height="2.5" x="10.0" y="25.0" style="fill:#FFFFFF"/><rect width="2.5" height="2.5" x="12.5" y="25.0" style="fill:#FFFFFF"/><rect width="2.5" height="2.5" x="15.0" y="25.0" style="fill:#FFFFFF"/><rect width="2.5" height="2.5" x="20.0" y="25.0" style="fill:#FFFFFF"/><rect width="2.5" height="2.5" x="25.0" y="25.0" style="fill:#FFFFFF"/><rect width="2.5" height="2.5" x="30.0" y="25.0" style="fill:#FFFFFF"/><rect width="2.5" height="2.5" x="32.5" y="25.0" style="fill:#FFFFFF"/><rect width="2.5" height="2.5" x="37.5" y="25.0" style="fill:#FFFFFF"/><rect width="2.5" height="2.5" x="47.5" y="25.0" style="fill:#FFFFFF"/><rect width="2.5" height="2.5" x="52.5" y="25.0" style="fill:#FFFFFF"/><rect width="2.5" height="2.5" x="57.5" y="25.0" style="fill:#FFFFFF"/><rect width="2.5" height="2.5" x="62.5" y="25.0" style="fill:#FFFFFF"/><rect width="2.5" height="2.5" x="67.5" y="25.0" style="fill:#FFFFFF"/><rect width="2.5" height="2.5" x="72.5" y="25.0" style="fill:#FFFFFF"/><rect width="2.5" height="2.5" x="77.5" y="25.0" style="fill:#FFFFFF"/><rect width="2.5" height="2.5" x="80.0" y="25.0" style="fill:#FFFFFF"/><rect width="2.5" height="2.5" x="2.5" y="27.5" style="fill:#FFFFFF"/><rect width="2.5" height="2.5" x="5.0" y="27.5" style="fill:#FFFFFF"/><rect width="2.5" height="2.5" x="7.5" y="27.5" style="fill:#FFFFFF"/><rect width="2.5" height="2.5" x="10.0" y="27.5" style="fill:#FFFFFF"/><rect width="2.5" height="2.5" x="17.5" y="27.5" style="fill:#FFFFFF"/><rect width="2.5" height="2.5" x="20.0" y="27.5" style="fill:#FFFFFF"/><rect width="2.5" height="2.5" x="27.5" y="27.5" style="fill:#FFFFFF"/><rect width="2.5" height="2.5" x="30.0" y="27.5" style="fill:#FFFFFF"/><rect width="2.5" height="2.5" x="32.5" y="27.5" style="fill:#FFFFFF"/><rect width="2.5" height="2.5" x="35.0" y="27.5" style="fill:#FFFFFF"/><rect width="2.5" height="2.5" x="40.0" y="27.5" style="fill:#FFFFFF"/><rect width="2.5" height="2.5" x="45.0" y="27.5" style="fill:#FFFFFF"/><rect width="2.5" height="2.5" x="47.5" y="27.5" style="fill:#FFFFFF"/><rect width="2.5" height="2.5" x="65.0" y="27.5" style="fill:#FFFFFF"/><rect width="2.5" height="2.5" x="67.5" y="27.5" style="fill:#FFFFFF"/><rect width="2.5" height="2.5" x="70.0" y="27.5" style="fill:#FFFFFF"/><rect width="2.5" height="2.5" x="75.0" y="27.5" style="fill:#FFFFFF"/><rect width="2.5" height="2.5" x="77.5" y="27.5" style="fill:#FFFFFF"/><rect width="2.5" height="2.5" x="80.0" y="27.5" style="fill:#FFFFFF"/><rect width="2.5" height="2.5" x="0.0" y="30.0" style="fill:#FFFFFF"/><rect width="2.5" height="2.5" x="2.5" y="30.0" style="fill:#FFFFFF"/><rect width="2.5" height="2.5" x="5.0" y="30.0" style="fill:#FFFFFF"/><rect width="2.5" height="2.5" x="10.0" y="30.0" style="fill:#FFFFFF"/><rect width="2.5" height="2.5" x="15.0" y="30.0" style="fill:#FFFFFF"/><rect width="2.5" height="2.5" x="17.5" y="30.0" style="fill:#FFFFFF"/><rect width="2.5" height="2.5" x="30.0" y="30.0" style="fill:#FFFFFF"/><rect width="2.5" height="2.5" x="32.5" y="30.0" style="fill:#FFFFFF"/><rect width="2.5" height="2.5" x="35.0" y="30.0" style="fill:#FFFFFF"/><rect width="2.5" height="2.5" x="42.5" y="30.0" style="fill:#FFFFFF"/><rect width="2.5" height="2.5" x="47.5" y="30.0" style="fill:#FFFFFF"/><rect width="2.5" height="2.5" x="50.0" y="30.0" style="fill:#FFFFFF"/><rect width="2.5" height="2.5" x="52.5" y="30.0" style="fill:#FFFFFF"/><rect width="2.5" height="2.5" x="55.0" y="30.0" style="fill:#FFFFFF"/><rect width="2.5" height="2.5" x="60.0" y="30.0" style="fill:#FFFFFF"/><rect width="2.5" height="2.5" x="65.0" y="30.0" style="fill:#FFFFFF"/><rect width="2.5" height="2.5" x="80.0" y="30.0" style="fill:#FFFFFF"/><rect width="2.5" height="2.5" x="2.5" y="32.5" style="fill:#FFFFFF"/><rect width="2.5" height="2.5" x="7.5" y="32.5" style="fill:#FFFFFF"/><rect width="2.5" height="2.5" x="10.0" y="32.5" style="fill:#FFFFFF"/><rect width="2.5" height="2.5" x="12.5" y="32.5" style="fill:#FFFFFF"/><rect width="2.5" height="2.5" x="17.5" y="32.5" style="fill:#FFFFFF"/><rect width="2.5" height="2.5" x="20.0" y="32.5" style="fill:#FFFFFF"/><rect width="2.5" height="2.5" x="25.0" y="32.5" style="fill:#FFFFFF"/><rect width="2.5" height="2.5" x="30.0" y="32.5" style="fill:#FFFFFF"/><rect width="2.5" height="2.5" x="35.0" y="32.5" style="fill:#FFFFFF"/><rect width="2.5" height="2.5" x="40.0" y="32.5" style="fill:#FFFFFF"/><rect width="2.5" height="2.5" x="50.0" y="32.5" style="fill:#FFFFFF"/><rect width="2.5" height="2.5" x="52.5" y="32.5" style="fill:#FFFFFF"/><rect width="2.5" height="2.5" x="55.0" y="32.5" style="fill:#FFFFFF"/><rect width="2.5" height="2.5" x="57.5" y="32.5" style="fill:#FFFFFF"/><rect width="2.5" height="2.5" x="62.5" y="32.5" style="fill:#FFFFFF"/><rect width="2.5" height="2.5" x="67.5" y="32.5" style="fill:#FFFFFF"/><rect width="2.5" height="2.5" x="75.0" y="32.5" style="fill:#FFFFFF"/><rect width="2.5" height="2.5" x="77.5" y="32.5" style="fill:#FFFFFF"/><rect width="2.5" height="2.5" x="5.0" y="35.0" style="fill:#FFFFFF"/><rect width="2.5" height="2.5" x="7.5" y="35.0" style="fill:#FFFFFF"/><rect width="2.5" height="2.5" x="15.0" y="35.0" style="fill:#FFFFFF"/><rect width="2.5" height="2.5" x="20.0" y="35.0" style="fill:#FFFFFF"/><rect width="2.5" height="2.5" x="25.0" y="35.0" style="fill:#FFFFFF"/><rect width="2.5" height="2.5" x="27.5" y="35.0" style="fill:#FFFFFF"/><rect width="2.5" height="2.5" x="35.0" y="35.0" style="fill:#FFFFFF"/><rect width="2.5" height="2.5" x="37.5" y="35.0" style="fill:#FFFFFF"/><rect width="2.5" height="2.5" x="40.0" y="35.0" style="fill:#FFFFFF"/><rect width="2.5" height="2.5" x="45.0" y="35.0" style="fill:#FFFFFF"/><rect width="2.5" height="2.5" x="50.0" y="35.0" style="fill:#FFFFFF"/><rect width="2.5" height="2.5" x="70.0" y="35.0" style="fill:#FFFFFF"/><rect width="2.5" height="2.5" x="72.5" y="35.0" style="fill:#FFFFFF"/><rect width="2.5" height="2.5" x="75.0" y="35.0" style="fill:#FFFFFF"/><rect width="2.5" height="2.5" x="0.0" y="37.5" style="fill:#FFFFFF"/><rect width="2.5" height="2.5" x="2.5" y="37.5" style="fill:#FFFFFF"/><rect width="2.5" height="2.5" x="12.5" y="37.5" style="fill:#FFFFFF"/><rect width="2.5" height="2.5" x="20.0" y="37.5" style="fill:#FFFFFF"/><rect width="2.5" height="2.5" x="32.5" y="37.5" style="fill:#FFFFFF"/><rect width="2.5" height="2.5" x="37.5" y="37.5" style="fill:#FFFFFF"/><rect width="2.5" height="2.5" x="40.0" y="37.5" style="fill:#FFFFFF"/><rect width="2.5" height="2.5" x="42.5" y="37.5" style="fill:#FFFFFF"/><rect width="2.5" height="2.5" x="62.5" y="37.5" style="fill:#FFFFFF"/><rect width="2.5" height="2.5" x="70.0" y="37.5" style="fill:#FFFFFF"/><rect width="2.5" height="2.5" x="75.0" y="37.5" style="fill:#FFFFFF"/><rect width="2.5" height="2.5" x="77.5" y="37.5" style="fill:#FFFFFF"/><rect width="2.5" height="2.5" x="7.5" y="40.0" style="fill:#FFFFFF"/><rect width="2.5" height="2.5" x="10.0" y="40.0" style="fill:#FFFFFF"/><rect width="2.5" height="2.5" x="12.5" y="40.0" style="fill:#FFFFFF"/><rect width="2.5" height="2.5" x="15.0" y="40.0" style="fill:#FFFFFF"/><rect width="2.5" height="2.5" x="17.5" y="40.0" style="fill:#FFFFFF"/><rect width="2.5" height="2.5" x="27.5" y="40.0" style="fill:#FFFFFF"/><rect width="2.5" height="2.5" x="30.0" y="40.0" style="fill:#FFFFFF"/><rect width="2.5" height="2.5" x="35.0" y="40.0" style="fill:#FFFFFF"/><rect width="2.5" height="2.5" x="42.5" y="40.0" style="fill:#FFFFFF"/><rect width="2.5" height="2.5" x="47.5" y="40.0" style="fill:#FFFFFF"/><rect width="2.5" height="2.5" x="50.0" y="40.0" style="fill:#FFFFFF"/><rect width="2.5" height="2.5" x="57.5" y="40.0" style="fill:#FFFFFF"/><rect width="2.5" height="2.5" x="62.5" y="40.0" style="fill:#FFFFFF"/><rect width="2.5" height="2.5" x="65.0" y="40.0" style="fill:#FFFFFF"/><rect width="2.5" height="2.5" x="67.5" y="40.0" style="fill:#FFFFFF"/><rect width="2.5" height="2.5" x="70.0" y="40.0" style="fill:#FFFFFF"/><rect width="2.5" height="2.5" x="77.5" y="40.0" style="fill:#FFFFFF"/><rect width="2.5" height="2.5" x="0.0" y="42.5" style="fill:#FFFFFF"/><rect width="2.5" height="2.5" x="5.0" y="42.5" style="fill:#FFFFFF"/><rect width="2.5" height="2.5" x="20.0" y="42.5" style="fill:#FFFFFF"/><rect width="2.5" height="2.5" x="22.5" y="42.5" style="fill:#FFFFFF"/><rect width="2.5" height="2.5" x="25.0" y="42.5" style="fill:#FFFFFF"/><rect width="2.5" height="2.5" x="27.5" y="42.5" style="fill:#FFFFFF"/><rect width="2.5" height="2.5" x="30.0" y="42.5" style="fill:#FFFFFF"/><rect width="2.5" height="2.5" x="35.0" y="42.5" style="fill:#FFFFFF"/><rect width="2.5" height="2.5" x="37.5" y="42.5" style="fill:#FFFFFF"/><rect width="2.5" height="2.5" x="47.5" y="42.5" style="fill:#FFFFFF"/><rect width="2.5" height="2.5" x="50.0" y="42.5" style="fill:#FFFFFF"/><rect width="2.5" height="2.5" x="52.5" y="42.5" style="fill:#FFFFFF"/><rect width="2.5" height="2.5" x="55.0" y="42.5" style="fill:#FFFFFF"/><rect width="2.5" height="2.5" x="60.0" y="42.5" style="fill:#FFFFFF"/><rect width="2.5" height="2.5" x="62.5" y="42.5" style="fill:#FFFFFF"/><rect width="2.5" height="2.5" x="65.0" y="42.5" style="fill:#FFFFFF"/><rect width="2.5" height="2.5" x="67.5" y="42.5" style="fill:#FFFFFF"/><rect width="2.5" height="2.5" x="70.0" y="42.5" style="fill:#FFFFFF"/><rect width="2.5" height="2.5" x="72.5" y="42.5" style="fill:#FFFFFF"/><rect width="2.5" height="2.5" x="0.0" y="45.0" style="fill:#FFFFFF"/><rect width="2.5" height="2.5" x="2.5" y="45.0" style="fill:#FFFFFF"/><rect width="2.5" height="2.5" x="7.5" y="45.0" style="fill:#FFFFFF"/><rect width="2.5" height="2.5" x="10.0" y="45.0" style="fill:#FFFFFF"/><rect width="2.5" height="2.5" x="15.0" y="45.0" style="fill:#FFFFFF"/><rect width="2.5" height="2.5" x="17.5" y="45.0" style="fill:#FFFFFF"/><rect width="2.5" height="2.5" x="20.0" y="45.0" style="fill:#FFFFFF"/><rect width="2.5" height="2.5" x="30.0" y="45.0" style="fill:#FFFFFF"/><rect width="2.5" height="2.5" x="32.5" y="45.0" style="fill:#FFFFFF"/><rect width="2.5" height="2.5" x="35.0" y="45.0" style="fill:#FFFFFF"/><rect width="2.5" height="2.5" x="37.5" y="45.0" style="fill:#FFFFFF"/><rect width="2.5" height="2.5" x="47.5" y="45.0" style="fill:#FFFFFF"/><rect width="2.5" height="2.5" x="52.5" y="45.0" style="fill:#FFFFFF"/><rect width="2.5" height="2.5" x="57.5" y="45.0" style="fill:#FFFFFF"/><rect width="2.5" height="2.5" x="65.0" y="45.0" style="fill:#FFFFFF"/><rect width="2.5" height="2.5" x="67.5" y="45.0" style="fill:#FFFFFF"/><rect width="2.5" height="2.5" x="72.5" y="45.0" style="fill:#FFFFFF"/><rect width="2.5" height="2.5" x="75.0" y="45.0" style="fill:#FFFFFF"/><rect width="2.5" height="2.5" x="80.0" y="45.0" style="fill:#FFFFFF"/><rect width="2.5" height="2.5" x="0.0" y="47.5" style="fill:#FFFFFF"/><rect width="2.5" height="2.5" x="10.0" y="47.5" style="fill:#FFFFFF"/><rect width="2.5" height="2.5" x="20.0" y="47.5" style="fill:#FFFFFF"/><rect width="2.5" height="2.5" x="22.5" y="47.5" style="fill:#FFFFFF"/><rect width="2.5" height="2.5" x="27.5" y="47.5" style="fill:#FFFFFF"/><rect width="2.5" height="2.5" x="30.0" y="47.5" style="fill:#FFFFFF"/><rect width="2.5" height="2.5" x="57.5" y="47.5" style="fill:#FFFFFF"/><rect width="2.5" height="2.5" x="60.0" y="47.5" style="fill:#FFFFFF"/><rect width="2.5" height="2.5" x="67.5" y="47.5" style="fill:#FFFFFF"/><rect width="2.5" height="2.5" x="70.0" y="47.5" style="fill:#FFFFFF"/><rect width="2.5" height="2.5" x="72.5" y="47.5" style="fill:#FFFFFF"/><rect width="2.5" height="2.5" x="75.0" y="47.5" style="fill:#FFFFFF"/><rect width="2.5" height="2.5" x="80.0" y="47.5" style="fill:#FFFFFF"/><rect width="2.5" height="2.5" x="0.0" y="50.0" style="fill:#FFFFFF"/><rect width="2.5" height="2.5" x="2.5" y="50.0" style="fill:#FFFFFF"/><rect width="2.5" height="2.5" x="7.5" y="50.0" style="fill:#FFFFFF"/><rect width="2.5" height="2.5" x="10.0" y="50.0" style="fill:#FFFFFF"/><rect width="2.5" height="2.5" x="15.0" y="50.0" style="fill:#FFFFFF"/><rect width="2.5" height="2.5" x="17.5" y="50.0" style="fill:#FFFFFF"/><rect width="2.5" height="2.5" x="20.0" y="50.0" style="fill:#FFFFFF"/><rect width="2.5" height="2.5" x="22.5" y="50.0" style="fill:#FFFFFF"/><rect width="2.5" height="2.5" x="30.0" y="50.0" style="fill:#FFFFFF"/><rect width="2.5" height="2.5" x="32.5" y="50.0" style="fill:#FFFFFF"/><rect width="2.5" height="2.5" x="37.5" y="50.0" style="fill:#FFFFFF"/><rect width="2.5" height="2.5" x="42.5" y="50.0" style="fill:#FFFFFF"/><rect width="2.5" height="2.5" x="60.0" y="50.0" style="fill:#FFFFFF"/><rect width="2.5" height="2.5" x="62.5" y="50.0" style="fill:#FFFFFF"/><rect width="2.5" height="2.5" x="67.5" y="50.0" style="fill:#FFFFFF"/><rect width="2.5" height="2.5" x="72.5" y="50.0" style="fill:#FFFFFF"/><rect width="2.5" height="2.5" x="77.5" y="50.0" style="fill:#FFFFFF"/><rect width="2.5" height="2.5" x="0.0" y="52.5" style="fill:#FFFFFF"/><rect width="2.5" height="2.5" x="2.5" y="52.5" style="fill:#FFFFFF"/><rect width="2.5" height="2.5" x="10.0" y="52.5" style="fill:#FFFFFF"/><rect width="2.5" height="2.5" x="17.5" y="52.5" style="fill:#FFFFFF"/><rect width="2.5" height="2.5" x="22.5" y="52.5" style="fill:#FFFFFF"/><rect width="2.5" height="2.5" x="25.0" y="52.5" style="fill:#FFFFFF"/><rect width="2.5" height="2.5" x="32.5" y="52.5" style="fill:#FFFFFF"/><rect width="2.5" height="2.5" x="35.0" y="52.5" style="fill:#FFFFFF"/><rect width="2.5" height="2.5" x="40.0" y="52.5" style="fill:#FFFFFF"/><rect width="2.5" height="2.5" x="45.0" y="52.5" style="fill:#FFFFFF"/><rect width="2.5" height="2.5" x="50.0" y="52.5" style="fill:#FFFFFF"/><rect width="2.5" height="2.5" x="55.0" y="52.5" style="fill:#FFFFFF"/><rect width="2.5" height="2.5" x="60.0" y="52.5" style="fill:#FFFFFF"/><rect width="2.5" height="2.5" x="62.5" y="52.5" style="fill:#FFFFFF"/><rect width="2.5" height="2.5" x="70.0" y="52.5" style="fill:#FFFFFF"/><rect width="2.5" height="2.5" x="72.5" y="52.5" style="fill:#FFFFFF"/><rect width="2.5" height="2.5" x="75.0" y="52.5" style="fill:#FFFFFF"/><rect width="2.5" height="2.5" x="0.0" y="55.0" style="fill:#FFFFFF"/><rect width="2.5" height="2.5" x="7.5" y="55.0" style="fill:#FFFFFF"/><rect width="2.5" height="2.5" x="15.0" y="55.0" style="fill:#FFFFFF"/><rect width="2.5" height="2.5" x="20.0" y="55.0" style="fill:#FFFFFF"/><rect width="2.5" height="2.5" x="27.5" y="55.0" style="fill:#FFFFFF"/><rect width="2.5" height="2.5" x="30.0" y="55.0" style="fill:#FFFFFF"/><rect width="2.5" height="2.5" x="32.5" y="55.0" style="fill:#FFFFFF"/><rect width="2.5" height="2.5" x="35.0" y="55.0" style="fill:#FFFFFF"/><rect width="2.5" height="2.5" x="37.5" y="55.0" style="fill:#FFFFFF"/><rect width="2.5" height="2.5" x="42.5" y="55.0" style="fill:#FFFFFF"/><rect width="2.5" height="2.5" x="52.5" y="55.0" style="fill:#FFFFFF"/><rect width="2.5" height="2.5" x="57.5" y="55.0" style="fill:#FFFFFF"/><rect width="2.5" height="2.5" x="65.0" y="55.0" style="fill:#FFFFFF"/><rect width="2.5" height="2.5" x="70.0" y="55.0" style="fill:#FFFFFF"/><rect width="2.5" height="2.5" x="77.5" y="55.0" style="fill:#FFFFFF"/><rect width="2.5" height="2.5" x="80.0" y="55.0" style="fill:#FFFFFF"/><rect width="2.5" height="2.5" x="0.0" y="57.5" style="fill:#FFFFFF"/><rect width="2.5" height="2.5" x="7.5" y="57.5" style="fill:#FFFFFF"/><rect width="2.5" height="2.5" x="20.0" y="57.5" style="fill:#FFFFFF"/><rect width="2.5" height="2.5" x="25.0" y="57.5" style="fill:#FFFFFF"/><rect width="2.5" height="2.5" x="30.0" y="57.5" style="fill:#FFFFFF"/><rect width="2.5" height="2.5" x="35.0" y="57.5" style="fill:#FFFFFF"/><rect width="2.5" height="2.5" x="37.5" y="57.5" style="fill:#FFFFFF"/><rect width="2.5" height="2.5" x="40.0" y="57.5" style="fill:#FFFFFF"/><rect width="2.5" height="2.5" x="47.5" y="57.5" style="fill:#FFFFFF"/><rect width="2.5" height="2.5" x="57.5" y="57.5" style="fill:#FFFFFF"/><rect width="2.5" height="2.5" x="67.5" y="57.5" style="fill:#FFFFFF"/><rect width="2.5" height="2.5" x="70.0" y="57.5" style="fill:#FFFFFF"/><rect width="2.5" height="2.5" x="75.0" y="57.5" style="fill:#FFFFFF"/><rect width="2.5" height="2.5" x="77.5" y="57.5" style="fill:#FFFFFF"/><rect width="2.5" height="2.5" x="80.0" y="57.5" style="fill:#FFFFFF"/><rect width="2.5" height="2.5" x="0.0" y="60.0" style="fill:#FFFFFF"/><rect width="2.5" height="2.5" x="2.5" y="60.0" style="fill:#FFFFFF"/><rect width="2.5" height="2.5" x="5.0" y="60.0" style="fill:#FFFFFF"/><rect width="2.5" height="2.5" x="10.0" y="60.0" style="fill:#FFFFFF"/><rect width="2.5" height="2.5" x="12.5" y="60.0" style="fill:#FFFFFF"/><rect width="2.5" height="2.5" x="15.0" y="60.0" style="fill:#FFFFFF"/><rect width="2.5" height="2.5" x="17.5" y="60.0" style="fill:#FFFFFF"/><rect width="2.5" height="2.5" x="20.0" y="60.0" style="fill:#FFFFFF"/><rect width="2.5" height="2.5" x="25.0" y="60.0" style="fill:#FFFFFF"/><rect width="2.5" height="2.5" x="30.0" y="60.0" style="fill:#FFFFFF"/><rect width="2.5" height="2.5" x="32.5" y="60.0" style="fill:#FFFFFF"/><rect width="2.5" height="2.5" x="35.0" y="60.0" style="fill:#FFFFFF"/><rect width="2.5" height="2.5" x="40.0" y="60.0" style="fill:#FFFFFF"/><rect width="2.5" height="2.5" x="42.5" y="60.0" style="fill:#FFFFFF"/><rect width="2.5" height="2.5" x="47.5" y="60.0" style="fill:#FFFFFF"/><rect width="2.5" height="2.5" x="50.0" y="60.0" style="fill:#FFFFFF"/><rect width="2.5" height="2.5" x="57.5" y="60.0" style="fill:#FFFFFF"/><rect width="2.5" height="2.5" x="60.0" y="60.0" style="fill:#FFFFFF"/><rect width="2.5" height="2.5" x="62.5" y="60.0" style="fill:#FFFFFF"/><rect width="2.5" height="2.5" x="65.0" y="60.0" style="fill:#FFFFFF"/><rect width="2.5" height="2.5" x="67.5" y="60.0" style="fill:#FFFFFF"/><rect width="2.5" height="2.5" x="70.0" y="60.0" style="fill:#FFFFFF"/><rect width="2.5" height="2.5" x="20.0" y="62.5" style="fill:#FFFFFF"/><rect width="2.5" height="2.5" x="25.0" y="62.5" style="fill:#FFFFFF"/><rect width="2.5" height="2.5" x="35.0" y="62.5" style="fill:#FFFFFF"/><rect width="2.5" height="2.5" x="37.5" y="62.5" style="fill:#FFFFFF"/><rect width="2.5" height="2.5" x="40.0" y="62.5" style="fill:#FFFFFF"/><rect width="2.5" height="2.5" x="42.5" y="62.5" style="fill:#FFFFFF"/><rect width="2.5" height="2.5" x="45.0" y="62.5" style="fill:#FFFFFF"/><rect width="2.5" height="2.5" x="47.5" y="62.5" style="fill:#FFFFFF"/><rect width="2.5" height="2.5" x="52.5" y="62.5" style="fill:#FFFFFF"/><rect width="2.5" height="2.5" x="60.0" y="62.5" style="fill:#FFFFFF"/><rect width="2.5" height="2.5" x="70.0" y="62.5" style="fill:#FFFFFF"/><rect width="2.5" height="2.5" x="72.5" y="62.5" style="fill:#FFFFFF"/><rect width="2.5" height="2.5" x="75.0" y="62.5" style="fill:#FFFFFF"/><rect width="2.5" height="2.5" x="0.0" y="65.0" style="fill:#FFFFFF"/><rect width="2.5" height="2.5" x="2.5" y="65.0" style="fill:#FFFFFF"/><rect width="2.5" height="2.5" x="5.0" y="65.0" style="fill:#FFFFFF"/><rect width="2.5" height="2.5" x="7.5" y="65.0" style="fill:#FFFFFF"/><rect width="2.5" height="2.5" x="10.0" y="65.0" style="fill:#FFFFFF"/><rect width="2.5" height="2.5" x="12.5" y="65.0" style="fill:#FFFFFF"/><rect width="2.5" height="2.5" x="15.0" y="65.0" style="fill:#FFFFFF"/><rect width="2.5" height="2.5" x="20.0" y="65.0" style="fill:#FFFFFF"/><rect width="2.5" height="2.5" x="25.0" y="65.0" style="fill:#FFFFFF"/><rect width="2.5" height="2.5" x="27.5" y="65.0" style="fill:#FFFFFF"/><rect width="2.5" height="2.5" x="30.0" y="65.0" style="fill:#FFFFFF"/><rect width="2.5" height="2.5" x="42.5" y="65.0" style="fill:#FFFFFF"/><rect width="2.5" height="2.5" x="45.0" y="65.0" style="fill:#FFFFFF"/><rect width="2.5" height="2.5" x="57.5" y="65.0" style="fill:#FFFFFF"/><rect width="2.5" height="2.5" x="60.0" y="65.0" style="fill:#FFFFFF"/><rect width="2.5" height="2.5" x="65.0" y="65.0" style="fill:#FFFFFF"/><rect width="2.5" height="2.5" x="70.0" y="65.0" style="fill:#FFFFFF"/><rect width="2.5" height="2.5" x="72.5" y="65.0" style="fill:#FFFFFF"/><rect width="2.5" height="2.5" x="75.0" y="65.0" style="fill:#FFFFFF"/><rect width="2.5" height="2.5" x="0.0" y="67.5" style="fill:#FFFFFF"/><rect width="2.5" height="2.5" x="15.0" y="67.5" style="fill:#FFFFFF"/><rect width="2.5" height="2.5" x="22.5" y="67.5" style="fill:#FFFFFF"/><rect width="2.5" height="2.5" x="25.0" y="67.5" style="fill:#FFFFFF"/><rect width="2.5" height="2.5" x="32.5" y="67.5" style="fill:#FFFFFF"/><rect width="2.5" height="2.5" x="40.0" y="67.5" style="fill:#FFFFFF"/><rect width="2.5" height="2.5" x="50.0" y="67.5" style="fill:#FFFFFF"/><rect width="2.5" height="2.5" x="52.5" y="67.5" style="fill:#FFFFFF"/><rect width="2.5" height="2.5" x="55.0" y="67.5" style="fill:#FFFFFF"/><rect width="2.5" height="2.5" x="60.0" y="67.5" style="fill:#FFFFFF"/><rect width="2.5" height="2.5" x="70.0" y="67.5" style="fill:#FFFFFF"/><rect width="2.5" height="2.5" x="75.0" y="67.5" style="fill:#FFFFFF"/><rect width="2.5" height="2.5" x="77.5" y="67.5" style="fill:#FFFFFF"/><rect width="2.5" height="2.5" x="0.0" y="70.0" style="fill:#FFFFFF"/><rect width="2.5" height="2.5" x="5.0" y="70.0" style="fill:#FFFFFF"/><rect width="2.5" height="2.5" x="7.5" y="70.0" style="fill:#FFFFFF"/><rect width="2.5" height="2.5" x="10.0" y="70.0" style="fill:#FFFFFF"/><rect width="2.5" height="2.5" x="15.0" y="70.0" style="fill:#FFFFFF"/><rect width="2.5" height="2.5" x="20.0" y="70.0" style="fill:#FFFFFF"/><rect width="2.5" height="2.5" x="27.5" y="70.0" style="fill:#FFFFFF"/><rect width="2.5" height="2.5" x="30.0" y="70.0" style="fill:#FFFFFF"/><rect width="2.5" height="2.5" x="35.0" y="70.0" style="fill:#FFFFFF"/><rect width="2.5" height="2.5" x="40.0" y="70.0" style="fill:#FFFFFF"/><rect width="2.5" height="2.5" x="45.0" y="70.0" style="fill:#FFFFFF"/><rect width="2.5" height="2.5" x="52.5" y="70.0" style="fill:#FFFFFF"/><rect width="2.5" height="2.5" x="55.0" y="70.0" style="fill:#FFFFFF"/><rect width="2.5" height="2.5" x="57.5" y="70.0" style="fill:#FFFFFF"/><rect width="2.5" height="2.5" x="60.0" y="70.0" style="fill:#FFFFFF"/><rect width="2.5" height="2.5" x="62.5" y="70.0" style="fill:#FFFFFF"/><rect width="2.5" height="2.5" x="65.0" y="70.0" style="fill:#FFFFFF"/><rect width="2.5" height="2.5" x="67.5" y="70.0" style="fill:#FFFFFF"/><rect width="2.5" height="2.5" x="70.0" y="70.0" style="fill:#FFFFFF"/><rect width="2.5" height="2.5" x="72.5" y="70.0" style="fill:#FFFFFF"/><rect width="2.5" height="2.5" x="77.5" y="70.0" style="fill:#FFFFFF"/><rect width="2.5" height="2.5" x="0.0" y="72.5" style="fill:#FFFFFF"/><rect width="2.5" height="2.5" x="5.0" y="72.5" style="fill:#FFFFFF"/><rect width="2.5" height="2.5" x="7.5" y="72.5" style="fill:#FFFFFF"/><rect width="2.5" height="2.5" x="10.0" y="72.5" style="fill:#FFFFFF"/><rect width="2.5" height="2.5" x="15.0" y="72.5" style="fill:#FFFFFF"/><rect width="2.5" height="2.5" x="20.0" y="72.5" style="fill:#FFFFFF"/><rect width="2.5" height="2.5" x="22.5" y="72.5" style="fill:#FFFFFF"/><rect width="2.5" height="2.5" x="25.0" y="72.5" style="fill:#FFFFFF"/><rect width="2.5" height="2.5" x="32.5" y="72.5" style="fill:#FFFFFF"/><rect width="2.5" height="2.5" x="35.0" y="72.5" style="fill:#FFFFFF"/><rect width="2.5" height="2.5" x="37.5" y="72.5" style="fill:#FFFFFF"/><rect width="2.5" height="2.5" x="42.5" y="72.5" style="fill:#FFFFFF"/><rect width="2.5" height="2.5" x="47.5" y="72.5" style="fill:#FFFFFF"/><rect width="2.5" height="2.5" x="50.0" y="72.5" style="fill:#FFFFFF"/><rect width="2.5" height="2.5" x="52.5" y="72.5" style="fill:#FFFFFF"/><rect width="2.5" height="2.5" x="55.0" y="72.5" style="fill:#FFFFFF"/><rect width="2.5" height="2.5" x="62.5" y="72.5" style="fill:#FFFFFF"/><rect width="2.5" height="2.5" x="67.5" y="72.5" style="fill:#FFFFFF"/><rect width="2.5" height="2.5" x="75.0" y="72.5" style="fill:#FFFFFF"/><rect width="2.5" height="2.5" x="77.5" y="72.5" style="fill:#FFFFFF"/><rect width="2.5" height="2.5" x="0.0" y="75.0" style="fill:#FFFFFF"/><rect width="2.5" height="2.5" x="5.0" y="75.0" style="fill:#FFFFFF"/><rect width="2.5" height="2.5" x="7.5" y="75.0" style="fill:#FFFFFF"/><rect width="2.5" height="2.5" x="10.0" y="75.0" style="fill:#FFFFFF"/><rect width="2.5" height="2.5" x="15.0" y="75.0" style="fill:#FFFFFF"/><rect width="2.5" height="2.5" x="27.5" y="75.0" style="fill:#FFFFFF"/><rect width="2.5" height="2.5" x="30.0" y="75.0" style="fill:#FFFFFF"/><rect width="2.5" height="2.5" x="32.5" y="75.0" style="fill:#FFFFFF"/><rect width="2.5" height="2.5" x="37.5" y="75.0" style="fill:#FFFFFF"/><rect width="2.5" height="2.5" x="40.0" y="75.0" style="fill:#FFFFFF"/><rect width="2.5" height="2.5" x="45.0" y="75.0" style="fill:#FFFFFF"/><rect width="2.5" height="2.5" x="47.5" y="75.0" style="fill:#FFFFFF"/><rect width="2.5" height="2.5" x="52.5" y="75.0" style="fill:#FFFFFF"/><rect width="2.5" height="2.5" x="55.0" y="75.0" style="fill:#FFFFFF"/><rect width="2.5" height="2.5" x="57.5" y="75.0" style="fill:#FFFFFF"/><rect width="2.5" height="2.5" x="60.0" y="75.0" style="fill:#FFFFFF"/><rect width="2.5" height="2.5" x="70.0" y="75.0" style="fill:#FFFFFF"/><rect width="2.5" height="2.5" x="75.0" y="75.0" style="fill:#FFFFFF"/><rect width="2.5" height="2.5" x="77.5" y="75.0" style="fill:#FFFFFF"/><rect width="2.5" height="2.5" x="80.0" y="75.0" style="fill:#FFFFFF"/><rect width="2.5" height="2.5" x="0.0" y="77.5" style="fill:#FFFFFF"/><rect width="2.5" height="2.5" x="15.0" y="77.5" style="fill:#FFFFFF"/><rect width="2.5" height="2.5" x="27.5" y="77.5" style="fill:#FFFFFF"/><rect width="2.5" height="2.5" x="30.0" y="77.5" style="fill:#FFFFFF"/><rect width="2.5" height="2.5" x="40.0" y="77.5" style="fill:#FFFFFF"/><rect width="2.5" height="2.5" x="42.5" y="77.5" style="fill:#FFFFFF"/><rect width="2.5" height="2.5" x="45.0" y="77.5" style="fill:#FFFFFF"/><rect width="2.5" height="2.5" x="47.5" y="77.5" style="fill:#FFFFFF"/><rect width="2.5" height="2.5" x="52.5" y="77.5" style="fill:#FFFFFF"/><rect width="2.5" height="2.5" x="55.0" y="77.5" style="fill:#FFFFFF"/><rect width="2.5" height="2.5" x="62.5" y="77.5" style="fill:#FFFFFF"/><rect width="2.5" height="2.5" x="72.5" y="77.5" style="fill:#FFFFFF"/><rect width="2.5" height="2.5" x="75.0" y="77.5" style="fill:#FFFFFF"/><rect width="2.5" height="2.5" x="77.5" y="77.5" style="fill:#FFFFFF"/><rect width="2.5" height="2.5" x="80.0" y="77.5" style="fill:#FFFFFF"/><rect width="2.5" height="2.5" x="0.0" y="80.0" style="fill:#FFFFFF"/><rect width="2.5" height="2.5" x="2.5" y="80.0" style="fill:#FFFFFF"/><rect width="2.5" height="2.5" x="5.0" y="80.0" style="fill:#FFFFFF"/><rect width="2.5" height="2.5" x="7.5" y="80.0" style="fill:#FFFFFF"/><rect width="2.5" height="2.5" x="10.0" y="80.0" style="fill:#FFFFFF"/><rect width="2.5" height="2.5" x="12.5" y="80.0" style="fill:#FFFFFF"/><rect width="2.5" height="2.5" x="15.0" y="80.0" style="fill:#FFFFFF"/><rect width="2.5" height="2.5" x="27.5" y="80.0" style="fill:#FFFFFF"/><rect width="2.5" height="2.5" x="30.0" y="80.0" style="fill:#FFFFFF"/><rect width="2.5" height="2.5" x="32.5" y="80.0" style="fill:#FFFFFF"/><rect width="2.5" height="2.5" x="35.0" y="80.0" style="fill:#FFFFFF"/><rect width="2.5" height="2.5" x="40.0" y="80.0" style="fill:#FFFFFF"/><rect width="2.5" height="2.5" x="42.5" y="80.0" style="fill:#FFFFFF"/><rect width="2.5" height="2.5" x="47.5" y="80.0" style="fill:#FFFFFF"/><rect width="2.5" height="2.5" x="50.0" y="80.0" style="fill:#FFFFFF"/><rect width="2.5" height="2.5" x="55.0" y="80.0" style="fill:#FFFFFF"/><rect width="2.5" height="2.5" x="57.5" y="80.0" style="fill:#FFFFFF"/><rect width="2.5" height="2.5" x="60.0" y="80.0" style="fill:#FFFFFF"/><rect width="2.5" height="2.5" x="62.5" y="80.0" style="fill:#FFFFFF"/><rect width="2.5" height="2.5" x="70.0" y="80.0" style="fill:#FFFFFF"/>
            </g>
        </g>
    </g>
</svg>
