<?xml version="1.0" encoding="UTF-8"?>
<svg xmlns="http://www.w3.org/2000/svg" xmlns:xlink="http://www.w3.org/1999/xlink" width="500px" height="600px" viewBox="0 0 500 600" version="1.1">
    <title>m0bjM7V7</title>
    <g id="Page-1" stroke="none" stroke-width="1" fill="none" fill-rule="evenodd">
        <g id="m0bjM7V7">
            <rect fill="#809B99" x="0" y="0" width="500" height="600"/>
            <g id="bug" transform="translate(115.682436, 32.852595)" stroke="#000000">
                <g id="leg-3-right" transform="translate(189.005535, 290.884710)" fill="#27343B">
                    <path d="M33.7993334,87.6118164 C36.9484298,90.0555013 39.4743852,92.9744466 41.3771994,96.3686523 C44.2314209,101.459961 46.230974,101.128224 46.230974,99.5244141 C46.230974,98.4552076 47.0692242,97.4032871 48.7457246,96.3686523 C48.7470296,95.2516798 48.3925034,94.6175652 47.6821459,94.4663086 C46.6166097,94.2394237 44.7700365,94.3224486 42.7470873,93.1953125 C40.7241381,92.0681764 36.1313646,87.5107422 36.1313646,86.0561523 C36.1313646,85.0864258 35.1167162,84.7648112 33.0874193,85.0913086 L33.7993334,87.6118164 Z" id="segment-5"/>
                    <path d="M23.559099,78.7236328 C29.1144376,84.1223958 32.2824063,87.9829102 33.0630053,90.3051758 C34.2339037,93.7885742 34.5810717,94.1953125 36.0395678,94.1953125 C37.4980639,94.1953125 37.0136889,91.2133789 37.9389818,90.3051758 C38.8642748,89.3969727 39.5583803,88.7050781 41.6230639,88.7050781 C42.9428881,88.7050781 41.875017,85.3894043 38.6631029,85.3894043 C37.5926694,85.3894043 36.3031279,85.5906167 33.0630053,83.0107422 C27.6787279,78.7236328 24.3299946,76.9312387 23.559099,76.5834961 C23.0451686,76.3516677 23.0451686,77.0650466 23.559099,78.7236328 Z" id="segment-4"/>
                    <path d="M7.6845873,61.8803711 C12.0582852,65.7556966 16.0654467,70.7200521 19.7060717,76.7734375 C21.2494265,79.3396236 22.4062406,81.2359465 22.9262865,81.6523438 C24.2463477,82.7093078 24.7004349,80.6655685 25.0854662,79.6030273 C25.61067,78.1536631 27.9895263,77.5118028 26.2324389,75.0170898 C25.5836093,74.0958815 23.4790199,74.5593815 21.6660326,72.7841797 C14.8381829,66.0986328 14.9263207,66.0986328 10.5856062,58.4130859 C7.69179655,53.289388 6.72479025,54.4451497 7.6845873,61.8803711 Z" id="segment-3"/>
                    <path d="M24.8584154,16.4658203 C27.0408277,22.0208333 21.6515048,33.0071615 8.69044668,49.4248047 C4.86086857,52.8550234 3.74846509,54.5982308 2.68165761,56.1674805 C0.944125278,58.7233512 0.0172117753,62.4039358 3.38380605,64.0742188 C8.81741679,66.7700195 9.66891633,62.0142338 12.1831225,59.5405273 C13.7671982,57.9819684 13.3255722,55.6471909 14.8381829,53.2836914 C21.9714836,42.1376953 28.7348803,35.0776367 28.7348803,14.2490234 C26.1505704,11.7360026 24.8584154,12.4749349 24.8584154,16.4658203 Z" id="segment-2"/>
                    <path d="M4.7080248,14.3110352 C12.89602,15.3390288 15.9023607,12.2958984 20.828142,16.2255859 C25.7539232,20.1552734 26.2993334,17.9277344 27.6801928,17.0766602 C29.0610521,16.2255859 31.3803881,14.3110352 27.6801928,10.1416016 C23.9799975,5.97216797 14.8381829,0 4.7080248,0 C-0.708501825,1.61865234 -0.708501825,3.97730017 1.03029043,7.96728516 C2.06533434,10.3423876 -3.4799704,13.2830415 4.7080248,14.3110352 Z" id="segment-1"/>
                </g>
                <g id="leg-3-right" transform="translate(55.505535, 341.384710) scale(-1, 1) translate(-55.505535, -341.384710) translate(31.005535, 290.884710)" fill="#27343B">
                    <path d="M33.7993334,87.6118164 C36.9484298,90.0555013 39.4743852,92.9744466 41.3771994,96.3686523 C44.2314209,101.459961 46.230974,101.128224 46.230974,99.5244141 C46.230974,98.4552076 47.0692242,97.4032871 48.7457246,96.3686523 C48.7470296,95.2516798 48.3925034,94.6175652 47.6821459,94.4663086 C46.6166097,94.2394237 44.7700365,94.3224486 42.7470873,93.1953125 C40.7241381,92.0681764 36.1313646,87.5107422 36.1313646,86.0561523 C36.1313646,85.0864258 35.1167162,84.7648112 33.0874193,85.0913086 L33.7993334,87.6118164 Z" id="segment-5"/>
                    <path d="M23.559099,78.7236328 C29.1144376,84.1223958 32.2824063,87.9829102 33.0630053,90.3051758 C34.2339037,93.7885742 34.5810717,94.1953125 36.0395678,94.1953125 C37.4980639,94.1953125 37.0136889,91.2133789 37.9389818,90.3051758 C38.8642748,89.3969727 39.5583803,88.7050781 41.6230639,88.7050781 C42.9428881,88.7050781 41.875017,85.3894043 38.6631029,85.3894043 C37.5926694,85.3894043 36.3031279,85.5906167 33.0630053,83.0107422 C27.6787279,78.7236328 24.3299946,76.9312387 23.559099,76.5834961 C23.0451686,76.3516677 23.0451686,77.0650466 23.559099,78.7236328 Z" id="segment-4"/>
                    <path d="M7.6845873,61.8803711 C12.0582852,65.7556966 16.0654467,70.7200521 19.7060717,76.7734375 C21.2494265,79.3396236 22.4062406,81.2359465 22.9262865,81.6523438 C24.2463477,82.7093078 24.7004349,80.6655685 25.0854662,79.6030273 C25.61067,78.1536631 27.9895263,77.5118028 26.2324389,75.0170898 C25.5836093,74.0958815 23.4790199,74.5593815 21.6660326,72.7841797 C14.8381829,66.0986328 14.9263207,66.0986328 10.5856062,58.4130859 C7.69179655,53.289388 6.72479025,54.4451497 7.6845873,61.8803711 Z" id="segment-3"/>
                    <path d="M24.8584154,16.4658203 C27.0408277,22.0208333 21.6515048,33.0071615 8.69044668,49.4248047 C4.86086857,52.8550234 3.74846509,54.5982308 2.68165761,56.1674805 C0.944125278,58.7233512 0.0172117753,62.4039358 3.38380605,64.0742188 C8.81741679,66.7700195 9.66891633,62.0142338 12.1831225,59.5405273 C13.7671982,57.9819684 13.3255722,55.6471909 14.8381829,53.2836914 C21.9714836,42.1376953 28.7348803,35.0776367 28.7348803,14.2490234 C26.1505704,11.7360026 24.8584154,12.4749349 24.8584154,16.4658203 Z" id="segment-2"/>
                    <path d="M4.7080248,14.3110352 C12.89602,15.3390288 15.9023607,12.2958984 20.828142,16.2255859 C25.7539232,20.1552734 26.2993334,17.9277344 27.6801928,17.0766602 C29.0610521,16.2255859 31.3803881,14.3110352 27.6801928,10.1416016 C23.9799975,5.97216797 14.8381829,0 4.7080248,0 C-0.708501825,1.61865234 -0.708501825,3.97730017 1.03029043,7.96728516 C2.06533434,10.3423876 -3.4799704,13.2830415 4.7080248,14.3110352 Z" id="segment-1"/>
                </g>
                <g id="leg-2-right" transform="translate(177.000000, 231.088420)" fill="#27343B">
                    <path d="M75.9223,60.7267103 C81.7325214,62.6061048 84.7951028,64.0810397 85.1100442,65.151515 C85.5824563,66.7572279 87.8462793,66.8544885 88.5931985,66.4007825 C89.2224479,66.0185535 89.1995656,65.0394251 89.6215188,64.4913587 C90.2113275,63.7252682 90.9895207,62.9178904 89.6215188,62.4110807 C88.3293638,62.8625697 87.2640155,62.9781963 86.4254739,62.7579603 C82.5730976,61.5367689 79.3110533,60.2552747 76.6393411,58.9134779 C73.9676288,57.571681 73.1478046,57.8036146 74.1798684,59.6092786 L75.9223,60.7267103 Z" id="segment-5"/>
                    <path d="M61.3600442,54.9872083 C68.1966327,57.8097995 71.9710468,59.9849297 72.6832864,61.5125989 C73.3603136,62.964742 74.8420798,63.3399781 76.3356725,62.936162 C77.1989919,62.7027501 77.1990751,61.1626689 77.9171731,60.4662122 C78.7737568,59.6354433 80.2261712,59.4828512 80.4605775,58.39603 C80.7626529,56.9954613 78.9503802,56.0418958 77.9171731,56.0418958 C76.6459483,56.0418958 75.8787498,56.3576503 74.1266457,56.0418958 C73.3496593,55.9018716 70.9530518,55.2789591 69.4450051,54.9872083 C64.5363137,54.0375596 61.3600442,54.0799818 61.3600442,54.0799818 C61.3600442,54.0799818 61.3600442,54.3823906 61.3600442,54.9872083 Z" id="segment-4"/>
                    <path d="M45.3517434,49.3114271 C48.3393736,51.513901 50.4985533,52.615138 51.8292825,52.615138 C53.8253762,52.615138 57.6871926,53.0082044 59.6036965,55.8246107 C61.5202004,58.6410169 66.1857278,54.11172 63.4684426,52.8089857 C60.7511575,51.5062513 59.9249503,48.9925794 47.2492043,46.6629896 C44.3491392,46.6629896 43.7166523,47.5458021 45.3517434,49.3114271 Z" id="segment-3"/>
                    <path d="M32.3912942,19.8822279 C41.2374631,38.6720156 38.1207864,40.3958997 39.3556496,44.1385755 C40.5905129,47.8812513 42.8446795,50.7650404 45.0255715,50.7650404 C47.2064635,50.7650404 51.4719596,47.0432516 49.5538918,45.4325208 C45.7500575,42.2381849 45.7500575,37.8142661 44.2141103,33.7472653 C35.6100442,10.9647474 24.1283532,0.652094992 20.3746926,2.8080091 C18.8558777,3.6803401 18.7953281,4.32015771 19.9044941,4.78221072 C23.864919,6.43203254 26.5722209,7.52217096 32.3912942,19.8822279 Z" id="segment-2"/>
                    <path d="M1.92547387,2.22548957 C1.92547387,0.617896527 8.56219262,-0.118757118 21.8356301,0.0155286316 C24.172224,0.365463527 25.0796133,2.16217577 24.5577981,5.40566535 C24.3680299,6.58522263 24.4549373,8.94722969 23.1768873,8.94722969 C20.9204349,8.94722969 16.3851935,8.39980598 13.6671731,8.39980598 C10.0792825,8.39980598 6.25779007,9.66235511 1.92547387,7.61074348 C-2.40684233,5.55913184 1.92547387,4.63687913 1.92547387,2.22548957 Z" id="segment-1"/>
                </g>
                <g id="leg-2-right" transform="translate(45.500000, 264.588420) scale(-1, 1) translate(-45.500000, -264.588420) translate(0.000000, 231.088420)" fill="#27343B">
                    <path d="M75.9223,60.7267103 C81.7325214,62.6061048 84.7951028,64.0810397 85.1100442,65.151515 C85.5824563,66.7572279 87.8462793,66.8544885 88.5931985,66.4007825 C89.2224479,66.0185535 89.1995656,65.0394251 89.6215188,64.4913587 C90.2113275,63.7252682 90.9895207,62.9178904 89.6215188,62.4110807 C88.3293638,62.8625697 87.2640155,62.9781963 86.4254739,62.7579603 C82.5730976,61.5367689 79.3110533,60.2552747 76.6393411,58.9134779 C73.9676288,57.571681 73.1478046,57.8036146 74.1798684,59.6092786 L75.9223,60.7267103 Z" id="segment-5"/>
                    <path d="M61.3600442,54.9872083 C68.1966327,57.8097995 71.9710468,59.9849297 72.6832864,61.5125989 C73.3603136,62.964742 74.8420798,63.3399781 76.3356725,62.936162 C77.1989919,62.7027501 77.1990751,61.1626689 77.9171731,60.4662122 C78.7737568,59.6354433 80.2261712,59.4828512 80.4605775,58.39603 C80.7626529,56.9954613 78.9503802,56.0418958 77.9171731,56.0418958 C76.6459483,56.0418958 75.8787498,56.3576503 74.1266457,56.0418958 C73.3496593,55.9018716 70.9530518,55.2789591 69.4450051,54.9872083 C64.5363137,54.0375596 61.3600442,54.0799818 61.3600442,54.0799818 C61.3600442,54.0799818 61.3600442,54.3823906 61.3600442,54.9872083 Z" id="segment-4"/>
                    <path d="M45.3517434,49.3114271 C48.3393736,51.513901 50.4985533,52.615138 51.8292825,52.615138 C53.8253762,52.615138 57.6871926,53.0082044 59.6036965,55.8246107 C61.5202004,58.6410169 66.1857278,54.11172 63.4684426,52.8089857 C60.7511575,51.5062513 59.9249503,48.9925794 47.2492043,46.6629896 C44.3491392,46.6629896 43.7166523,47.5458021 45.3517434,49.3114271 Z" id="segment-3"/>
                    <path d="M32.3912942,19.8822279 C41.2374631,38.6720156 38.1207864,40.3958997 39.3556496,44.1385755 C40.5905129,47.8812513 42.8446795,50.7650404 45.0255715,50.7650404 C47.2064635,50.7650404 51.4719596,47.0432516 49.5538918,45.4325208 C45.7500575,42.2381849 45.7500575,37.8142661 44.2141103,33.7472653 C35.6100442,10.9647474 24.1283532,0.652094992 20.3746926,2.8080091 C18.8558777,3.6803401 18.7953281,4.32015771 19.9044941,4.78221072 C23.864919,6.43203254 26.5722209,7.52217096 32.3912942,19.8822279 Z" id="segment-2"/>
                    <path d="M1.92547387,2.22548957 C1.92547387,0.617896527 8.56219262,-0.118757118 21.8356301,0.0155286316 C24.172224,0.365463527 25.0796133,2.16217577 24.5577981,5.40566535 C24.3680299,6.58522263 24.4549373,8.94722969 23.1768873,8.94722969 C20.9204349,8.94722969 16.3851935,8.39980598 13.6671731,8.39980598 C10.0792825,8.39980598 6.25779007,9.66235511 1.92547387,7.61074348 C-2.40684233,5.55913184 1.92547387,4.63687913 1.92547387,2.22548957 Z" id="segment-1"/>
                </g>
                <g id="leg-1-right" transform="translate(163.451460, 130.455067)" fill="#27343B">
                    <path d="M50.9945216,9.02827543 C57.7777248,4.78901761 61.4137925,2.34256579 61.9027248,1.68891996 C62.4720607,-0.437056604 63.6678615,-0.437056604 63.9840236,1.02583402 C64.3680916,2.802927 65.1493621,2.65967659 64.7794338,3.50972074 C64.4714132,4.21750947 61.9775129,4.59012785 59.0437083,6.44429105 C53.015388,10.2541869 50.3323258,11.7981293 50.9945216,11.0761181 L50.9945216,9.02827543 Z" id="segment-4"/>
                    <path d="M32.9408107,22.3969278 C42.1986232,15.4994668 49.1309963,10.0788757 51.5399318,5.62433071 C53.9488673,1.16978575 53.5658348,6.2324044 55.238174,8.04390043 C57.1407859,10.1048304 58.2896254,10.0559674 57.8862833,11.8354043 C51.4966348,13.5068121 48.8624889,15.3017129 45.8592503,17.2699746 C42.8560116,19.2382364 39.8688199,21.5380411 35.309463,24.9457559 C33.9044076,25.4764095 31.9600447,23.6121996 32.9408107,22.3969278 Z" id="segment-3" stroke-linejoin="round"/>
                    <path d="M32.9481349,56.6522989 C31.2023899,55.3236856 35.4710841,54.6815957 34.3128315,46.2138223 C33.1545789,37.7460489 32.1126857,34.6029825 30.2713771,29.7939004 C28.787745,25.9189886 28.6061924,23.0771034 30.126405,21.484259 C30.4929004,21.1002535 32.3835558,20.1924325 32.9481349,20.5530532 C34.6081517,21.6133768 37.3024207,22.2126376 38.1161037,24.3017129 C38.4426883,25.1401967 39.3552885,29.2174246 39.5565334,30.5868692 C40.2591781,35.3682737 39.5565334,38.4025358 39.5565334,44.2655801 C39.5565334,50.1286244 39.4027805,51.6697922 38.1161037,54.6815957 C36.8294269,57.6933993 34.69388,57.9809121 32.9481349,56.6522989 Z" id="segment-2"/>
                    <path d="M2.15272477,57.716752 C5.95477377,53.6903848 7.28538143,56.1239786 20.1981349,56.1239786 C24.6214748,56.1239786 30.1087306,53.8639574 31.2796779,53.6991739 C34.448815,53.2531917 36.1729797,54.3834008 37.0423732,55.3988809 C37.8348868,56.3245627 37.4228526,58.5127551 35.1751857,60.1503457 C31.9061427,62.532084 32.3395307,62.6277669 23.9525295,65.7353067 C15.5655282,68.8428465 12.276645,70.1650051 5.07459977,69.7216348 C-0.255238885,69.3935207 -1.64932424,61.7431192 2.15272477,57.716752 Z" id="segment-1"/>
                </g>
                <g id="leg-1-left" transform="translate(69.951460, 165.455067) scale(-1, 1) translate(-69.951460, -165.455067) translate(37.451460, 130.455067)" fill="#27343B">
                    <path d="M50.9945216,9.02827543 C57.7777248,4.78901761 61.4137925,2.34256579 61.9027248,1.68891996 C62.4720607,-0.437056604 63.6678615,-0.437056604 63.9840236,1.02583402 C64.3680916,2.802927 65.1493621,2.65967659 64.7794338,3.50972074 C64.4714132,4.21750947 61.9775129,4.59012785 59.0437083,6.44429105 C53.015388,10.2541869 50.3323258,11.7981293 50.9945216,11.0761181 L50.9945216,9.02827543 Z" id="segment-4"/>
                    <path d="M32.9408107,22.3969278 C42.1986232,15.4994668 49.1309963,10.0788757 51.5399318,5.62433071 C53.9488673,1.16978575 53.5658348,6.2324044 55.238174,8.04390043 C57.1407859,10.1048304 58.2896254,10.0559674 57.8862833,11.8354043 C51.4966348,13.5068121 48.8624889,15.3017129 45.8592503,17.2699746 C42.8560116,19.2382364 39.8688199,21.5380411 35.309463,24.9457559 C33.9044076,25.4764095 31.9600447,23.6121996 32.9408107,22.3969278 Z" id="segment-3" stroke-linejoin="round"/>
                    <path d="M32.9481349,56.6522989 C31.2023899,55.3236856 35.4710841,54.6815957 34.3128315,46.2138223 C33.1545789,37.7460489 32.1126857,34.6029825 30.2713771,29.7939004 C28.787745,25.9189886 28.6061924,23.0771034 30.126405,21.484259 C30.4929004,21.1002535 32.3835558,20.1924325 32.9481349,20.5530532 C34.6081517,21.6133768 37.3024207,22.2126376 38.1161037,24.3017129 C38.4426883,25.1401967 39.3552885,29.2174246 39.5565334,30.5868692 C40.2591781,35.3682737 39.5565334,38.4025358 39.5565334,44.2655801 C39.5565334,50.1286244 39.4027805,51.6697922 38.1161037,54.6815957 C36.8294269,57.6933993 34.69388,57.9809121 32.9481349,56.6522989 Z" id="segment-2"/>
                    <path d="M2.15272477,57.716752 C5.95477377,53.6903848 7.28538143,56.1239786 20.1981349,56.1239786 C24.6214748,56.1239786 30.1087306,53.8639574 31.2796779,53.6991739 C34.448815,53.2531917 36.1729797,54.3834008 37.0423732,55.3988809 C37.8348868,56.3245627 37.4228526,58.5127551 35.1751857,60.1503457 C31.9061427,62.532084 32.3395307,62.6277669 23.9525295,65.7353067 C15.5655282,68.8428465 12.276645,70.1650051 5.07459977,69.7216348 C-0.255238885,69.3935207 -1.64932424,61.7431192 2.15272477,57.716752 Z" id="segment-1"/>
                </g>
                <path d="M121.820005,118.00971 C113.821633,133.449814 109.822447,146.118759 109.822447,156.016546 C109.822447,170.863226 127.113462,173.899358 133.817564,173.899358 C140.521665,173.899358 157.817564,170.863226 157.817564,156.016546 C157.817564,146.118759 153.818378,133.449814 145.820005,118.00971 C141.581398,120.373642 137.582212,121.938177 133.817564,121.938177 C130.052915,121.938177 126.058612,120.373642 121.820005,118.00971 Z" id="head" fill="#F17F62"/>
                <path d="M134.59081,225.147405 C128.342457,225.147405 111.357845,222.428003 103.300221,216.147017 C95.2425961,209.866031 94.4662556,196.120965 95.8982664,188.06148 C97.6474631,178.216845 102.423493,170.041648 110.332786,166.614949 C116.781956,163.820847 126.390867,164.160385 134.090474,164.160385 C141.79008,164.160385 150.99951,163.820847 157.448681,166.614949 C165.357973,170.041648 170.134004,178.216845 171.8832,188.06148 C173.315211,196.120965 171.379063,208.787013 163.483124,216.147017 C155.587185,223.507021 140.839164,225.147405 134.59081,225.147405 Z" id="mid-body" fill="#F17F62"/>
                <path d="M69.3175637,221.034124 C96.1235533,213.109645 112.662616,217.165634 118.934751,233.202093 C128.342954,257.25678 159.176939,379.432561 94.79022,409.166936 C91.9932907,410.136025 89.3802002,410.952841 86.9509485,411.617387 C81.7857156,413.030386 75.9079207,413.600939 69.3175637,413.329046 L69.3175637,221.034124 Z" id="bottom-body-left" fill="#F17F62" transform="translate(101.954352, 315.248875) scale(-1, 1) translate(-101.954352, -315.248875) "/>
                <path d="M134.317564,221.034124 C161.123553,213.109645 177.662616,217.165634 183.934751,233.202093 C193.342954,257.25678 224.176939,379.432561 159.79022,409.166936 C156.993291,410.136025 154.3802,410.952841 151.950948,411.617387 C146.785716,413.030386 140.907921,413.600939 134.317564,413.329046 L134.317564,221.034124 Z" id="bottom-body-right" fill="#62886B"/>
                <path d="M110.822447,150.687933 C106.440122,149.16303 104.368345,142.998479 107.231626,138.011663 C110.094907,133.024847 115.888853,130.832952 117.861997,132.733343 C119.835142,134.633733 121.094419,141.367167 119.835142,144.670354 C118.575864,147.973542 115.204771,152.212835 110.822447,150.687933 Z" id="eye-left" fill="#809B99"/>
                <path d="M152.822447,150.687933 C148.440122,149.16303 146.368345,142.998479 149.231626,138.011663 C152.094907,133.024847 157.888853,130.832952 159.861997,132.733343 C161.835142,134.633733 163.094419,141.367167 161.835142,144.670354 C160.575864,147.973542 157.204771,152.212835 152.822447,150.687933 Z" id="eye-right" fill="#809B99" transform="translate(155.126510, 141.531185) scale(-1, 1) translate(-155.126510, -141.531185) "/>
                <g id="antenna-right" transform="translate(140.559612, 0.000000)" fill="#62886B">
                    <path d="M97.1739676,12.421331 C101.596448,7.51542749 104.459149,4.68551212 105.762072,3.93158492 C107.635393,2.84760054 109.23024,1.43774226 111.615374,0.540959919 C114.5701,-0.569982593 116.543757,-0.102238947 112.972307,3.19086226 C108.669362,7.15844898 103.669687,10.7525245 97.973284,13.9730888 L97.1739676,12.421331 Z" id="segment-9"/>
                    <path d="M81.7523367,23.402288 C87.2352469,17.8244886 91.9626232,13.6618095 95.9344656,10.9142509 C97.9471245,9.66595992 97.9937553,10.5614539 99.7254812,12.5040947 C101.457207,14.4467354 99.4851713,15.0169862 98.2220633,15.8405205 C92.2734658,20.0239515 86.783557,22.9989677 81.7523367,24.7655693 L81.7523367,23.402288 Z" id="segment-8"/>
                    <path d="M68.0438406,38.2284599 C69.5901487,35.3484484 72.1781207,31.4369087 75.8077566,26.4938408 C76.3905244,25.7001907 79.8460867,21.1063896 82.167864,21.1063896 C83.7767508,22.5136162 83.936907,23.5692802 85.0555594,24.4928642 C85.6135021,26.0503186 79.8342052,31.0590263 67.7176687,39.5189873 L68.0438406,38.2284599 Z" id="segment-7"/>
                    <path d="M55.3265555,51.1652275 C57.4374574,47.442117 60.3077263,43.1090279 63.9373622,38.1659599 C64.52013,37.3723099 67.8835846,33.8161008 68.6754324,34.1293388 C70.4291169,34.8230588 69.7884695,35.6381279 72.1183035,37.0187431 C72.6762462,38.5761975 67.2357351,43.8871513 55.7967703,52.9516045 L55.3265555,51.1652275 Z" id="segment-6"/>
                    <path d="M44.3849051,62.7211357 C47.94202,55.4527471 51.6439243,50.3694951 55.490618,47.4713798 C56.8402273,46.0883232 56.8402273,51.8312431 60.032366,51.216497 C60.790504,52.4575452 55.8608979,56.5690361 45.2435476,63.5509697 L44.3849051,62.7211357 Z" id="segment-5"/>
                    <path d="M34.3399832,77.2763115 C34.2743642,77.0612272 33.7488132,77.1266563 33.865618,76.5985962 C34.6751719,72.9387028 40.5011797,61.7040357 44.433489,60.1330009 C45.8822498,61.506726 46.6114417,62.1960372 48.5006277,62.756292 C48.961598,64.2672495 46.3709969,65.0518541 41.653147,70.0891212 C36.9352972,75.1263883 34.7736543,78.6977884 34.3399832,77.2763115 Z" id="segment-4"/>
                    <path d="M23.3082449,92.4430595 C25.6166759,86.7663017 28.8237885,80.8611097 32.9295828,74.7274834 C34.0366184,75.2126773 35.2292599,74.8251074 35.8819754,75.0656181 C36.7182469,75.3737651 36.9310445,76.2618757 37.7474539,76.5228935 C37.2366066,78.1705883 34.9076749,81.0972716 32.9295828,83.9503837 C30.4239217,87.5644379 27.054475,91.2618589 24.6280691,92.4430595 C24.3453949,92.5806684 23.9054535,92.5806684 23.3082449,92.4430595 Z" id="segment-3"/>
                    <path d="M25.2901785,89.9054619 C24.4755626,89.4941663 23.7213308,88.8326266 23.0274832,87.9208427 C23.0694754,89.2558037 22.8574799,90.1941175 22.3914969,90.7357841 C21.6925222,91.5482841 14.0764199,101.862249 14.5668984,104.406438 C15.0573769,106.950628 16.4825613,105.040028 17.7457449,103.975042 C19.0089285,102.910056 27.2113211,93.5934502 28.3468191,91.1981865 C27.0355398,90.7357841 26.3602469,90.3720146 25.2901785,89.9054619 Z" id="segment-2" stroke-linejoin="round"/>
                    <path d="M13.9762094,102.917758 C13.1527273,102.361028 12.7928807,103.629345 12.334368,104.53095 C10.9986746,107.157415 6.70204373,116.252874 2.62953397,118.00971 C-0.336424014,119.289192 -0.455074994,124.522892 0.61928006,125.984808 C1.02010486,126.530225 1.58636059,126.596624 1.96913358,126.596624 C4.11024686,126.596624 7.41224881,124.429388 7.7523367,121.830511 C8.09242459,119.231634 5.10746773,117.441106 15.1323701,109.365423 C15.4335316,108.950165 19.2047293,106.743622 18.5382254,104.766146 C18.4407639,104.476984 17.0229106,104.901582 15.8683035,104.53095 C14.9744462,104.244019 14.3355398,103.16069 13.9762094,102.917758 Z" id="segment-1"/>
                </g>
                <g id="antenna-left" transform="translate(68.059612, 63.500000) scale(-1, 1) translate(-68.059612, -63.500000) translate(10.559612, 0.000000)" fill="#62886B">
                    <path d="M97.1739676,12.421331 C101.596448,7.51542749 104.459149,4.68551212 105.762072,3.93158492 C107.635393,2.84760054 109.23024,1.43774226 111.615374,0.540959919 C114.5701,-0.569982593 116.543757,-0.102238947 112.972307,3.19086226 C108.669362,7.15844898 103.669687,10.7525245 97.973284,13.9730888 L97.1739676,12.421331 Z" id="segment-9"/>
                    <path d="M81.7523367,23.402288 C87.2352469,17.8244886 91.9626232,13.6618095 95.9344656,10.9142509 C97.9471245,9.66595992 97.9937553,10.5614539 99.7254812,12.5040947 C101.457207,14.4467354 99.4851713,15.0169862 98.2220633,15.8405205 C92.2734658,20.0239515 86.783557,22.9989677 81.7523367,24.7655693 L81.7523367,23.402288 Z" id="segment-8"/>
                    <path d="M68.0438406,38.2284599 C69.5901487,35.3484484 72.1781207,31.4369087 75.8077566,26.4938408 C76.3905244,25.7001907 79.8460867,21.1063896 82.167864,21.1063896 C83.7767508,22.5136162 83.936907,23.5692802 85.0555594,24.4928642 C85.6135021,26.0503186 79.8342052,31.0590263 67.7176687,39.5189873 L68.0438406,38.2284599 Z" id="segment-7"/>
                    <path d="M55.3265555,51.1652275 C57.4374574,47.442117 60.3077263,43.1090279 63.9373622,38.1659599 C64.52013,37.3723099 67.8835846,33.8161008 68.6754324,34.1293388 C70.4291169,34.8230588 69.7884695,35.6381279 72.1183035,37.0187431 C72.6762462,38.5761975 67.2357351,43.8871513 55.7967703,52.9516045 L55.3265555,51.1652275 Z" id="segment-6"/>
                    <path d="M44.3849051,62.7211357 C47.94202,55.4527471 51.6439243,50.3694951 55.490618,47.4713798 C56.8402273,46.0883232 56.8402273,51.8312431 60.032366,51.216497 C60.790504,52.4575452 55.8608979,56.5690361 45.2435476,63.5509697 L44.3849051,62.7211357 Z" id="segment-5"/>
                    <path d="M34.3399832,77.2763115 C34.2743642,77.0612272 33.7488132,77.1266563 33.865618,76.5985962 C34.6751719,72.9387028 40.5011797,61.7040357 44.433489,60.1330009 C45.8822498,61.506726 46.6114417,62.1960372 48.5006277,62.756292 C48.961598,64.2672495 46.3709969,65.0518541 41.653147,70.0891212 C36.9352972,75.1263883 34.7736543,78.6977884 34.3399832,77.2763115 Z" id="segment-4"/>
                    <path d="M23.3082449,92.4430595 C25.6166759,86.7663017 28.8237885,80.8611097 32.9295828,74.7274834 C34.0366184,75.2126773 35.2292599,74.8251074 35.8819754,75.0656181 C36.7182469,75.3737651 36.9310445,76.2618757 37.7474539,76.5228935 C37.2366066,78.1705883 34.9076749,81.0972716 32.9295828,83.9503837 C30.4239217,87.5644379 27.054475,91.2618589 24.6280691,92.4430595 C24.3453949,92.5806684 23.9054535,92.5806684 23.3082449,92.4430595 Z" id="segment-3"/>
                    <path d="M25.2901785,89.9054619 C24.4755626,89.4941663 23.7213308,88.8326266 23.0274832,87.9208427 C23.0694754,89.2558037 22.8574799,90.1941175 22.3914969,90.7357841 C21.6925222,91.5482841 14.0764199,101.862249 14.5668984,104.406438 C15.0573769,106.950628 16.4825613,105.040028 17.7457449,103.975042 C19.0089285,102.910056 27.2113211,93.5934502 28.3468191,91.1981865 C27.0355398,90.7357841 26.3602469,90.3720146 25.2901785,89.9054619 Z" id="segment-2" stroke-linejoin="round"/>
                    <path d="M13.9762094,102.917758 C13.1527273,102.361028 12.7928807,103.629345 12.334368,104.53095 C10.9986746,107.157415 6.70204373,116.252874 2.62953397,118.00971 C-0.336424014,119.289192 -0.455074994,124.522892 0.61928006,125.984808 C1.02010486,126.530225 1.58636059,126.596624 1.96913358,126.596624 C4.11024686,126.596624 7.41224881,124.429388 7.7523367,121.830511 C8.09242459,119.231634 5.10746773,117.441106 15.1323701,109.365423 C15.4335316,108.950165 19.2047293,106.743622 18.5382254,104.766146 C18.4407639,104.476984 17.0229106,104.901582 15.8683035,104.53095 C14.9744462,104.244019 14.3355398,103.16069 13.9762094,102.917758 Z" id="segment-1"/>
                </g>
            </g>
            <g id="hello" transform="translate(0.000000, 500.000000)">
                <rect id="Rectangle" fill="#FFFFFF" x="0" y="0" width="500" height="100"/>
                <path d="M153.062988,66.6181641 C156.388184,66.6181641 158.940674,65.9260254 160.720459,64.541748 C162.500244,63.1574707 163.390137,61.1689453 163.390137,58.5761719 C163.390137,54.09375 160.350586,51.112793 154.271484,49.6333008 C159.47168,48.0073242 162.071777,45.2387695 162.071777,41.3276367 C162.071777,38.9692383 161.218506,37.1748047 159.511963,35.9443359 C157.80542,34.7138672 155.318848,34.0986328 152.052246,34.0986328 L152.052246,34.0986328 L141,34.0986328 L141,66.6181641 L153.062988,66.6181641 Z M148.976074,47.6337891 L147.37207,47.6337891 L147.37207,38.559082 L148.734375,38.559082 C151.239258,38.559082 152.942139,38.826416 153.843018,39.361084 C154.743896,39.895752 155.194336,40.9101562 155.194336,42.4042969 C155.194336,44.015625 154.634033,45.2900391 153.513428,46.2275391 C152.392822,47.1650391 150.880371,47.6337891 148.976074,47.6337891 L148.976074,47.6337891 Z M148.822266,62.0039062 L147.37207,62.0039062 L147.37207,51.984375 L148.69043,51.984375 C150.887695,51.984375 152.707764,52.5336914 154.150635,53.6323242 C155.593506,54.730957 156.314941,56.1079102 156.314941,57.7631836 C156.314941,59.3745117 155.776611,60.4841309 154.699951,61.092041 C153.623291,61.6999512 151.664062,62.0039062 148.822266,62.0039062 L148.822266,62.0039062 Z M176.046387,67.1674805 C179.415527,67.1674805 182.154785,65.4682617 184.26416,62.0698242 L184.26416,62.0698242 L184.26416,66.6181641 L190.768066,66.6181641 L190.768066,42.4921875 L184.26416,42.4921875 L184.26416,57.675293 C182.359863,60.590332 180.382324,62.0478516 178.331543,62.0478516 C176.500488,62.0478516 175.584961,60.6782227 175.584961,57.9389648 L175.584961,57.9389648 L175.584961,42.4921875 L169.081055,42.4921875 L169.081055,59.5429688 C169.081055,61.9013672 169.703613,63.7617188 170.94873,65.1240234 C172.193848,66.4863281 173.893066,67.1674805 176.046387,67.1674805 Z M205.401855,66.6181641 L205.401855,51.4350586 C207.306152,48.5200195 209.291016,47.0625 211.356445,47.0625 C213.172852,47.0625 214.081055,48.4321289 214.081055,51.1713867 L214.081055,51.1713867 L214.081055,66.6181641 L220.584961,66.6181641 L220.584961,49.5673828 C220.584961,47.2089844 219.962402,45.3486328 218.717285,43.9863281 C217.472168,42.6240234 215.772949,41.9428711 213.619629,41.9428711 C210.265137,41.9428711 207.525879,43.6420898 205.401855,47.0405273 L205.401855,47.0405273 L205.401855,42.4921875 L198.897949,42.4921875 L198.897949,66.6181641 L205.401855,66.6181641 Z M245.699707,67.1674805 C246.754395,67.1674805 247.970215,66.9624023 249.347168,66.5522461 L249.347168,66.5522461 L249.193359,62.9047852 C248.841797,62.9633789 248.556152,62.9926758 248.336426,62.9926758 C247.120605,62.9926758 246.512695,62.0478516 246.512695,60.1582031 L246.512695,60.1582031 L246.512695,49.4794922 C246.512695,44.4550781 243.355957,41.9428711 237.04248,41.9428711 C234.156738,41.9428711 231.241699,42.4995117 228.297363,43.612793 L228.297363,43.612793 L228.297363,48.0952148 C230.890137,46.659668 233.453613,45.9418945 235.987793,45.9418945 C238.844238,45.9418945 240.272461,47.1943359 240.272461,49.6992188 L240.272461,49.6992188 L240.272461,51.8964844 L238.536621,51.8964844 C234.566895,51.8964844 231.516357,52.6179199 229.38501,54.060791 C227.253662,55.5036621 226.187988,57.5581055 226.187988,60.2241211 C226.187988,62.2749023 226.847168,63.9448242 228.165527,65.2338867 C229.483887,66.5229492 231.197754,67.1674805 233.307129,67.1674805 C235.782715,67.1674805 238.104492,66.1201172 240.272461,64.0253906 L240.272461,64.0253906 L240.558105,64.0253906 C241.319824,66.1201172 243.033691,67.1674805 245.699707,67.1674805 Z M235.592285,62.7509766 C234.69873,62.7509766 233.947998,62.4470215 233.340088,61.8391113 C232.732178,61.2312012 232.428223,60.4804688 232.428223,59.5869141 C232.428223,56.9501953 234.530273,55.6318359 238.734375,55.6318359 L238.734375,55.6318359 L240.272461,55.6318359 L240.272461,60.5317383 C238.675781,62.0112305 237.115723,62.7509766 235.592285,62.7509766 Z M289.820801,66.6181641 L289.820801,62.2895508 L276.065918,62.2895508 L289.557129,46.5571289 L289.557129,42.4921875 L268.990723,42.4921875 L268.990723,46.5571289 L281.866699,46.5571289 L268.375488,62.2895508 L268.375488,66.6181641 L289.820801,66.6181641 Z M302.828613,38.4272461 L302.828613,33 L296.324707,33 L296.324707,38.4272461 L302.828613,38.4272461 Z M302.828613,66.6181641 L302.828613,42.4921875 L296.324707,42.4921875 L296.324707,66.6181641 L302.828613,66.6181641 Z M317.660156,67.1674805 C321.029297,67.1674805 323.768555,65.4682617 325.87793,62.0698242 L325.87793,62.0698242 L325.87793,66.6181641 L332.381836,66.6181641 L332.381836,42.4921875 L325.87793,42.4921875 L325.87793,57.675293 C323.973633,60.590332 321.996094,62.0478516 319.945312,62.0478516 C318.114258,62.0478516 317.19873,60.6782227 317.19873,57.9389648 L317.19873,57.9389648 L317.19873,42.4921875 L310.694824,42.4921875 L310.694824,59.5429688 C310.694824,61.9013672 311.317383,63.7617188 312.5625,65.1240234 C313.807617,66.4863281 315.506836,67.1674805 317.660156,67.1674805 Z M357.760254,67.1674805 C358.814941,67.1674805 360.030762,66.9624023 361.407715,66.5522461 L361.407715,66.5522461 L361.253906,62.9047852 C360.902344,62.9633789 360.616699,62.9926758 360.396973,62.9926758 C359.181152,62.9926758 358.573242,62.0478516 358.573242,60.1582031 L358.573242,60.1582031 L358.573242,49.4794922 C358.573242,44.4550781 355.416504,41.9428711 349.103027,41.9428711 C346.217285,41.9428711 343.302246,42.4995117 340.35791,43.612793 L340.35791,43.612793 L340.35791,48.0952148 C342.950684,46.659668 345.51416,45.9418945 348.04834,45.9418945 C350.904785,45.9418945 352.333008,47.1943359 352.333008,49.6992188 L352.333008,49.6992188 L352.333008,51.8964844 L350.597168,51.8964844 C346.627441,51.8964844 343.576904,52.6179199 341.445557,54.060791 C339.314209,55.5036621 338.248535,57.5581055 338.248535,60.2241211 C338.248535,62.2749023 338.907715,63.9448242 340.226074,65.2338867 C341.544434,66.5229492 343.258301,67.1674805 345.367676,67.1674805 C347.843262,67.1674805 350.165039,66.1201172 352.333008,64.0253906 L352.333008,64.0253906 L352.618652,64.0253906 C353.380371,66.1201172 355.094238,67.1674805 357.760254,67.1674805 Z M347.652832,62.7509766 C346.759277,62.7509766 346.008545,62.4470215 345.400635,61.8391113 C344.792725,61.2312012 344.48877,60.4804688 344.48877,59.5869141 C344.48877,56.9501953 346.59082,55.6318359 350.794922,55.6318359 L350.794922,55.6318359 L352.333008,55.6318359 L352.333008,60.5317383 C350.736328,62.0112305 349.17627,62.7509766 347.652832,62.7509766 Z" id="Bunaziua" fill="#414141" fill-rule="nonzero"/>
            </g>
            <g id="identifier" transform="translate(20.000000, 454.000000)" fill="#000000" font-family="Arial-BoldMT, Arial" font-size="10" font-weight="bold" opacity="0.451421693">
                <text id="ID">
                    <tspan x="0" y="24">m0bjM7V7</tspan>
                </text>
                <text id="BATCH-1">
                    <tspan x="0" y="9">BATCH 1</tspan>
                </text>
            </g>
            <g id="qrcode" opacity="0.448946221" transform="translate(20.000000, 20.000000)" fill="#000000">
                <rect width="2.5" height="2.5" x="0.0" y="0.0" style="fill:#000000"/><rect width="2.5" height="2.5" x="2.5" y="0.0" style="fill:#000000"/><rect width="2.5" height="2.5" x="5.0" y="0.0" style="fill:#000000"/><rect width="2.5" height="2.5" x="7.5" y="0.0" style="fill:#000000"/><rect width="2.5" height="2.5" x="10.0" y="0.0" style="fill:#000000"/><rect width="2.5" height="2.5" x="12.5" y="0.0" style="fill:#000000"/><rect width="2.5" height="2.5" x="15.0" y="0.0" style="fill:#000000"/><rect width="2.5" height="2.5" x="27.5" y="0.0" style="fill:#000000"/><rect width="2.5" height="2.5" x="32.5" y="0.0" style="fill:#000000"/><rect width="2.5" height="2.5" x="35.0" y="0.0" style="fill:#000000"/><rect width="2.5" height="2.5" x="37.5" y="0.0" style="fill:#000000"/><rect width="2.5" height="2.5" x="40.0" y="0.0" style="fill:#000000"/><rect width="2.5" height="2.5" x="42.5" y="0.0" style="fill:#000000"/><rect width="2.5" height="2.5" x="45.0" y="0.0" style="fill:#000000"/><rect width="2.5" height="2.5" x="47.5" y="0.0" style="fill:#000000"/><rect width="2.5" height="2.5" x="55.0" y="0.0" style="fill:#000000"/><rect width="2.5" height="2.5" x="60.0" y="0.0" style="fill:#000000"/><rect width="2.5" height="2.5" x="65.0" y="0.0" style="fill:#000000"/><rect width="2.5" height="2.5" x="67.5" y="0.0" style="fill:#000000"/><rect width="2.5" height="2.5" x="70.0" y="0.0" style="fill:#000000"/><rect width="2.5" height="2.5" x="72.5" y="0.0" style="fill:#000000"/><rect width="2.5" height="2.5" x="75.0" y="0.0" style="fill:#000000"/><rect width="2.5" height="2.5" x="77.5" y="0.0" style="fill:#000000"/><rect width="2.5" height="2.5" x="80.0" y="0.0" style="fill:#000000"/><rect width="2.5" height="2.5" x="0.0" y="2.5" style="fill:#000000"/><rect width="2.5" height="2.5" x="15.0" y="2.5" style="fill:#000000"/><rect width="2.5" height="2.5" x="20.0" y="2.5" style="fill:#000000"/><rect width="2.5" height="2.5" x="25.0" y="2.5" style="fill:#000000"/><rect width="2.5" height="2.5" x="27.5" y="2.5" style="fill:#000000"/><rect width="2.5" height="2.5" x="37.5" y="2.5" style="fill:#000000"/><rect width="2.5" height="2.5" x="42.5" y="2.5" style="fill:#000000"/><rect width="2.5" height="2.5" x="45.0" y="2.5" style="fill:#000000"/><rect width="2.5" height="2.5" x="55.0" y="2.5" style="fill:#000000"/><rect width="2.5" height="2.5" x="65.0" y="2.5" style="fill:#000000"/><rect width="2.5" height="2.5" x="80.0" y="2.5" style="fill:#000000"/><rect width="2.5" height="2.5" x="0.0" y="5.0" style="fill:#000000"/><rect width="2.5" height="2.5" x="5.0" y="5.0" style="fill:#000000"/><rect width="2.5" height="2.5" x="7.5" y="5.0" style="fill:#000000"/><rect width="2.5" height="2.5" x="10.0" y="5.0" style="fill:#000000"/><rect width="2.5" height="2.5" x="15.0" y="5.0" style="fill:#000000"/><rect width="2.5" height="2.5" x="20.0" y="5.0" style="fill:#000000"/><rect width="2.5" height="2.5" x="22.5" y="5.0" style="fill:#000000"/><rect width="2.5" height="2.5" x="27.5" y="5.0" style="fill:#000000"/><rect width="2.5" height="2.5" x="32.5" y="5.0" style="fill:#000000"/><rect width="2.5" height="2.5" x="37.5" y="5.0" style="fill:#000000"/><rect width="2.5" height="2.5" x="42.5" y="5.0" style="fill:#000000"/><rect width="2.5" height="2.5" x="45.0" y="5.0" style="fill:#000000"/><rect width="2.5" height="2.5" x="47.5" y="5.0" style="fill:#000000"/><rect width="2.5" height="2.5" x="50.0" y="5.0" style="fill:#000000"/><rect width="2.5" height="2.5" x="52.5" y="5.0" style="fill:#000000"/><rect width="2.5" height="2.5" x="55.0" y="5.0" style="fill:#000000"/><rect width="2.5" height="2.5" x="60.0" y="5.0" style="fill:#000000"/><rect width="2.5" height="2.5" x="65.0" y="5.0" style="fill:#000000"/><rect width="2.5" height="2.5" x="70.0" y="5.0" style="fill:#000000"/><rect width="2.5" height="2.5" x="72.5" y="5.0" style="fill:#000000"/><rect width="2.5" height="2.5" x="75.0" y="5.0" style="fill:#000000"/><rect width="2.5" height="2.5" x="80.0" y="5.0" style="fill:#000000"/><rect width="2.5" height="2.5" x="0.0" y="7.5" style="fill:#000000"/><rect width="2.5" height="2.5" x="5.0" y="7.5" style="fill:#000000"/><rect width="2.5" height="2.5" x="7.5" y="7.5" style="fill:#000000"/><rect width="2.5" height="2.5" x="10.0" y="7.5" style="fill:#000000"/><rect width="2.5" height="2.5" x="15.0" y="7.5" style="fill:#000000"/><rect width="2.5" height="2.5" x="20.0" y="7.5" style="fill:#000000"/><rect width="2.5" height="2.5" x="22.5" y="7.5" style="fill:#000000"/><rect width="2.5" height="2.5" x="32.5" y="7.5" style="fill:#000000"/><rect width="2.5" height="2.5" x="35.0" y="7.5" style="fill:#000000"/><rect width="2.5" height="2.5" x="37.5" y="7.5" style="fill:#000000"/><rect width="2.5" height="2.5" x="45.0" y="7.5" style="fill:#000000"/><rect width="2.5" height="2.5" x="50.0" y="7.5" style="fill:#000000"/><rect width="2.5" height="2.5" x="52.5" y="7.5" style="fill:#000000"/><rect width="2.5" height="2.5" x="55.0" y="7.5" style="fill:#000000"/><rect width="2.5" height="2.5" x="57.5" y="7.5" style="fill:#000000"/><rect width="2.5" height="2.5" x="65.0" y="7.5" style="fill:#000000"/><rect width="2.5" height="2.5" x="70.0" y="7.5" style="fill:#000000"/><rect width="2.5" height="2.5" x="72.5" y="7.5" style="fill:#000000"/><rect width="2.5" height="2.5" x="75.0" y="7.5" style="fill:#000000"/><rect width="2.5" height="2.5" x="80.0" y="7.5" style="fill:#000000"/><rect width="2.5" height="2.5" x="0.0" y="10.0" style="fill:#000000"/><rect width="2.5" height="2.5" x="5.0" y="10.0" style="fill:#000000"/><rect width="2.5" height="2.5" x="7.5" y="10.0" style="fill:#000000"/><rect width="2.5" height="2.5" x="10.0" y="10.0" style="fill:#000000"/><rect width="2.5" height="2.5" x="15.0" y="10.0" style="fill:#000000"/><rect width="2.5" height="2.5" x="20.0" y="10.0" style="fill:#000000"/><rect width="2.5" height="2.5" x="25.0" y="10.0" style="fill:#000000"/><rect width="2.5" height="2.5" x="30.0" y="10.0" style="fill:#000000"/><rect width="2.5" height="2.5" x="32.5" y="10.0" style="fill:#000000"/><rect width="2.5" height="2.5" x="37.5" y="10.0" style="fill:#000000"/><rect width="2.5" height="2.5" x="47.5" y="10.0" style="fill:#000000"/><rect width="2.5" height="2.5" x="55.0" y="10.0" style="fill:#000000"/><rect width="2.5" height="2.5" x="57.5" y="10.0" style="fill:#000000"/><rect width="2.5" height="2.5" x="65.0" y="10.0" style="fill:#000000"/><rect width="2.5" height="2.5" x="70.0" y="10.0" style="fill:#000000"/><rect width="2.5" height="2.5" x="72.5" y="10.0" style="fill:#000000"/><rect width="2.5" height="2.5" x="75.0" y="10.0" style="fill:#000000"/><rect width="2.5" height="2.5" x="80.0" y="10.0" style="fill:#000000"/><rect width="2.5" height="2.5" x="0.0" y="12.5" style="fill:#000000"/><rect width="2.5" height="2.5" x="15.0" y="12.5" style="fill:#000000"/><rect width="2.5" height="2.5" x="20.0" y="12.5" style="fill:#000000"/><rect width="2.5" height="2.5" x="22.5" y="12.5" style="fill:#000000"/><rect width="2.5" height="2.5" x="35.0" y="12.5" style="fill:#000000"/><rect width="2.5" height="2.5" x="40.0" y="12.5" style="fill:#000000"/><rect width="2.5" height="2.5" x="47.5" y="12.5" style="fill:#000000"/><rect width="2.5" height="2.5" x="55.0" y="12.5" style="fill:#000000"/><rect width="2.5" height="2.5" x="57.5" y="12.5" style="fill:#000000"/><rect width="2.5" height="2.5" x="65.0" y="12.5" style="fill:#000000"/><rect width="2.5" height="2.5" x="80.0" y="12.5" style="fill:#000000"/><rect width="2.5" height="2.5" x="0.0" y="15.0" style="fill:#000000"/><rect width="2.5" height="2.5" x="2.5" y="15.0" style="fill:#000000"/><rect width="2.5" height="2.5" x="5.0" y="15.0" style="fill:#000000"/><rect width="2.5" height="2.5" x="7.5" y="15.0" style="fill:#000000"/><rect width="2.5" height="2.5" x="10.0" y="15.0" style="fill:#000000"/><rect width="2.5" height="2.5" x="12.5" y="15.0" style="fill:#000000"/><rect width="2.5" height="2.5" x="15.0" y="15.0" style="fill:#000000"/><rect width="2.5" height="2.5" x="20.0" y="15.0" style="fill:#000000"/><rect width="2.5" height="2.5" x="25.0" y="15.0" style="fill:#000000"/><rect width="2.5" height="2.5" x="30.0" y="15.0" style="fill:#000000"/><rect width="2.5" height="2.5" x="35.0" y="15.0" style="fill:#000000"/><rect width="2.5" height="2.5" x="40.0" y="15.0" style="fill:#000000"/><rect width="2.5" height="2.5" x="45.0" y="15.0" style="fill:#000000"/><rect width="2.5" height="2.5" x="50.0" y="15.0" style="fill:#000000"/><rect width="2.5" height="2.5" x="55.0" y="15.0" style="fill:#000000"/><rect width="2.5" height="2.5" x="60.0" y="15.0" style="fill:#000000"/><rect width="2.5" height="2.5" x="65.0" y="15.0" style="fill:#000000"/><rect width="2.5" height="2.5" x="67.5" y="15.0" style="fill:#000000"/><rect width="2.5" height="2.5" x="70.0" y="15.0" style="fill:#000000"/><rect width="2.5" height="2.5" x="72.5" y="15.0" style="fill:#000000"/><rect width="2.5" height="2.5" x="75.0" y="15.0" style="fill:#000000"/><rect width="2.5" height="2.5" x="77.5" y="15.0" style="fill:#000000"/><rect width="2.5" height="2.5" x="80.0" y="15.0" style="fill:#000000"/><rect width="2.5" height="2.5" x="22.5" y="17.5" style="fill:#000000"/><rect width="2.5" height="2.5" x="25.0" y="17.5" style="fill:#000000"/><rect width="2.5" height="2.5" x="27.5" y="17.5" style="fill:#000000"/><rect width="2.5" height="2.5" x="32.5" y="17.5" style="fill:#000000"/><rect width="2.5" height="2.5" x="42.5" y="17.5" style="fill:#000000"/><rect width="2.5" height="2.5" x="45.0" y="17.5" style="fill:#000000"/><rect width="2.5" height="2.5" x="47.5" y="17.5" style="fill:#000000"/><rect width="2.5" height="2.5" x="50.0" y="17.5" style="fill:#000000"/><rect width="2.5" height="2.5" x="55.0" y="17.5" style="fill:#000000"/><rect width="2.5" height="2.5" x="57.5" y="17.5" style="fill:#000000"/><rect width="2.5" height="2.5" x="60.0" y="17.5" style="fill:#000000"/><rect width="2.5" height="2.5" x="5.0" y="20.0" style="fill:#000000"/><rect width="2.5" height="2.5" x="12.5" y="20.0" style="fill:#000000"/><rect width="2.5" height="2.5" x="15.0" y="20.0" style="fill:#000000"/><rect width="2.5" height="2.5" x="17.5" y="20.0" style="fill:#000000"/><rect width="2.5" height="2.5" x="20.0" y="20.0" style="fill:#000000"/><rect width="2.5" height="2.5" x="22.5" y="20.0" style="fill:#000000"/><rect width="2.5" height="2.5" x="32.5" y="20.0" style="fill:#000000"/><rect width="2.5" height="2.5" x="35.0" y="20.0" style="fill:#000000"/><rect width="2.5" height="2.5" x="37.5" y="20.0" style="fill:#000000"/><rect width="2.5" height="2.5" x="40.0" y="20.0" style="fill:#000000"/><rect width="2.5" height="2.5" x="42.5" y="20.0" style="fill:#000000"/><rect width="2.5" height="2.5" x="50.0" y="20.0" style="fill:#000000"/><rect width="2.5" height="2.5" x="55.0" y="20.0" style="fill:#000000"/><rect width="2.5" height="2.5" x="60.0" y="20.0" style="fill:#000000"/><rect width="2.5" height="2.5" x="62.5" y="20.0" style="fill:#000000"/><rect width="2.5" height="2.5" x="67.5" y="20.0" style="fill:#000000"/><rect width="2.5" height="2.5" x="70.0" y="20.0" style="fill:#000000"/><rect width="2.5" height="2.5" x="72.5" y="20.0" style="fill:#000000"/><rect width="2.5" height="2.5" x="75.0" y="20.0" style="fill:#000000"/><rect width="2.5" height="2.5" x="77.5" y="20.0" style="fill:#000000"/><rect width="2.5" height="2.5" x="7.5" y="22.5" style="fill:#000000"/><rect width="2.5" height="2.5" x="12.5" y="22.5" style="fill:#000000"/><rect width="2.5" height="2.5" x="27.5" y="22.5" style="fill:#000000"/><rect width="2.5" height="2.5" x="45.0" y="22.5" style="fill:#000000"/><rect width="2.5" height="2.5" x="55.0" y="22.5" style="fill:#000000"/><rect width="2.5" height="2.5" x="57.5" y="22.5" style="fill:#000000"/><rect width="2.5" height="2.5" x="60.0" y="22.5" style="fill:#000000"/><rect width="2.5" height="2.5" x="62.5" y="22.5" style="fill:#000000"/><rect width="2.5" height="2.5" x="65.0" y="22.5" style="fill:#000000"/><rect width="2.5" height="2.5" x="67.5" y="22.5" style="fill:#000000"/><rect width="2.5" height="2.5" x="77.5" y="22.5" style="fill:#000000"/><rect width="2.5" height="2.5" x="80.0" y="22.5" style="fill:#000000"/><rect width="2.5" height="2.5" x="2.5" y="25.0" style="fill:#000000"/><rect width="2.5" height="2.5" x="12.5" y="25.0" style="fill:#000000"/><rect width="2.5" height="2.5" x="15.0" y="25.0" style="fill:#000000"/><rect width="2.5" height="2.5" x="17.5" y="25.0" style="fill:#000000"/><rect width="2.5" height="2.5" x="20.0" y="25.0" style="fill:#000000"/><rect width="2.5" height="2.5" x="22.5" y="25.0" style="fill:#000000"/><rect width="2.5" height="2.5" x="40.0" y="25.0" style="fill:#000000"/><rect width="2.5" height="2.5" x="52.5" y="25.0" style="fill:#000000"/><rect width="2.5" height="2.5" x="55.0" y="25.0" style="fill:#000000"/><rect width="2.5" height="2.5" x="57.5" y="25.0" style="fill:#000000"/><rect width="2.5" height="2.5" x="67.5" y="25.0" style="fill:#000000"/><rect width="2.5" height="2.5" x="70.0" y="25.0" style="fill:#000000"/><rect width="2.5" height="2.5" x="72.5" y="25.0" style="fill:#000000"/><rect width="2.5" height="2.5" x="80.0" y="25.0" style="fill:#000000"/><rect width="2.5" height="2.5" x="0.0" y="27.5" style="fill:#000000"/><rect width="2.5" height="2.5" x="2.5" y="27.5" style="fill:#000000"/><rect width="2.5" height="2.5" x="5.0" y="27.5" style="fill:#000000"/><rect width="2.5" height="2.5" x="7.5" y="27.5" style="fill:#000000"/><rect width="2.5" height="2.5" x="12.5" y="27.5" style="fill:#000000"/><rect width="2.5" height="2.5" x="17.5" y="27.5" style="fill:#000000"/><rect width="2.5" height="2.5" x="20.0" y="27.5" style="fill:#000000"/><rect width="2.5" height="2.5" x="25.0" y="27.5" style="fill:#000000"/><rect width="2.5" height="2.5" x="27.5" y="27.5" style="fill:#000000"/><rect width="2.5" height="2.5" x="30.0" y="27.5" style="fill:#000000"/><rect width="2.5" height="2.5" x="32.5" y="27.5" style="fill:#000000"/><rect width="2.5" height="2.5" x="35.0" y="27.5" style="fill:#000000"/><rect width="2.5" height="2.5" x="37.5" y="27.5" style="fill:#000000"/><rect width="2.5" height="2.5" x="42.5" y="27.5" style="fill:#000000"/><rect width="2.5" height="2.5" x="55.0" y="27.5" style="fill:#000000"/><rect width="2.5" height="2.5" x="57.5" y="27.5" style="fill:#000000"/><rect width="2.5" height="2.5" x="60.0" y="27.5" style="fill:#000000"/><rect width="2.5" height="2.5" x="65.0" y="27.5" style="fill:#000000"/><rect width="2.5" height="2.5" x="67.5" y="27.5" style="fill:#000000"/><rect width="2.5" height="2.5" x="72.5" y="27.5" style="fill:#000000"/><rect width="2.5" height="2.5" x="77.5" y="27.5" style="fill:#000000"/><rect width="2.5" height="2.5" x="80.0" y="27.5" style="fill:#000000"/><rect width="2.5" height="2.5" x="0.0" y="30.0" style="fill:#000000"/><rect width="2.5" height="2.5" x="2.5" y="30.0" style="fill:#000000"/><rect width="2.5" height="2.5" x="5.0" y="30.0" style="fill:#000000"/><rect width="2.5" height="2.5" x="7.5" y="30.0" style="fill:#000000"/><rect width="2.5" height="2.5" x="10.0" y="30.0" style="fill:#000000"/><rect width="2.5" height="2.5" x="15.0" y="30.0" style="fill:#000000"/><rect width="2.5" height="2.5" x="17.5" y="30.0" style="fill:#000000"/><rect width="2.5" height="2.5" x="20.0" y="30.0" style="fill:#000000"/><rect width="2.5" height="2.5" x="22.5" y="30.0" style="fill:#000000"/><rect width="2.5" height="2.5" x="30.0" y="30.0" style="fill:#000000"/><rect width="2.5" height="2.5" x="32.5" y="30.0" style="fill:#000000"/><rect width="2.5" height="2.5" x="35.0" y="30.0" style="fill:#000000"/><rect width="2.5" height="2.5" x="47.5" y="30.0" style="fill:#000000"/><rect width="2.5" height="2.5" x="50.0" y="30.0" style="fill:#000000"/><rect width="2.5" height="2.5" x="52.5" y="30.0" style="fill:#000000"/><rect width="2.5" height="2.5" x="55.0" y="30.0" style="fill:#000000"/><rect width="2.5" height="2.5" x="60.0" y="30.0" style="fill:#000000"/><rect width="2.5" height="2.5" x="65.0" y="30.0" style="fill:#000000"/><rect width="2.5" height="2.5" x="70.0" y="30.0" style="fill:#000000"/><rect width="2.5" height="2.5" x="80.0" y="30.0" style="fill:#000000"/><rect width="2.5" height="2.5" x="5.0" y="32.5" style="fill:#000000"/><rect width="2.5" height="2.5" x="10.0" y="32.5" style="fill:#000000"/><rect width="2.5" height="2.5" x="12.5" y="32.5" style="fill:#000000"/><rect width="2.5" height="2.5" x="17.5" y="32.5" style="fill:#000000"/><rect width="2.5" height="2.5" x="25.0" y="32.5" style="fill:#000000"/><rect width="2.5" height="2.5" x="32.5" y="32.5" style="fill:#000000"/><rect width="2.5" height="2.5" x="40.0" y="32.5" style="fill:#000000"/><rect width="2.5" height="2.5" x="47.5" y="32.5" style="fill:#000000"/><rect width="2.5" height="2.5" x="52.5" y="32.5" style="fill:#000000"/><rect width="2.5" height="2.5" x="55.0" y="32.5" style="fill:#000000"/><rect width="2.5" height="2.5" x="57.5" y="32.5" style="fill:#000000"/><rect width="2.5" height="2.5" x="60.0" y="32.5" style="fill:#000000"/><rect width="2.5" height="2.5" x="65.0" y="32.5" style="fill:#000000"/><rect width="2.5" height="2.5" x="67.5" y="32.5" style="fill:#000000"/><rect width="2.5" height="2.5" x="75.0" y="32.5" style="fill:#000000"/><rect width="2.5" height="2.5" x="80.0" y="32.5" style="fill:#000000"/><rect width="2.5" height="2.5" x="0.0" y="35.0" style="fill:#000000"/><rect width="2.5" height="2.5" x="5.0" y="35.0" style="fill:#000000"/><rect width="2.5" height="2.5" x="10.0" y="35.0" style="fill:#000000"/><rect width="2.5" height="2.5" x="15.0" y="35.0" style="fill:#000000"/><rect width="2.5" height="2.5" x="20.0" y="35.0" style="fill:#000000"/><rect width="2.5" height="2.5" x="25.0" y="35.0" style="fill:#000000"/><rect width="2.5" height="2.5" x="37.5" y="35.0" style="fill:#000000"/><rect width="2.5" height="2.5" x="40.0" y="35.0" style="fill:#000000"/><rect width="2.5" height="2.5" x="42.5" y="35.0" style="fill:#000000"/><rect width="2.5" height="2.5" x="45.0" y="35.0" style="fill:#000000"/><rect width="2.5" height="2.5" x="57.5" y="35.0" style="fill:#000000"/><rect width="2.5" height="2.5" x="65.0" y="35.0" style="fill:#000000"/><rect width="2.5" height="2.5" x="72.5" y="35.0" style="fill:#000000"/><rect width="2.5" height="2.5" x="80.0" y="35.0" style="fill:#000000"/><rect width="2.5" height="2.5" x="0.0" y="37.5" style="fill:#000000"/><rect width="2.5" height="2.5" x="5.0" y="37.5" style="fill:#000000"/><rect width="2.5" height="2.5" x="7.5" y="37.5" style="fill:#000000"/><rect width="2.5" height="2.5" x="10.0" y="37.5" style="fill:#000000"/><rect width="2.5" height="2.5" x="12.5" y="37.5" style="fill:#000000"/><rect width="2.5" height="2.5" x="20.0" y="37.5" style="fill:#000000"/><rect width="2.5" height="2.5" x="25.0" y="37.5" style="fill:#000000"/><rect width="2.5" height="2.5" x="30.0" y="37.5" style="fill:#000000"/><rect width="2.5" height="2.5" x="32.5" y="37.5" style="fill:#000000"/><rect width="2.5" height="2.5" x="35.0" y="37.5" style="fill:#000000"/><rect width="2.5" height="2.5" x="37.5" y="37.5" style="fill:#000000"/><rect width="2.5" height="2.5" x="42.5" y="37.5" style="fill:#000000"/><rect width="2.5" height="2.5" x="45.0" y="37.5" style="fill:#000000"/><rect width="2.5" height="2.5" x="50.0" y="37.5" style="fill:#000000"/><rect width="2.5" height="2.5" x="55.0" y="37.5" style="fill:#000000"/><rect width="2.5" height="2.5" x="60.0" y="37.5" style="fill:#000000"/><rect width="2.5" height="2.5" x="62.5" y="37.5" style="fill:#000000"/><rect width="2.5" height="2.5" x="65.0" y="37.5" style="fill:#000000"/><rect width="2.5" height="2.5" x="67.5" y="37.5" style="fill:#000000"/><rect width="2.5" height="2.5" x="72.5" y="37.5" style="fill:#000000"/><rect width="2.5" height="2.5" x="77.5" y="37.5" style="fill:#000000"/><rect width="2.5" height="2.5" x="80.0" y="37.5" style="fill:#000000"/><rect width="2.5" height="2.5" x="2.5" y="40.0" style="fill:#000000"/><rect width="2.5" height="2.5" x="7.5" y="40.0" style="fill:#000000"/><rect width="2.5" height="2.5" x="12.5" y="40.0" style="fill:#000000"/><rect width="2.5" height="2.5" x="15.0" y="40.0" style="fill:#000000"/><rect width="2.5" height="2.5" x="17.5" y="40.0" style="fill:#000000"/><rect width="2.5" height="2.5" x="25.0" y="40.0" style="fill:#000000"/><rect width="2.5" height="2.5" x="27.5" y="40.0" style="fill:#000000"/><rect width="2.5" height="2.5" x="30.0" y="40.0" style="fill:#000000"/><rect width="2.5" height="2.5" x="32.5" y="40.0" style="fill:#000000"/><rect width="2.5" height="2.5" x="35.0" y="40.0" style="fill:#000000"/><rect width="2.5" height="2.5" x="40.0" y="40.0" style="fill:#000000"/><rect width="2.5" height="2.5" x="42.5" y="40.0" style="fill:#000000"/><rect width="2.5" height="2.5" x="50.0" y="40.0" style="fill:#000000"/><rect width="2.5" height="2.5" x="55.0" y="40.0" style="fill:#000000"/><rect width="2.5" height="2.5" x="57.5" y="40.0" style="fill:#000000"/><rect width="2.5" height="2.5" x="65.0" y="40.0" style="fill:#000000"/><rect width="2.5" height="2.5" x="67.5" y="40.0" style="fill:#000000"/><rect width="2.5" height="2.5" x="72.5" y="40.0" style="fill:#000000"/><rect width="2.5" height="2.5" x="75.0" y="40.0" style="fill:#000000"/><rect width="2.5" height="2.5" x="0.0" y="42.5" style="fill:#000000"/><rect width="2.5" height="2.5" x="2.5" y="42.5" style="fill:#000000"/><rect width="2.5" height="2.5" x="5.0" y="42.5" style="fill:#000000"/><rect width="2.5" height="2.5" x="7.5" y="42.5" style="fill:#000000"/><rect width="2.5" height="2.5" x="17.5" y="42.5" style="fill:#000000"/><rect width="2.5" height="2.5" x="22.5" y="42.5" style="fill:#000000"/><rect width="2.5" height="2.5" x="35.0" y="42.5" style="fill:#000000"/><rect width="2.5" height="2.5" x="37.5" y="42.5" style="fill:#000000"/><rect width="2.5" height="2.5" x="40.0" y="42.5" style="fill:#000000"/><rect width="2.5" height="2.5" x="42.5" y="42.5" style="fill:#000000"/><rect width="2.5" height="2.5" x="45.0" y="42.5" style="fill:#000000"/><rect width="2.5" height="2.5" x="47.5" y="42.5" style="fill:#000000"/><rect width="2.5" height="2.5" x="50.0" y="42.5" style="fill:#000000"/><rect width="2.5" height="2.5" x="52.5" y="42.5" style="fill:#000000"/><rect width="2.5" height="2.5" x="57.5" y="42.5" style="fill:#000000"/><rect width="2.5" height="2.5" x="62.5" y="42.5" style="fill:#000000"/><rect width="2.5" height="2.5" x="65.0" y="42.5" style="fill:#000000"/><rect width="2.5" height="2.5" x="67.5" y="42.5" style="fill:#000000"/><rect width="2.5" height="2.5" x="75.0" y="42.5" style="fill:#000000"/><rect width="2.5" height="2.5" x="80.0" y="42.5" style="fill:#000000"/><rect width="2.5" height="2.5" x="0.0" y="45.0" style="fill:#000000"/><rect width="2.5" height="2.5" x="5.0" y="45.0" style="fill:#000000"/><rect width="2.5" height="2.5" x="10.0" y="45.0" style="fill:#000000"/><rect width="2.5" height="2.5" x="12.5" y="45.0" style="fill:#000000"/><rect width="2.5" height="2.5" x="15.0" y="45.0" style="fill:#000000"/><rect width="2.5" height="2.5" x="20.0" y="45.0" style="fill:#000000"/><rect width="2.5" height="2.5" x="30.0" y="45.0" style="fill:#000000"/><rect width="2.5" height="2.5" x="32.5" y="45.0" style="fill:#000000"/><rect width="2.5" height="2.5" x="35.0" y="45.0" style="fill:#000000"/><rect width="2.5" height="2.5" x="37.5" y="45.0" style="fill:#000000"/><rect width="2.5" height="2.5" x="47.5" y="45.0" style="fill:#000000"/><rect width="2.5" height="2.5" x="52.5" y="45.0" style="fill:#000000"/><rect width="2.5" height="2.5" x="57.5" y="45.0" style="fill:#000000"/><rect width="2.5" height="2.5" x="65.0" y="45.0" style="fill:#000000"/><rect width="2.5" height="2.5" x="67.5" y="45.0" style="fill:#000000"/><rect width="2.5" height="2.5" x="72.5" y="45.0" style="fill:#000000"/><rect width="2.5" height="2.5" x="75.0" y="45.0" style="fill:#000000"/><rect width="2.5" height="2.5" x="80.0" y="45.0" style="fill:#000000"/><rect width="2.5" height="2.5" x="2.5" y="47.5" style="fill:#000000"/><rect width="2.5" height="2.5" x="5.0" y="47.5" style="fill:#000000"/><rect width="2.5" height="2.5" x="7.5" y="47.5" style="fill:#000000"/><rect width="2.5" height="2.5" x="10.0" y="47.5" style="fill:#000000"/><rect width="2.5" height="2.5" x="17.5" y="47.5" style="fill:#000000"/><rect width="2.5" height="2.5" x="22.5" y="47.5" style="fill:#000000"/><rect width="2.5" height="2.5" x="27.5" y="47.5" style="fill:#000000"/><rect width="2.5" height="2.5" x="32.5" y="47.5" style="fill:#000000"/><rect width="2.5" height="2.5" x="35.0" y="47.5" style="fill:#000000"/><rect width="2.5" height="2.5" x="45.0" y="47.5" style="fill:#000000"/><rect width="2.5" height="2.5" x="47.5" y="47.5" style="fill:#000000"/><rect width="2.5" height="2.5" x="50.0" y="47.5" style="fill:#000000"/><rect width="2.5" height="2.5" x="57.5" y="47.5" style="fill:#000000"/><rect width="2.5" height="2.5" x="65.0" y="47.5" style="fill:#000000"/><rect width="2.5" height="2.5" x="67.5" y="47.5" style="fill:#000000"/><rect width="2.5" height="2.5" x="70.0" y="47.5" style="fill:#000000"/><rect width="2.5" height="2.5" x="72.5" y="47.5" style="fill:#000000"/><rect width="2.5" height="2.5" x="80.0" y="47.5" style="fill:#000000"/><rect width="2.5" height="2.5" x="0.0" y="50.0" style="fill:#000000"/><rect width="2.5" height="2.5" x="2.5" y="50.0" style="fill:#000000"/><rect width="2.5" height="2.5" x="7.5" y="50.0" style="fill:#000000"/><rect width="2.5" height="2.5" x="12.5" y="50.0" style="fill:#000000"/><rect width="2.5" height="2.5" x="15.0" y="50.0" style="fill:#000000"/><rect width="2.5" height="2.5" x="17.5" y="50.0" style="fill:#000000"/><rect width="2.5" height="2.5" x="22.5" y="50.0" style="fill:#000000"/><rect width="2.5" height="2.5" x="27.5" y="50.0" style="fill:#000000"/><rect width="2.5" height="2.5" x="30.0" y="50.0" style="fill:#000000"/><rect width="2.5" height="2.5" x="32.5" y="50.0" style="fill:#000000"/><rect width="2.5" height="2.5" x="35.0" y="50.0" style="fill:#000000"/><rect width="2.5" height="2.5" x="37.5" y="50.0" style="fill:#000000"/><rect width="2.5" height="2.5" x="50.0" y="50.0" style="fill:#000000"/><rect width="2.5" height="2.5" x="57.5" y="50.0" style="fill:#000000"/><rect width="2.5" height="2.5" x="60.0" y="50.0" style="fill:#000000"/><rect width="2.5" height="2.5" x="62.5" y="50.0" style="fill:#000000"/><rect width="2.5" height="2.5" x="65.0" y="50.0" style="fill:#000000"/><rect width="2.5" height="2.5" x="67.5" y="50.0" style="fill:#000000"/><rect width="2.5" height="2.5" x="77.5" y="50.0" style="fill:#000000"/><rect width="2.5" height="2.5" x="80.0" y="50.0" style="fill:#000000"/><rect width="2.5" height="2.5" x="5.0" y="52.5" style="fill:#000000"/><rect width="2.5" height="2.5" x="17.5" y="52.5" style="fill:#000000"/><rect width="2.5" height="2.5" x="20.0" y="52.5" style="fill:#000000"/><rect width="2.5" height="2.5" x="30.0" y="52.5" style="fill:#000000"/><rect width="2.5" height="2.5" x="37.5" y="52.5" style="fill:#000000"/><rect width="2.5" height="2.5" x="42.5" y="52.5" style="fill:#000000"/><rect width="2.5" height="2.5" x="50.0" y="52.5" style="fill:#000000"/><rect width="2.5" height="2.5" x="62.5" y="52.5" style="fill:#000000"/><rect width="2.5" height="2.5" x="65.0" y="52.5" style="fill:#000000"/><rect width="2.5" height="2.5" x="72.5" y="52.5" style="fill:#000000"/><rect width="2.5" height="2.5" x="80.0" y="52.5" style="fill:#000000"/><rect width="2.5" height="2.5" x="0.0" y="55.0" style="fill:#000000"/><rect width="2.5" height="2.5" x="2.5" y="55.0" style="fill:#000000"/><rect width="2.5" height="2.5" x="7.5" y="55.0" style="fill:#000000"/><rect width="2.5" height="2.5" x="10.0" y="55.0" style="fill:#000000"/><rect width="2.5" height="2.5" x="15.0" y="55.0" style="fill:#000000"/><rect width="2.5" height="2.5" x="17.5" y="55.0" style="fill:#000000"/><rect width="2.5" height="2.5" x="20.0" y="55.0" style="fill:#000000"/><rect width="2.5" height="2.5" x="22.5" y="55.0" style="fill:#000000"/><rect width="2.5" height="2.5" x="30.0" y="55.0" style="fill:#000000"/><rect width="2.5" height="2.5" x="32.5" y="55.0" style="fill:#000000"/><rect width="2.5" height="2.5" x="35.0" y="55.0" style="fill:#000000"/><rect width="2.5" height="2.5" x="37.5" y="55.0" style="fill:#000000"/><rect width="2.5" height="2.5" x="40.0" y="55.0" style="fill:#000000"/><rect width="2.5" height="2.5" x="45.0" y="55.0" style="fill:#000000"/><rect width="2.5" height="2.5" x="50.0" y="55.0" style="fill:#000000"/><rect width="2.5" height="2.5" x="52.5" y="55.0" style="fill:#000000"/><rect width="2.5" height="2.5" x="55.0" y="55.0" style="fill:#000000"/><rect width="2.5" height="2.5" x="57.5" y="55.0" style="fill:#000000"/><rect width="2.5" height="2.5" x="62.5" y="55.0" style="fill:#000000"/><rect width="2.5" height="2.5" x="65.0" y="55.0" style="fill:#000000"/><rect width="2.5" height="2.5" x="80.0" y="55.0" style="fill:#000000"/><rect width="2.5" height="2.5" x="7.5" y="57.5" style="fill:#000000"/><rect width="2.5" height="2.5" x="10.0" y="57.5" style="fill:#000000"/><rect width="2.5" height="2.5" x="12.5" y="57.5" style="fill:#000000"/><rect width="2.5" height="2.5" x="20.0" y="57.5" style="fill:#000000"/><rect width="2.5" height="2.5" x="27.5" y="57.5" style="fill:#000000"/><rect width="2.5" height="2.5" x="35.0" y="57.5" style="fill:#000000"/><rect width="2.5" height="2.5" x="42.5" y="57.5" style="fill:#000000"/><rect width="2.5" height="2.5" x="50.0" y="57.5" style="fill:#000000"/><rect width="2.5" height="2.5" x="57.5" y="57.5" style="fill:#000000"/><rect width="2.5" height="2.5" x="60.0" y="57.5" style="fill:#000000"/><rect width="2.5" height="2.5" x="67.5" y="57.5" style="fill:#000000"/><rect width="2.5" height="2.5" x="72.5" y="57.5" style="fill:#000000"/><rect width="2.5" height="2.5" x="77.5" y="57.5" style="fill:#000000"/><rect width="2.5" height="2.5" x="80.0" y="57.5" style="fill:#000000"/><rect width="2.5" height="2.5" x="0.0" y="60.0" style="fill:#000000"/><rect width="2.5" height="2.5" x="2.5" y="60.0" style="fill:#000000"/><rect width="2.5" height="2.5" x="5.0" y="60.0" style="fill:#000000"/><rect width="2.5" height="2.5" x="10.0" y="60.0" style="fill:#000000"/><rect width="2.5" height="2.5" x="12.5" y="60.0" style="fill:#000000"/><rect width="2.5" height="2.5" x="15.0" y="60.0" style="fill:#000000"/><rect width="2.5" height="2.5" x="17.5" y="60.0" style="fill:#000000"/><rect width="2.5" height="2.5" x="20.0" y="60.0" style="fill:#000000"/><rect width="2.5" height="2.5" x="25.0" y="60.0" style="fill:#000000"/><rect width="2.5" height="2.5" x="27.5" y="60.0" style="fill:#000000"/><rect width="2.5" height="2.5" x="30.0" y="60.0" style="fill:#000000"/><rect width="2.5" height="2.5" x="37.5" y="60.0" style="fill:#000000"/><rect width="2.5" height="2.5" x="47.5" y="60.0" style="fill:#000000"/><rect width="2.5" height="2.5" x="57.5" y="60.0" style="fill:#000000"/><rect width="2.5" height="2.5" x="60.0" y="60.0" style="fill:#000000"/><rect width="2.5" height="2.5" x="62.5" y="60.0" style="fill:#000000"/><rect width="2.5" height="2.5" x="65.0" y="60.0" style="fill:#000000"/><rect width="2.5" height="2.5" x="67.5" y="60.0" style="fill:#000000"/><rect width="2.5" height="2.5" x="70.0" y="60.0" style="fill:#000000"/><rect width="2.5" height="2.5" x="20.0" y="62.5" style="fill:#000000"/><rect width="2.5" height="2.5" x="22.5" y="62.5" style="fill:#000000"/><rect width="2.5" height="2.5" x="27.5" y="62.5" style="fill:#000000"/><rect width="2.5" height="2.5" x="35.0" y="62.5" style="fill:#000000"/><rect width="2.5" height="2.5" x="37.5" y="62.5" style="fill:#000000"/><rect width="2.5" height="2.5" x="42.5" y="62.5" style="fill:#000000"/><rect width="2.5" height="2.5" x="47.5" y="62.5" style="fill:#000000"/><rect width="2.5" height="2.5" x="50.0" y="62.5" style="fill:#000000"/><rect width="2.5" height="2.5" x="52.5" y="62.5" style="fill:#000000"/><rect width="2.5" height="2.5" x="60.0" y="62.5" style="fill:#000000"/><rect width="2.5" height="2.5" x="70.0" y="62.5" style="fill:#000000"/><rect width="2.5" height="2.5" x="72.5" y="62.5" style="fill:#000000"/><rect width="2.5" height="2.5" x="77.5" y="62.5" style="fill:#000000"/><rect width="2.5" height="2.5" x="80.0" y="62.5" style="fill:#000000"/><rect width="2.5" height="2.5" x="0.0" y="65.0" style="fill:#000000"/><rect width="2.5" height="2.5" x="2.5" y="65.0" style="fill:#000000"/><rect width="2.5" height="2.5" x="5.0" y="65.0" style="fill:#000000"/><rect width="2.5" height="2.5" x="7.5" y="65.0" style="fill:#000000"/><rect width="2.5" height="2.5" x="10.0" y="65.0" style="fill:#000000"/><rect width="2.5" height="2.5" x="12.5" y="65.0" style="fill:#000000"/><rect width="2.5" height="2.5" x="15.0" y="65.0" style="fill:#000000"/><rect width="2.5" height="2.5" x="20.0" y="65.0" style="fill:#000000"/><rect width="2.5" height="2.5" x="22.5" y="65.0" style="fill:#000000"/><rect width="2.5" height="2.5" x="27.5" y="65.0" style="fill:#000000"/><rect width="2.5" height="2.5" x="30.0" y="65.0" style="fill:#000000"/><rect width="2.5" height="2.5" x="35.0" y="65.0" style="fill:#000000"/><rect width="2.5" height="2.5" x="37.5" y="65.0" style="fill:#000000"/><rect width="2.5" height="2.5" x="40.0" y="65.0" style="fill:#000000"/><rect width="2.5" height="2.5" x="42.5" y="65.0" style="fill:#000000"/><rect width="2.5" height="2.5" x="47.5" y="65.0" style="fill:#000000"/><rect width="2.5" height="2.5" x="60.0" y="65.0" style="fill:#000000"/><rect width="2.5" height="2.5" x="65.0" y="65.0" style="fill:#000000"/><rect width="2.5" height="2.5" x="70.0" y="65.0" style="fill:#000000"/><rect width="2.5" height="2.5" x="75.0" y="65.0" style="fill:#000000"/><rect width="2.5" height="2.5" x="80.0" y="65.0" style="fill:#000000"/><rect width="2.5" height="2.5" x="0.0" y="67.5" style="fill:#000000"/><rect width="2.5" height="2.5" x="15.0" y="67.5" style="fill:#000000"/><rect width="2.5" height="2.5" x="20.0" y="67.5" style="fill:#000000"/><rect width="2.5" height="2.5" x="30.0" y="67.5" style="fill:#000000"/><rect width="2.5" height="2.5" x="32.5" y="67.5" style="fill:#000000"/><rect width="2.5" height="2.5" x="37.5" y="67.5" style="fill:#000000"/><rect width="2.5" height="2.5" x="45.0" y="67.5" style="fill:#000000"/><rect width="2.5" height="2.5" x="47.5" y="67.5" style="fill:#000000"/><rect width="2.5" height="2.5" x="50.0" y="67.5" style="fill:#000000"/><rect width="2.5" height="2.5" x="52.5" y="67.5" style="fill:#000000"/><rect width="2.5" height="2.5" x="60.0" y="67.5" style="fill:#000000"/><rect width="2.5" height="2.5" x="70.0" y="67.5" style="fill:#000000"/><rect width="2.5" height="2.5" x="77.5" y="67.5" style="fill:#000000"/><rect width="2.5" height="2.5" x="80.0" y="67.5" style="fill:#000000"/><rect width="2.5" height="2.5" x="0.0" y="70.0" style="fill:#000000"/><rect width="2.5" height="2.5" x="5.0" y="70.0" style="fill:#000000"/><rect width="2.5" height="2.5" x="7.5" y="70.0" style="fill:#000000"/><rect width="2.5" height="2.5" x="10.0" y="70.0" style="fill:#000000"/><rect width="2.5" height="2.5" x="15.0" y="70.0" style="fill:#000000"/><rect width="2.5" height="2.5" x="25.0" y="70.0" style="fill:#000000"/><rect width="2.5" height="2.5" x="30.0" y="70.0" style="fill:#000000"/><rect width="2.5" height="2.5" x="32.5" y="70.0" style="fill:#000000"/><rect width="2.5" height="2.5" x="37.5" y="70.0" style="fill:#000000"/><rect width="2.5" height="2.5" x="42.5" y="70.0" style="fill:#000000"/><rect width="2.5" height="2.5" x="45.0" y="70.0" style="fill:#000000"/><rect width="2.5" height="2.5" x="47.5" y="70.0" style="fill:#000000"/><rect width="2.5" height="2.5" x="52.5" y="70.0" style="fill:#000000"/><rect width="2.5" height="2.5" x="57.5" y="70.0" style="fill:#000000"/><rect width="2.5" height="2.5" x="60.0" y="70.0" style="fill:#000000"/><rect width="2.5" height="2.5" x="62.5" y="70.0" style="fill:#000000"/><rect width="2.5" height="2.5" x="65.0" y="70.0" style="fill:#000000"/><rect width="2.5" height="2.5" x="67.5" y="70.0" style="fill:#000000"/><rect width="2.5" height="2.5" x="70.0" y="70.0" style="fill:#000000"/><rect width="2.5" height="2.5" x="72.5" y="70.0" style="fill:#000000"/><rect width="2.5" height="2.5" x="0.0" y="72.5" style="fill:#000000"/><rect width="2.5" height="2.5" x="5.0" y="72.5" style="fill:#000000"/><rect width="2.5" height="2.5" x="7.5" y="72.5" style="fill:#000000"/><rect width="2.5" height="2.5" x="10.0" y="72.5" style="fill:#000000"/><rect width="2.5" height="2.5" x="15.0" y="72.5" style="fill:#000000"/><rect width="2.5" height="2.5" x="22.5" y="72.5" style="fill:#000000"/><rect width="2.5" height="2.5" x="25.0" y="72.5" style="fill:#000000"/><rect width="2.5" height="2.5" x="27.5" y="72.5" style="fill:#000000"/><rect width="2.5" height="2.5" x="30.0" y="72.5" style="fill:#000000"/><rect width="2.5" height="2.5" x="32.5" y="72.5" style="fill:#000000"/><rect width="2.5" height="2.5" x="35.0" y="72.5" style="fill:#000000"/><rect width="2.5" height="2.5" x="37.5" y="72.5" style="fill:#000000"/><rect width="2.5" height="2.5" x="40.0" y="72.5" style="fill:#000000"/><rect width="2.5" height="2.5" x="45.0" y="72.5" style="fill:#000000"/><rect width="2.5" height="2.5" x="47.5" y="72.5" style="fill:#000000"/><rect width="2.5" height="2.5" x="50.0" y="72.5" style="fill:#000000"/><rect width="2.5" height="2.5" x="52.5" y="72.5" style="fill:#000000"/><rect width="2.5" height="2.5" x="57.5" y="72.5" style="fill:#000000"/><rect width="2.5" height="2.5" x="60.0" y="72.5" style="fill:#000000"/><rect width="2.5" height="2.5" x="62.5" y="72.5" style="fill:#000000"/><rect width="2.5" height="2.5" x="67.5" y="72.5" style="fill:#000000"/><rect width="2.5" height="2.5" x="70.0" y="72.5" style="fill:#000000"/><rect width="2.5" height="2.5" x="72.5" y="72.5" style="fill:#000000"/><rect width="2.5" height="2.5" x="75.0" y="72.5" style="fill:#000000"/><rect width="2.5" height="2.5" x="77.5" y="72.5" style="fill:#000000"/><rect width="2.5" height="2.5" x="0.0" y="75.0" style="fill:#000000"/><rect width="2.5" height="2.5" x="5.0" y="75.0" style="fill:#000000"/><rect width="2.5" height="2.5" x="7.5" y="75.0" style="fill:#000000"/><rect width="2.5" height="2.5" x="10.0" y="75.0" style="fill:#000000"/><rect width="2.5" height="2.5" x="15.0" y="75.0" style="fill:#000000"/><rect width="2.5" height="2.5" x="20.0" y="75.0" style="fill:#000000"/><rect width="2.5" height="2.5" x="27.5" y="75.0" style="fill:#000000"/><rect width="2.5" height="2.5" x="30.0" y="75.0" style="fill:#000000"/><rect width="2.5" height="2.5" x="32.5" y="75.0" style="fill:#000000"/><rect width="2.5" height="2.5" x="37.5" y="75.0" style="fill:#000000"/><rect width="2.5" height="2.5" x="40.0" y="75.0" style="fill:#000000"/><rect width="2.5" height="2.5" x="45.0" y="75.0" style="fill:#000000"/><rect width="2.5" height="2.5" x="47.5" y="75.0" style="fill:#000000"/><rect width="2.5" height="2.5" x="52.5" y="75.0" style="fill:#000000"/><rect width="2.5" height="2.5" x="55.0" y="75.0" style="fill:#000000"/><rect width="2.5" height="2.5" x="57.5" y="75.0" style="fill:#000000"/><rect width="2.5" height="2.5" x="60.0" y="75.0" style="fill:#000000"/><rect width="2.5" height="2.5" x="70.0" y="75.0" style="fill:#000000"/><rect width="2.5" height="2.5" x="75.0" y="75.0" style="fill:#000000"/><rect width="2.5" height="2.5" x="77.5" y="75.0" style="fill:#000000"/><rect width="2.5" height="2.5" x="80.0" y="75.0" style="fill:#000000"/><rect width="2.5" height="2.5" x="0.0" y="77.5" style="fill:#000000"/><rect width="2.5" height="2.5" x="15.0" y="77.5" style="fill:#000000"/><rect width="2.5" height="2.5" x="27.5" y="77.5" style="fill:#000000"/><rect width="2.5" height="2.5" x="32.5" y="77.5" style="fill:#000000"/><rect width="2.5" height="2.5" x="35.0" y="77.5" style="fill:#000000"/><rect width="2.5" height="2.5" x="40.0" y="77.5" style="fill:#000000"/><rect width="2.5" height="2.5" x="42.5" y="77.5" style="fill:#000000"/><rect width="2.5" height="2.5" x="50.0" y="77.5" style="fill:#000000"/><rect width="2.5" height="2.5" x="52.5" y="77.5" style="fill:#000000"/><rect width="2.5" height="2.5" x="55.0" y="77.5" style="fill:#000000"/><rect width="2.5" height="2.5" x="60.0" y="77.5" style="fill:#000000"/><rect width="2.5" height="2.5" x="65.0" y="77.5" style="fill:#000000"/><rect width="2.5" height="2.5" x="0.0" y="80.0" style="fill:#000000"/><rect width="2.5" height="2.5" x="2.5" y="80.0" style="fill:#000000"/><rect width="2.5" height="2.5" x="5.0" y="80.0" style="fill:#000000"/><rect width="2.5" height="2.5" x="7.5" y="80.0" style="fill:#000000"/><rect width="2.5" height="2.5" x="10.0" y="80.0" style="fill:#000000"/><rect width="2.5" height="2.5" x="12.5" y="80.0" style="fill:#000000"/><rect width="2.5" height="2.5" x="15.0" y="80.0" style="fill:#000000"/><rect width="2.5" height="2.5" x="30.0" y="80.0" style="fill:#000000"/><rect width="2.5" height="2.5" x="32.5" y="80.0" style="fill:#000000"/><rect width="2.5" height="2.5" x="40.0" y="80.0" style="fill:#000000"/><rect width="2.5" height="2.5" x="47.5" y="80.0" style="fill:#000000"/><rect width="2.5" height="2.5" x="55.0" y="80.0" style="fill:#000000"/><rect width="2.5" height="2.5" x="60.0" y="80.0" style="fill:#000000"/><rect width="2.5" height="2.5" x="62.5" y="80.0" style="fill:#000000"/><rect width="2.5" height="2.5" x="65.0" y="80.0" style="fill:#000000"/><rect width="2.5" height="2.5" x="70.0" y="80.0" style="fill:#000000"/><rect width="2.5" height="2.5" x="80.0" y="80.0" style="fill:#000000"/>
            </g>
        </g>
    </g>
</svg>
