<?xml version="1.0" encoding="UTF-8"?>
<svg xmlns="http://www.w3.org/2000/svg" xmlns:xlink="http://www.w3.org/1999/xlink" width="500px" height="600px" viewBox="0 0 500 600" version="1.1">
    <title>mZbKnVBo</title>
    <g id="Page-1" stroke="none" stroke-width="1" fill="none" fill-rule="evenodd">
        <g id="mZbKnVBo">
            <rect fill="#D29B0B" x="0" y="0" width="500" height="600"/>
            <g id="bug" transform="translate(115.682436, 32.852595)" stroke="#000000">
                <g id="leg-3-right" transform="translate(189.005535, 290.884710)" fill="#BE706F">
                    <path d="M33.7993334,87.6118164 C36.9484298,90.0555013 39.4743852,92.9744466 41.3771994,96.3686523 C44.2314209,101.459961 46.230974,101.128224 46.230974,99.5244141 C46.230974,98.4552076 47.0692242,97.4032871 48.7457246,96.3686523 C48.7470296,95.2516798 48.3925034,94.6175652 47.6821459,94.4663086 C46.6166097,94.2394237 44.7700365,94.3224486 42.7470873,93.1953125 C40.7241381,92.0681764 36.1313646,87.5107422 36.1313646,86.0561523 C36.1313646,85.0864258 35.1167162,84.7648112 33.0874193,85.0913086 L33.7993334,87.6118164 Z" id="segment-5"/>
                    <path d="M23.559099,78.7236328 C29.1144376,84.1223958 32.2824063,87.9829102 33.0630053,90.3051758 C34.2339037,93.7885742 34.5810717,94.1953125 36.0395678,94.1953125 C37.4980639,94.1953125 37.0136889,91.2133789 37.9389818,90.3051758 C38.8642748,89.3969727 39.5583803,88.7050781 41.6230639,88.7050781 C42.9428881,88.7050781 41.875017,85.3894043 38.6631029,85.3894043 C37.5926694,85.3894043 36.3031279,85.5906167 33.0630053,83.0107422 C27.6787279,78.7236328 24.3299946,76.9312387 23.559099,76.5834961 C23.0451686,76.3516677 23.0451686,77.0650466 23.559099,78.7236328 Z" id="segment-4"/>
                    <path d="M7.6845873,61.8803711 C12.0582852,65.7556966 16.0654467,70.7200521 19.7060717,76.7734375 C21.2494265,79.3396236 22.4062406,81.2359465 22.9262865,81.6523438 C24.2463477,82.7093078 24.7004349,80.6655685 25.0854662,79.6030273 C25.61067,78.1536631 27.9895263,77.5118028 26.2324389,75.0170898 C25.5836093,74.0958815 23.4790199,74.5593815 21.6660326,72.7841797 C14.8381829,66.0986328 14.9263207,66.0986328 10.5856062,58.4130859 C7.69179655,53.289388 6.72479025,54.4451497 7.6845873,61.8803711 Z" id="segment-3"/>
                    <path d="M24.8584154,16.4658203 C27.0408277,22.0208333 21.6515048,33.0071615 8.69044668,49.4248047 C4.86086857,52.8550234 3.74846509,54.5982308 2.68165761,56.1674805 C0.944125278,58.7233512 0.0172117753,62.4039358 3.38380605,64.0742188 C8.81741679,66.7700195 9.66891633,62.0142338 12.1831225,59.5405273 C13.7671982,57.9819684 13.3255722,55.6471909 14.8381829,53.2836914 C21.9714836,42.1376953 28.7348803,35.0776367 28.7348803,14.2490234 C26.1505704,11.7360026 24.8584154,12.4749349 24.8584154,16.4658203 Z" id="segment-2"/>
                    <path d="M4.7080248,14.3110352 C12.89602,15.3390288 15.9023607,12.2958984 20.828142,16.2255859 C25.7539232,20.1552734 26.2993334,17.9277344 27.6801928,17.0766602 C29.0610521,16.2255859 31.3803881,14.3110352 27.6801928,10.1416016 C23.9799975,5.97216797 14.8381829,0 4.7080248,0 C-0.708501825,1.61865234 -0.708501825,3.97730017 1.03029043,7.96728516 C2.06533434,10.3423876 -3.4799704,13.2830415 4.7080248,14.3110352 Z" id="segment-1"/>
                </g>
                <g id="leg-3-right" transform="translate(55.505535, 341.384710) scale(-1, 1) translate(-55.505535, -341.384710) translate(31.005535, 290.884710)" fill="#BE706F">
                    <path d="M33.7993334,87.6118164 C36.9484298,90.0555013 39.4743852,92.9744466 41.3771994,96.3686523 C44.2314209,101.459961 46.230974,101.128224 46.230974,99.5244141 C46.230974,98.4552076 47.0692242,97.4032871 48.7457246,96.3686523 C48.7470296,95.2516798 48.3925034,94.6175652 47.6821459,94.4663086 C46.6166097,94.2394237 44.7700365,94.3224486 42.7470873,93.1953125 C40.7241381,92.0681764 36.1313646,87.5107422 36.1313646,86.0561523 C36.1313646,85.0864258 35.1167162,84.7648112 33.0874193,85.0913086 L33.7993334,87.6118164 Z" id="segment-5"/>
                    <path d="M23.559099,78.7236328 C29.1144376,84.1223958 32.2824063,87.9829102 33.0630053,90.3051758 C34.2339037,93.7885742 34.5810717,94.1953125 36.0395678,94.1953125 C37.4980639,94.1953125 37.0136889,91.2133789 37.9389818,90.3051758 C38.8642748,89.3969727 39.5583803,88.7050781 41.6230639,88.7050781 C42.9428881,88.7050781 41.875017,85.3894043 38.6631029,85.3894043 C37.5926694,85.3894043 36.3031279,85.5906167 33.0630053,83.0107422 C27.6787279,78.7236328 24.3299946,76.9312387 23.559099,76.5834961 C23.0451686,76.3516677 23.0451686,77.0650466 23.559099,78.7236328 Z" id="segment-4"/>
                    <path d="M7.6845873,61.8803711 C12.0582852,65.7556966 16.0654467,70.7200521 19.7060717,76.7734375 C21.2494265,79.3396236 22.4062406,81.2359465 22.9262865,81.6523438 C24.2463477,82.7093078 24.7004349,80.6655685 25.0854662,79.6030273 C25.61067,78.1536631 27.9895263,77.5118028 26.2324389,75.0170898 C25.5836093,74.0958815 23.4790199,74.5593815 21.6660326,72.7841797 C14.8381829,66.0986328 14.9263207,66.0986328 10.5856062,58.4130859 C7.69179655,53.289388 6.72479025,54.4451497 7.6845873,61.8803711 Z" id="segment-3"/>
                    <path d="M24.8584154,16.4658203 C27.0408277,22.0208333 21.6515048,33.0071615 8.69044668,49.4248047 C4.86086857,52.8550234 3.74846509,54.5982308 2.68165761,56.1674805 C0.944125278,58.7233512 0.0172117753,62.4039358 3.38380605,64.0742188 C8.81741679,66.7700195 9.66891633,62.0142338 12.1831225,59.5405273 C13.7671982,57.9819684 13.3255722,55.6471909 14.8381829,53.2836914 C21.9714836,42.1376953 28.7348803,35.0776367 28.7348803,14.2490234 C26.1505704,11.7360026 24.8584154,12.4749349 24.8584154,16.4658203 Z" id="segment-2"/>
                    <path d="M4.7080248,14.3110352 C12.89602,15.3390288 15.9023607,12.2958984 20.828142,16.2255859 C25.7539232,20.1552734 26.2993334,17.9277344 27.6801928,17.0766602 C29.0610521,16.2255859 31.3803881,14.3110352 27.6801928,10.1416016 C23.9799975,5.97216797 14.8381829,0 4.7080248,0 C-0.708501825,1.61865234 -0.708501825,3.97730017 1.03029043,7.96728516 C2.06533434,10.3423876 -3.4799704,13.2830415 4.7080248,14.3110352 Z" id="segment-1"/>
                </g>
                <g id="leg-2-right" transform="translate(177.000000, 231.088420)" fill="#BE706F">
                    <path d="M75.9223,60.7267103 C81.7325214,62.6061048 84.7951028,64.0810397 85.1100442,65.151515 C85.5824563,66.7572279 87.8462793,66.8544885 88.5931985,66.4007825 C89.2224479,66.0185535 89.1995656,65.0394251 89.6215188,64.4913587 C90.2113275,63.7252682 90.9895207,62.9178904 89.6215188,62.4110807 C88.3293638,62.8625697 87.2640155,62.9781963 86.4254739,62.7579603 C82.5730976,61.5367689 79.3110533,60.2552747 76.6393411,58.9134779 C73.9676288,57.571681 73.1478046,57.8036146 74.1798684,59.6092786 L75.9223,60.7267103 Z" id="segment-5"/>
                    <path d="M61.3600442,54.9872083 C68.1966327,57.8097995 71.9710468,59.9849297 72.6832864,61.5125989 C73.3603136,62.964742 74.8420798,63.3399781 76.3356725,62.936162 C77.1989919,62.7027501 77.1990751,61.1626689 77.9171731,60.4662122 C78.7737568,59.6354433 80.2261712,59.4828512 80.4605775,58.39603 C80.7626529,56.9954613 78.9503802,56.0418958 77.9171731,56.0418958 C76.6459483,56.0418958 75.8787498,56.3576503 74.1266457,56.0418958 C73.3496593,55.9018716 70.9530518,55.2789591 69.4450051,54.9872083 C64.5363137,54.0375596 61.3600442,54.0799818 61.3600442,54.0799818 C61.3600442,54.0799818 61.3600442,54.3823906 61.3600442,54.9872083 Z" id="segment-4"/>
                    <path d="M45.3517434,49.3114271 C48.3393736,51.513901 50.4985533,52.615138 51.8292825,52.615138 C53.8253762,52.615138 57.6871926,53.0082044 59.6036965,55.8246107 C61.5202004,58.6410169 66.1857278,54.11172 63.4684426,52.8089857 C60.7511575,51.5062513 59.9249503,48.9925794 47.2492043,46.6629896 C44.3491392,46.6629896 43.7166523,47.5458021 45.3517434,49.3114271 Z" id="segment-3"/>
                    <path d="M32.3912942,19.8822279 C41.2374631,38.6720156 38.1207864,40.3958997 39.3556496,44.1385755 C40.5905129,47.8812513 42.8446795,50.7650404 45.0255715,50.7650404 C47.2064635,50.7650404 51.4719596,47.0432516 49.5538918,45.4325208 C45.7500575,42.2381849 45.7500575,37.8142661 44.2141103,33.7472653 C35.6100442,10.9647474 24.1283532,0.652094992 20.3746926,2.8080091 C18.8558777,3.6803401 18.7953281,4.32015771 19.9044941,4.78221072 C23.864919,6.43203254 26.5722209,7.52217096 32.3912942,19.8822279 Z" id="segment-2"/>
                    <path d="M1.92547387,2.22548957 C1.92547387,0.617896527 8.56219262,-0.118757118 21.8356301,0.0155286316 C24.172224,0.365463527 25.0796133,2.16217577 24.5577981,5.40566535 C24.3680299,6.58522263 24.4549373,8.94722969 23.1768873,8.94722969 C20.9204349,8.94722969 16.3851935,8.39980598 13.6671731,8.39980598 C10.0792825,8.39980598 6.25779007,9.66235511 1.92547387,7.61074348 C-2.40684233,5.55913184 1.92547387,4.63687913 1.92547387,2.22548957 Z" id="segment-1"/>
                </g>
                <g id="leg-2-right" transform="translate(45.500000, 264.588420) scale(-1, 1) translate(-45.500000, -264.588420) translate(0.000000, 231.088420)" fill="#BE706F">
                    <path d="M75.9223,60.7267103 C81.7325214,62.6061048 84.7951028,64.0810397 85.1100442,65.151515 C85.5824563,66.7572279 87.8462793,66.8544885 88.5931985,66.4007825 C89.2224479,66.0185535 89.1995656,65.0394251 89.6215188,64.4913587 C90.2113275,63.7252682 90.9895207,62.9178904 89.6215188,62.4110807 C88.3293638,62.8625697 87.2640155,62.9781963 86.4254739,62.7579603 C82.5730976,61.5367689 79.3110533,60.2552747 76.6393411,58.9134779 C73.9676288,57.571681 73.1478046,57.8036146 74.1798684,59.6092786 L75.9223,60.7267103 Z" id="segment-5"/>
                    <path d="M61.3600442,54.9872083 C68.1966327,57.8097995 71.9710468,59.9849297 72.6832864,61.5125989 C73.3603136,62.964742 74.8420798,63.3399781 76.3356725,62.936162 C77.1989919,62.7027501 77.1990751,61.1626689 77.9171731,60.4662122 C78.7737568,59.6354433 80.2261712,59.4828512 80.4605775,58.39603 C80.7626529,56.9954613 78.9503802,56.0418958 77.9171731,56.0418958 C76.6459483,56.0418958 75.8787498,56.3576503 74.1266457,56.0418958 C73.3496593,55.9018716 70.9530518,55.2789591 69.4450051,54.9872083 C64.5363137,54.0375596 61.3600442,54.0799818 61.3600442,54.0799818 C61.3600442,54.0799818 61.3600442,54.3823906 61.3600442,54.9872083 Z" id="segment-4"/>
                    <path d="M45.3517434,49.3114271 C48.3393736,51.513901 50.4985533,52.615138 51.8292825,52.615138 C53.8253762,52.615138 57.6871926,53.0082044 59.6036965,55.8246107 C61.5202004,58.6410169 66.1857278,54.11172 63.4684426,52.8089857 C60.7511575,51.5062513 59.9249503,48.9925794 47.2492043,46.6629896 C44.3491392,46.6629896 43.7166523,47.5458021 45.3517434,49.3114271 Z" id="segment-3"/>
                    <path d="M32.3912942,19.8822279 C41.2374631,38.6720156 38.1207864,40.3958997 39.3556496,44.1385755 C40.5905129,47.8812513 42.8446795,50.7650404 45.0255715,50.7650404 C47.2064635,50.7650404 51.4719596,47.0432516 49.5538918,45.4325208 C45.7500575,42.2381849 45.7500575,37.8142661 44.2141103,33.7472653 C35.6100442,10.9647474 24.1283532,0.652094992 20.3746926,2.8080091 C18.8558777,3.6803401 18.7953281,4.32015771 19.9044941,4.78221072 C23.864919,6.43203254 26.5722209,7.52217096 32.3912942,19.8822279 Z" id="segment-2"/>
                    <path d="M1.92547387,2.22548957 C1.92547387,0.617896527 8.56219262,-0.118757118 21.8356301,0.0155286316 C24.172224,0.365463527 25.0796133,2.16217577 24.5577981,5.40566535 C24.3680299,6.58522263 24.4549373,8.94722969 23.1768873,8.94722969 C20.9204349,8.94722969 16.3851935,8.39980598 13.6671731,8.39980598 C10.0792825,8.39980598 6.25779007,9.66235511 1.92547387,7.61074348 C-2.40684233,5.55913184 1.92547387,4.63687913 1.92547387,2.22548957 Z" id="segment-1"/>
                </g>
                <g id="leg-1-right" transform="translate(163.451460, 130.455067)" fill="#BE706F">
                    <path d="M50.9945216,9.02827543 C57.7777248,4.78901761 61.4137925,2.34256579 61.9027248,1.68891996 C62.4720607,-0.437056604 63.6678615,-0.437056604 63.9840236,1.02583402 C64.3680916,2.802927 65.1493621,2.65967659 64.7794338,3.50972074 C64.4714132,4.21750947 61.9775129,4.59012785 59.0437083,6.44429105 C53.015388,10.2541869 50.3323258,11.7981293 50.9945216,11.0761181 L50.9945216,9.02827543 Z" id="segment-4"/>
                    <path d="M32.9408107,22.3969278 C42.1986232,15.4994668 49.1309963,10.0788757 51.5399318,5.62433071 C53.9488673,1.16978575 53.5658348,6.2324044 55.238174,8.04390043 C57.1407859,10.1048304 58.2896254,10.0559674 57.8862833,11.8354043 C51.4966348,13.5068121 48.8624889,15.3017129 45.8592503,17.2699746 C42.8560116,19.2382364 39.8688199,21.5380411 35.309463,24.9457559 C33.9044076,25.4764095 31.9600447,23.6121996 32.9408107,22.3969278 Z" id="segment-3" stroke-linejoin="round"/>
                    <path d="M32.9481349,56.6522989 C31.2023899,55.3236856 35.4710841,54.6815957 34.3128315,46.2138223 C33.1545789,37.7460489 32.1126857,34.6029825 30.2713771,29.7939004 C28.787745,25.9189886 28.6061924,23.0771034 30.126405,21.484259 C30.4929004,21.1002535 32.3835558,20.1924325 32.9481349,20.5530532 C34.6081517,21.6133768 37.3024207,22.2126376 38.1161037,24.3017129 C38.4426883,25.1401967 39.3552885,29.2174246 39.5565334,30.5868692 C40.2591781,35.3682737 39.5565334,38.4025358 39.5565334,44.2655801 C39.5565334,50.1286244 39.4027805,51.6697922 38.1161037,54.6815957 C36.8294269,57.6933993 34.69388,57.9809121 32.9481349,56.6522989 Z" id="segment-2"/>
                    <path d="M2.15272477,57.716752 C5.95477377,53.6903848 7.28538143,56.1239786 20.1981349,56.1239786 C24.6214748,56.1239786 30.1087306,53.8639574 31.2796779,53.6991739 C34.448815,53.2531917 36.1729797,54.3834008 37.0423732,55.3988809 C37.8348868,56.3245627 37.4228526,58.5127551 35.1751857,60.1503457 C31.9061427,62.532084 32.3395307,62.6277669 23.9525295,65.7353067 C15.5655282,68.8428465 12.276645,70.1650051 5.07459977,69.7216348 C-0.255238885,69.3935207 -1.64932424,61.7431192 2.15272477,57.716752 Z" id="segment-1"/>
                </g>
                <g id="leg-1-left" transform="translate(69.951460, 165.455067) scale(-1, 1) translate(-69.951460, -165.455067) translate(37.451460, 130.455067)" fill="#BE706F">
                    <path d="M50.9945216,9.02827543 C57.7777248,4.78901761 61.4137925,2.34256579 61.9027248,1.68891996 C62.4720607,-0.437056604 63.6678615,-0.437056604 63.9840236,1.02583402 C64.3680916,2.802927 65.1493621,2.65967659 64.7794338,3.50972074 C64.4714132,4.21750947 61.9775129,4.59012785 59.0437083,6.44429105 C53.015388,10.2541869 50.3323258,11.7981293 50.9945216,11.0761181 L50.9945216,9.02827543 Z" id="segment-4"/>
                    <path d="M32.9408107,22.3969278 C42.1986232,15.4994668 49.1309963,10.0788757 51.5399318,5.62433071 C53.9488673,1.16978575 53.5658348,6.2324044 55.238174,8.04390043 C57.1407859,10.1048304 58.2896254,10.0559674 57.8862833,11.8354043 C51.4966348,13.5068121 48.8624889,15.3017129 45.8592503,17.2699746 C42.8560116,19.2382364 39.8688199,21.5380411 35.309463,24.9457559 C33.9044076,25.4764095 31.9600447,23.6121996 32.9408107,22.3969278 Z" id="segment-3" stroke-linejoin="round"/>
                    <path d="M32.9481349,56.6522989 C31.2023899,55.3236856 35.4710841,54.6815957 34.3128315,46.2138223 C33.1545789,37.7460489 32.1126857,34.6029825 30.2713771,29.7939004 C28.787745,25.9189886 28.6061924,23.0771034 30.126405,21.484259 C30.4929004,21.1002535 32.3835558,20.1924325 32.9481349,20.5530532 C34.6081517,21.6133768 37.3024207,22.2126376 38.1161037,24.3017129 C38.4426883,25.1401967 39.3552885,29.2174246 39.5565334,30.5868692 C40.2591781,35.3682737 39.5565334,38.4025358 39.5565334,44.2655801 C39.5565334,50.1286244 39.4027805,51.6697922 38.1161037,54.6815957 C36.8294269,57.6933993 34.69388,57.9809121 32.9481349,56.6522989 Z" id="segment-2"/>
                    <path d="M2.15272477,57.716752 C5.95477377,53.6903848 7.28538143,56.1239786 20.1981349,56.1239786 C24.6214748,56.1239786 30.1087306,53.8639574 31.2796779,53.6991739 C34.448815,53.2531917 36.1729797,54.3834008 37.0423732,55.3988809 C37.8348868,56.3245627 37.4228526,58.5127551 35.1751857,60.1503457 C31.9061427,62.532084 32.3395307,62.6277669 23.9525295,65.7353067 C15.5655282,68.8428465 12.276645,70.1650051 5.07459977,69.7216348 C-0.255238885,69.3935207 -1.64932424,61.7431192 2.15272477,57.716752 Z" id="segment-1"/>
                </g>
                <path d="M121.820005,118.00971 C113.821633,133.449814 109.822447,146.118759 109.822447,156.016546 C109.822447,170.863226 127.113462,173.899358 133.817564,173.899358 C140.521665,173.899358 157.817564,170.863226 157.817564,156.016546 C157.817564,146.118759 153.818378,133.449814 145.820005,118.00971 C141.581398,120.373642 137.582212,121.938177 133.817564,121.938177 C130.052915,121.938177 126.058612,120.373642 121.820005,118.00971 Z" id="head" fill="#7D5B77"/>
                <path d="M134.59081,225.147405 C128.342457,225.147405 111.357845,222.428003 103.300221,216.147017 C95.2425961,209.866031 94.4662556,196.120965 95.8982664,188.06148 C97.6474631,178.216845 102.423493,170.041648 110.332786,166.614949 C116.781956,163.820847 126.390867,164.160385 134.090474,164.160385 C141.79008,164.160385 150.99951,163.820847 157.448681,166.614949 C165.357973,170.041648 170.134004,178.216845 171.8832,188.06148 C173.315211,196.120965 171.379063,208.787013 163.483124,216.147017 C155.587185,223.507021 140.839164,225.147405 134.59081,225.147405 Z" id="mid-body" fill="#7D5B77"/>
                <path d="M69.3175637,221.034124 C96.1235533,213.109645 112.662616,217.165634 118.934751,233.202093 C128.342954,257.25678 159.176939,379.432561 94.79022,409.166936 C91.9932907,410.136025 89.3802002,410.952841 86.9509485,411.617387 C81.7857156,413.030386 75.9079207,413.600939 69.3175637,413.329046 L69.3175637,221.034124 Z" id="bottom-body-left" fill="#7D5B77" transform="translate(101.954352, 315.248875) scale(-1, 1) translate(-101.954352, -315.248875) "/>
                <path d="M134.317564,221.034124 C161.123553,213.109645 177.662616,217.165634 183.934751,233.202093 C193.342954,257.25678 224.176939,379.432561 159.79022,409.166936 C156.993291,410.136025 154.3802,410.952841 151.950948,411.617387 C146.785716,413.030386 140.907921,413.600939 134.317564,413.329046 L134.317564,221.034124 Z" id="bottom-body-right" fill="#877B7B"/>
                <path d="M110.822447,150.687933 C106.440122,149.16303 104.368345,142.998479 107.231626,138.011663 C110.094907,133.024847 115.888853,130.832952 117.861997,132.733343 C119.835142,134.633733 121.094419,141.367167 119.835142,144.670354 C118.575864,147.973542 115.204771,152.212835 110.822447,150.687933 Z" id="eye-left" fill="#984236"/>
                <path d="M152.822447,150.687933 C148.440122,149.16303 146.368345,142.998479 149.231626,138.011663 C152.094907,133.024847 157.888853,130.832952 159.861997,132.733343 C161.835142,134.633733 163.094419,141.367167 161.835142,144.670354 C160.575864,147.973542 157.204771,152.212835 152.822447,150.687933 Z" id="eye-right" fill="#984236" transform="translate(155.126510, 141.531185) scale(-1, 1) translate(-155.126510, -141.531185) "/>
                <g id="antenna-right" transform="translate(140.559612, 0.000000)" fill="#BE706F">
                    <path d="M97.1739676,12.421331 C101.596448,7.51542749 104.459149,4.68551212 105.762072,3.93158492 C107.635393,2.84760054 109.23024,1.43774226 111.615374,0.540959919 C114.5701,-0.569982593 116.543757,-0.102238947 112.972307,3.19086226 C108.669362,7.15844898 103.669687,10.7525245 97.973284,13.9730888 L97.1739676,12.421331 Z" id="segment-9"/>
                    <path d="M81.7523367,23.402288 C87.2352469,17.8244886 91.9626232,13.6618095 95.9344656,10.9142509 C97.9471245,9.66595992 97.9937553,10.5614539 99.7254812,12.5040947 C101.457207,14.4467354 99.4851713,15.0169862 98.2220633,15.8405205 C92.2734658,20.0239515 86.783557,22.9989677 81.7523367,24.7655693 L81.7523367,23.402288 Z" id="segment-8"/>
                    <path d="M68.0438406,38.2284599 C69.5901487,35.3484484 72.1781207,31.4369087 75.8077566,26.4938408 C76.3905244,25.7001907 79.8460867,21.1063896 82.167864,21.1063896 C83.7767508,22.5136162 83.936907,23.5692802 85.0555594,24.4928642 C85.6135021,26.0503186 79.8342052,31.0590263 67.7176687,39.5189873 L68.0438406,38.2284599 Z" id="segment-7"/>
                    <path d="M55.3265555,51.1652275 C57.4374574,47.442117 60.3077263,43.1090279 63.9373622,38.1659599 C64.52013,37.3723099 67.8835846,33.8161008 68.6754324,34.1293388 C70.4291169,34.8230588 69.7884695,35.6381279 72.1183035,37.0187431 C72.6762462,38.5761975 67.2357351,43.8871513 55.7967703,52.9516045 L55.3265555,51.1652275 Z" id="segment-6"/>
                    <path d="M44.3849051,62.7211357 C47.94202,55.4527471 51.6439243,50.3694951 55.490618,47.4713798 C56.8402273,46.0883232 56.8402273,51.8312431 60.032366,51.216497 C60.790504,52.4575452 55.8608979,56.5690361 45.2435476,63.5509697 L44.3849051,62.7211357 Z" id="segment-5"/>
                    <path d="M34.3399832,77.2763115 C34.2743642,77.0612272 33.7488132,77.1266563 33.865618,76.5985962 C34.6751719,72.9387028 40.5011797,61.7040357 44.433489,60.1330009 C45.8822498,61.506726 46.6114417,62.1960372 48.5006277,62.756292 C48.961598,64.2672495 46.3709969,65.0518541 41.653147,70.0891212 C36.9352972,75.1263883 34.7736543,78.6977884 34.3399832,77.2763115 Z" id="segment-4"/>
                    <path d="M23.3082449,92.4430595 C25.6166759,86.7663017 28.8237885,80.8611097 32.9295828,74.7274834 C34.0366184,75.2126773 35.2292599,74.8251074 35.8819754,75.0656181 C36.7182469,75.3737651 36.9310445,76.2618757 37.7474539,76.5228935 C37.2366066,78.1705883 34.9076749,81.0972716 32.9295828,83.9503837 C30.4239217,87.5644379 27.054475,91.2618589 24.6280691,92.4430595 C24.3453949,92.5806684 23.9054535,92.5806684 23.3082449,92.4430595 Z" id="segment-3"/>
                    <path d="M25.2901785,89.9054619 C24.4755626,89.4941663 23.7213308,88.8326266 23.0274832,87.9208427 C23.0694754,89.2558037 22.8574799,90.1941175 22.3914969,90.7357841 C21.6925222,91.5482841 14.0764199,101.862249 14.5668984,104.406438 C15.0573769,106.950628 16.4825613,105.040028 17.7457449,103.975042 C19.0089285,102.910056 27.2113211,93.5934502 28.3468191,91.1981865 C27.0355398,90.7357841 26.3602469,90.3720146 25.2901785,89.9054619 Z" id="segment-2" stroke-linejoin="round"/>
                    <path d="M13.9762094,102.917758 C13.1527273,102.361028 12.7928807,103.629345 12.334368,104.53095 C10.9986746,107.157415 6.70204373,116.252874 2.62953397,118.00971 C-0.336424014,119.289192 -0.455074994,124.522892 0.61928006,125.984808 C1.02010486,126.530225 1.58636059,126.596624 1.96913358,126.596624 C4.11024686,126.596624 7.41224881,124.429388 7.7523367,121.830511 C8.09242459,119.231634 5.10746773,117.441106 15.1323701,109.365423 C15.4335316,108.950165 19.2047293,106.743622 18.5382254,104.766146 C18.4407639,104.476984 17.0229106,104.901582 15.8683035,104.53095 C14.9744462,104.244019 14.3355398,103.16069 13.9762094,102.917758 Z" id="segment-1"/>
                </g>
                <g id="antenna-left" transform="translate(68.059612, 63.500000) scale(-1, 1) translate(-68.059612, -63.500000) translate(10.559612, 0.000000)" fill="#BE706F">
                    <path d="M97.1739676,12.421331 C101.596448,7.51542749 104.459149,4.68551212 105.762072,3.93158492 C107.635393,2.84760054 109.23024,1.43774226 111.615374,0.540959919 C114.5701,-0.569982593 116.543757,-0.102238947 112.972307,3.19086226 C108.669362,7.15844898 103.669687,10.7525245 97.973284,13.9730888 L97.1739676,12.421331 Z" id="segment-9"/>
                    <path d="M81.7523367,23.402288 C87.2352469,17.8244886 91.9626232,13.6618095 95.9344656,10.9142509 C97.9471245,9.66595992 97.9937553,10.5614539 99.7254812,12.5040947 C101.457207,14.4467354 99.4851713,15.0169862 98.2220633,15.8405205 C92.2734658,20.0239515 86.783557,22.9989677 81.7523367,24.7655693 L81.7523367,23.402288 Z" id="segment-8"/>
                    <path d="M68.0438406,38.2284599 C69.5901487,35.3484484 72.1781207,31.4369087 75.8077566,26.4938408 C76.3905244,25.7001907 79.8460867,21.1063896 82.167864,21.1063896 C83.7767508,22.5136162 83.936907,23.5692802 85.0555594,24.4928642 C85.6135021,26.0503186 79.8342052,31.0590263 67.7176687,39.5189873 L68.0438406,38.2284599 Z" id="segment-7"/>
                    <path d="M55.3265555,51.1652275 C57.4374574,47.442117 60.3077263,43.1090279 63.9373622,38.1659599 C64.52013,37.3723099 67.8835846,33.8161008 68.6754324,34.1293388 C70.4291169,34.8230588 69.7884695,35.6381279 72.1183035,37.0187431 C72.6762462,38.5761975 67.2357351,43.8871513 55.7967703,52.9516045 L55.3265555,51.1652275 Z" id="segment-6"/>
                    <path d="M44.3849051,62.7211357 C47.94202,55.4527471 51.6439243,50.3694951 55.490618,47.4713798 C56.8402273,46.0883232 56.8402273,51.8312431 60.032366,51.216497 C60.790504,52.4575452 55.8608979,56.5690361 45.2435476,63.5509697 L44.3849051,62.7211357 Z" id="segment-5"/>
                    <path d="M34.3399832,77.2763115 C34.2743642,77.0612272 33.7488132,77.1266563 33.865618,76.5985962 C34.6751719,72.9387028 40.5011797,61.7040357 44.433489,60.1330009 C45.8822498,61.506726 46.6114417,62.1960372 48.5006277,62.756292 C48.961598,64.2672495 46.3709969,65.0518541 41.653147,70.0891212 C36.9352972,75.1263883 34.7736543,78.6977884 34.3399832,77.2763115 Z" id="segment-4"/>
                    <path d="M23.3082449,92.4430595 C25.6166759,86.7663017 28.8237885,80.8611097 32.9295828,74.7274834 C34.0366184,75.2126773 35.2292599,74.8251074 35.8819754,75.0656181 C36.7182469,75.3737651 36.9310445,76.2618757 37.7474539,76.5228935 C37.2366066,78.1705883 34.9076749,81.0972716 32.9295828,83.9503837 C30.4239217,87.5644379 27.054475,91.2618589 24.6280691,92.4430595 C24.3453949,92.5806684 23.9054535,92.5806684 23.3082449,92.4430595 Z" id="segment-3"/>
                    <path d="M25.2901785,89.9054619 C24.4755626,89.4941663 23.7213308,88.8326266 23.0274832,87.9208427 C23.0694754,89.2558037 22.8574799,90.1941175 22.3914969,90.7357841 C21.6925222,91.5482841 14.0764199,101.862249 14.5668984,104.406438 C15.0573769,106.950628 16.4825613,105.040028 17.7457449,103.975042 C19.0089285,102.910056 27.2113211,93.5934502 28.3468191,91.1981865 C27.0355398,90.7357841 26.3602469,90.3720146 25.2901785,89.9054619 Z" id="segment-2" stroke-linejoin="round"/>
                    <path d="M13.9762094,102.917758 C13.1527273,102.361028 12.7928807,103.629345 12.334368,104.53095 C10.9986746,107.157415 6.70204373,116.252874 2.62953397,118.00971 C-0.336424014,119.289192 -0.455074994,124.522892 0.61928006,125.984808 C1.02010486,126.530225 1.58636059,126.596624 1.96913358,126.596624 C4.11024686,126.596624 7.41224881,124.429388 7.7523367,121.830511 C8.09242459,119.231634 5.10746773,117.441106 15.1323701,109.365423 C15.4335316,108.950165 19.2047293,106.743622 18.5382254,104.766146 C18.4407639,104.476984 17.0229106,104.901582 15.8683035,104.53095 C14.9744462,104.244019 14.3355398,103.16069 13.9762094,102.917758 Z" id="segment-1"/>
                </g>
            </g>
            <g id="hello" transform="translate(0.000000, 500.000000)">
                <rect id="Rectangle" fill="#FFFFFF" x="0" y="0" width="500" height="100"/>
                <path d="M236.86,65.8941406 C245.23,65.8941406 250.99,60.4491406 250.99,50.4591406 L250.99,49.4691406 C250.99,39.1641406 245.365,34.0341406 237.13,34.0341406 C228.715,34.0341406 223,39.5241406 223,49.4691406 L223,50.4591406 C223,60.6741406 228.535,65.8941406 236.86,65.8941406 Z M237.04,61.6191406 C231.145,61.6191406 228.895,57.3891406 228.895,50.4141406 L228.895,48.8391406 C228.895,42.5841406 231.505,38.3541406 236.86,38.3541406 C242.845,38.3991406 245.095,42.5841406 245.095,49.5141406 L245.095,51.0441406 C245.095,57.3441406 242.44,61.6191406 237.04,61.6191406 Z M261.43,65.3991406 L261.43,32.5041406 L256.21,32.5041406 L256.21,65.3991406 L261.43,65.3991406 Z M277.632812,39.0532227 L284.686035,32 L278.731445,32 L273.436035,39.0532227 L277.632812,39.0532227 Z M285.938477,67.793457 C286.993164,67.793457 288.208984,67.5883789 289.585938,67.1782227 L289.585938,67.1782227 L289.432129,63.5307617 C289.080566,63.5893555 288.794922,63.6186523 288.575195,63.6186523 C287.359375,63.6186523 286.751465,62.6738281 286.751465,60.7841797 L286.751465,60.7841797 L286.751465,50.1054688 C286.751465,45.0810547 283.594727,42.5688477 277.28125,42.5688477 C274.395508,42.5688477 271.480469,43.1254883 268.536133,44.2387695 L268.536133,44.2387695 L268.536133,48.7211914 C271.128906,47.2856445 273.692383,46.5678711 276.226562,46.5678711 C279.083008,46.5678711 280.51123,47.8203125 280.51123,50.3251953 L280.51123,50.3251953 L280.51123,52.5224609 L278.775391,52.5224609 C274.805664,52.5224609 271.755127,53.2438965 269.623779,54.6867676 C267.492432,56.1296387 266.426758,58.184082 266.426758,60.8500977 C266.426758,62.9008789 267.085938,64.5708008 268.404297,65.8598633 C269.722656,67.1489258 271.436523,67.793457 273.545898,67.793457 C276.021484,67.793457 278.343262,66.7460938 280.51123,64.6513672 L280.51123,64.6513672 L280.796875,64.6513672 C281.558594,66.7460938 283.272461,67.793457 285.938477,67.793457 Z M275.831055,63.3769531 C274.9375,63.3769531 274.186768,63.072998 273.578857,62.4650879 C272.970947,61.8571777 272.666992,61.1064453 272.666992,60.2128906 C272.666992,57.5761719 274.769043,56.2578125 278.973145,56.2578125 L278.973145,56.2578125 L280.51123,56.2578125 L280.51123,61.1577148 C278.914551,62.637207 277.354492,63.3769531 275.831055,63.3769531 Z" id="Olá" fill="#414141" fill-rule="nonzero"/>
            </g>
            <g id="identifier" transform="translate(20.000000, 454.000000)" fill="#000000" font-family="Arial-BoldMT, Arial" font-size="10" font-weight="bold" opacity="0.451421693">
                <text id="ID">
                    <tspan x="0" y="24">mZbKnVBo</tspan>
                </text>
                <text id="BATCH-1">
                    <tspan x="0" y="9">BATCH 1</tspan>
                </text>
            </g>
            <g id="qrcode" opacity="0.448946221" transform="translate(20.000000, 20.000000)" fill="#000000">
                <rect width="2.5" height="2.5" x="0.0" y="0.0" style="fill:#000000"/><rect width="2.5" height="2.5" x="2.5" y="0.0" style="fill:#000000"/><rect width="2.5" height="2.5" x="5.0" y="0.0" style="fill:#000000"/><rect width="2.5" height="2.5" x="7.5" y="0.0" style="fill:#000000"/><rect width="2.5" height="2.5" x="10.0" y="0.0" style="fill:#000000"/><rect width="2.5" height="2.5" x="12.5" y="0.0" style="fill:#000000"/><rect width="2.5" height="2.5" x="15.0" y="0.0" style="fill:#000000"/><rect width="2.5" height="2.5" x="22.5" y="0.0" style="fill:#000000"/><rect width="2.5" height="2.5" x="25.0" y="0.0" style="fill:#000000"/><rect width="2.5" height="2.5" x="32.5" y="0.0" style="fill:#000000"/><rect width="2.5" height="2.5" x="35.0" y="0.0" style="fill:#000000"/><rect width="2.5" height="2.5" x="45.0" y="0.0" style="fill:#000000"/><rect width="2.5" height="2.5" x="47.5" y="0.0" style="fill:#000000"/><rect width="2.5" height="2.5" x="52.5" y="0.0" style="fill:#000000"/><rect width="2.5" height="2.5" x="57.5" y="0.0" style="fill:#000000"/><rect width="2.5" height="2.5" x="60.0" y="0.0" style="fill:#000000"/><rect width="2.5" height="2.5" x="65.0" y="0.0" style="fill:#000000"/><rect width="2.5" height="2.5" x="67.5" y="0.0" style="fill:#000000"/><rect width="2.5" height="2.5" x="70.0" y="0.0" style="fill:#000000"/><rect width="2.5" height="2.5" x="72.5" y="0.0" style="fill:#000000"/><rect width="2.5" height="2.5" x="75.0" y="0.0" style="fill:#000000"/><rect width="2.5" height="2.5" x="77.5" y="0.0" style="fill:#000000"/><rect width="2.5" height="2.5" x="80.0" y="0.0" style="fill:#000000"/><rect width="2.5" height="2.5" x="0.0" y="2.5" style="fill:#000000"/><rect width="2.5" height="2.5" x="15.0" y="2.5" style="fill:#000000"/><rect width="2.5" height="2.5" x="20.0" y="2.5" style="fill:#000000"/><rect width="2.5" height="2.5" x="25.0" y="2.5" style="fill:#000000"/><rect width="2.5" height="2.5" x="27.5" y="2.5" style="fill:#000000"/><rect width="2.5" height="2.5" x="30.0" y="2.5" style="fill:#000000"/><rect width="2.5" height="2.5" x="32.5" y="2.5" style="fill:#000000"/><rect width="2.5" height="2.5" x="35.0" y="2.5" style="fill:#000000"/><rect width="2.5" height="2.5" x="37.5" y="2.5" style="fill:#000000"/><rect width="2.5" height="2.5" x="42.5" y="2.5" style="fill:#000000"/><rect width="2.5" height="2.5" x="47.5" y="2.5" style="fill:#000000"/><rect width="2.5" height="2.5" x="50.0" y="2.5" style="fill:#000000"/><rect width="2.5" height="2.5" x="55.0" y="2.5" style="fill:#000000"/><rect width="2.5" height="2.5" x="60.0" y="2.5" style="fill:#000000"/><rect width="2.5" height="2.5" x="65.0" y="2.5" style="fill:#000000"/><rect width="2.5" height="2.5" x="80.0" y="2.5" style="fill:#000000"/><rect width="2.5" height="2.5" x="0.0" y="5.0" style="fill:#000000"/><rect width="2.5" height="2.5" x="5.0" y="5.0" style="fill:#000000"/><rect width="2.5" height="2.5" x="7.5" y="5.0" style="fill:#000000"/><rect width="2.5" height="2.5" x="10.0" y="5.0" style="fill:#000000"/><rect width="2.5" height="2.5" x="15.0" y="5.0" style="fill:#000000"/><rect width="2.5" height="2.5" x="22.5" y="5.0" style="fill:#000000"/><rect width="2.5" height="2.5" x="27.5" y="5.0" style="fill:#000000"/><rect width="2.5" height="2.5" x="30.0" y="5.0" style="fill:#000000"/><rect width="2.5" height="2.5" x="35.0" y="5.0" style="fill:#000000"/><rect width="2.5" height="2.5" x="37.5" y="5.0" style="fill:#000000"/><rect width="2.5" height="2.5" x="42.5" y="5.0" style="fill:#000000"/><rect width="2.5" height="2.5" x="52.5" y="5.0" style="fill:#000000"/><rect width="2.5" height="2.5" x="55.0" y="5.0" style="fill:#000000"/><rect width="2.5" height="2.5" x="65.0" y="5.0" style="fill:#000000"/><rect width="2.5" height="2.5" x="70.0" y="5.0" style="fill:#000000"/><rect width="2.5" height="2.5" x="72.5" y="5.0" style="fill:#000000"/><rect width="2.5" height="2.5" x="75.0" y="5.0" style="fill:#000000"/><rect width="2.5" height="2.5" x="80.0" y="5.0" style="fill:#000000"/><rect width="2.5" height="2.5" x="0.0" y="7.5" style="fill:#000000"/><rect width="2.5" height="2.5" x="5.0" y="7.5" style="fill:#000000"/><rect width="2.5" height="2.5" x="7.5" y="7.5" style="fill:#000000"/><rect width="2.5" height="2.5" x="10.0" y="7.5" style="fill:#000000"/><rect width="2.5" height="2.5" x="15.0" y="7.5" style="fill:#000000"/><rect width="2.5" height="2.5" x="25.0" y="7.5" style="fill:#000000"/><rect width="2.5" height="2.5" x="27.5" y="7.5" style="fill:#000000"/><rect width="2.5" height="2.5" x="30.0" y="7.5" style="fill:#000000"/><rect width="2.5" height="2.5" x="32.5" y="7.5" style="fill:#000000"/><rect width="2.5" height="2.5" x="35.0" y="7.5" style="fill:#000000"/><rect width="2.5" height="2.5" x="40.0" y="7.5" style="fill:#000000"/><rect width="2.5" height="2.5" x="42.5" y="7.5" style="fill:#000000"/><rect width="2.5" height="2.5" x="45.0" y="7.5" style="fill:#000000"/><rect width="2.5" height="2.5" x="50.0" y="7.5" style="fill:#000000"/><rect width="2.5" height="2.5" x="65.0" y="7.5" style="fill:#000000"/><rect width="2.5" height="2.5" x="70.0" y="7.5" style="fill:#000000"/><rect width="2.5" height="2.5" x="72.5" y="7.5" style="fill:#000000"/><rect width="2.5" height="2.5" x="75.0" y="7.5" style="fill:#000000"/><rect width="2.5" height="2.5" x="80.0" y="7.5" style="fill:#000000"/><rect width="2.5" height="2.5" x="0.0" y="10.0" style="fill:#000000"/><rect width="2.5" height="2.5" x="5.0" y="10.0" style="fill:#000000"/><rect width="2.5" height="2.5" x="7.5" y="10.0" style="fill:#000000"/><rect width="2.5" height="2.5" x="10.0" y="10.0" style="fill:#000000"/><rect width="2.5" height="2.5" x="15.0" y="10.0" style="fill:#000000"/><rect width="2.5" height="2.5" x="27.5" y="10.0" style="fill:#000000"/><rect width="2.5" height="2.5" x="37.5" y="10.0" style="fill:#000000"/><rect width="2.5" height="2.5" x="42.5" y="10.0" style="fill:#000000"/><rect width="2.5" height="2.5" x="47.5" y="10.0" style="fill:#000000"/><rect width="2.5" height="2.5" x="52.5" y="10.0" style="fill:#000000"/><rect width="2.5" height="2.5" x="65.0" y="10.0" style="fill:#000000"/><rect width="2.5" height="2.5" x="70.0" y="10.0" style="fill:#000000"/><rect width="2.5" height="2.5" x="72.5" y="10.0" style="fill:#000000"/><rect width="2.5" height="2.5" x="75.0" y="10.0" style="fill:#000000"/><rect width="2.5" height="2.5" x="80.0" y="10.0" style="fill:#000000"/><rect width="2.5" height="2.5" x="0.0" y="12.5" style="fill:#000000"/><rect width="2.5" height="2.5" x="15.0" y="12.5" style="fill:#000000"/><rect width="2.5" height="2.5" x="20.0" y="12.5" style="fill:#000000"/><rect width="2.5" height="2.5" x="22.5" y="12.5" style="fill:#000000"/><rect width="2.5" height="2.5" x="35.0" y="12.5" style="fill:#000000"/><rect width="2.5" height="2.5" x="55.0" y="12.5" style="fill:#000000"/><rect width="2.5" height="2.5" x="57.5" y="12.5" style="fill:#000000"/><rect width="2.5" height="2.5" x="60.0" y="12.5" style="fill:#000000"/><rect width="2.5" height="2.5" x="65.0" y="12.5" style="fill:#000000"/><rect width="2.5" height="2.5" x="80.0" y="12.5" style="fill:#000000"/><rect width="2.5" height="2.5" x="0.0" y="15.0" style="fill:#000000"/><rect width="2.5" height="2.5" x="2.5" y="15.0" style="fill:#000000"/><rect width="2.5" height="2.5" x="5.0" y="15.0" style="fill:#000000"/><rect width="2.5" height="2.5" x="7.5" y="15.0" style="fill:#000000"/><rect width="2.5" height="2.5" x="10.0" y="15.0" style="fill:#000000"/><rect width="2.5" height="2.5" x="12.5" y="15.0" style="fill:#000000"/><rect width="2.5" height="2.5" x="15.0" y="15.0" style="fill:#000000"/><rect width="2.5" height="2.5" x="20.0" y="15.0" style="fill:#000000"/><rect width="2.5" height="2.5" x="25.0" y="15.0" style="fill:#000000"/><rect width="2.5" height="2.5" x="30.0" y="15.0" style="fill:#000000"/><rect width="2.5" height="2.5" x="35.0" y="15.0" style="fill:#000000"/><rect width="2.5" height="2.5" x="40.0" y="15.0" style="fill:#000000"/><rect width="2.5" height="2.5" x="45.0" y="15.0" style="fill:#000000"/><rect width="2.5" height="2.5" x="50.0" y="15.0" style="fill:#000000"/><rect width="2.5" height="2.5" x="55.0" y="15.0" style="fill:#000000"/><rect width="2.5" height="2.5" x="60.0" y="15.0" style="fill:#000000"/><rect width="2.5" height="2.5" x="65.0" y="15.0" style="fill:#000000"/><rect width="2.5" height="2.5" x="67.5" y="15.0" style="fill:#000000"/><rect width="2.5" height="2.5" x="70.0" y="15.0" style="fill:#000000"/><rect width="2.5" height="2.5" x="72.5" y="15.0" style="fill:#000000"/><rect width="2.5" height="2.5" x="75.0" y="15.0" style="fill:#000000"/><rect width="2.5" height="2.5" x="77.5" y="15.0" style="fill:#000000"/><rect width="2.5" height="2.5" x="80.0" y="15.0" style="fill:#000000"/><rect width="2.5" height="2.5" x="20.0" y="17.5" style="fill:#000000"/><rect width="2.5" height="2.5" x="27.5" y="17.5" style="fill:#000000"/><rect width="2.5" height="2.5" x="32.5" y="17.5" style="fill:#000000"/><rect width="2.5" height="2.5" x="47.5" y="17.5" style="fill:#000000"/><rect width="2.5" height="2.5" x="52.5" y="17.5" style="fill:#000000"/><rect width="2.5" height="2.5" x="60.0" y="17.5" style="fill:#000000"/><rect width="2.5" height="2.5" x="10.0" y="20.0" style="fill:#000000"/><rect width="2.5" height="2.5" x="12.5" y="20.0" style="fill:#000000"/><rect width="2.5" height="2.5" x="15.0" y="20.0" style="fill:#000000"/><rect width="2.5" height="2.5" x="17.5" y="20.0" style="fill:#000000"/><rect width="2.5" height="2.5" x="25.0" y="20.0" style="fill:#000000"/><rect width="2.5" height="2.5" x="37.5" y="20.0" style="fill:#000000"/><rect width="2.5" height="2.5" x="40.0" y="20.0" style="fill:#000000"/><rect width="2.5" height="2.5" x="47.5" y="20.0" style="fill:#000000"/><rect width="2.5" height="2.5" x="50.0" y="20.0" style="fill:#000000"/><rect width="2.5" height="2.5" x="55.0" y="20.0" style="fill:#000000"/><rect width="2.5" height="2.5" x="57.5" y="20.0" style="fill:#000000"/><rect width="2.5" height="2.5" x="60.0" y="20.0" style="fill:#000000"/><rect width="2.5" height="2.5" x="65.0" y="20.0" style="fill:#000000"/><rect width="2.5" height="2.5" x="67.5" y="20.0" style="fill:#000000"/><rect width="2.5" height="2.5" x="77.5" y="20.0" style="fill:#000000"/><rect width="2.5" height="2.5" x="0.0" y="22.5" style="fill:#000000"/><rect width="2.5" height="2.5" x="2.5" y="22.5" style="fill:#000000"/><rect width="2.5" height="2.5" x="5.0" y="22.5" style="fill:#000000"/><rect width="2.5" height="2.5" x="7.5" y="22.5" style="fill:#000000"/><rect width="2.5" height="2.5" x="12.5" y="22.5" style="fill:#000000"/><rect width="2.5" height="2.5" x="17.5" y="22.5" style="fill:#000000"/><rect width="2.5" height="2.5" x="20.0" y="22.5" style="fill:#000000"/><rect width="2.5" height="2.5" x="30.0" y="22.5" style="fill:#000000"/><rect width="2.5" height="2.5" x="32.5" y="22.5" style="fill:#000000"/><rect width="2.5" height="2.5" x="35.0" y="22.5" style="fill:#000000"/><rect width="2.5" height="2.5" x="37.5" y="22.5" style="fill:#000000"/><rect width="2.5" height="2.5" x="45.0" y="22.5" style="fill:#000000"/><rect width="2.5" height="2.5" x="50.0" y="22.5" style="fill:#000000"/><rect width="2.5" height="2.5" x="55.0" y="22.5" style="fill:#000000"/><rect width="2.5" height="2.5" x="57.5" y="22.5" style="fill:#000000"/><rect width="2.5" height="2.5" x="67.5" y="22.5" style="fill:#000000"/><rect width="2.5" height="2.5" x="75.0" y="22.5" style="fill:#000000"/><rect width="2.5" height="2.5" x="0.0" y="25.0" style="fill:#000000"/><rect width="2.5" height="2.5" x="5.0" y="25.0" style="fill:#000000"/><rect width="2.5" height="2.5" x="12.5" y="25.0" style="fill:#000000"/><rect width="2.5" height="2.5" x="15.0" y="25.0" style="fill:#000000"/><rect width="2.5" height="2.5" x="27.5" y="25.0" style="fill:#000000"/><rect width="2.5" height="2.5" x="30.0" y="25.0" style="fill:#000000"/><rect width="2.5" height="2.5" x="32.5" y="25.0" style="fill:#000000"/><rect width="2.5" height="2.5" x="35.0" y="25.0" style="fill:#000000"/><rect width="2.5" height="2.5" x="42.5" y="25.0" style="fill:#000000"/><rect width="2.5" height="2.5" x="45.0" y="25.0" style="fill:#000000"/><rect width="2.5" height="2.5" x="47.5" y="25.0" style="fill:#000000"/><rect width="2.5" height="2.5" x="52.5" y="25.0" style="fill:#000000"/><rect width="2.5" height="2.5" x="55.0" y="25.0" style="fill:#000000"/><rect width="2.5" height="2.5" x="57.5" y="25.0" style="fill:#000000"/><rect width="2.5" height="2.5" x="60.0" y="25.0" style="fill:#000000"/><rect width="2.5" height="2.5" x="62.5" y="25.0" style="fill:#000000"/><rect width="2.5" height="2.5" x="65.0" y="25.0" style="fill:#000000"/><rect width="2.5" height="2.5" x="67.5" y="25.0" style="fill:#000000"/><rect width="2.5" height="2.5" x="70.0" y="25.0" style="fill:#000000"/><rect width="2.5" height="2.5" x="72.5" y="25.0" style="fill:#000000"/><rect width="2.5" height="2.5" x="75.0" y="25.0" style="fill:#000000"/><rect width="2.5" height="2.5" x="77.5" y="25.0" style="fill:#000000"/><rect width="2.5" height="2.5" x="0.0" y="27.5" style="fill:#000000"/><rect width="2.5" height="2.5" x="2.5" y="27.5" style="fill:#000000"/><rect width="2.5" height="2.5" x="5.0" y="27.5" style="fill:#000000"/><rect width="2.5" height="2.5" x="10.0" y="27.5" style="fill:#000000"/><rect width="2.5" height="2.5" x="17.5" y="27.5" style="fill:#000000"/><rect width="2.5" height="2.5" x="20.0" y="27.5" style="fill:#000000"/><rect width="2.5" height="2.5" x="25.0" y="27.5" style="fill:#000000"/><rect width="2.5" height="2.5" x="27.5" y="27.5" style="fill:#000000"/><rect width="2.5" height="2.5" x="32.5" y="27.5" style="fill:#000000"/><rect width="2.5" height="2.5" x="40.0" y="27.5" style="fill:#000000"/><rect width="2.5" height="2.5" x="42.5" y="27.5" style="fill:#000000"/><rect width="2.5" height="2.5" x="47.5" y="27.5" style="fill:#000000"/><rect width="2.5" height="2.5" x="50.0" y="27.5" style="fill:#000000"/><rect width="2.5" height="2.5" x="52.5" y="27.5" style="fill:#000000"/><rect width="2.5" height="2.5" x="60.0" y="27.5" style="fill:#000000"/><rect width="2.5" height="2.5" x="65.0" y="27.5" style="fill:#000000"/><rect width="2.5" height="2.5" x="70.0" y="27.5" style="fill:#000000"/><rect width="2.5" height="2.5" x="77.5" y="27.5" style="fill:#000000"/><rect width="2.5" height="2.5" x="80.0" y="27.5" style="fill:#000000"/><rect width="2.5" height="2.5" x="0.0" y="30.0" style="fill:#000000"/><rect width="2.5" height="2.5" x="2.5" y="30.0" style="fill:#000000"/><rect width="2.5" height="2.5" x="5.0" y="30.0" style="fill:#000000"/><rect width="2.5" height="2.5" x="12.5" y="30.0" style="fill:#000000"/><rect width="2.5" height="2.5" x="15.0" y="30.0" style="fill:#000000"/><rect width="2.5" height="2.5" x="17.5" y="30.0" style="fill:#000000"/><rect width="2.5" height="2.5" x="25.0" y="30.0" style="fill:#000000"/><rect width="2.5" height="2.5" x="30.0" y="30.0" style="fill:#000000"/><rect width="2.5" height="2.5" x="40.0" y="30.0" style="fill:#000000"/><rect width="2.5" height="2.5" x="42.5" y="30.0" style="fill:#000000"/><rect width="2.5" height="2.5" x="45.0" y="30.0" style="fill:#000000"/><rect width="2.5" height="2.5" x="47.5" y="30.0" style="fill:#000000"/><rect width="2.5" height="2.5" x="50.0" y="30.0" style="fill:#000000"/><rect width="2.5" height="2.5" x="57.5" y="30.0" style="fill:#000000"/><rect width="2.5" height="2.5" x="60.0" y="30.0" style="fill:#000000"/><rect width="2.5" height="2.5" x="65.0" y="30.0" style="fill:#000000"/><rect width="2.5" height="2.5" x="72.5" y="30.0" style="fill:#000000"/><rect width="2.5" height="2.5" x="80.0" y="30.0" style="fill:#000000"/><rect width="2.5" height="2.5" x="0.0" y="32.5" style="fill:#000000"/><rect width="2.5" height="2.5" x="2.5" y="32.5" style="fill:#000000"/><rect width="2.5" height="2.5" x="7.5" y="32.5" style="fill:#000000"/><rect width="2.5" height="2.5" x="10.0" y="32.5" style="fill:#000000"/><rect width="2.5" height="2.5" x="12.5" y="32.5" style="fill:#000000"/><rect width="2.5" height="2.5" x="17.5" y="32.5" style="fill:#000000"/><rect width="2.5" height="2.5" x="30.0" y="32.5" style="fill:#000000"/><rect width="2.5" height="2.5" x="35.0" y="32.5" style="fill:#000000"/><rect width="2.5" height="2.5" x="40.0" y="32.5" style="fill:#000000"/><rect width="2.5" height="2.5" x="50.0" y="32.5" style="fill:#000000"/><rect width="2.5" height="2.5" x="52.5" y="32.5" style="fill:#000000"/><rect width="2.5" height="2.5" x="55.0" y="32.5" style="fill:#000000"/><rect width="2.5" height="2.5" x="57.5" y="32.5" style="fill:#000000"/><rect width="2.5" height="2.5" x="62.5" y="32.5" style="fill:#000000"/><rect width="2.5" height="2.5" x="67.5" y="32.5" style="fill:#000000"/><rect width="2.5" height="2.5" x="77.5" y="32.5" style="fill:#000000"/><rect width="2.5" height="2.5" x="2.5" y="35.0" style="fill:#000000"/><rect width="2.5" height="2.5" x="5.0" y="35.0" style="fill:#000000"/><rect width="2.5" height="2.5" x="7.5" y="35.0" style="fill:#000000"/><rect width="2.5" height="2.5" x="15.0" y="35.0" style="fill:#000000"/><rect width="2.5" height="2.5" x="20.0" y="35.0" style="fill:#000000"/><rect width="2.5" height="2.5" x="25.0" y="35.0" style="fill:#000000"/><rect width="2.5" height="2.5" x="30.0" y="35.0" style="fill:#000000"/><rect width="2.5" height="2.5" x="32.5" y="35.0" style="fill:#000000"/><rect width="2.5" height="2.5" x="35.0" y="35.0" style="fill:#000000"/><rect width="2.5" height="2.5" x="37.5" y="35.0" style="fill:#000000"/><rect width="2.5" height="2.5" x="40.0" y="35.0" style="fill:#000000"/><rect width="2.5" height="2.5" x="42.5" y="35.0" style="fill:#000000"/><rect width="2.5" height="2.5" x="47.5" y="35.0" style="fill:#000000"/><rect width="2.5" height="2.5" x="50.0" y="35.0" style="fill:#000000"/><rect width="2.5" height="2.5" x="57.5" y="35.0" style="fill:#000000"/><rect width="2.5" height="2.5" x="60.0" y="35.0" style="fill:#000000"/><rect width="2.5" height="2.5" x="62.5" y="35.0" style="fill:#000000"/><rect width="2.5" height="2.5" x="67.5" y="35.0" style="fill:#000000"/><rect width="2.5" height="2.5" x="75.0" y="35.0" style="fill:#000000"/><rect width="2.5" height="2.5" x="77.5" y="35.0" style="fill:#000000"/><rect width="2.5" height="2.5" x="0.0" y="37.5" style="fill:#000000"/><rect width="2.5" height="2.5" x="2.5" y="37.5" style="fill:#000000"/><rect width="2.5" height="2.5" x="5.0" y="37.5" style="fill:#000000"/><rect width="2.5" height="2.5" x="7.5" y="37.5" style="fill:#000000"/><rect width="2.5" height="2.5" x="10.0" y="37.5" style="fill:#000000"/><rect width="2.5" height="2.5" x="12.5" y="37.5" style="fill:#000000"/><rect width="2.5" height="2.5" x="22.5" y="37.5" style="fill:#000000"/><rect width="2.5" height="2.5" x="27.5" y="37.5" style="fill:#000000"/><rect width="2.5" height="2.5" x="30.0" y="37.5" style="fill:#000000"/><rect width="2.5" height="2.5" x="32.5" y="37.5" style="fill:#000000"/><rect width="2.5" height="2.5" x="35.0" y="37.5" style="fill:#000000"/><rect width="2.5" height="2.5" x="40.0" y="37.5" style="fill:#000000"/><rect width="2.5" height="2.5" x="45.0" y="37.5" style="fill:#000000"/><rect width="2.5" height="2.5" x="50.0" y="37.5" style="fill:#000000"/><rect width="2.5" height="2.5" x="52.5" y="37.5" style="fill:#000000"/><rect width="2.5" height="2.5" x="57.5" y="37.5" style="fill:#000000"/><rect width="2.5" height="2.5" x="60.0" y="37.5" style="fill:#000000"/><rect width="2.5" height="2.5" x="62.5" y="37.5" style="fill:#000000"/><rect width="2.5" height="2.5" x="65.0" y="37.5" style="fill:#000000"/><rect width="2.5" height="2.5" x="70.0" y="37.5" style="fill:#000000"/><rect width="2.5" height="2.5" x="77.5" y="37.5" style="fill:#000000"/><rect width="2.5" height="2.5" x="80.0" y="37.5" style="fill:#000000"/><rect width="2.5" height="2.5" x="0.0" y="40.0" style="fill:#000000"/><rect width="2.5" height="2.5" x="7.5" y="40.0" style="fill:#000000"/><rect width="2.5" height="2.5" x="10.0" y="40.0" style="fill:#000000"/><rect width="2.5" height="2.5" x="15.0" y="40.0" style="fill:#000000"/><rect width="2.5" height="2.5" x="20.0" y="40.0" style="fill:#000000"/><rect width="2.5" height="2.5" x="22.5" y="40.0" style="fill:#000000"/><rect width="2.5" height="2.5" x="30.0" y="40.0" style="fill:#000000"/><rect width="2.5" height="2.5" x="32.5" y="40.0" style="fill:#000000"/><rect width="2.5" height="2.5" x="35.0" y="40.0" style="fill:#000000"/><rect width="2.5" height="2.5" x="37.5" y="40.0" style="fill:#000000"/><rect width="2.5" height="2.5" x="50.0" y="40.0" style="fill:#000000"/><rect width="2.5" height="2.5" x="52.5" y="40.0" style="fill:#000000"/><rect width="2.5" height="2.5" x="65.0" y="40.0" style="fill:#000000"/><rect width="2.5" height="2.5" x="70.0" y="40.0" style="fill:#000000"/><rect width="2.5" height="2.5" x="2.5" y="42.5" style="fill:#000000"/><rect width="2.5" height="2.5" x="7.5" y="42.5" style="fill:#000000"/><rect width="2.5" height="2.5" x="22.5" y="42.5" style="fill:#000000"/><rect width="2.5" height="2.5" x="30.0" y="42.5" style="fill:#000000"/><rect width="2.5" height="2.5" x="32.5" y="42.5" style="fill:#000000"/><rect width="2.5" height="2.5" x="37.5" y="42.5" style="fill:#000000"/><rect width="2.5" height="2.5" x="40.0" y="42.5" style="fill:#000000"/><rect width="2.5" height="2.5" x="42.5" y="42.5" style="fill:#000000"/><rect width="2.5" height="2.5" x="52.5" y="42.5" style="fill:#000000"/><rect width="2.5" height="2.5" x="57.5" y="42.5" style="fill:#000000"/><rect width="2.5" height="2.5" x="60.0" y="42.5" style="fill:#000000"/><rect width="2.5" height="2.5" x="67.5" y="42.5" style="fill:#000000"/><rect width="2.5" height="2.5" x="77.5" y="42.5" style="fill:#000000"/><rect width="2.5" height="2.5" x="80.0" y="42.5" style="fill:#000000"/><rect width="2.5" height="2.5" x="2.5" y="45.0" style="fill:#000000"/><rect width="2.5" height="2.5" x="12.5" y="45.0" style="fill:#000000"/><rect width="2.5" height="2.5" x="15.0" y="45.0" style="fill:#000000"/><rect width="2.5" height="2.5" x="37.5" y="45.0" style="fill:#000000"/><rect width="2.5" height="2.5" x="45.0" y="45.0" style="fill:#000000"/><rect width="2.5" height="2.5" x="50.0" y="45.0" style="fill:#000000"/><rect width="2.5" height="2.5" x="52.5" y="45.0" style="fill:#000000"/><rect width="2.5" height="2.5" x="57.5" y="45.0" style="fill:#000000"/><rect width="2.5" height="2.5" x="60.0" y="45.0" style="fill:#000000"/><rect width="2.5" height="2.5" x="67.5" y="45.0" style="fill:#000000"/><rect width="2.5" height="2.5" x="72.5" y="45.0" style="fill:#000000"/><rect width="2.5" height="2.5" x="77.5" y="45.0" style="fill:#000000"/><rect width="2.5" height="2.5" x="7.5" y="47.5" style="fill:#000000"/><rect width="2.5" height="2.5" x="10.0" y="47.5" style="fill:#000000"/><rect width="2.5" height="2.5" x="20.0" y="47.5" style="fill:#000000"/><rect width="2.5" height="2.5" x="25.0" y="47.5" style="fill:#000000"/><rect width="2.5" height="2.5" x="32.5" y="47.5" style="fill:#000000"/><rect width="2.5" height="2.5" x="35.0" y="47.5" style="fill:#000000"/><rect width="2.5" height="2.5" x="37.5" y="47.5" style="fill:#000000"/><rect width="2.5" height="2.5" x="40.0" y="47.5" style="fill:#000000"/><rect width="2.5" height="2.5" x="42.5" y="47.5" style="fill:#000000"/><rect width="2.5" height="2.5" x="45.0" y="47.5" style="fill:#000000"/><rect width="2.5" height="2.5" x="47.5" y="47.5" style="fill:#000000"/><rect width="2.5" height="2.5" x="50.0" y="47.5" style="fill:#000000"/><rect width="2.5" height="2.5" x="52.5" y="47.5" style="fill:#000000"/><rect width="2.5" height="2.5" x="55.0" y="47.5" style="fill:#000000"/><rect width="2.5" height="2.5" x="65.0" y="47.5" style="fill:#000000"/><rect width="2.5" height="2.5" x="80.0" y="47.5" style="fill:#000000"/><rect width="2.5" height="2.5" x="0.0" y="50.0" style="fill:#000000"/><rect width="2.5" height="2.5" x="2.5" y="50.0" style="fill:#000000"/><rect width="2.5" height="2.5" x="15.0" y="50.0" style="fill:#000000"/><rect width="2.5" height="2.5" x="25.0" y="50.0" style="fill:#000000"/><rect width="2.5" height="2.5" x="32.5" y="50.0" style="fill:#000000"/><rect width="2.5" height="2.5" x="35.0" y="50.0" style="fill:#000000"/><rect width="2.5" height="2.5" x="40.0" y="50.0" style="fill:#000000"/><rect width="2.5" height="2.5" x="42.5" y="50.0" style="fill:#000000"/><rect width="2.5" height="2.5" x="50.0" y="50.0" style="fill:#000000"/><rect width="2.5" height="2.5" x="52.5" y="50.0" style="fill:#000000"/><rect width="2.5" height="2.5" x="55.0" y="50.0" style="fill:#000000"/><rect width="2.5" height="2.5" x="60.0" y="50.0" style="fill:#000000"/><rect width="2.5" height="2.5" x="65.0" y="50.0" style="fill:#000000"/><rect width="2.5" height="2.5" x="70.0" y="50.0" style="fill:#000000"/><rect width="2.5" height="2.5" x="72.5" y="50.0" style="fill:#000000"/><rect width="2.5" height="2.5" x="77.5" y="50.0" style="fill:#000000"/><rect width="2.5" height="2.5" x="80.0" y="50.0" style="fill:#000000"/><rect width="2.5" height="2.5" x="0.0" y="52.5" style="fill:#000000"/><rect width="2.5" height="2.5" x="12.5" y="52.5" style="fill:#000000"/><rect width="2.5" height="2.5" x="22.5" y="52.5" style="fill:#000000"/><rect width="2.5" height="2.5" x="30.0" y="52.5" style="fill:#000000"/><rect width="2.5" height="2.5" x="32.5" y="52.5" style="fill:#000000"/><rect width="2.5" height="2.5" x="35.0" y="52.5" style="fill:#000000"/><rect width="2.5" height="2.5" x="40.0" y="52.5" style="fill:#000000"/><rect width="2.5" height="2.5" x="42.5" y="52.5" style="fill:#000000"/><rect width="2.5" height="2.5" x="45.0" y="52.5" style="fill:#000000"/><rect width="2.5" height="2.5" x="47.5" y="52.5" style="fill:#000000"/><rect width="2.5" height="2.5" x="52.5" y="52.5" style="fill:#000000"/><rect width="2.5" height="2.5" x="60.0" y="52.5" style="fill:#000000"/><rect width="2.5" height="2.5" x="62.5" y="52.5" style="fill:#000000"/><rect width="2.5" height="2.5" x="72.5" y="52.5" style="fill:#000000"/><rect width="2.5" height="2.5" x="75.0" y="52.5" style="fill:#000000"/><rect width="2.5" height="2.5" x="77.5" y="52.5" style="fill:#000000"/><rect width="2.5" height="2.5" x="5.0" y="55.0" style="fill:#000000"/><rect width="2.5" height="2.5" x="7.5" y="55.0" style="fill:#000000"/><rect width="2.5" height="2.5" x="10.0" y="55.0" style="fill:#000000"/><rect width="2.5" height="2.5" x="15.0" y="55.0" style="fill:#000000"/><rect width="2.5" height="2.5" x="25.0" y="55.0" style="fill:#000000"/><rect width="2.5" height="2.5" x="32.5" y="55.0" style="fill:#000000"/><rect width="2.5" height="2.5" x="37.5" y="55.0" style="fill:#000000"/><rect width="2.5" height="2.5" x="45.0" y="55.0" style="fill:#000000"/><rect width="2.5" height="2.5" x="47.5" y="55.0" style="fill:#000000"/><rect width="2.5" height="2.5" x="50.0" y="55.0" style="fill:#000000"/><rect width="2.5" height="2.5" x="55.0" y="55.0" style="fill:#000000"/><rect width="2.5" height="2.5" x="57.5" y="55.0" style="fill:#000000"/><rect width="2.5" height="2.5" x="60.0" y="55.0" style="fill:#000000"/><rect width="2.5" height="2.5" x="75.0" y="55.0" style="fill:#000000"/><rect width="2.5" height="2.5" x="77.5" y="55.0" style="fill:#000000"/><rect width="2.5" height="2.5" x="20.0" y="57.5" style="fill:#000000"/><rect width="2.5" height="2.5" x="35.0" y="57.5" style="fill:#000000"/><rect width="2.5" height="2.5" x="52.5" y="57.5" style="fill:#000000"/><rect width="2.5" height="2.5" x="55.0" y="57.5" style="fill:#000000"/><rect width="2.5" height="2.5" x="60.0" y="57.5" style="fill:#000000"/><rect width="2.5" height="2.5" x="70.0" y="57.5" style="fill:#000000"/><rect width="2.5" height="2.5" x="77.5" y="57.5" style="fill:#000000"/><rect width="2.5" height="2.5" x="80.0" y="57.5" style="fill:#000000"/><rect width="2.5" height="2.5" x="0.0" y="60.0" style="fill:#000000"/><rect width="2.5" height="2.5" x="2.5" y="60.0" style="fill:#000000"/><rect width="2.5" height="2.5" x="5.0" y="60.0" style="fill:#000000"/><rect width="2.5" height="2.5" x="7.5" y="60.0" style="fill:#000000"/><rect width="2.5" height="2.5" x="15.0" y="60.0" style="fill:#000000"/><rect width="2.5" height="2.5" x="17.5" y="60.0" style="fill:#000000"/><rect width="2.5" height="2.5" x="20.0" y="60.0" style="fill:#000000"/><rect width="2.5" height="2.5" x="30.0" y="60.0" style="fill:#000000"/><rect width="2.5" height="2.5" x="37.5" y="60.0" style="fill:#000000"/><rect width="2.5" height="2.5" x="40.0" y="60.0" style="fill:#000000"/><rect width="2.5" height="2.5" x="47.5" y="60.0" style="fill:#000000"/><rect width="2.5" height="2.5" x="50.0" y="60.0" style="fill:#000000"/><rect width="2.5" height="2.5" x="52.5" y="60.0" style="fill:#000000"/><rect width="2.5" height="2.5" x="55.0" y="60.0" style="fill:#000000"/><rect width="2.5" height="2.5" x="57.5" y="60.0" style="fill:#000000"/><rect width="2.5" height="2.5" x="60.0" y="60.0" style="fill:#000000"/><rect width="2.5" height="2.5" x="62.5" y="60.0" style="fill:#000000"/><rect width="2.5" height="2.5" x="65.0" y="60.0" style="fill:#000000"/><rect width="2.5" height="2.5" x="67.5" y="60.0" style="fill:#000000"/><rect width="2.5" height="2.5" x="70.0" y="60.0" style="fill:#000000"/><rect width="2.5" height="2.5" x="72.5" y="60.0" style="fill:#000000"/><rect width="2.5" height="2.5" x="20.0" y="62.5" style="fill:#000000"/><rect width="2.5" height="2.5" x="22.5" y="62.5" style="fill:#000000"/><rect width="2.5" height="2.5" x="30.0" y="62.5" style="fill:#000000"/><rect width="2.5" height="2.5" x="45.0" y="62.5" style="fill:#000000"/><rect width="2.5" height="2.5" x="52.5" y="62.5" style="fill:#000000"/><rect width="2.5" height="2.5" x="60.0" y="62.5" style="fill:#000000"/><rect width="2.5" height="2.5" x="70.0" y="62.5" style="fill:#000000"/><rect width="2.5" height="2.5" x="72.5" y="62.5" style="fill:#000000"/><rect width="2.5" height="2.5" x="75.0" y="62.5" style="fill:#000000"/><rect width="2.5" height="2.5" x="0.0" y="65.0" style="fill:#000000"/><rect width="2.5" height="2.5" x="2.5" y="65.0" style="fill:#000000"/><rect width="2.5" height="2.5" x="5.0" y="65.0" style="fill:#000000"/><rect width="2.5" height="2.5" x="7.5" y="65.0" style="fill:#000000"/><rect width="2.5" height="2.5" x="10.0" y="65.0" style="fill:#000000"/><rect width="2.5" height="2.5" x="12.5" y="65.0" style="fill:#000000"/><rect width="2.5" height="2.5" x="15.0" y="65.0" style="fill:#000000"/><rect width="2.5" height="2.5" x="20.0" y="65.0" style="fill:#000000"/><rect width="2.5" height="2.5" x="25.0" y="65.0" style="fill:#000000"/><rect width="2.5" height="2.5" x="35.0" y="65.0" style="fill:#000000"/><rect width="2.5" height="2.5" x="37.5" y="65.0" style="fill:#000000"/><rect width="2.5" height="2.5" x="47.5" y="65.0" style="fill:#000000"/><rect width="2.5" height="2.5" x="60.0" y="65.0" style="fill:#000000"/><rect width="2.5" height="2.5" x="65.0" y="65.0" style="fill:#000000"/><rect width="2.5" height="2.5" x="70.0" y="65.0" style="fill:#000000"/><rect width="2.5" height="2.5" x="77.5" y="65.0" style="fill:#000000"/><rect width="2.5" height="2.5" x="0.0" y="67.5" style="fill:#000000"/><rect width="2.5" height="2.5" x="15.0" y="67.5" style="fill:#000000"/><rect width="2.5" height="2.5" x="20.0" y="67.5" style="fill:#000000"/><rect width="2.5" height="2.5" x="25.0" y="67.5" style="fill:#000000"/><rect width="2.5" height="2.5" x="27.5" y="67.5" style="fill:#000000"/><rect width="2.5" height="2.5" x="30.0" y="67.5" style="fill:#000000"/><rect width="2.5" height="2.5" x="35.0" y="67.5" style="fill:#000000"/><rect width="2.5" height="2.5" x="40.0" y="67.5" style="fill:#000000"/><rect width="2.5" height="2.5" x="50.0" y="67.5" style="fill:#000000"/><rect width="2.5" height="2.5" x="55.0" y="67.5" style="fill:#000000"/><rect width="2.5" height="2.5" x="57.5" y="67.5" style="fill:#000000"/><rect width="2.5" height="2.5" x="60.0" y="67.5" style="fill:#000000"/><rect width="2.5" height="2.5" x="70.0" y="67.5" style="fill:#000000"/><rect width="2.5" height="2.5" x="72.5" y="67.5" style="fill:#000000"/><rect width="2.5" height="2.5" x="77.5" y="67.5" style="fill:#000000"/><rect width="2.5" height="2.5" x="80.0" y="67.5" style="fill:#000000"/><rect width="2.5" height="2.5" x="0.0" y="70.0" style="fill:#000000"/><rect width="2.5" height="2.5" x="5.0" y="70.0" style="fill:#000000"/><rect width="2.5" height="2.5" x="7.5" y="70.0" style="fill:#000000"/><rect width="2.5" height="2.5" x="10.0" y="70.0" style="fill:#000000"/><rect width="2.5" height="2.5" x="15.0" y="70.0" style="fill:#000000"/><rect width="2.5" height="2.5" x="20.0" y="70.0" style="fill:#000000"/><rect width="2.5" height="2.5" x="30.0" y="70.0" style="fill:#000000"/><rect width="2.5" height="2.5" x="32.5" y="70.0" style="fill:#000000"/><rect width="2.5" height="2.5" x="35.0" y="70.0" style="fill:#000000"/><rect width="2.5" height="2.5" x="40.0" y="70.0" style="fill:#000000"/><rect width="2.5" height="2.5" x="42.5" y="70.0" style="fill:#000000"/><rect width="2.5" height="2.5" x="47.5" y="70.0" style="fill:#000000"/><rect width="2.5" height="2.5" x="55.0" y="70.0" style="fill:#000000"/><rect width="2.5" height="2.5" x="60.0" y="70.0" style="fill:#000000"/><rect width="2.5" height="2.5" x="62.5" y="70.0" style="fill:#000000"/><rect width="2.5" height="2.5" x="65.0" y="70.0" style="fill:#000000"/><rect width="2.5" height="2.5" x="67.5" y="70.0" style="fill:#000000"/><rect width="2.5" height="2.5" x="70.0" y="70.0" style="fill:#000000"/><rect width="2.5" height="2.5" x="0.0" y="72.5" style="fill:#000000"/><rect width="2.5" height="2.5" x="5.0" y="72.5" style="fill:#000000"/><rect width="2.5" height="2.5" x="7.5" y="72.5" style="fill:#000000"/><rect width="2.5" height="2.5" x="10.0" y="72.5" style="fill:#000000"/><rect width="2.5" height="2.5" x="15.0" y="72.5" style="fill:#000000"/><rect width="2.5" height="2.5" x="22.5" y="72.5" style="fill:#000000"/><rect width="2.5" height="2.5" x="25.0" y="72.5" style="fill:#000000"/><rect width="2.5" height="2.5" x="27.5" y="72.5" style="fill:#000000"/><rect width="2.5" height="2.5" x="37.5" y="72.5" style="fill:#000000"/><rect width="2.5" height="2.5" x="40.0" y="72.5" style="fill:#000000"/><rect width="2.5" height="2.5" x="45.0" y="72.5" style="fill:#000000"/><rect width="2.5" height="2.5" x="52.5" y="72.5" style="fill:#000000"/><rect width="2.5" height="2.5" x="57.5" y="72.5" style="fill:#000000"/><rect width="2.5" height="2.5" x="65.0" y="72.5" style="fill:#000000"/><rect width="2.5" height="2.5" x="67.5" y="72.5" style="fill:#000000"/><rect width="2.5" height="2.5" x="70.0" y="72.5" style="fill:#000000"/><rect width="2.5" height="2.5" x="72.5" y="72.5" style="fill:#000000"/><rect width="2.5" height="2.5" x="80.0" y="72.5" style="fill:#000000"/><rect width="2.5" height="2.5" x="0.0" y="75.0" style="fill:#000000"/><rect width="2.5" height="2.5" x="5.0" y="75.0" style="fill:#000000"/><rect width="2.5" height="2.5" x="7.5" y="75.0" style="fill:#000000"/><rect width="2.5" height="2.5" x="10.0" y="75.0" style="fill:#000000"/><rect width="2.5" height="2.5" x="15.0" y="75.0" style="fill:#000000"/><rect width="2.5" height="2.5" x="27.5" y="75.0" style="fill:#000000"/><rect width="2.5" height="2.5" x="35.0" y="75.0" style="fill:#000000"/><rect width="2.5" height="2.5" x="37.5" y="75.0" style="fill:#000000"/><rect width="2.5" height="2.5" x="40.0" y="75.0" style="fill:#000000"/><rect width="2.5" height="2.5" x="50.0" y="75.0" style="fill:#000000"/><rect width="2.5" height="2.5" x="52.5" y="75.0" style="fill:#000000"/><rect width="2.5" height="2.5" x="55.0" y="75.0" style="fill:#000000"/><rect width="2.5" height="2.5" x="57.5" y="75.0" style="fill:#000000"/><rect width="2.5" height="2.5" x="62.5" y="75.0" style="fill:#000000"/><rect width="2.5" height="2.5" x="65.0" y="75.0" style="fill:#000000"/><rect width="2.5" height="2.5" x="70.0" y="75.0" style="fill:#000000"/><rect width="2.5" height="2.5" x="72.5" y="75.0" style="fill:#000000"/><rect width="2.5" height="2.5" x="75.0" y="75.0" style="fill:#000000"/><rect width="2.5" height="2.5" x="0.0" y="77.5" style="fill:#000000"/><rect width="2.5" height="2.5" x="15.0" y="77.5" style="fill:#000000"/><rect width="2.5" height="2.5" x="22.5" y="77.5" style="fill:#000000"/><rect width="2.5" height="2.5" x="25.0" y="77.5" style="fill:#000000"/><rect width="2.5" height="2.5" x="32.5" y="77.5" style="fill:#000000"/><rect width="2.5" height="2.5" x="35.0" y="77.5" style="fill:#000000"/><rect width="2.5" height="2.5" x="37.5" y="77.5" style="fill:#000000"/><rect width="2.5" height="2.5" x="50.0" y="77.5" style="fill:#000000"/><rect width="2.5" height="2.5" x="57.5" y="77.5" style="fill:#000000"/><rect width="2.5" height="2.5" x="60.0" y="77.5" style="fill:#000000"/><rect width="2.5" height="2.5" x="65.0" y="77.5" style="fill:#000000"/><rect width="2.5" height="2.5" x="67.5" y="77.5" style="fill:#000000"/><rect width="2.5" height="2.5" x="70.0" y="77.5" style="fill:#000000"/><rect width="2.5" height="2.5" x="0.0" y="80.0" style="fill:#000000"/><rect width="2.5" height="2.5" x="2.5" y="80.0" style="fill:#000000"/><rect width="2.5" height="2.5" x="5.0" y="80.0" style="fill:#000000"/><rect width="2.5" height="2.5" x="7.5" y="80.0" style="fill:#000000"/><rect width="2.5" height="2.5" x="10.0" y="80.0" style="fill:#000000"/><rect width="2.5" height="2.5" x="12.5" y="80.0" style="fill:#000000"/><rect width="2.5" height="2.5" x="15.0" y="80.0" style="fill:#000000"/><rect width="2.5" height="2.5" x="22.5" y="80.0" style="fill:#000000"/><rect width="2.5" height="2.5" x="25.0" y="80.0" style="fill:#000000"/><rect width="2.5" height="2.5" x="27.5" y="80.0" style="fill:#000000"/><rect width="2.5" height="2.5" x="30.0" y="80.0" style="fill:#000000"/><rect width="2.5" height="2.5" x="32.5" y="80.0" style="fill:#000000"/><rect width="2.5" height="2.5" x="37.5" y="80.0" style="fill:#000000"/><rect width="2.5" height="2.5" x="42.5" y="80.0" style="fill:#000000"/><rect width="2.5" height="2.5" x="47.5" y="80.0" style="fill:#000000"/><rect width="2.5" height="2.5" x="52.5" y="80.0" style="fill:#000000"/><rect width="2.5" height="2.5" x="57.5" y="80.0" style="fill:#000000"/><rect width="2.5" height="2.5" x="60.0" y="80.0" style="fill:#000000"/><rect width="2.5" height="2.5" x="62.5" y="80.0" style="fill:#000000"/><rect width="2.5" height="2.5" x="65.0" y="80.0" style="fill:#000000"/><rect width="2.5" height="2.5" x="67.5" y="80.0" style="fill:#000000"/><rect width="2.5" height="2.5" x="72.5" y="80.0" style="fill:#000000"/><rect width="2.5" height="2.5" x="75.0" y="80.0" style="fill:#000000"/><rect width="2.5" height="2.5" x="80.0" y="80.0" style="fill:#000000"/>
            </g>
        </g>
    </g>
</svg>
