<?xml version="1.0" encoding="UTF-8"?>
<svg xmlns="http://www.w3.org/2000/svg" xmlns:xlink="http://www.w3.org/1999/xlink" width="500px" height="600px" viewBox="0 0 500 600" version="1.1">
    <title>OLbyRYXj</title>
    <g id="Page-1" stroke="none" stroke-width="1" fill="none" fill-rule="evenodd">
        <g id="OLbyRYXj">
            <rect fill="#23736F" x="0" y="0" width="500" height="600"/>
            <g id="bug" transform="translate(115.682436, 32.852595)" stroke="#000000">
                <g id="leg-3-right" transform="translate(189.005535, 290.884710)" fill="#071D21">
                    <path d="M33.7993334,87.6118164 C36.9484298,90.0555013 39.4743852,92.9744466 41.3771994,96.3686523 C44.2314209,101.459961 46.230974,101.128224 46.230974,99.5244141 C46.230974,98.4552076 47.0692242,97.4032871 48.7457246,96.3686523 C48.7470296,95.2516798 48.3925034,94.6175652 47.6821459,94.4663086 C46.6166097,94.2394237 44.7700365,94.3224486 42.7470873,93.1953125 C40.7241381,92.0681764 36.1313646,87.5107422 36.1313646,86.0561523 C36.1313646,85.0864258 35.1167162,84.7648112 33.0874193,85.0913086 L33.7993334,87.6118164 Z" id="segment-5"/>
                    <path d="M23.559099,78.7236328 C29.1144376,84.1223958 32.2824063,87.9829102 33.0630053,90.3051758 C34.2339037,93.7885742 34.5810717,94.1953125 36.0395678,94.1953125 C37.4980639,94.1953125 37.0136889,91.2133789 37.9389818,90.3051758 C38.8642748,89.3969727 39.5583803,88.7050781 41.6230639,88.7050781 C42.9428881,88.7050781 41.875017,85.3894043 38.6631029,85.3894043 C37.5926694,85.3894043 36.3031279,85.5906167 33.0630053,83.0107422 C27.6787279,78.7236328 24.3299946,76.9312387 23.559099,76.5834961 C23.0451686,76.3516677 23.0451686,77.0650466 23.559099,78.7236328 Z" id="segment-4"/>
                    <path d="M7.6845873,61.8803711 C12.0582852,65.7556966 16.0654467,70.7200521 19.7060717,76.7734375 C21.2494265,79.3396236 22.4062406,81.2359465 22.9262865,81.6523438 C24.2463477,82.7093078 24.7004349,80.6655685 25.0854662,79.6030273 C25.61067,78.1536631 27.9895263,77.5118028 26.2324389,75.0170898 C25.5836093,74.0958815 23.4790199,74.5593815 21.6660326,72.7841797 C14.8381829,66.0986328 14.9263207,66.0986328 10.5856062,58.4130859 C7.69179655,53.289388 6.72479025,54.4451497 7.6845873,61.8803711 Z" id="segment-3"/>
                    <path d="M24.8584154,16.4658203 C27.0408277,22.0208333 21.6515048,33.0071615 8.69044668,49.4248047 C4.86086857,52.8550234 3.74846509,54.5982308 2.68165761,56.1674805 C0.944125278,58.7233512 0.0172117753,62.4039358 3.38380605,64.0742188 C8.81741679,66.7700195 9.66891633,62.0142338 12.1831225,59.5405273 C13.7671982,57.9819684 13.3255722,55.6471909 14.8381829,53.2836914 C21.9714836,42.1376953 28.7348803,35.0776367 28.7348803,14.2490234 C26.1505704,11.7360026 24.8584154,12.4749349 24.8584154,16.4658203 Z" id="segment-2"/>
                    <path d="M4.7080248,14.3110352 C12.89602,15.3390288 15.9023607,12.2958984 20.828142,16.2255859 C25.7539232,20.1552734 26.2993334,17.9277344 27.6801928,17.0766602 C29.0610521,16.2255859 31.3803881,14.3110352 27.6801928,10.1416016 C23.9799975,5.97216797 14.8381829,0 4.7080248,0 C-0.708501825,1.61865234 -0.708501825,3.97730017 1.03029043,7.96728516 C2.06533434,10.3423876 -3.4799704,13.2830415 4.7080248,14.3110352 Z" id="segment-1"/>
                </g>
                <g id="leg-3-right" transform="translate(55.505535, 341.384710) scale(-1, 1) translate(-55.505535, -341.384710) translate(31.005535, 290.884710)" fill="#071D21">
                    <path d="M33.7993334,87.6118164 C36.9484298,90.0555013 39.4743852,92.9744466 41.3771994,96.3686523 C44.2314209,101.459961 46.230974,101.128224 46.230974,99.5244141 C46.230974,98.4552076 47.0692242,97.4032871 48.7457246,96.3686523 C48.7470296,95.2516798 48.3925034,94.6175652 47.6821459,94.4663086 C46.6166097,94.2394237 44.7700365,94.3224486 42.7470873,93.1953125 C40.7241381,92.0681764 36.1313646,87.5107422 36.1313646,86.0561523 C36.1313646,85.0864258 35.1167162,84.7648112 33.0874193,85.0913086 L33.7993334,87.6118164 Z" id="segment-5"/>
                    <path d="M23.559099,78.7236328 C29.1144376,84.1223958 32.2824063,87.9829102 33.0630053,90.3051758 C34.2339037,93.7885742 34.5810717,94.1953125 36.0395678,94.1953125 C37.4980639,94.1953125 37.0136889,91.2133789 37.9389818,90.3051758 C38.8642748,89.3969727 39.5583803,88.7050781 41.6230639,88.7050781 C42.9428881,88.7050781 41.875017,85.3894043 38.6631029,85.3894043 C37.5926694,85.3894043 36.3031279,85.5906167 33.0630053,83.0107422 C27.6787279,78.7236328 24.3299946,76.9312387 23.559099,76.5834961 C23.0451686,76.3516677 23.0451686,77.0650466 23.559099,78.7236328 Z" id="segment-4"/>
                    <path d="M7.6845873,61.8803711 C12.0582852,65.7556966 16.0654467,70.7200521 19.7060717,76.7734375 C21.2494265,79.3396236 22.4062406,81.2359465 22.9262865,81.6523438 C24.2463477,82.7093078 24.7004349,80.6655685 25.0854662,79.6030273 C25.61067,78.1536631 27.9895263,77.5118028 26.2324389,75.0170898 C25.5836093,74.0958815 23.4790199,74.5593815 21.6660326,72.7841797 C14.8381829,66.0986328 14.9263207,66.0986328 10.5856062,58.4130859 C7.69179655,53.289388 6.72479025,54.4451497 7.6845873,61.8803711 Z" id="segment-3"/>
                    <path d="M24.8584154,16.4658203 C27.0408277,22.0208333 21.6515048,33.0071615 8.69044668,49.4248047 C4.86086857,52.8550234 3.74846509,54.5982308 2.68165761,56.1674805 C0.944125278,58.7233512 0.0172117753,62.4039358 3.38380605,64.0742188 C8.81741679,66.7700195 9.66891633,62.0142338 12.1831225,59.5405273 C13.7671982,57.9819684 13.3255722,55.6471909 14.8381829,53.2836914 C21.9714836,42.1376953 28.7348803,35.0776367 28.7348803,14.2490234 C26.1505704,11.7360026 24.8584154,12.4749349 24.8584154,16.4658203 Z" id="segment-2"/>
                    <path d="M4.7080248,14.3110352 C12.89602,15.3390288 15.9023607,12.2958984 20.828142,16.2255859 C25.7539232,20.1552734 26.2993334,17.9277344 27.6801928,17.0766602 C29.0610521,16.2255859 31.3803881,14.3110352 27.6801928,10.1416016 C23.9799975,5.97216797 14.8381829,0 4.7080248,0 C-0.708501825,1.61865234 -0.708501825,3.97730017 1.03029043,7.96728516 C2.06533434,10.3423876 -3.4799704,13.2830415 4.7080248,14.3110352 Z" id="segment-1"/>
                </g>
                <g id="leg-2-right" transform="translate(177.000000, 231.088420)" fill="#071D21">
                    <path d="M75.9223,60.7267103 C81.7325214,62.6061048 84.7951028,64.0810397 85.1100442,65.151515 C85.5824563,66.7572279 87.8462793,66.8544885 88.5931985,66.4007825 C89.2224479,66.0185535 89.1995656,65.0394251 89.6215188,64.4913587 C90.2113275,63.7252682 90.9895207,62.9178904 89.6215188,62.4110807 C88.3293638,62.8625697 87.2640155,62.9781963 86.4254739,62.7579603 C82.5730976,61.5367689 79.3110533,60.2552747 76.6393411,58.9134779 C73.9676288,57.571681 73.1478046,57.8036146 74.1798684,59.6092786 L75.9223,60.7267103 Z" id="segment-5"/>
                    <path d="M61.3600442,54.9872083 C68.1966327,57.8097995 71.9710468,59.9849297 72.6832864,61.5125989 C73.3603136,62.964742 74.8420798,63.3399781 76.3356725,62.936162 C77.1989919,62.7027501 77.1990751,61.1626689 77.9171731,60.4662122 C78.7737568,59.6354433 80.2261712,59.4828512 80.4605775,58.39603 C80.7626529,56.9954613 78.9503802,56.0418958 77.9171731,56.0418958 C76.6459483,56.0418958 75.8787498,56.3576503 74.1266457,56.0418958 C73.3496593,55.9018716 70.9530518,55.2789591 69.4450051,54.9872083 C64.5363137,54.0375596 61.3600442,54.0799818 61.3600442,54.0799818 C61.3600442,54.0799818 61.3600442,54.3823906 61.3600442,54.9872083 Z" id="segment-4"/>
                    <path d="M45.3517434,49.3114271 C48.3393736,51.513901 50.4985533,52.615138 51.8292825,52.615138 C53.8253762,52.615138 57.6871926,53.0082044 59.6036965,55.8246107 C61.5202004,58.6410169 66.1857278,54.11172 63.4684426,52.8089857 C60.7511575,51.5062513 59.9249503,48.9925794 47.2492043,46.6629896 C44.3491392,46.6629896 43.7166523,47.5458021 45.3517434,49.3114271 Z" id="segment-3"/>
                    <path d="M32.3912942,19.8822279 C41.2374631,38.6720156 38.1207864,40.3958997 39.3556496,44.1385755 C40.5905129,47.8812513 42.8446795,50.7650404 45.0255715,50.7650404 C47.2064635,50.7650404 51.4719596,47.0432516 49.5538918,45.4325208 C45.7500575,42.2381849 45.7500575,37.8142661 44.2141103,33.7472653 C35.6100442,10.9647474 24.1283532,0.652094992 20.3746926,2.8080091 C18.8558777,3.6803401 18.7953281,4.32015771 19.9044941,4.78221072 C23.864919,6.43203254 26.5722209,7.52217096 32.3912942,19.8822279 Z" id="segment-2"/>
                    <path d="M1.92547387,2.22548957 C1.92547387,0.617896527 8.56219262,-0.118757118 21.8356301,0.0155286316 C24.172224,0.365463527 25.0796133,2.16217577 24.5577981,5.40566535 C24.3680299,6.58522263 24.4549373,8.94722969 23.1768873,8.94722969 C20.9204349,8.94722969 16.3851935,8.39980598 13.6671731,8.39980598 C10.0792825,8.39980598 6.25779007,9.66235511 1.92547387,7.61074348 C-2.40684233,5.55913184 1.92547387,4.63687913 1.92547387,2.22548957 Z" id="segment-1"/>
                </g>
                <g id="leg-2-right" transform="translate(45.500000, 264.588420) scale(-1, 1) translate(-45.500000, -264.588420) translate(0.000000, 231.088420)" fill="#071D21">
                    <path d="M75.9223,60.7267103 C81.7325214,62.6061048 84.7951028,64.0810397 85.1100442,65.151515 C85.5824563,66.7572279 87.8462793,66.8544885 88.5931985,66.4007825 C89.2224479,66.0185535 89.1995656,65.0394251 89.6215188,64.4913587 C90.2113275,63.7252682 90.9895207,62.9178904 89.6215188,62.4110807 C88.3293638,62.8625697 87.2640155,62.9781963 86.4254739,62.7579603 C82.5730976,61.5367689 79.3110533,60.2552747 76.6393411,58.9134779 C73.9676288,57.571681 73.1478046,57.8036146 74.1798684,59.6092786 L75.9223,60.7267103 Z" id="segment-5"/>
                    <path d="M61.3600442,54.9872083 C68.1966327,57.8097995 71.9710468,59.9849297 72.6832864,61.5125989 C73.3603136,62.964742 74.8420798,63.3399781 76.3356725,62.936162 C77.1989919,62.7027501 77.1990751,61.1626689 77.9171731,60.4662122 C78.7737568,59.6354433 80.2261712,59.4828512 80.4605775,58.39603 C80.7626529,56.9954613 78.9503802,56.0418958 77.9171731,56.0418958 C76.6459483,56.0418958 75.8787498,56.3576503 74.1266457,56.0418958 C73.3496593,55.9018716 70.9530518,55.2789591 69.4450051,54.9872083 C64.5363137,54.0375596 61.3600442,54.0799818 61.3600442,54.0799818 C61.3600442,54.0799818 61.3600442,54.3823906 61.3600442,54.9872083 Z" id="segment-4"/>
                    <path d="M45.3517434,49.3114271 C48.3393736,51.513901 50.4985533,52.615138 51.8292825,52.615138 C53.8253762,52.615138 57.6871926,53.0082044 59.6036965,55.8246107 C61.5202004,58.6410169 66.1857278,54.11172 63.4684426,52.8089857 C60.7511575,51.5062513 59.9249503,48.9925794 47.2492043,46.6629896 C44.3491392,46.6629896 43.7166523,47.5458021 45.3517434,49.3114271 Z" id="segment-3"/>
                    <path d="M32.3912942,19.8822279 C41.2374631,38.6720156 38.1207864,40.3958997 39.3556496,44.1385755 C40.5905129,47.8812513 42.8446795,50.7650404 45.0255715,50.7650404 C47.2064635,50.7650404 51.4719596,47.0432516 49.5538918,45.4325208 C45.7500575,42.2381849 45.7500575,37.8142661 44.2141103,33.7472653 C35.6100442,10.9647474 24.1283532,0.652094992 20.3746926,2.8080091 C18.8558777,3.6803401 18.7953281,4.32015771 19.9044941,4.78221072 C23.864919,6.43203254 26.5722209,7.52217096 32.3912942,19.8822279 Z" id="segment-2"/>
                    <path d="M1.92547387,2.22548957 C1.92547387,0.617896527 8.56219262,-0.118757118 21.8356301,0.0155286316 C24.172224,0.365463527 25.0796133,2.16217577 24.5577981,5.40566535 C24.3680299,6.58522263 24.4549373,8.94722969 23.1768873,8.94722969 C20.9204349,8.94722969 16.3851935,8.39980598 13.6671731,8.39980598 C10.0792825,8.39980598 6.25779007,9.66235511 1.92547387,7.61074348 C-2.40684233,5.55913184 1.92547387,4.63687913 1.92547387,2.22548957 Z" id="segment-1"/>
                </g>
                <g id="leg-1-right" transform="translate(163.451460, 130.455067)" fill="#071D21">
                    <path d="M50.9945216,9.02827543 C57.7777248,4.78901761 61.4137925,2.34256579 61.9027248,1.68891996 C62.4720607,-0.437056604 63.6678615,-0.437056604 63.9840236,1.02583402 C64.3680916,2.802927 65.1493621,2.65967659 64.7794338,3.50972074 C64.4714132,4.21750947 61.9775129,4.59012785 59.0437083,6.44429105 C53.015388,10.2541869 50.3323258,11.7981293 50.9945216,11.0761181 L50.9945216,9.02827543 Z" id="segment-4"/>
                    <path d="M32.9408107,22.3969278 C42.1986232,15.4994668 49.1309963,10.0788757 51.5399318,5.62433071 C53.9488673,1.16978575 53.5658348,6.2324044 55.238174,8.04390043 C57.1407859,10.1048304 58.2896254,10.0559674 57.8862833,11.8354043 C51.4966348,13.5068121 48.8624889,15.3017129 45.8592503,17.2699746 C42.8560116,19.2382364 39.8688199,21.5380411 35.309463,24.9457559 C33.9044076,25.4764095 31.9600447,23.6121996 32.9408107,22.3969278 Z" id="segment-3" stroke-linejoin="round"/>
                    <path d="M32.9481349,56.6522989 C31.2023899,55.3236856 35.4710841,54.6815957 34.3128315,46.2138223 C33.1545789,37.7460489 32.1126857,34.6029825 30.2713771,29.7939004 C28.787745,25.9189886 28.6061924,23.0771034 30.126405,21.484259 C30.4929004,21.1002535 32.3835558,20.1924325 32.9481349,20.5530532 C34.6081517,21.6133768 37.3024207,22.2126376 38.1161037,24.3017129 C38.4426883,25.1401967 39.3552885,29.2174246 39.5565334,30.5868692 C40.2591781,35.3682737 39.5565334,38.4025358 39.5565334,44.2655801 C39.5565334,50.1286244 39.4027805,51.6697922 38.1161037,54.6815957 C36.8294269,57.6933993 34.69388,57.9809121 32.9481349,56.6522989 Z" id="segment-2"/>
                    <path d="M2.15272477,57.716752 C5.95477377,53.6903848 7.28538143,56.1239786 20.1981349,56.1239786 C24.6214748,56.1239786 30.1087306,53.8639574 31.2796779,53.6991739 C34.448815,53.2531917 36.1729797,54.3834008 37.0423732,55.3988809 C37.8348868,56.3245627 37.4228526,58.5127551 35.1751857,60.1503457 C31.9061427,62.532084 32.3395307,62.6277669 23.9525295,65.7353067 C15.5655282,68.8428465 12.276645,70.1650051 5.07459977,69.7216348 C-0.255238885,69.3935207 -1.64932424,61.7431192 2.15272477,57.716752 Z" id="segment-1"/>
                </g>
                <g id="leg-1-left" transform="translate(69.951460, 165.455067) scale(-1, 1) translate(-69.951460, -165.455067) translate(37.451460, 130.455067)" fill="#071D21">
                    <path d="M50.9945216,9.02827543 C57.7777248,4.78901761 61.4137925,2.34256579 61.9027248,1.68891996 C62.4720607,-0.437056604 63.6678615,-0.437056604 63.9840236,1.02583402 C64.3680916,2.802927 65.1493621,2.65967659 64.7794338,3.50972074 C64.4714132,4.21750947 61.9775129,4.59012785 59.0437083,6.44429105 C53.015388,10.2541869 50.3323258,11.7981293 50.9945216,11.0761181 L50.9945216,9.02827543 Z" id="segment-4"/>
                    <path d="M32.9408107,22.3969278 C42.1986232,15.4994668 49.1309963,10.0788757 51.5399318,5.62433071 C53.9488673,1.16978575 53.5658348,6.2324044 55.238174,8.04390043 C57.1407859,10.1048304 58.2896254,10.0559674 57.8862833,11.8354043 C51.4966348,13.5068121 48.8624889,15.3017129 45.8592503,17.2699746 C42.8560116,19.2382364 39.8688199,21.5380411 35.309463,24.9457559 C33.9044076,25.4764095 31.9600447,23.6121996 32.9408107,22.3969278 Z" id="segment-3" stroke-linejoin="round"/>
                    <path d="M32.9481349,56.6522989 C31.2023899,55.3236856 35.4710841,54.6815957 34.3128315,46.2138223 C33.1545789,37.7460489 32.1126857,34.6029825 30.2713771,29.7939004 C28.787745,25.9189886 28.6061924,23.0771034 30.126405,21.484259 C30.4929004,21.1002535 32.3835558,20.1924325 32.9481349,20.5530532 C34.6081517,21.6133768 37.3024207,22.2126376 38.1161037,24.3017129 C38.4426883,25.1401967 39.3552885,29.2174246 39.5565334,30.5868692 C40.2591781,35.3682737 39.5565334,38.4025358 39.5565334,44.2655801 C39.5565334,50.1286244 39.4027805,51.6697922 38.1161037,54.6815957 C36.8294269,57.6933993 34.69388,57.9809121 32.9481349,56.6522989 Z" id="segment-2"/>
                    <path d="M2.15272477,57.716752 C5.95477377,53.6903848 7.28538143,56.1239786 20.1981349,56.1239786 C24.6214748,56.1239786 30.1087306,53.8639574 31.2796779,53.6991739 C34.448815,53.2531917 36.1729797,54.3834008 37.0423732,55.3988809 C37.8348868,56.3245627 37.4228526,58.5127551 35.1751857,60.1503457 C31.9061427,62.532084 32.3395307,62.6277669 23.9525295,65.7353067 C15.5655282,68.8428465 12.276645,70.1650051 5.07459977,69.7216348 C-0.255238885,69.3935207 -1.64932424,61.7431192 2.15272477,57.716752 Z" id="segment-1"/>
                </g>
                <path d="M121.820005,118.00971 C113.821633,133.449814 109.822447,146.118759 109.822447,156.016546 C109.822447,170.863226 127.113462,173.899358 133.817564,173.899358 C140.521665,173.899358 157.817564,170.863226 157.817564,156.016546 C157.817564,146.118759 153.818378,133.449814 145.820005,118.00971 C141.581398,120.373642 137.582212,121.938177 133.817564,121.938177 C130.052915,121.938177 126.058612,120.373642 121.820005,118.00971 Z" id="head" fill="#E82C2F"/>
                <path d="M134.59081,225.147405 C128.342457,225.147405 111.357845,222.428003 103.300221,216.147017 C95.2425961,209.866031 94.4662556,196.120965 95.8982664,188.06148 C97.6474631,178.216845 102.423493,170.041648 110.332786,166.614949 C116.781956,163.820847 126.390867,164.160385 134.090474,164.160385 C141.79008,164.160385 150.99951,163.820847 157.448681,166.614949 C165.357973,170.041648 170.134004,178.216845 171.8832,188.06148 C173.315211,196.120965 171.379063,208.787013 163.483124,216.147017 C155.587185,223.507021 140.839164,225.147405 134.59081,225.147405 Z" id="mid-body" fill="#E82C2F"/>
                <path d="M69.3175637,221.034124 C96.1235533,213.109645 112.662616,217.165634 118.934751,233.202093 C128.342954,257.25678 159.176939,379.432561 94.79022,409.166936 C91.9932907,410.136025 89.3802002,410.952841 86.9509485,411.617387 C81.7857156,413.030386 75.9079207,413.600939 69.3175637,413.329046 L69.3175637,221.034124 Z" id="bottom-body-left" fill="#E82C2F" transform="translate(101.954352, 315.248875) scale(-1, 1) translate(-101.954352, -315.248875) "/>
                <path d="M134.317564,221.034124 C161.123553,213.109645 177.662616,217.165634 183.934751,233.202093 C193.342954,257.25678 224.176939,379.432561 159.79022,409.166936 C156.993291,410.136025 154.3802,410.952841 151.950948,411.617387 C146.785716,413.030386 140.907921,413.600939 134.317564,413.329046 L134.317564,221.034124 Z" id="bottom-body-right" fill="#E8D32C"/>
                <path d="M110.822447,150.687933 C106.440122,149.16303 104.368345,142.998479 107.231626,138.011663 C110.094907,133.024847 115.888853,130.832952 117.861997,132.733343 C119.835142,134.633733 121.094419,141.367167 119.835142,144.670354 C118.575864,147.973542 115.204771,152.212835 110.822447,150.687933 Z" id="eye-left" fill="#ECBA90"/>
                <path d="M152.822447,150.687933 C148.440122,149.16303 146.368345,142.998479 149.231626,138.011663 C152.094907,133.024847 157.888853,130.832952 159.861997,132.733343 C161.835142,134.633733 163.094419,141.367167 161.835142,144.670354 C160.575864,147.973542 157.204771,152.212835 152.822447,150.687933 Z" id="eye-right" fill="#ECBA90" transform="translate(155.126510, 141.531185) scale(-1, 1) translate(-155.126510, -141.531185) "/>
                <g id="antenna-right" transform="translate(140.559612, 0.000000)" fill="#E8D32C">
                    <path d="M97.1739676,12.421331 C101.596448,7.51542749 104.459149,4.68551212 105.762072,3.93158492 C107.635393,2.84760054 109.23024,1.43774226 111.615374,0.540959919 C114.5701,-0.569982593 116.543757,-0.102238947 112.972307,3.19086226 C108.669362,7.15844898 103.669687,10.7525245 97.973284,13.9730888 L97.1739676,12.421331 Z" id="segment-9"/>
                    <path d="M81.7523367,23.402288 C87.2352469,17.8244886 91.9626232,13.6618095 95.9344656,10.9142509 C97.9471245,9.66595992 97.9937553,10.5614539 99.7254812,12.5040947 C101.457207,14.4467354 99.4851713,15.0169862 98.2220633,15.8405205 C92.2734658,20.0239515 86.783557,22.9989677 81.7523367,24.7655693 L81.7523367,23.402288 Z" id="segment-8"/>
                    <path d="M68.0438406,38.2284599 C69.5901487,35.3484484 72.1781207,31.4369087 75.8077566,26.4938408 C76.3905244,25.7001907 79.8460867,21.1063896 82.167864,21.1063896 C83.7767508,22.5136162 83.936907,23.5692802 85.0555594,24.4928642 C85.6135021,26.0503186 79.8342052,31.0590263 67.7176687,39.5189873 L68.0438406,38.2284599 Z" id="segment-7"/>
                    <path d="M55.3265555,51.1652275 C57.4374574,47.442117 60.3077263,43.1090279 63.9373622,38.1659599 C64.52013,37.3723099 67.8835846,33.8161008 68.6754324,34.1293388 C70.4291169,34.8230588 69.7884695,35.6381279 72.1183035,37.0187431 C72.6762462,38.5761975 67.2357351,43.8871513 55.7967703,52.9516045 L55.3265555,51.1652275 Z" id="segment-6"/>
                    <path d="M44.3849051,62.7211357 C47.94202,55.4527471 51.6439243,50.3694951 55.490618,47.4713798 C56.8402273,46.0883232 56.8402273,51.8312431 60.032366,51.216497 C60.790504,52.4575452 55.8608979,56.5690361 45.2435476,63.5509697 L44.3849051,62.7211357 Z" id="segment-5"/>
                    <path d="M34.3399832,77.2763115 C34.2743642,77.0612272 33.7488132,77.1266563 33.865618,76.5985962 C34.6751719,72.9387028 40.5011797,61.7040357 44.433489,60.1330009 C45.8822498,61.506726 46.6114417,62.1960372 48.5006277,62.756292 C48.961598,64.2672495 46.3709969,65.0518541 41.653147,70.0891212 C36.9352972,75.1263883 34.7736543,78.6977884 34.3399832,77.2763115 Z" id="segment-4"/>
                    <path d="M23.3082449,92.4430595 C25.6166759,86.7663017 28.8237885,80.8611097 32.9295828,74.7274834 C34.0366184,75.2126773 35.2292599,74.8251074 35.8819754,75.0656181 C36.7182469,75.3737651 36.9310445,76.2618757 37.7474539,76.5228935 C37.2366066,78.1705883 34.9076749,81.0972716 32.9295828,83.9503837 C30.4239217,87.5644379 27.054475,91.2618589 24.6280691,92.4430595 C24.3453949,92.5806684 23.9054535,92.5806684 23.3082449,92.4430595 Z" id="segment-3"/>
                    <path d="M25.2901785,89.9054619 C24.4755626,89.4941663 23.7213308,88.8326266 23.0274832,87.9208427 C23.0694754,89.2558037 22.8574799,90.1941175 22.3914969,90.7357841 C21.6925222,91.5482841 14.0764199,101.862249 14.5668984,104.406438 C15.0573769,106.950628 16.4825613,105.040028 17.7457449,103.975042 C19.0089285,102.910056 27.2113211,93.5934502 28.3468191,91.1981865 C27.0355398,90.7357841 26.3602469,90.3720146 25.2901785,89.9054619 Z" id="segment-2" stroke-linejoin="round"/>
                    <path d="M13.9762094,102.917758 C13.1527273,102.361028 12.7928807,103.629345 12.334368,104.53095 C10.9986746,107.157415 6.70204373,116.252874 2.62953397,118.00971 C-0.336424014,119.289192 -0.455074994,124.522892 0.61928006,125.984808 C1.02010486,126.530225 1.58636059,126.596624 1.96913358,126.596624 C4.11024686,126.596624 7.41224881,124.429388 7.7523367,121.830511 C8.09242459,119.231634 5.10746773,117.441106 15.1323701,109.365423 C15.4335316,108.950165 19.2047293,106.743622 18.5382254,104.766146 C18.4407639,104.476984 17.0229106,104.901582 15.8683035,104.53095 C14.9744462,104.244019 14.3355398,103.16069 13.9762094,102.917758 Z" id="segment-1"/>
                </g>
                <g id="antenna-left" transform="translate(68.059612, 63.500000) scale(-1, 1) translate(-68.059612, -63.500000) translate(10.559612, 0.000000)" fill="#E8D32C">
                    <path d="M97.1739676,12.421331 C101.596448,7.51542749 104.459149,4.68551212 105.762072,3.93158492 C107.635393,2.84760054 109.23024,1.43774226 111.615374,0.540959919 C114.5701,-0.569982593 116.543757,-0.102238947 112.972307,3.19086226 C108.669362,7.15844898 103.669687,10.7525245 97.973284,13.9730888 L97.1739676,12.421331 Z" id="segment-9"/>
                    <path d="M81.7523367,23.402288 C87.2352469,17.8244886 91.9626232,13.6618095 95.9344656,10.9142509 C97.9471245,9.66595992 97.9937553,10.5614539 99.7254812,12.5040947 C101.457207,14.4467354 99.4851713,15.0169862 98.2220633,15.8405205 C92.2734658,20.0239515 86.783557,22.9989677 81.7523367,24.7655693 L81.7523367,23.402288 Z" id="segment-8"/>
                    <path d="M68.0438406,38.2284599 C69.5901487,35.3484484 72.1781207,31.4369087 75.8077566,26.4938408 C76.3905244,25.7001907 79.8460867,21.1063896 82.167864,21.1063896 C83.7767508,22.5136162 83.936907,23.5692802 85.0555594,24.4928642 C85.6135021,26.0503186 79.8342052,31.0590263 67.7176687,39.5189873 L68.0438406,38.2284599 Z" id="segment-7"/>
                    <path d="M55.3265555,51.1652275 C57.4374574,47.442117 60.3077263,43.1090279 63.9373622,38.1659599 C64.52013,37.3723099 67.8835846,33.8161008 68.6754324,34.1293388 C70.4291169,34.8230588 69.7884695,35.6381279 72.1183035,37.0187431 C72.6762462,38.5761975 67.2357351,43.8871513 55.7967703,52.9516045 L55.3265555,51.1652275 Z" id="segment-6"/>
                    <path d="M44.3849051,62.7211357 C47.94202,55.4527471 51.6439243,50.3694951 55.490618,47.4713798 C56.8402273,46.0883232 56.8402273,51.8312431 60.032366,51.216497 C60.790504,52.4575452 55.8608979,56.5690361 45.2435476,63.5509697 L44.3849051,62.7211357 Z" id="segment-5"/>
                    <path d="M34.3399832,77.2763115 C34.2743642,77.0612272 33.7488132,77.1266563 33.865618,76.5985962 C34.6751719,72.9387028 40.5011797,61.7040357 44.433489,60.1330009 C45.8822498,61.506726 46.6114417,62.1960372 48.5006277,62.756292 C48.961598,64.2672495 46.3709969,65.0518541 41.653147,70.0891212 C36.9352972,75.1263883 34.7736543,78.6977884 34.3399832,77.2763115 Z" id="segment-4"/>
                    <path d="M23.3082449,92.4430595 C25.6166759,86.7663017 28.8237885,80.8611097 32.9295828,74.7274834 C34.0366184,75.2126773 35.2292599,74.8251074 35.8819754,75.0656181 C36.7182469,75.3737651 36.9310445,76.2618757 37.7474539,76.5228935 C37.2366066,78.1705883 34.9076749,81.0972716 32.9295828,83.9503837 C30.4239217,87.5644379 27.054475,91.2618589 24.6280691,92.4430595 C24.3453949,92.5806684 23.9054535,92.5806684 23.3082449,92.4430595 Z" id="segment-3"/>
                    <path d="M25.2901785,89.9054619 C24.4755626,89.4941663 23.7213308,88.8326266 23.0274832,87.9208427 C23.0694754,89.2558037 22.8574799,90.1941175 22.3914969,90.7357841 C21.6925222,91.5482841 14.0764199,101.862249 14.5668984,104.406438 C15.0573769,106.950628 16.4825613,105.040028 17.7457449,103.975042 C19.0089285,102.910056 27.2113211,93.5934502 28.3468191,91.1981865 C27.0355398,90.7357841 26.3602469,90.3720146 25.2901785,89.9054619 Z" id="segment-2" stroke-linejoin="round"/>
                    <path d="M13.9762094,102.917758 C13.1527273,102.361028 12.7928807,103.629345 12.334368,104.53095 C10.9986746,107.157415 6.70204373,116.252874 2.62953397,118.00971 C-0.336424014,119.289192 -0.455074994,124.522892 0.61928006,125.984808 C1.02010486,126.530225 1.58636059,126.596624 1.96913358,126.596624 C4.11024686,126.596624 7.41224881,124.429388 7.7523367,121.830511 C8.09242459,119.231634 5.10746773,117.441106 15.1323701,109.365423 C15.4335316,108.950165 19.2047293,106.743622 18.5382254,104.766146 C18.4407639,104.476984 17.0229106,104.901582 15.8683035,104.53095 C14.9744462,104.244019 14.3355398,103.16069 13.9762094,102.917758 Z" id="segment-1"/>
                </g>
            </g>
            <g id="hello" transform="translate(0.000000, 500.000000)">
                <rect id="Rectangle" fill="#FFFFFF" x="0" y="0" width="500" height="100"/>
                <path d="M206.839844,70.2011719 C207.144531,70.2011719 207.630859,70.1660156 208.298828,70.0957031 C209.330078,69.9316406 210.214844,69.3398438 210.953125,68.3203125 C211.269531,67.8632812 211.515625,67.3886719 211.691406,66.8964844 C211.867188,66.4042969 211.955078,65.90625 211.955078,65.4023438 C211.955078,64.0664062 211.486328,62.9296875 210.548828,61.9921875 L210.548828,61.9921875 L210.566406,61.9921875 C209.640625,61.0546875 208.498047,60.5859375 207.138672,60.5859375 C206.974609,60.5859375 206.822266,60.5917969 206.681641,60.6035156 C206.541016,60.6152344 206.388672,60.6328125 206.224609,60.65625 C206.201172,60.46875 206.189453,60.2783203 206.189453,60.0849609 L206.189453,60.0849609 L206.189453,59.5664062 C206.189453,59.0742188 206.209961,58.6347656 206.250977,58.2480469 C206.291992,57.8613281 206.365234,57.515625 206.470703,57.2109375 L206.470703,57.2109375 L206.470703,57.2285156 C206.833984,56.0683594 207.513672,55.4882812 208.509766,55.4882812 C210.220703,55.4882812 211.867188,57.0820312 213.449219,60.2695312 C214.738281,62.8828125 215.382812,65.1621094 215.382812,67.1074219 L215.382812,67.1074219 L215.382812,69.9550781 L220.65625,69.9550781 L220.65625,52.9394531 C220.65625,51.7441406 220.433594,50.578125 219.988281,49.4414062 L219.988281,49.4414062 L219.988281,49.4589844 C219.882812,49.2011719 219.771484,48.9580078 219.654297,48.7294922 C219.537109,48.5009766 219.414062,48.2871094 219.285156,48.0878906 L219.285156,48.0878906 L219.759766,47.8066406 C221.400391,46.7753906 222.220703,45.3222656 222.220703,43.4472656 L222.220703,43.4472656 L216.666016,42.0410156 C216.666016,43.2714844 216.513672,44.0917969 216.208984,44.5019531 C215.998047,44.7597656 215.763672,45.0058594 215.505859,45.2402344 C214.779297,44.9589844 213.967773,44.7509766 213.071289,44.6162109 C212.174805,44.4814453 211.175781,44.4140625 210.074219,44.4140625 C208.738281,44.4140625 207.537109,44.5371094 206.470703,44.7832031 C205.861328,44.9355469 205.295898,45.1025391 204.774414,45.2841797 C204.25293,45.4658203 203.792969,45.65625 203.394531,45.8554688 C202.539062,46.2773438 201.712891,46.8808594 200.916016,47.6660156 L200.916016,47.6660156 L199,50.0390625 L202.427734,52.7285156 C202.943359,51.2753906 203.787109,50.1972656 204.958984,49.4941406 C206.142578,48.7441406 207.8125,48.3691406 209.96875,48.3691406 C212.277344,48.3691406 213.818359,48.9316406 214.591797,50.0566406 L214.591797,50.0566406 L214.591797,50.0390625 C214.849609,50.4140625 215.045898,50.8945312 215.180664,51.4804688 C215.31543,52.0664062 215.382812,52.7636719 215.382812,53.5722656 L215.382812,53.5722656 L215.382812,56.0507812 C214.222656,54.28125 212.980469,53.0742188 211.65625,52.4296875 C210.320312,51.796875 209.054688,51.4804688 207.859375,51.4804688 C206.792969,51.4804688 205.820312,51.703125 204.941406,52.1484375 C204.0625,52.59375 203.289062,53.2441406 202.621094,54.0996094 C202.058594,54.8730469 201.625,55.8925781 201.320312,57.1582031 C201.015625,58.4238281 200.863281,59.9296875 200.863281,61.6757812 C200.863281,64.96875 201.472656,67.2246094 202.691406,68.4433594 L202.691406,68.4433594 L202.673828,68.4433594 C203.810547,69.6152344 205.199219,70.2011719 206.839844,70.2011719 Z M207.121094,67.2304688 C206.886719,67.2304688 206.666992,67.1806641 206.461914,67.0810547 C206.256836,66.9814453 206.075195,66.8496094 205.916992,66.6855469 C205.758789,66.5214844 205.632812,66.328125 205.539062,66.1054688 C205.445312,65.8828125 205.398438,65.6484375 205.398438,65.4023438 C205.398438,65.1679688 205.445312,64.9394531 205.539062,64.7167969 C205.632812,64.4941406 205.758789,64.2949219 205.916992,64.1191406 C206.075195,63.9433594 206.256836,63.8027344 206.461914,63.6972656 C206.666992,63.5917969 206.886719,63.5390625 207.121094,63.5390625 C207.378906,63.5390625 207.619141,63.5888672 207.841797,63.6884766 C208.064453,63.7880859 208.257812,63.9228516 208.421875,64.0927734 C208.585938,64.2626953 208.714844,64.4589844 208.808594,64.6816406 C208.902344,64.9042969 208.949219,65.1445312 208.949219,65.4023438 C208.949219,65.9179688 208.773438,66.3515625 208.421875,66.703125 C208.070312,67.0546875 207.636719,67.2304688 207.121094,67.2304688 Z M243.068359,40.3710938 C245.869141,40.3710938 248.458984,39.3808594 250.837891,37.4003906 C253.123047,35.5253906 254.265625,33.1289062 254.265625,30.2109375 L254.265625,30.2109375 L248.816406,30.2109375 C248.816406,32.4257812 248.183594,34.0488281 246.917969,35.0800781 C245.980469,35.8417969 244.955078,36.3105469 243.841797,36.4863281 C244.064453,35.9707031 244.175781,35.3496094 244.175781,34.6230469 C244.175781,33.9316406 244.043945,33.3046875 243.780273,32.7421875 C243.516602,32.1796875 243.109375,31.6875 242.558594,31.265625 L242.558594,31.265625 L242.558594,31.2832031 C241.632812,30.5097656 240.478516,30.1230469 239.095703,30.1230469 C237.748047,30.1230469 236.599609,30.5566406 235.650391,31.4238281 C234.630859,32.3378906 234.121094,33.4628906 234.121094,34.7988281 C234.121094,36.8613281 235.152344,38.390625 237.214844,39.3867188 L237.214844,39.3867188 L237.197266,39.3867188 C238.544922,40.0429688 240.501953,40.3710938 243.068359,40.3710938 Z M239.060547,36.7675781 C238.580078,36.7675781 238.164062,36.5800781 237.8125,36.2050781 L237.8125,36.2050781 L237.8125,36.2226562 C237.636719,36 237.496094,35.765625 237.390625,35.5195312 C237.285156,35.2734375 237.232422,35.0214844 237.232422,34.7636719 C237.232422,34.5410156 237.282227,34.3125 237.381836,34.078125 C237.481445,33.84375 237.616211,33.6328125 237.786133,33.4453125 C237.956055,33.2578125 238.149414,33.1054688 238.366211,32.9882812 C238.583008,32.8710938 238.814453,32.8125 239.060547,32.8125 C239.283203,32.8125 239.514648,32.8652344 239.754883,32.9707031 C239.995117,33.0761719 240.211914,33.2197266 240.405273,33.4013672 C240.598633,33.5830078 240.759766,33.7910156 240.888672,34.0253906 C241.017578,34.2597656 241.082031,34.5058594 241.082031,34.7636719 C241.082031,35.0214844 241.032227,35.2705078 240.932617,35.5107422 C240.833008,35.7509766 240.695312,35.9648438 240.519531,36.1523438 C240.34375,36.3398438 240.129883,36.4892578 239.87793,36.6005859 C239.625977,36.7119141 239.353516,36.7675781 239.060547,36.7675781 Z M238.550781,70.3066406 C239.289062,70.3066406 239.97168,70.171875 240.598633,69.9023438 C241.225586,69.6328125 241.785156,69.234375 242.277344,68.7070312 C242.792969,68.1445312 243.188477,67.5263672 243.463867,66.8525391 C243.739258,66.1787109 243.876953,65.4667969 243.876953,64.7167969 L243.876953,64.7167969 L243.876953,52.9394531 C243.876953,50.1269531 242.992188,48.0058594 241.222656,46.5761719 C239.429688,45.1347656 237.074219,44.4140625 234.15625,44.4140625 C231.226562,44.4140625 229.017578,45.046875 227.529297,46.3125 C226.111328,47.5195312 225.044922,49.1132812 224.330078,51.09375 L224.330078,51.09375 L227.6875,53.2558594 C228.179688,51.7089844 228.771484,50.6074219 229.462891,49.9511719 C230.587891,48.8964844 232.111328,48.3691406 234.033203,48.3691406 C235.908203,48.3691406 237.214844,48.9140625 237.953125,50.0039062 C238.386719,50.671875 238.603516,51.8613281 238.603516,53.5722656 L238.603516,53.5722656 L238.603516,60.7441406 C238.521484,60.7324219 238.427734,60.7265625 238.322266,60.7265625 L238.322266,60.7265625 L238.041016,60.7265625 C236.716797,60.7265625 235.580078,61.1835938 234.630859,62.0976562 C233.681641,63.0117188 233.207031,64.1367188 233.207031,65.4726562 C233.207031,66.1054688 233.31543,66.6884766 233.532227,67.2216797 C233.749023,67.7548828 234.0625,68.2441406 234.472656,68.6894531 C234.882812,69.0996094 235.351562,69.4394531 235.878906,69.7089844 C236.40625,69.9785156 236.96875,70.1425781 237.566406,70.2011719 C237.753906,70.2480469 237.926758,70.2773438 238.084961,70.2890625 C238.243164,70.3007812 238.398438,70.3066406 238.550781,70.3066406 Z M238.058594,67.3886719 C237.789062,67.3886719 237.537109,67.3388672 237.302734,67.2392578 C237.068359,67.1396484 236.863281,67.0048828 236.6875,66.8349609 C236.511719,66.6650391 236.371094,66.4628906 236.265625,66.2285156 C236.160156,65.9941406 236.107422,65.7421875 236.107422,65.4726562 C236.107422,65.2148438 236.160156,64.9716797 236.265625,64.7431641 C236.371094,64.5146484 236.514648,64.3125 236.696289,64.1367188 C236.87793,63.9609375 237.085938,63.8203125 237.320312,63.7148438 C237.554688,63.609375 237.800781,63.5566406 238.058594,63.5566406 C238.316406,63.5566406 238.55957,63.6064453 238.788086,63.7060547 C239.016602,63.8056641 239.21582,63.9404297 239.385742,64.1103516 C239.555664,64.2802734 239.69043,64.4824219 239.790039,64.7167969 C239.889648,64.9511719 239.939453,65.203125 239.939453,65.4726562 C239.939453,66.75 239.3125,67.3886719 238.058594,67.3886719 Z M256.673828,70.2011719 C256.978516,70.2011719 257.464844,70.1660156 258.132812,70.0957031 C259.164062,69.9316406 260.048828,69.3398438 260.787109,68.3203125 C261.103516,67.8632812 261.349609,67.3886719 261.525391,66.8964844 C261.701172,66.4042969 261.789062,65.90625 261.789062,65.4023438 C261.789062,64.0664062 261.320312,62.9296875 260.382812,61.9921875 L260.382812,61.9921875 L260.400391,61.9921875 C259.474609,61.0546875 258.332031,60.5859375 256.972656,60.5859375 C256.808594,60.5859375 256.65625,60.5917969 256.515625,60.6035156 C256.375,60.6152344 256.222656,60.6328125 256.058594,60.65625 C256.035156,60.46875 256.023438,60.2783203 256.023438,60.0849609 L256.023438,60.0849609 L256.023438,59.5664062 C256.023438,59.0742188 256.043945,58.6347656 256.084961,58.2480469 C256.125977,57.8613281 256.199219,57.515625 256.304688,57.2109375 L256.304688,57.2109375 L256.304688,57.2285156 C256.667969,56.0683594 257.347656,55.4882812 258.34375,55.4882812 C260.054688,55.4882812 261.701172,57.0820312 263.283203,60.2695312 C264.572266,62.8828125 265.216797,65.1621094 265.216797,67.1074219 L265.216797,67.1074219 L265.216797,69.9550781 L270.490234,69.9550781 L270.490234,52.9394531 C270.490234,51.7441406 270.267578,50.578125 269.822266,49.4414062 L269.822266,49.4414062 L269.822266,49.4589844 C269.716797,49.2011719 269.605469,48.9580078 269.488281,48.7294922 C269.371094,48.5009766 269.248047,48.2871094 269.119141,48.0878906 L269.119141,48.0878906 L269.59375,47.8066406 C271.234375,46.7753906 272.054688,45.3222656 272.054688,43.4472656 L272.054688,43.4472656 L266.5,42.0410156 C266.5,43.2714844 266.347656,44.0917969 266.042969,44.5019531 C265.832031,44.7597656 265.597656,45.0058594 265.339844,45.2402344 C264.613281,44.9589844 263.801758,44.7509766 262.905273,44.6162109 C262.008789,44.4814453 261.009766,44.4140625 259.908203,44.4140625 C258.572266,44.4140625 257.371094,44.5371094 256.304688,44.7832031 C255.695312,44.9355469 255.129883,45.1025391 254.608398,45.2841797 C254.086914,45.4658203 253.626953,45.65625 253.228516,45.8554688 C252.373047,46.2773438 251.546875,46.8808594 250.75,47.6660156 L250.75,47.6660156 L248.833984,50.0390625 L252.261719,52.7285156 C252.777344,51.2753906 253.621094,50.1972656 254.792969,49.4941406 C255.976562,48.7441406 257.646484,48.3691406 259.802734,48.3691406 C262.111328,48.3691406 263.652344,48.9316406 264.425781,50.0566406 L264.425781,50.0566406 L264.425781,50.0390625 C264.683594,50.4140625 264.879883,50.8945312 265.014648,51.4804688 C265.149414,52.0664062 265.216797,52.7636719 265.216797,53.5722656 L265.216797,53.5722656 L265.216797,56.0507812 C264.056641,54.28125 262.814453,53.0742188 261.490234,52.4296875 C260.154297,51.796875 258.888672,51.4804688 257.693359,51.4804688 C256.626953,51.4804688 255.654297,51.703125 254.775391,52.1484375 C253.896484,52.59375 253.123047,53.2441406 252.455078,54.0996094 C251.892578,54.8730469 251.458984,55.8925781 251.154297,57.1582031 C250.849609,58.4238281 250.697266,59.9296875 250.697266,61.6757812 C250.697266,64.96875 251.306641,67.2246094 252.525391,68.4433594 L252.525391,68.4433594 L252.507812,68.4433594 C253.644531,69.6152344 255.033203,70.2011719 256.673828,70.2011719 Z M256.955078,67.2304688 C256.720703,67.2304688 256.500977,67.1806641 256.295898,67.0810547 C256.09082,66.9814453 255.90918,66.8496094 255.750977,66.6855469 C255.592773,66.5214844 255.466797,66.328125 255.373047,66.1054688 C255.279297,65.8828125 255.232422,65.6484375 255.232422,65.4023438 C255.232422,65.1679688 255.279297,64.9394531 255.373047,64.7167969 C255.466797,64.4941406 255.592773,64.2949219 255.750977,64.1191406 C255.90918,63.9433594 256.09082,63.8027344 256.295898,63.6972656 C256.500977,63.5917969 256.720703,63.5390625 256.955078,63.5390625 C257.212891,63.5390625 257.453125,63.5888672 257.675781,63.6884766 C257.898438,63.7880859 258.091797,63.9228516 258.255859,64.0927734 C258.419922,64.2626953 258.548828,64.4589844 258.642578,64.6816406 C258.736328,64.9042969 258.783203,65.1445312 258.783203,65.4023438 C258.783203,65.9179688 258.607422,66.3515625 258.255859,66.703125 C257.904297,67.0546875 257.470703,67.2304688 256.955078,67.2304688 Z M300.144531,40.8808594 L299.494141,39.3867188 L299.494141,30 L294.238281,30 L294.238281,32.8652344 C292.832031,31.9628906 291.033203,31.5117188 288.841797,31.5117188 C286.228516,31.5117188 284.160156,32.1035156 282.636719,33.2871094 C280.492188,34.9863281 279.208984,37.4238281 278.787109,40.5996094 C282.455078,39.9433594 285.806641,39.6152344 288.841797,39.6152344 C291.783203,39.6152344 294.367188,39.8203125 296.59375,40.2304688 L296.59375,40.2304688 L300.144531,40.8808594 Z M295.205078,36.9960938 C294.208984,36.8203125 293.245117,36.6943359 292.313477,36.6181641 C291.381836,36.5419922 290.470703,36.5039062 289.580078,36.5039062 C288.666016,36.5039062 287.702148,36.5185547 286.688477,36.5478516 C285.674805,36.5771484 284.582031,36.609375 283.410156,36.6445312 C283.609375,36.2695312 283.829102,35.9267578 284.069336,35.6162109 C284.30957,35.3056641 284.564453,35.0507812 284.833984,34.8515625 C285.689453,34.2070312 286.890625,33.8847656 288.4375,33.8847656 C289.808594,33.8847656 291.05957,34.1396484 292.19043,34.6494141 C293.321289,35.1591797 294.326172,35.9414062 295.205078,36.9960938 Z M284.130859,69.9550781 C284.236328,69.8027344 284.321289,69.6796875 284.385742,69.5859375 C284.450195,69.4921875 284.5,69.4130859 284.535156,69.3486328 C284.570312,69.2841797 284.599609,69.2285156 284.623047,69.1816406 C284.646484,69.1347656 284.675781,69.0820312 284.710938,69.0234375 C284.757812,68.953125 284.810547,68.8681641 284.869141,68.7685547 C284.927734,68.6689453 284.980469,68.5839844 285.027344,68.5136719 C285.589844,67.6230469 286.076172,66.8554688 286.486328,66.2109375 C286.896484,65.5664062 287.253906,65.0214844 287.558594,64.5761719 L287.558594,64.5761719 L287.558594,64.59375 L290.001953,61.0078125 L291.074219,59.4433594 C292.105469,57.8378906 292.621094,56.6074219 292.621094,55.7519531 C292.621094,54.6152344 292.304688,53.5371094 291.671875,52.5175781 C290.839844,51.2167969 289.503906,50.5664062 287.664062,50.5664062 C285.355469,50.5664062 283.779297,51.5800781 282.935547,53.6074219 C282.724609,54.1582031 282.619141,54.7617188 282.619141,55.4179688 C282.619141,56.8242188 282.982422,57.8554688 283.708984,58.5117188 L283.708984,58.5117188 L283.708984,58.4941406 C284.048828,58.7988281 284.374023,59.0537109 284.68457,59.2587891 C284.995117,59.4638672 285.326172,59.6308594 285.677734,59.7597656 C285.595703,59.8652344 285.542969,59.9355469 285.519531,59.9707031 C285.496094,60.0058594 285.478516,60.0351562 285.466797,60.0585938 C285.455078,60.0820312 285.43457,60.1142578 285.405273,60.1552734 C285.375977,60.1962891 285.314453,60.28125 285.220703,60.4101562 C284.845703,60.9375 284.491211,61.4501953 284.157227,61.9482422 C283.823242,62.4462891 283.498047,62.9414062 283.181641,63.4335938 C283.064453,62.4492188 282.865234,61.3417969 282.583984,60.1113281 L282.583984,60.1113281 L282.583984,60.1289062 L281.951172,57.2285156 C281.833984,56.7480469 281.749023,56.2558594 281.696289,55.7519531 C281.643555,55.2480469 281.617188,54.7324219 281.617188,54.2050781 C281.617188,53.3261719 281.78125,52.5029297 282.109375,51.7353516 C282.4375,50.9677734 282.865234,50.3203125 283.392578,49.7929688 C283.919922,49.3828125 284.541016,49.0429688 285.255859,48.7734375 C285.970703,48.5039062 286.732422,48.3691406 287.541016,48.3691406 C289.626953,48.3691406 291.144531,48.8261719 292.09375,49.7402344 C292.949219,50.5488281 293.376953,51.6855469 293.376953,53.1503906 L293.376953,53.1503906 L293.376953,69.9550781 L298.650391,69.9550781 L298.650391,53.3613281 C298.650391,50.5019531 297.736328,48.2988281 295.908203,46.7519531 C294.044922,45.1933594 291.273438,44.4140625 287.59375,44.4140625 C285.976562,44.4140625 284.505859,44.6162109 283.181641,45.0205078 C281.857422,45.4248047 280.667969,46.0253906 279.613281,46.8222656 C278.476562,47.7011719 277.624023,48.7412109 277.055664,49.9423828 C276.487305,51.1435547 276.203125,52.5117188 276.203125,54.046875 C276.203125,55.03125 276.291016,55.9101562 276.466797,56.6835938 C276.783203,58.2304688 277.070312,59.578125 277.328125,60.7265625 C277.585938,61.875 277.808594,62.8300781 277.996094,63.5917969 L277.996094,63.5917969 L277.978516,63.5390625 C278.119141,64.453125 278.22168,65.3056641 278.286133,66.0966797 C278.350586,66.8876953 278.382812,67.6289062 278.382812,68.3203125 L278.382812,68.3203125 L278.382812,68.5136719 C278.382812,68.5839844 278.376953,68.671875 278.365234,68.7773438 L278.365234,68.7773438 L278.365234,69.0234375 C278.365234,69.140625 278.362305,69.2636719 278.356445,69.3925781 C278.350586,69.5214844 278.347656,69.6416016 278.347656,69.7529297 L278.347656,69.7529297 L278.347656,69.9550781 L284.130859,69.9550781 Z M287.611328,57.4394531 C287.353516,57.4394531 287.104492,57.3867188 286.864258,57.28125 C286.624023,57.1757812 286.410156,57.0351562 286.222656,56.859375 C286.035156,56.6835938 285.882812,56.4785156 285.765625,56.2441406 C285.648438,56.0097656 285.589844,55.7636719 285.589844,55.5058594 C285.589844,55.2246094 285.648438,54.9638672 285.765625,54.7236328 C285.882812,54.4833984 286.038086,54.2753906 286.231445,54.0996094 C286.424805,53.9238281 286.641602,53.7861328 286.881836,53.6865234 C287.12207,53.5869141 287.365234,53.5371094 287.611328,53.5371094 C287.892578,53.5371094 288.15332,53.5869141 288.393555,53.6865234 C288.633789,53.7861328 288.844727,53.9238281 289.026367,54.0996094 C289.208008,54.2753906 289.348633,54.4833984 289.448242,54.7236328 C289.547852,54.9638672 289.597656,55.2246094 289.597656,55.5058594 C289.597656,55.7871094 289.541992,56.0449219 289.430664,56.2792969 C289.319336,56.5136719 289.169922,56.71875 288.982422,56.8945312 C288.794922,57.0703125 288.581055,57.2050781 288.34082,57.2988281 C288.100586,57.3925781 287.857422,57.4394531 287.611328,57.4394531 Z" id="สวัสดี" fill="#414141" fill-rule="nonzero"/>
            </g>
            <g id="identifier" transform="translate(20.000000, 454.000000)" fill="#FFFFFF" font-family="Arial-BoldMT, Arial" font-size="10" font-weight="bold" opacity="0.451421693">
                <text id="ID">
                    <tspan x="0" y="24">OLbyRYXj</tspan>
                </text>
                <text id="BATCH-1">
                    <tspan x="0" y="9">BATCH 1</tspan>
                </text>
            </g>
            <g id="qrcode" opacity="0.448946221" transform="translate(20.000000, 20.000000)" fill="#FFFFFF">
                <rect width="2.5" height="2.5" x="0.0" y="0.0" style="fill:#FFFFFF"/><rect width="2.5" height="2.5" x="2.5" y="0.0" style="fill:#FFFFFF"/><rect width="2.5" height="2.5" x="5.0" y="0.0" style="fill:#FFFFFF"/><rect width="2.5" height="2.5" x="7.5" y="0.0" style="fill:#FFFFFF"/><rect width="2.5" height="2.5" x="10.0" y="0.0" style="fill:#FFFFFF"/><rect width="2.5" height="2.5" x="12.5" y="0.0" style="fill:#FFFFFF"/><rect width="2.5" height="2.5" x="15.0" y="0.0" style="fill:#FFFFFF"/><rect width="2.5" height="2.5" x="27.5" y="0.0" style="fill:#FFFFFF"/><rect width="2.5" height="2.5" x="32.5" y="0.0" style="fill:#FFFFFF"/><rect width="2.5" height="2.5" x="35.0" y="0.0" style="fill:#FFFFFF"/><rect width="2.5" height="2.5" x="37.5" y="0.0" style="fill:#FFFFFF"/><rect width="2.5" height="2.5" x="40.0" y="0.0" style="fill:#FFFFFF"/><rect width="2.5" height="2.5" x="42.5" y="0.0" style="fill:#FFFFFF"/><rect width="2.5" height="2.5" x="45.0" y="0.0" style="fill:#FFFFFF"/><rect width="2.5" height="2.5" x="47.5" y="0.0" style="fill:#FFFFFF"/><rect width="2.5" height="2.5" x="55.0" y="0.0" style="fill:#FFFFFF"/><rect width="2.5" height="2.5" x="60.0" y="0.0" style="fill:#FFFFFF"/><rect width="2.5" height="2.5" x="65.0" y="0.0" style="fill:#FFFFFF"/><rect width="2.5" height="2.5" x="67.5" y="0.0" style="fill:#FFFFFF"/><rect width="2.5" height="2.5" x="70.0" y="0.0" style="fill:#FFFFFF"/><rect width="2.5" height="2.5" x="72.5" y="0.0" style="fill:#FFFFFF"/><rect width="2.5" height="2.5" x="75.0" y="0.0" style="fill:#FFFFFF"/><rect width="2.5" height="2.5" x="77.5" y="0.0" style="fill:#FFFFFF"/><rect width="2.5" height="2.5" x="80.0" y="0.0" style="fill:#FFFFFF"/><rect width="2.5" height="2.5" x="0.0" y="2.5" style="fill:#FFFFFF"/><rect width="2.5" height="2.5" x="15.0" y="2.5" style="fill:#FFFFFF"/><rect width="2.5" height="2.5" x="25.0" y="2.5" style="fill:#FFFFFF"/><rect width="2.5" height="2.5" x="27.5" y="2.5" style="fill:#FFFFFF"/><rect width="2.5" height="2.5" x="30.0" y="2.5" style="fill:#FFFFFF"/><rect width="2.5" height="2.5" x="32.5" y="2.5" style="fill:#FFFFFF"/><rect width="2.5" height="2.5" x="35.0" y="2.5" style="fill:#FFFFFF"/><rect width="2.5" height="2.5" x="37.5" y="2.5" style="fill:#FFFFFF"/><rect width="2.5" height="2.5" x="42.5" y="2.5" style="fill:#FFFFFF"/><rect width="2.5" height="2.5" x="47.5" y="2.5" style="fill:#FFFFFF"/><rect width="2.5" height="2.5" x="50.0" y="2.5" style="fill:#FFFFFF"/><rect width="2.5" height="2.5" x="55.0" y="2.5" style="fill:#FFFFFF"/><rect width="2.5" height="2.5" x="60.0" y="2.5" style="fill:#FFFFFF"/><rect width="2.5" height="2.5" x="65.0" y="2.5" style="fill:#FFFFFF"/><rect width="2.5" height="2.5" x="80.0" y="2.5" style="fill:#FFFFFF"/><rect width="2.5" height="2.5" x="0.0" y="5.0" style="fill:#FFFFFF"/><rect width="2.5" height="2.5" x="5.0" y="5.0" style="fill:#FFFFFF"/><rect width="2.5" height="2.5" x="7.5" y="5.0" style="fill:#FFFFFF"/><rect width="2.5" height="2.5" x="10.0" y="5.0" style="fill:#FFFFFF"/><rect width="2.5" height="2.5" x="15.0" y="5.0" style="fill:#FFFFFF"/><rect width="2.5" height="2.5" x="20.0" y="5.0" style="fill:#FFFFFF"/><rect width="2.5" height="2.5" x="22.5" y="5.0" style="fill:#FFFFFF"/><rect width="2.5" height="2.5" x="32.5" y="5.0" style="fill:#FFFFFF"/><rect width="2.5" height="2.5" x="35.0" y="5.0" style="fill:#FFFFFF"/><rect width="2.5" height="2.5" x="37.5" y="5.0" style="fill:#FFFFFF"/><rect width="2.5" height="2.5" x="45.0" y="5.0" style="fill:#FFFFFF"/><rect width="2.5" height="2.5" x="47.5" y="5.0" style="fill:#FFFFFF"/><rect width="2.5" height="2.5" x="52.5" y="5.0" style="fill:#FFFFFF"/><rect width="2.5" height="2.5" x="55.0" y="5.0" style="fill:#FFFFFF"/><rect width="2.5" height="2.5" x="57.5" y="5.0" style="fill:#FFFFFF"/><rect width="2.5" height="2.5" x="60.0" y="5.0" style="fill:#FFFFFF"/><rect width="2.5" height="2.5" x="65.0" y="5.0" style="fill:#FFFFFF"/><rect width="2.5" height="2.5" x="70.0" y="5.0" style="fill:#FFFFFF"/><rect width="2.5" height="2.5" x="72.5" y="5.0" style="fill:#FFFFFF"/><rect width="2.5" height="2.5" x="75.0" y="5.0" style="fill:#FFFFFF"/><rect width="2.5" height="2.5" x="80.0" y="5.0" style="fill:#FFFFFF"/><rect width="2.5" height="2.5" x="0.0" y="7.5" style="fill:#FFFFFF"/><rect width="2.5" height="2.5" x="5.0" y="7.5" style="fill:#FFFFFF"/><rect width="2.5" height="2.5" x="7.5" y="7.5" style="fill:#FFFFFF"/><rect width="2.5" height="2.5" x="10.0" y="7.5" style="fill:#FFFFFF"/><rect width="2.5" height="2.5" x="15.0" y="7.5" style="fill:#FFFFFF"/><rect width="2.5" height="2.5" x="20.0" y="7.5" style="fill:#FFFFFF"/><rect width="2.5" height="2.5" x="22.5" y="7.5" style="fill:#FFFFFF"/><rect width="2.5" height="2.5" x="25.0" y="7.5" style="fill:#FFFFFF"/><rect width="2.5" height="2.5" x="30.0" y="7.5" style="fill:#FFFFFF"/><rect width="2.5" height="2.5" x="32.5" y="7.5" style="fill:#FFFFFF"/><rect width="2.5" height="2.5" x="37.5" y="7.5" style="fill:#FFFFFF"/><rect width="2.5" height="2.5" x="52.5" y="7.5" style="fill:#FFFFFF"/><rect width="2.5" height="2.5" x="57.5" y="7.5" style="fill:#FFFFFF"/><rect width="2.5" height="2.5" x="60.0" y="7.5" style="fill:#FFFFFF"/><rect width="2.5" height="2.5" x="65.0" y="7.5" style="fill:#FFFFFF"/><rect width="2.5" height="2.5" x="70.0" y="7.5" style="fill:#FFFFFF"/><rect width="2.5" height="2.5" x="72.5" y="7.5" style="fill:#FFFFFF"/><rect width="2.5" height="2.5" x="75.0" y="7.5" style="fill:#FFFFFF"/><rect width="2.5" height="2.5" x="80.0" y="7.5" style="fill:#FFFFFF"/><rect width="2.5" height="2.5" x="0.0" y="10.0" style="fill:#FFFFFF"/><rect width="2.5" height="2.5" x="5.0" y="10.0" style="fill:#FFFFFF"/><rect width="2.5" height="2.5" x="7.5" y="10.0" style="fill:#FFFFFF"/><rect width="2.5" height="2.5" x="10.0" y="10.0" style="fill:#FFFFFF"/><rect width="2.5" height="2.5" x="15.0" y="10.0" style="fill:#FFFFFF"/><rect width="2.5" height="2.5" x="22.5" y="10.0" style="fill:#FFFFFF"/><rect width="2.5" height="2.5" x="27.5" y="10.0" style="fill:#FFFFFF"/><rect width="2.5" height="2.5" x="30.0" y="10.0" style="fill:#FFFFFF"/><rect width="2.5" height="2.5" x="40.0" y="10.0" style="fill:#FFFFFF"/><rect width="2.5" height="2.5" x="42.5" y="10.0" style="fill:#FFFFFF"/><rect width="2.5" height="2.5" x="57.5" y="10.0" style="fill:#FFFFFF"/><rect width="2.5" height="2.5" x="65.0" y="10.0" style="fill:#FFFFFF"/><rect width="2.5" height="2.5" x="70.0" y="10.0" style="fill:#FFFFFF"/><rect width="2.5" height="2.5" x="72.5" y="10.0" style="fill:#FFFFFF"/><rect width="2.5" height="2.5" x="75.0" y="10.0" style="fill:#FFFFFF"/><rect width="2.5" height="2.5" x="80.0" y="10.0" style="fill:#FFFFFF"/><rect width="2.5" height="2.5" x="0.0" y="12.5" style="fill:#FFFFFF"/><rect width="2.5" height="2.5" x="15.0" y="12.5" style="fill:#FFFFFF"/><rect width="2.5" height="2.5" x="22.5" y="12.5" style="fill:#FFFFFF"/><rect width="2.5" height="2.5" x="25.0" y="12.5" style="fill:#FFFFFF"/><rect width="2.5" height="2.5" x="30.0" y="12.5" style="fill:#FFFFFF"/><rect width="2.5" height="2.5" x="35.0" y="12.5" style="fill:#FFFFFF"/><rect width="2.5" height="2.5" x="40.0" y="12.5" style="fill:#FFFFFF"/><rect width="2.5" height="2.5" x="42.5" y="12.5" style="fill:#FFFFFF"/><rect width="2.5" height="2.5" x="45.0" y="12.5" style="fill:#FFFFFF"/><rect width="2.5" height="2.5" x="47.5" y="12.5" style="fill:#FFFFFF"/><rect width="2.5" height="2.5" x="52.5" y="12.5" style="fill:#FFFFFF"/><rect width="2.5" height="2.5" x="60.0" y="12.5" style="fill:#FFFFFF"/><rect width="2.5" height="2.5" x="65.0" y="12.5" style="fill:#FFFFFF"/><rect width="2.5" height="2.5" x="80.0" y="12.5" style="fill:#FFFFFF"/><rect width="2.5" height="2.5" x="0.0" y="15.0" style="fill:#FFFFFF"/><rect width="2.5" height="2.5" x="2.5" y="15.0" style="fill:#FFFFFF"/><rect width="2.5" height="2.5" x="5.0" y="15.0" style="fill:#FFFFFF"/><rect width="2.5" height="2.5" x="7.5" y="15.0" style="fill:#FFFFFF"/><rect width="2.5" height="2.5" x="10.0" y="15.0" style="fill:#FFFFFF"/><rect width="2.5" height="2.5" x="12.5" y="15.0" style="fill:#FFFFFF"/><rect width="2.5" height="2.5" x="15.0" y="15.0" style="fill:#FFFFFF"/><rect width="2.5" height="2.5" x="20.0" y="15.0" style="fill:#FFFFFF"/><rect width="2.5" height="2.5" x="25.0" y="15.0" style="fill:#FFFFFF"/><rect width="2.5" height="2.5" x="30.0" y="15.0" style="fill:#FFFFFF"/><rect width="2.5" height="2.5" x="35.0" y="15.0" style="fill:#FFFFFF"/><rect width="2.5" height="2.5" x="40.0" y="15.0" style="fill:#FFFFFF"/><rect width="2.5" height="2.5" x="45.0" y="15.0" style="fill:#FFFFFF"/><rect width="2.5" height="2.5" x="50.0" y="15.0" style="fill:#FFFFFF"/><rect width="2.5" height="2.5" x="55.0" y="15.0" style="fill:#FFFFFF"/><rect width="2.5" height="2.5" x="60.0" y="15.0" style="fill:#FFFFFF"/><rect width="2.5" height="2.5" x="65.0" y="15.0" style="fill:#FFFFFF"/><rect width="2.5" height="2.5" x="67.5" y="15.0" style="fill:#FFFFFF"/><rect width="2.5" height="2.5" x="70.0" y="15.0" style="fill:#FFFFFF"/><rect width="2.5" height="2.5" x="72.5" y="15.0" style="fill:#FFFFFF"/><rect width="2.5" height="2.5" x="75.0" y="15.0" style="fill:#FFFFFF"/><rect width="2.5" height="2.5" x="77.5" y="15.0" style="fill:#FFFFFF"/><rect width="2.5" height="2.5" x="80.0" y="15.0" style="fill:#FFFFFF"/><rect width="2.5" height="2.5" x="22.5" y="17.5" style="fill:#FFFFFF"/><rect width="2.5" height="2.5" x="25.0" y="17.5" style="fill:#FFFFFF"/><rect width="2.5" height="2.5" x="30.0" y="17.5" style="fill:#FFFFFF"/><rect width="2.5" height="2.5" x="45.0" y="17.5" style="fill:#FFFFFF"/><rect width="2.5" height="2.5" x="47.5" y="17.5" style="fill:#FFFFFF"/><rect width="2.5" height="2.5" x="50.0" y="17.5" style="fill:#FFFFFF"/><rect width="2.5" height="2.5" x="55.0" y="17.5" style="fill:#FFFFFF"/><rect width="2.5" height="2.5" x="57.5" y="17.5" style="fill:#FFFFFF"/><rect width="2.5" height="2.5" x="7.5" y="20.0" style="fill:#FFFFFF"/><rect width="2.5" height="2.5" x="10.0" y="20.0" style="fill:#FFFFFF"/><rect width="2.5" height="2.5" x="15.0" y="20.0" style="fill:#FFFFFF"/><rect width="2.5" height="2.5" x="17.5" y="20.0" style="fill:#FFFFFF"/><rect width="2.5" height="2.5" x="32.5" y="20.0" style="fill:#FFFFFF"/><rect width="2.5" height="2.5" x="35.0" y="20.0" style="fill:#FFFFFF"/><rect width="2.5" height="2.5" x="37.5" y="20.0" style="fill:#FFFFFF"/><rect width="2.5" height="2.5" x="47.5" y="20.0" style="fill:#FFFFFF"/><rect width="2.5" height="2.5" x="52.5" y="20.0" style="fill:#FFFFFF"/><rect width="2.5" height="2.5" x="57.5" y="20.0" style="fill:#FFFFFF"/><rect width="2.5" height="2.5" x="60.0" y="20.0" style="fill:#FFFFFF"/><rect width="2.5" height="2.5" x="72.5" y="20.0" style="fill:#FFFFFF"/><rect width="2.5" height="2.5" x="75.0" y="20.0" style="fill:#FFFFFF"/><rect width="2.5" height="2.5" x="0.0" y="22.5" style="fill:#FFFFFF"/><rect width="2.5" height="2.5" x="5.0" y="22.5" style="fill:#FFFFFF"/><rect width="2.5" height="2.5" x="7.5" y="22.5" style="fill:#FFFFFF"/><rect width="2.5" height="2.5" x="10.0" y="22.5" style="fill:#FFFFFF"/><rect width="2.5" height="2.5" x="12.5" y="22.5" style="fill:#FFFFFF"/><rect width="2.5" height="2.5" x="20.0" y="22.5" style="fill:#FFFFFF"/><rect width="2.5" height="2.5" x="25.0" y="22.5" style="fill:#FFFFFF"/><rect width="2.5" height="2.5" x="30.0" y="22.5" style="fill:#FFFFFF"/><rect width="2.5" height="2.5" x="35.0" y="22.5" style="fill:#FFFFFF"/><rect width="2.5" height="2.5" x="40.0" y="22.5" style="fill:#FFFFFF"/><rect width="2.5" height="2.5" x="47.5" y="22.5" style="fill:#FFFFFF"/><rect width="2.5" height="2.5" x="55.0" y="22.5" style="fill:#FFFFFF"/><rect width="2.5" height="2.5" x="62.5" y="22.5" style="fill:#FFFFFF"/><rect width="2.5" height="2.5" x="67.5" y="22.5" style="fill:#FFFFFF"/><rect width="2.5" height="2.5" x="70.0" y="22.5" style="fill:#FFFFFF"/><rect width="2.5" height="2.5" x="75.0" y="22.5" style="fill:#FFFFFF"/><rect width="2.5" height="2.5" x="77.5" y="22.5" style="fill:#FFFFFF"/><rect width="2.5" height="2.5" x="10.0" y="25.0" style="fill:#FFFFFF"/><rect width="2.5" height="2.5" x="12.5" y="25.0" style="fill:#FFFFFF"/><rect width="2.5" height="2.5" x="15.0" y="25.0" style="fill:#FFFFFF"/><rect width="2.5" height="2.5" x="20.0" y="25.0" style="fill:#FFFFFF"/><rect width="2.5" height="2.5" x="22.5" y="25.0" style="fill:#FFFFFF"/><rect width="2.5" height="2.5" x="25.0" y="25.0" style="fill:#FFFFFF"/><rect width="2.5" height="2.5" x="32.5" y="25.0" style="fill:#FFFFFF"/><rect width="2.5" height="2.5" x="40.0" y="25.0" style="fill:#FFFFFF"/><rect width="2.5" height="2.5" x="52.5" y="25.0" style="fill:#FFFFFF"/><rect width="2.5" height="2.5" x="57.5" y="25.0" style="fill:#FFFFFF"/><rect width="2.5" height="2.5" x="62.5" y="25.0" style="fill:#FFFFFF"/><rect width="2.5" height="2.5" x="67.5" y="25.0" style="fill:#FFFFFF"/><rect width="2.5" height="2.5" x="72.5" y="25.0" style="fill:#FFFFFF"/><rect width="2.5" height="2.5" x="77.5" y="25.0" style="fill:#FFFFFF"/><rect width="2.5" height="2.5" x="80.0" y="25.0" style="fill:#FFFFFF"/><rect width="2.5" height="2.5" x="2.5" y="27.5" style="fill:#FFFFFF"/><rect width="2.5" height="2.5" x="5.0" y="27.5" style="fill:#FFFFFF"/><rect width="2.5" height="2.5" x="7.5" y="27.5" style="fill:#FFFFFF"/><rect width="2.5" height="2.5" x="10.0" y="27.5" style="fill:#FFFFFF"/><rect width="2.5" height="2.5" x="17.5" y="27.5" style="fill:#FFFFFF"/><rect width="2.5" height="2.5" x="20.0" y="27.5" style="fill:#FFFFFF"/><rect width="2.5" height="2.5" x="22.5" y="27.5" style="fill:#FFFFFF"/><rect width="2.5" height="2.5" x="25.0" y="27.5" style="fill:#FFFFFF"/><rect width="2.5" height="2.5" x="27.5" y="27.5" style="fill:#FFFFFF"/><rect width="2.5" height="2.5" x="32.5" y="27.5" style="fill:#FFFFFF"/><rect width="2.5" height="2.5" x="35.0" y="27.5" style="fill:#FFFFFF"/><rect width="2.5" height="2.5" x="40.0" y="27.5" style="fill:#FFFFFF"/><rect width="2.5" height="2.5" x="65.0" y="27.5" style="fill:#FFFFFF"/><rect width="2.5" height="2.5" x="67.5" y="27.5" style="fill:#FFFFFF"/><rect width="2.5" height="2.5" x="70.0" y="27.5" style="fill:#FFFFFF"/><rect width="2.5" height="2.5" x="75.0" y="27.5" style="fill:#FFFFFF"/><rect width="2.5" height="2.5" x="77.5" y="27.5" style="fill:#FFFFFF"/><rect width="2.5" height="2.5" x="80.0" y="27.5" style="fill:#FFFFFF"/><rect width="2.5" height="2.5" x="0.0" y="30.0" style="fill:#FFFFFF"/><rect width="2.5" height="2.5" x="2.5" y="30.0" style="fill:#FFFFFF"/><rect width="2.5" height="2.5" x="5.0" y="30.0" style="fill:#FFFFFF"/><rect width="2.5" height="2.5" x="7.5" y="30.0" style="fill:#FFFFFF"/><rect width="2.5" height="2.5" x="10.0" y="30.0" style="fill:#FFFFFF"/><rect width="2.5" height="2.5" x="15.0" y="30.0" style="fill:#FFFFFF"/><rect width="2.5" height="2.5" x="17.5" y="30.0" style="fill:#FFFFFF"/><rect width="2.5" height="2.5" x="20.0" y="30.0" style="fill:#FFFFFF"/><rect width="2.5" height="2.5" x="22.5" y="30.0" style="fill:#FFFFFF"/><rect width="2.5" height="2.5" x="25.0" y="30.0" style="fill:#FFFFFF"/><rect width="2.5" height="2.5" x="27.5" y="30.0" style="fill:#FFFFFF"/><rect width="2.5" height="2.5" x="30.0" y="30.0" style="fill:#FFFFFF"/><rect width="2.5" height="2.5" x="32.5" y="30.0" style="fill:#FFFFFF"/><rect width="2.5" height="2.5" x="37.5" y="30.0" style="fill:#FFFFFF"/><rect width="2.5" height="2.5" x="47.5" y="30.0" style="fill:#FFFFFF"/><rect width="2.5" height="2.5" x="50.0" y="30.0" style="fill:#FFFFFF"/><rect width="2.5" height="2.5" x="52.5" y="30.0" style="fill:#FFFFFF"/><rect width="2.5" height="2.5" x="55.0" y="30.0" style="fill:#FFFFFF"/><rect width="2.5" height="2.5" x="60.0" y="30.0" style="fill:#FFFFFF"/><rect width="2.5" height="2.5" x="65.0" y="30.0" style="fill:#FFFFFF"/><rect width="2.5" height="2.5" x="70.0" y="30.0" style="fill:#FFFFFF"/><rect width="2.5" height="2.5" x="80.0" y="30.0" style="fill:#FFFFFF"/><rect width="2.5" height="2.5" x="2.5" y="32.5" style="fill:#FFFFFF"/><rect width="2.5" height="2.5" x="7.5" y="32.5" style="fill:#FFFFFF"/><rect width="2.5" height="2.5" x="12.5" y="32.5" style="fill:#FFFFFF"/><rect width="2.5" height="2.5" x="20.0" y="32.5" style="fill:#FFFFFF"/><rect width="2.5" height="2.5" x="30.0" y="32.5" style="fill:#FFFFFF"/><rect width="2.5" height="2.5" x="35.0" y="32.5" style="fill:#FFFFFF"/><rect width="2.5" height="2.5" x="40.0" y="32.5" style="fill:#FFFFFF"/><rect width="2.5" height="2.5" x="50.0" y="32.5" style="fill:#FFFFFF"/><rect width="2.5" height="2.5" x="52.5" y="32.5" style="fill:#FFFFFF"/><rect width="2.5" height="2.5" x="55.0" y="32.5" style="fill:#FFFFFF"/><rect width="2.5" height="2.5" x="57.5" y="32.5" style="fill:#FFFFFF"/><rect width="2.5" height="2.5" x="62.5" y="32.5" style="fill:#FFFFFF"/><rect width="2.5" height="2.5" x="67.5" y="32.5" style="fill:#FFFFFF"/><rect width="2.5" height="2.5" x="77.5" y="32.5" style="fill:#FFFFFF"/><rect width="2.5" height="2.5" x="0.0" y="35.0" style="fill:#FFFFFF"/><rect width="2.5" height="2.5" x="5.0" y="35.0" style="fill:#FFFFFF"/><rect width="2.5" height="2.5" x="10.0" y="35.0" style="fill:#FFFFFF"/><rect width="2.5" height="2.5" x="15.0" y="35.0" style="fill:#FFFFFF"/><rect width="2.5" height="2.5" x="17.5" y="35.0" style="fill:#FFFFFF"/><rect width="2.5" height="2.5" x="25.0" y="35.0" style="fill:#FFFFFF"/><rect width="2.5" height="2.5" x="27.5" y="35.0" style="fill:#FFFFFF"/><rect width="2.5" height="2.5" x="35.0" y="35.0" style="fill:#FFFFFF"/><rect width="2.5" height="2.5" x="37.5" y="35.0" style="fill:#FFFFFF"/><rect width="2.5" height="2.5" x="40.0" y="35.0" style="fill:#FFFFFF"/><rect width="2.5" height="2.5" x="45.0" y="35.0" style="fill:#FFFFFF"/><rect width="2.5" height="2.5" x="50.0" y="35.0" style="fill:#FFFFFF"/><rect width="2.5" height="2.5" x="70.0" y="35.0" style="fill:#FFFFFF"/><rect width="2.5" height="2.5" x="72.5" y="35.0" style="fill:#FFFFFF"/><rect width="2.5" height="2.5" x="75.0" y="35.0" style="fill:#FFFFFF"/><rect width="2.5" height="2.5" x="2.5" y="37.5" style="fill:#FFFFFF"/><rect width="2.5" height="2.5" x="10.0" y="37.5" style="fill:#FFFFFF"/><rect width="2.5" height="2.5" x="17.5" y="37.5" style="fill:#FFFFFF"/><rect width="2.5" height="2.5" x="32.5" y="37.5" style="fill:#FFFFFF"/><rect width="2.5" height="2.5" x="37.5" y="37.5" style="fill:#FFFFFF"/><rect width="2.5" height="2.5" x="40.0" y="37.5" style="fill:#FFFFFF"/><rect width="2.5" height="2.5" x="42.5" y="37.5" style="fill:#FFFFFF"/><rect width="2.5" height="2.5" x="62.5" y="37.5" style="fill:#FFFFFF"/><rect width="2.5" height="2.5" x="72.5" y="37.5" style="fill:#FFFFFF"/><rect width="2.5" height="2.5" x="75.0" y="37.5" style="fill:#FFFFFF"/><rect width="2.5" height="2.5" x="77.5" y="37.5" style="fill:#FFFFFF"/><rect width="2.5" height="2.5" x="0.0" y="40.0" style="fill:#FFFFFF"/><rect width="2.5" height="2.5" x="2.5" y="40.0" style="fill:#FFFFFF"/><rect width="2.5" height="2.5" x="5.0" y="40.0" style="fill:#FFFFFF"/><rect width="2.5" height="2.5" x="7.5" y="40.0" style="fill:#FFFFFF"/><rect width="2.5" height="2.5" x="12.5" y="40.0" style="fill:#FFFFFF"/><rect width="2.5" height="2.5" x="15.0" y="40.0" style="fill:#FFFFFF"/><rect width="2.5" height="2.5" x="17.5" y="40.0" style="fill:#FFFFFF"/><rect width="2.5" height="2.5" x="20.0" y="40.0" style="fill:#FFFFFF"/><rect width="2.5" height="2.5" x="27.5" y="40.0" style="fill:#FFFFFF"/><rect width="2.5" height="2.5" x="30.0" y="40.0" style="fill:#FFFFFF"/><rect width="2.5" height="2.5" x="35.0" y="40.0" style="fill:#FFFFFF"/><rect width="2.5" height="2.5" x="42.5" y="40.0" style="fill:#FFFFFF"/><rect width="2.5" height="2.5" x="47.5" y="40.0" style="fill:#FFFFFF"/><rect width="2.5" height="2.5" x="50.0" y="40.0" style="fill:#FFFFFF"/><rect width="2.5" height="2.5" x="57.5" y="40.0" style="fill:#FFFFFF"/><rect width="2.5" height="2.5" x="62.5" y="40.0" style="fill:#FFFFFF"/><rect width="2.5" height="2.5" x="65.0" y="40.0" style="fill:#FFFFFF"/><rect width="2.5" height="2.5" x="67.5" y="40.0" style="fill:#FFFFFF"/><rect width="2.5" height="2.5" x="70.0" y="40.0" style="fill:#FFFFFF"/><rect width="2.5" height="2.5" x="75.0" y="40.0" style="fill:#FFFFFF"/><rect width="2.5" height="2.5" x="77.5" y="40.0" style="fill:#FFFFFF"/><rect width="2.5" height="2.5" x="0.0" y="42.5" style="fill:#FFFFFF"/><rect width="2.5" height="2.5" x="5.0" y="42.5" style="fill:#FFFFFF"/><rect width="2.5" height="2.5" x="7.5" y="42.5" style="fill:#FFFFFF"/><rect width="2.5" height="2.5" x="12.5" y="42.5" style="fill:#FFFFFF"/><rect width="2.5" height="2.5" x="20.0" y="42.5" style="fill:#FFFFFF"/><rect width="2.5" height="2.5" x="22.5" y="42.5" style="fill:#FFFFFF"/><rect width="2.5" height="2.5" x="25.0" y="42.5" style="fill:#FFFFFF"/><rect width="2.5" height="2.5" x="27.5" y="42.5" style="fill:#FFFFFF"/><rect width="2.5" height="2.5" x="30.0" y="42.5" style="fill:#FFFFFF"/><rect width="2.5" height="2.5" x="35.0" y="42.5" style="fill:#FFFFFF"/><rect width="2.5" height="2.5" x="37.5" y="42.5" style="fill:#FFFFFF"/><rect width="2.5" height="2.5" x="47.5" y="42.5" style="fill:#FFFFFF"/><rect width="2.5" height="2.5" x="50.0" y="42.5" style="fill:#FFFFFF"/><rect width="2.5" height="2.5" x="52.5" y="42.5" style="fill:#FFFFFF"/><rect width="2.5" height="2.5" x="55.0" y="42.5" style="fill:#FFFFFF"/><rect width="2.5" height="2.5" x="60.0" y="42.5" style="fill:#FFFFFF"/><rect width="2.5" height="2.5" x="62.5" y="42.5" style="fill:#FFFFFF"/><rect width="2.5" height="2.5" x="65.0" y="42.5" style="fill:#FFFFFF"/><rect width="2.5" height="2.5" x="67.5" y="42.5" style="fill:#FFFFFF"/><rect width="2.5" height="2.5" x="70.0" y="42.5" style="fill:#FFFFFF"/><rect width="2.5" height="2.5" x="72.5" y="42.5" style="fill:#FFFFFF"/><rect width="2.5" height="2.5" x="77.5" y="42.5" style="fill:#FFFFFF"/><rect width="2.5" height="2.5" x="80.0" y="42.5" style="fill:#FFFFFF"/><rect width="2.5" height="2.5" x="0.0" y="45.0" style="fill:#FFFFFF"/><rect width="2.5" height="2.5" x="2.5" y="45.0" style="fill:#FFFFFF"/><rect width="2.5" height="2.5" x="5.0" y="45.0" style="fill:#FFFFFF"/><rect width="2.5" height="2.5" x="7.5" y="45.0" style="fill:#FFFFFF"/><rect width="2.5" height="2.5" x="12.5" y="45.0" style="fill:#FFFFFF"/><rect width="2.5" height="2.5" x="15.0" y="45.0" style="fill:#FFFFFF"/><rect width="2.5" height="2.5" x="17.5" y="45.0" style="fill:#FFFFFF"/><rect width="2.5" height="2.5" x="20.0" y="45.0" style="fill:#FFFFFF"/><rect width="2.5" height="2.5" x="30.0" y="45.0" style="fill:#FFFFFF"/><rect width="2.5" height="2.5" x="32.5" y="45.0" style="fill:#FFFFFF"/><rect width="2.5" height="2.5" x="35.0" y="45.0" style="fill:#FFFFFF"/><rect width="2.5" height="2.5" x="37.5" y="45.0" style="fill:#FFFFFF"/><rect width="2.5" height="2.5" x="47.5" y="45.0" style="fill:#FFFFFF"/><rect width="2.5" height="2.5" x="52.5" y="45.0" style="fill:#FFFFFF"/><rect width="2.5" height="2.5" x="57.5" y="45.0" style="fill:#FFFFFF"/><rect width="2.5" height="2.5" x="62.5" y="45.0" style="fill:#FFFFFF"/><rect width="2.5" height="2.5" x="67.5" y="45.0" style="fill:#FFFFFF"/><rect width="2.5" height="2.5" x="72.5" y="45.0" style="fill:#FFFFFF"/><rect width="2.5" height="2.5" x="75.0" y="45.0" style="fill:#FFFFFF"/><rect width="2.5" height="2.5" x="80.0" y="45.0" style="fill:#FFFFFF"/><rect width="2.5" height="2.5" x="5.0" y="47.5" style="fill:#FFFFFF"/><rect width="2.5" height="2.5" x="7.5" y="47.5" style="fill:#FFFFFF"/><rect width="2.5" height="2.5" x="20.0" y="47.5" style="fill:#FFFFFF"/><rect width="2.5" height="2.5" x="22.5" y="47.5" style="fill:#FFFFFF"/><rect width="2.5" height="2.5" x="27.5" y="47.5" style="fill:#FFFFFF"/><rect width="2.5" height="2.5" x="30.0" y="47.5" style="fill:#FFFFFF"/><rect width="2.5" height="2.5" x="57.5" y="47.5" style="fill:#FFFFFF"/><rect width="2.5" height="2.5" x="60.0" y="47.5" style="fill:#FFFFFF"/><rect width="2.5" height="2.5" x="62.5" y="47.5" style="fill:#FFFFFF"/><rect width="2.5" height="2.5" x="65.0" y="47.5" style="fill:#FFFFFF"/><rect width="2.5" height="2.5" x="67.5" y="47.5" style="fill:#FFFFFF"/><rect width="2.5" height="2.5" x="70.0" y="47.5" style="fill:#FFFFFF"/><rect width="2.5" height="2.5" x="72.5" y="47.5" style="fill:#FFFFFF"/><rect width="2.5" height="2.5" x="75.0" y="47.5" style="fill:#FFFFFF"/><rect width="2.5" height="2.5" x="77.5" y="47.5" style="fill:#FFFFFF"/><rect width="2.5" height="2.5" x="0.0" y="50.0" style="fill:#FFFFFF"/><rect width="2.5" height="2.5" x="7.5" y="50.0" style="fill:#FFFFFF"/><rect width="2.5" height="2.5" x="15.0" y="50.0" style="fill:#FFFFFF"/><rect width="2.5" height="2.5" x="17.5" y="50.0" style="fill:#FFFFFF"/><rect width="2.5" height="2.5" x="20.0" y="50.0" style="fill:#FFFFFF"/><rect width="2.5" height="2.5" x="22.5" y="50.0" style="fill:#FFFFFF"/><rect width="2.5" height="2.5" x="32.5" y="50.0" style="fill:#FFFFFF"/><rect width="2.5" height="2.5" x="37.5" y="50.0" style="fill:#FFFFFF"/><rect width="2.5" height="2.5" x="40.0" y="50.0" style="fill:#FFFFFF"/><rect width="2.5" height="2.5" x="42.5" y="50.0" style="fill:#FFFFFF"/><rect width="2.5" height="2.5" x="60.0" y="50.0" style="fill:#FFFFFF"/><rect width="2.5" height="2.5" x="67.5" y="50.0" style="fill:#FFFFFF"/><rect width="2.5" height="2.5" x="72.5" y="50.0" style="fill:#FFFFFF"/><rect width="2.5" height="2.5" x="77.5" y="50.0" style="fill:#FFFFFF"/><rect width="2.5" height="2.5" x="0.0" y="52.5" style="fill:#FFFFFF"/><rect width="2.5" height="2.5" x="10.0" y="52.5" style="fill:#FFFFFF"/><rect width="2.5" height="2.5" x="12.5" y="52.5" style="fill:#FFFFFF"/><rect width="2.5" height="2.5" x="17.5" y="52.5" style="fill:#FFFFFF"/><rect width="2.5" height="2.5" x="25.0" y="52.5" style="fill:#FFFFFF"/><rect width="2.5" height="2.5" x="27.5" y="52.5" style="fill:#FFFFFF"/><rect width="2.5" height="2.5" x="30.0" y="52.5" style="fill:#FFFFFF"/><rect width="2.5" height="2.5" x="32.5" y="52.5" style="fill:#FFFFFF"/><rect width="2.5" height="2.5" x="35.0" y="52.5" style="fill:#FFFFFF"/><rect width="2.5" height="2.5" x="42.5" y="52.5" style="fill:#FFFFFF"/><rect width="2.5" height="2.5" x="45.0" y="52.5" style="fill:#FFFFFF"/><rect width="2.5" height="2.5" x="47.5" y="52.5" style="fill:#FFFFFF"/><rect width="2.5" height="2.5" x="52.5" y="52.5" style="fill:#FFFFFF"/><rect width="2.5" height="2.5" x="55.0" y="52.5" style="fill:#FFFFFF"/><rect width="2.5" height="2.5" x="60.0" y="52.5" style="fill:#FFFFFF"/><rect width="2.5" height="2.5" x="70.0" y="52.5" style="fill:#FFFFFF"/><rect width="2.5" height="2.5" x="72.5" y="52.5" style="fill:#FFFFFF"/><rect width="2.5" height="2.5" x="75.0" y="52.5" style="fill:#FFFFFF"/><rect width="2.5" height="2.5" x="0.0" y="55.0" style="fill:#FFFFFF"/><rect width="2.5" height="2.5" x="7.5" y="55.0" style="fill:#FFFFFF"/><rect width="2.5" height="2.5" x="15.0" y="55.0" style="fill:#FFFFFF"/><rect width="2.5" height="2.5" x="20.0" y="55.0" style="fill:#FFFFFF"/><rect width="2.5" height="2.5" x="25.0" y="55.0" style="fill:#FFFFFF"/><rect width="2.5" height="2.5" x="27.5" y="55.0" style="fill:#FFFFFF"/><rect width="2.5" height="2.5" x="32.5" y="55.0" style="fill:#FFFFFF"/><rect width="2.5" height="2.5" x="37.5" y="55.0" style="fill:#FFFFFF"/><rect width="2.5" height="2.5" x="45.0" y="55.0" style="fill:#FFFFFF"/><rect width="2.5" height="2.5" x="50.0" y="55.0" style="fill:#FFFFFF"/><rect width="2.5" height="2.5" x="52.5" y="55.0" style="fill:#FFFFFF"/><rect width="2.5" height="2.5" x="55.0" y="55.0" style="fill:#FFFFFF"/><rect width="2.5" height="2.5" x="57.5" y="55.0" style="fill:#FFFFFF"/><rect width="2.5" height="2.5" x="60.0" y="55.0" style="fill:#FFFFFF"/><rect width="2.5" height="2.5" x="65.0" y="55.0" style="fill:#FFFFFF"/><rect width="2.5" height="2.5" x="70.0" y="55.0" style="fill:#FFFFFF"/><rect width="2.5" height="2.5" x="77.5" y="55.0" style="fill:#FFFFFF"/><rect width="2.5" height="2.5" x="80.0" y="55.0" style="fill:#FFFFFF"/><rect width="2.5" height="2.5" x="0.0" y="57.5" style="fill:#FFFFFF"/><rect width="2.5" height="2.5" x="7.5" y="57.5" style="fill:#FFFFFF"/><rect width="2.5" height="2.5" x="20.0" y="57.5" style="fill:#FFFFFF"/><rect width="2.5" height="2.5" x="22.5" y="57.5" style="fill:#FFFFFF"/><rect width="2.5" height="2.5" x="27.5" y="57.5" style="fill:#FFFFFF"/><rect width="2.5" height="2.5" x="32.5" y="57.5" style="fill:#FFFFFF"/><rect width="2.5" height="2.5" x="35.0" y="57.5" style="fill:#FFFFFF"/><rect width="2.5" height="2.5" x="40.0" y="57.5" style="fill:#FFFFFF"/><rect width="2.5" height="2.5" x="45.0" y="57.5" style="fill:#FFFFFF"/><rect width="2.5" height="2.5" x="55.0" y="57.5" style="fill:#FFFFFF"/><rect width="2.5" height="2.5" x="60.0" y="57.5" style="fill:#FFFFFF"/><rect width="2.5" height="2.5" x="67.5" y="57.5" style="fill:#FFFFFF"/><rect width="2.5" height="2.5" x="70.0" y="57.5" style="fill:#FFFFFF"/><rect width="2.5" height="2.5" x="75.0" y="57.5" style="fill:#FFFFFF"/><rect width="2.5" height="2.5" x="77.5" y="57.5" style="fill:#FFFFFF"/><rect width="2.5" height="2.5" x="80.0" y="57.5" style="fill:#FFFFFF"/><rect width="2.5" height="2.5" x="0.0" y="60.0" style="fill:#FFFFFF"/><rect width="2.5" height="2.5" x="2.5" y="60.0" style="fill:#FFFFFF"/><rect width="2.5" height="2.5" x="5.0" y="60.0" style="fill:#FFFFFF"/><rect width="2.5" height="2.5" x="10.0" y="60.0" style="fill:#FFFFFF"/><rect width="2.5" height="2.5" x="12.5" y="60.0" style="fill:#FFFFFF"/><rect width="2.5" height="2.5" x="15.0" y="60.0" style="fill:#FFFFFF"/><rect width="2.5" height="2.5" x="17.5" y="60.0" style="fill:#FFFFFF"/><rect width="2.5" height="2.5" x="20.0" y="60.0" style="fill:#FFFFFF"/><rect width="2.5" height="2.5" x="22.5" y="60.0" style="fill:#FFFFFF"/><rect width="2.5" height="2.5" x="25.0" y="60.0" style="fill:#FFFFFF"/><rect width="2.5" height="2.5" x="27.5" y="60.0" style="fill:#FFFFFF"/><rect width="2.5" height="2.5" x="30.0" y="60.0" style="fill:#FFFFFF"/><rect width="2.5" height="2.5" x="35.0" y="60.0" style="fill:#FFFFFF"/><rect width="2.5" height="2.5" x="47.5" y="60.0" style="fill:#FFFFFF"/><rect width="2.5" height="2.5" x="50.0" y="60.0" style="fill:#FFFFFF"/><rect width="2.5" height="2.5" x="60.0" y="60.0" style="fill:#FFFFFF"/><rect width="2.5" height="2.5" x="62.5" y="60.0" style="fill:#FFFFFF"/><rect width="2.5" height="2.5" x="65.0" y="60.0" style="fill:#FFFFFF"/><rect width="2.5" height="2.5" x="67.5" y="60.0" style="fill:#FFFFFF"/><rect width="2.5" height="2.5" x="70.0" y="60.0" style="fill:#FFFFFF"/><rect width="2.5" height="2.5" x="20.0" y="62.5" style="fill:#FFFFFF"/><rect width="2.5" height="2.5" x="25.0" y="62.5" style="fill:#FFFFFF"/><rect width="2.5" height="2.5" x="27.5" y="62.5" style="fill:#FFFFFF"/><rect width="2.5" height="2.5" x="30.0" y="62.5" style="fill:#FFFFFF"/><rect width="2.5" height="2.5" x="32.5" y="62.5" style="fill:#FFFFFF"/><rect width="2.5" height="2.5" x="40.0" y="62.5" style="fill:#FFFFFF"/><rect width="2.5" height="2.5" x="42.5" y="62.5" style="fill:#FFFFFF"/><rect width="2.5" height="2.5" x="45.0" y="62.5" style="fill:#FFFFFF"/><rect width="2.5" height="2.5" x="50.0" y="62.5" style="fill:#FFFFFF"/><rect width="2.5" height="2.5" x="52.5" y="62.5" style="fill:#FFFFFF"/><rect width="2.5" height="2.5" x="60.0" y="62.5" style="fill:#FFFFFF"/><rect width="2.5" height="2.5" x="70.0" y="62.5" style="fill:#FFFFFF"/><rect width="2.5" height="2.5" x="72.5" y="62.5" style="fill:#FFFFFF"/><rect width="2.5" height="2.5" x="75.0" y="62.5" style="fill:#FFFFFF"/><rect width="2.5" height="2.5" x="0.0" y="65.0" style="fill:#FFFFFF"/><rect width="2.5" height="2.5" x="2.5" y="65.0" style="fill:#FFFFFF"/><rect width="2.5" height="2.5" x="5.0" y="65.0" style="fill:#FFFFFF"/><rect width="2.5" height="2.5" x="7.5" y="65.0" style="fill:#FFFFFF"/><rect width="2.5" height="2.5" x="10.0" y="65.0" style="fill:#FFFFFF"/><rect width="2.5" height="2.5" x="12.5" y="65.0" style="fill:#FFFFFF"/><rect width="2.5" height="2.5" x="15.0" y="65.0" style="fill:#FFFFFF"/><rect width="2.5" height="2.5" x="20.0" y="65.0" style="fill:#FFFFFF"/><rect width="2.5" height="2.5" x="22.5" y="65.0" style="fill:#FFFFFF"/><rect width="2.5" height="2.5" x="25.0" y="65.0" style="fill:#FFFFFF"/><rect width="2.5" height="2.5" x="27.5" y="65.0" style="fill:#FFFFFF"/><rect width="2.5" height="2.5" x="35.0" y="65.0" style="fill:#FFFFFF"/><rect width="2.5" height="2.5" x="37.5" y="65.0" style="fill:#FFFFFF"/><rect width="2.5" height="2.5" x="42.5" y="65.0" style="fill:#FFFFFF"/><rect width="2.5" height="2.5" x="45.0" y="65.0" style="fill:#FFFFFF"/><rect width="2.5" height="2.5" x="57.5" y="65.0" style="fill:#FFFFFF"/><rect width="2.5" height="2.5" x="60.0" y="65.0" style="fill:#FFFFFF"/><rect width="2.5" height="2.5" x="65.0" y="65.0" style="fill:#FFFFFF"/><rect width="2.5" height="2.5" x="70.0" y="65.0" style="fill:#FFFFFF"/><rect width="2.5" height="2.5" x="72.5" y="65.0" style="fill:#FFFFFF"/><rect width="2.5" height="2.5" x="75.0" y="65.0" style="fill:#FFFFFF"/><rect width="2.5" height="2.5" x="0.0" y="67.5" style="fill:#FFFFFF"/><rect width="2.5" height="2.5" x="15.0" y="67.5" style="fill:#FFFFFF"/><rect width="2.5" height="2.5" x="25.0" y="67.5" style="fill:#FFFFFF"/><rect width="2.5" height="2.5" x="40.0" y="67.5" style="fill:#FFFFFF"/><rect width="2.5" height="2.5" x="42.5" y="67.5" style="fill:#FFFFFF"/><rect width="2.5" height="2.5" x="50.0" y="67.5" style="fill:#FFFFFF"/><rect width="2.5" height="2.5" x="52.5" y="67.5" style="fill:#FFFFFF"/><rect width="2.5" height="2.5" x="55.0" y="67.5" style="fill:#FFFFFF"/><rect width="2.5" height="2.5" x="60.0" y="67.5" style="fill:#FFFFFF"/><rect width="2.5" height="2.5" x="70.0" y="67.5" style="fill:#FFFFFF"/><rect width="2.5" height="2.5" x="75.0" y="67.5" style="fill:#FFFFFF"/><rect width="2.5" height="2.5" x="77.5" y="67.5" style="fill:#FFFFFF"/><rect width="2.5" height="2.5" x="0.0" y="70.0" style="fill:#FFFFFF"/><rect width="2.5" height="2.5" x="5.0" y="70.0" style="fill:#FFFFFF"/><rect width="2.5" height="2.5" x="7.5" y="70.0" style="fill:#FFFFFF"/><rect width="2.5" height="2.5" x="10.0" y="70.0" style="fill:#FFFFFF"/><rect width="2.5" height="2.5" x="15.0" y="70.0" style="fill:#FFFFFF"/><rect width="2.5" height="2.5" x="20.0" y="70.0" style="fill:#FFFFFF"/><rect width="2.5" height="2.5" x="25.0" y="70.0" style="fill:#FFFFFF"/><rect width="2.5" height="2.5" x="30.0" y="70.0" style="fill:#FFFFFF"/><rect width="2.5" height="2.5" x="32.5" y="70.0" style="fill:#FFFFFF"/><rect width="2.5" height="2.5" x="37.5" y="70.0" style="fill:#FFFFFF"/><rect width="2.5" height="2.5" x="40.0" y="70.0" style="fill:#FFFFFF"/><rect width="2.5" height="2.5" x="47.5" y="70.0" style="fill:#FFFFFF"/><rect width="2.5" height="2.5" x="52.5" y="70.0" style="fill:#FFFFFF"/><rect width="2.5" height="2.5" x="55.0" y="70.0" style="fill:#FFFFFF"/><rect width="2.5" height="2.5" x="57.5" y="70.0" style="fill:#FFFFFF"/><rect width="2.5" height="2.5" x="60.0" y="70.0" style="fill:#FFFFFF"/><rect width="2.5" height="2.5" x="62.5" y="70.0" style="fill:#FFFFFF"/><rect width="2.5" height="2.5" x="65.0" y="70.0" style="fill:#FFFFFF"/><rect width="2.5" height="2.5" x="67.5" y="70.0" style="fill:#FFFFFF"/><rect width="2.5" height="2.5" x="70.0" y="70.0" style="fill:#FFFFFF"/><rect width="2.5" height="2.5" x="72.5" y="70.0" style="fill:#FFFFFF"/><rect width="2.5" height="2.5" x="77.5" y="70.0" style="fill:#FFFFFF"/><rect width="2.5" height="2.5" x="0.0" y="72.5" style="fill:#FFFFFF"/><rect width="2.5" height="2.5" x="5.0" y="72.5" style="fill:#FFFFFF"/><rect width="2.5" height="2.5" x="7.5" y="72.5" style="fill:#FFFFFF"/><rect width="2.5" height="2.5" x="10.0" y="72.5" style="fill:#FFFFFF"/><rect width="2.5" height="2.5" x="15.0" y="72.5" style="fill:#FFFFFF"/><rect width="2.5" height="2.5" x="20.0" y="72.5" style="fill:#FFFFFF"/><rect width="2.5" height="2.5" x="22.5" y="72.5" style="fill:#FFFFFF"/><rect width="2.5" height="2.5" x="32.5" y="72.5" style="fill:#FFFFFF"/><rect width="2.5" height="2.5" x="35.0" y="72.5" style="fill:#FFFFFF"/><rect width="2.5" height="2.5" x="37.5" y="72.5" style="fill:#FFFFFF"/><rect width="2.5" height="2.5" x="42.5" y="72.5" style="fill:#FFFFFF"/><rect width="2.5" height="2.5" x="45.0" y="72.5" style="fill:#FFFFFF"/><rect width="2.5" height="2.5" x="47.5" y="72.5" style="fill:#FFFFFF"/><rect width="2.5" height="2.5" x="50.0" y="72.5" style="fill:#FFFFFF"/><rect width="2.5" height="2.5" x="52.5" y="72.5" style="fill:#FFFFFF"/><rect width="2.5" height="2.5" x="55.0" y="72.5" style="fill:#FFFFFF"/><rect width="2.5" height="2.5" x="62.5" y="72.5" style="fill:#FFFFFF"/><rect width="2.5" height="2.5" x="67.5" y="72.5" style="fill:#FFFFFF"/><rect width="2.5" height="2.5" x="72.5" y="72.5" style="fill:#FFFFFF"/><rect width="2.5" height="2.5" x="75.0" y="72.5" style="fill:#FFFFFF"/><rect width="2.5" height="2.5" x="77.5" y="72.5" style="fill:#FFFFFF"/><rect width="2.5" height="2.5" x="0.0" y="75.0" style="fill:#FFFFFF"/><rect width="2.5" height="2.5" x="5.0" y="75.0" style="fill:#FFFFFF"/><rect width="2.5" height="2.5" x="7.5" y="75.0" style="fill:#FFFFFF"/><rect width="2.5" height="2.5" x="10.0" y="75.0" style="fill:#FFFFFF"/><rect width="2.5" height="2.5" x="15.0" y="75.0" style="fill:#FFFFFF"/><rect width="2.5" height="2.5" x="27.5" y="75.0" style="fill:#FFFFFF"/><rect width="2.5" height="2.5" x="30.0" y="75.0" style="fill:#FFFFFF"/><rect width="2.5" height="2.5" x="32.5" y="75.0" style="fill:#FFFFFF"/><rect width="2.5" height="2.5" x="37.5" y="75.0" style="fill:#FFFFFF"/><rect width="2.5" height="2.5" x="40.0" y="75.0" style="fill:#FFFFFF"/><rect width="2.5" height="2.5" x="45.0" y="75.0" style="fill:#FFFFFF"/><rect width="2.5" height="2.5" x="47.5" y="75.0" style="fill:#FFFFFF"/><rect width="2.5" height="2.5" x="52.5" y="75.0" style="fill:#FFFFFF"/><rect width="2.5" height="2.5" x="55.0" y="75.0" style="fill:#FFFFFF"/><rect width="2.5" height="2.5" x="57.5" y="75.0" style="fill:#FFFFFF"/><rect width="2.5" height="2.5" x="60.0" y="75.0" style="fill:#FFFFFF"/><rect width="2.5" height="2.5" x="70.0" y="75.0" style="fill:#FFFFFF"/><rect width="2.5" height="2.5" x="72.5" y="75.0" style="fill:#FFFFFF"/><rect width="2.5" height="2.5" x="77.5" y="75.0" style="fill:#FFFFFF"/><rect width="2.5" height="2.5" x="80.0" y="75.0" style="fill:#FFFFFF"/><rect width="2.5" height="2.5" x="0.0" y="77.5" style="fill:#FFFFFF"/><rect width="2.5" height="2.5" x="15.0" y="77.5" style="fill:#FFFFFF"/><rect width="2.5" height="2.5" x="27.5" y="77.5" style="fill:#FFFFFF"/><rect width="2.5" height="2.5" x="30.0" y="77.5" style="fill:#FFFFFF"/><rect width="2.5" height="2.5" x="40.0" y="77.5" style="fill:#FFFFFF"/><rect width="2.5" height="2.5" x="42.5" y="77.5" style="fill:#FFFFFF"/><rect width="2.5" height="2.5" x="45.0" y="77.5" style="fill:#FFFFFF"/><rect width="2.5" height="2.5" x="47.5" y="77.5" style="fill:#FFFFFF"/><rect width="2.5" height="2.5" x="52.5" y="77.5" style="fill:#FFFFFF"/><rect width="2.5" height="2.5" x="55.0" y="77.5" style="fill:#FFFFFF"/><rect width="2.5" height="2.5" x="62.5" y="77.5" style="fill:#FFFFFF"/><rect width="2.5" height="2.5" x="72.5" y="77.5" style="fill:#FFFFFF"/><rect width="2.5" height="2.5" x="75.0" y="77.5" style="fill:#FFFFFF"/><rect width="2.5" height="2.5" x="77.5" y="77.5" style="fill:#FFFFFF"/><rect width="2.5" height="2.5" x="80.0" y="77.5" style="fill:#FFFFFF"/><rect width="2.5" height="2.5" x="0.0" y="80.0" style="fill:#FFFFFF"/><rect width="2.5" height="2.5" x="2.5" y="80.0" style="fill:#FFFFFF"/><rect width="2.5" height="2.5" x="5.0" y="80.0" style="fill:#FFFFFF"/><rect width="2.5" height="2.5" x="7.5" y="80.0" style="fill:#FFFFFF"/><rect width="2.5" height="2.5" x="10.0" y="80.0" style="fill:#FFFFFF"/><rect width="2.5" height="2.5" x="12.5" y="80.0" style="fill:#FFFFFF"/><rect width="2.5" height="2.5" x="15.0" y="80.0" style="fill:#FFFFFF"/><rect width="2.5" height="2.5" x="27.5" y="80.0" style="fill:#FFFFFF"/><rect width="2.5" height="2.5" x="30.0" y="80.0" style="fill:#FFFFFF"/><rect width="2.5" height="2.5" x="32.5" y="80.0" style="fill:#FFFFFF"/><rect width="2.5" height="2.5" x="35.0" y="80.0" style="fill:#FFFFFF"/><rect width="2.5" height="2.5" x="40.0" y="80.0" style="fill:#FFFFFF"/><rect width="2.5" height="2.5" x="42.5" y="80.0" style="fill:#FFFFFF"/><rect width="2.5" height="2.5" x="47.5" y="80.0" style="fill:#FFFFFF"/><rect width="2.5" height="2.5" x="50.0" y="80.0" style="fill:#FFFFFF"/><rect width="2.5" height="2.5" x="55.0" y="80.0" style="fill:#FFFFFF"/><rect width="2.5" height="2.5" x="57.5" y="80.0" style="fill:#FFFFFF"/><rect width="2.5" height="2.5" x="60.0" y="80.0" style="fill:#FFFFFF"/><rect width="2.5" height="2.5" x="62.5" y="80.0" style="fill:#FFFFFF"/><rect width="2.5" height="2.5" x="70.0" y="80.0" style="fill:#FFFFFF"/><rect width="2.5" height="2.5" x="72.5" y="80.0" style="fill:#FFFFFF"/><rect width="2.5" height="2.5" x="75.0" y="80.0" style="fill:#FFFFFF"/>
            </g>
        </g>
    </g>
</svg>
