<?xml version="1.0" encoding="UTF-8"?>
<svg xmlns="http://www.w3.org/2000/svg" xmlns:xlink="http://www.w3.org/1999/xlink" width="500px" height="600px" viewBox="0 0 500 600" version="1.1">
    <title>QWXe3RVY</title>
    <g id="Page-1" stroke="none" stroke-width="1" fill="none" fill-rule="evenodd">
        <g id="QWXe3RVY">
            <rect fill="#8F0801" x="0" y="0" width="500" height="600"/>
            <g id="bug" transform="translate(115.682436, 32.852595)" stroke="#000000">
                <g id="leg-3-right" transform="translate(189.005535, 290.884710)" fill="#EEA74C">
                    <path d="M33.7993334,87.6118164 C36.9484298,90.0555013 39.4743852,92.9744466 41.3771994,96.3686523 C44.2314209,101.459961 46.230974,101.128224 46.230974,99.5244141 C46.230974,98.4552076 47.0692242,97.4032871 48.7457246,96.3686523 C48.7470296,95.2516798 48.3925034,94.6175652 47.6821459,94.4663086 C46.6166097,94.2394237 44.7700365,94.3224486 42.7470873,93.1953125 C40.7241381,92.0681764 36.1313646,87.5107422 36.1313646,86.0561523 C36.1313646,85.0864258 35.1167162,84.7648112 33.0874193,85.0913086 L33.7993334,87.6118164 Z" id="segment-5"/>
                    <path d="M23.559099,78.7236328 C29.1144376,84.1223958 32.2824063,87.9829102 33.0630053,90.3051758 C34.2339037,93.7885742 34.5810717,94.1953125 36.0395678,94.1953125 C37.4980639,94.1953125 37.0136889,91.2133789 37.9389818,90.3051758 C38.8642748,89.3969727 39.5583803,88.7050781 41.6230639,88.7050781 C42.9428881,88.7050781 41.875017,85.3894043 38.6631029,85.3894043 C37.5926694,85.3894043 36.3031279,85.5906167 33.0630053,83.0107422 C27.6787279,78.7236328 24.3299946,76.9312387 23.559099,76.5834961 C23.0451686,76.3516677 23.0451686,77.0650466 23.559099,78.7236328 Z" id="segment-4"/>
                    <path d="M7.6845873,61.8803711 C12.0582852,65.7556966 16.0654467,70.7200521 19.7060717,76.7734375 C21.2494265,79.3396236 22.4062406,81.2359465 22.9262865,81.6523438 C24.2463477,82.7093078 24.7004349,80.6655685 25.0854662,79.6030273 C25.61067,78.1536631 27.9895263,77.5118028 26.2324389,75.0170898 C25.5836093,74.0958815 23.4790199,74.5593815 21.6660326,72.7841797 C14.8381829,66.0986328 14.9263207,66.0986328 10.5856062,58.4130859 C7.69179655,53.289388 6.72479025,54.4451497 7.6845873,61.8803711 Z" id="segment-3"/>
                    <path d="M24.8584154,16.4658203 C27.0408277,22.0208333 21.6515048,33.0071615 8.69044668,49.4248047 C4.86086857,52.8550234 3.74846509,54.5982308 2.68165761,56.1674805 C0.944125278,58.7233512 0.0172117753,62.4039358 3.38380605,64.0742188 C8.81741679,66.7700195 9.66891633,62.0142338 12.1831225,59.5405273 C13.7671982,57.9819684 13.3255722,55.6471909 14.8381829,53.2836914 C21.9714836,42.1376953 28.7348803,35.0776367 28.7348803,14.2490234 C26.1505704,11.7360026 24.8584154,12.4749349 24.8584154,16.4658203 Z" id="segment-2"/>
                    <path d="M4.7080248,14.3110352 C12.89602,15.3390288 15.9023607,12.2958984 20.828142,16.2255859 C25.7539232,20.1552734 26.2993334,17.9277344 27.6801928,17.0766602 C29.0610521,16.2255859 31.3803881,14.3110352 27.6801928,10.1416016 C23.9799975,5.97216797 14.8381829,0 4.7080248,0 C-0.708501825,1.61865234 -0.708501825,3.97730017 1.03029043,7.96728516 C2.06533434,10.3423876 -3.4799704,13.2830415 4.7080248,14.3110352 Z" id="segment-1"/>
                </g>
                <g id="leg-3-right" transform="translate(55.505535, 341.384710) scale(-1, 1) translate(-55.505535, -341.384710) translate(31.005535, 290.884710)" fill="#EEA74C">
                    <path d="M33.7993334,87.6118164 C36.9484298,90.0555013 39.4743852,92.9744466 41.3771994,96.3686523 C44.2314209,101.459961 46.230974,101.128224 46.230974,99.5244141 C46.230974,98.4552076 47.0692242,97.4032871 48.7457246,96.3686523 C48.7470296,95.2516798 48.3925034,94.6175652 47.6821459,94.4663086 C46.6166097,94.2394237 44.7700365,94.3224486 42.7470873,93.1953125 C40.7241381,92.0681764 36.1313646,87.5107422 36.1313646,86.0561523 C36.1313646,85.0864258 35.1167162,84.7648112 33.0874193,85.0913086 L33.7993334,87.6118164 Z" id="segment-5"/>
                    <path d="M23.559099,78.7236328 C29.1144376,84.1223958 32.2824063,87.9829102 33.0630053,90.3051758 C34.2339037,93.7885742 34.5810717,94.1953125 36.0395678,94.1953125 C37.4980639,94.1953125 37.0136889,91.2133789 37.9389818,90.3051758 C38.8642748,89.3969727 39.5583803,88.7050781 41.6230639,88.7050781 C42.9428881,88.7050781 41.875017,85.3894043 38.6631029,85.3894043 C37.5926694,85.3894043 36.3031279,85.5906167 33.0630053,83.0107422 C27.6787279,78.7236328 24.3299946,76.9312387 23.559099,76.5834961 C23.0451686,76.3516677 23.0451686,77.0650466 23.559099,78.7236328 Z" id="segment-4"/>
                    <path d="M7.6845873,61.8803711 C12.0582852,65.7556966 16.0654467,70.7200521 19.7060717,76.7734375 C21.2494265,79.3396236 22.4062406,81.2359465 22.9262865,81.6523438 C24.2463477,82.7093078 24.7004349,80.6655685 25.0854662,79.6030273 C25.61067,78.1536631 27.9895263,77.5118028 26.2324389,75.0170898 C25.5836093,74.0958815 23.4790199,74.5593815 21.6660326,72.7841797 C14.8381829,66.0986328 14.9263207,66.0986328 10.5856062,58.4130859 C7.69179655,53.289388 6.72479025,54.4451497 7.6845873,61.8803711 Z" id="segment-3"/>
                    <path d="M24.8584154,16.4658203 C27.0408277,22.0208333 21.6515048,33.0071615 8.69044668,49.4248047 C4.86086857,52.8550234 3.74846509,54.5982308 2.68165761,56.1674805 C0.944125278,58.7233512 0.0172117753,62.4039358 3.38380605,64.0742188 C8.81741679,66.7700195 9.66891633,62.0142338 12.1831225,59.5405273 C13.7671982,57.9819684 13.3255722,55.6471909 14.8381829,53.2836914 C21.9714836,42.1376953 28.7348803,35.0776367 28.7348803,14.2490234 C26.1505704,11.7360026 24.8584154,12.4749349 24.8584154,16.4658203 Z" id="segment-2"/>
                    <path d="M4.7080248,14.3110352 C12.89602,15.3390288 15.9023607,12.2958984 20.828142,16.2255859 C25.7539232,20.1552734 26.2993334,17.9277344 27.6801928,17.0766602 C29.0610521,16.2255859 31.3803881,14.3110352 27.6801928,10.1416016 C23.9799975,5.97216797 14.8381829,0 4.7080248,0 C-0.708501825,1.61865234 -0.708501825,3.97730017 1.03029043,7.96728516 C2.06533434,10.3423876 -3.4799704,13.2830415 4.7080248,14.3110352 Z" id="segment-1"/>
                </g>
                <g id="leg-2-right" transform="translate(177.000000, 231.088420)" fill="#EEA74C">
                    <path d="M75.9223,60.7267103 C81.7325214,62.6061048 84.7951028,64.0810397 85.1100442,65.151515 C85.5824563,66.7572279 87.8462793,66.8544885 88.5931985,66.4007825 C89.2224479,66.0185535 89.1995656,65.0394251 89.6215188,64.4913587 C90.2113275,63.7252682 90.9895207,62.9178904 89.6215188,62.4110807 C88.3293638,62.8625697 87.2640155,62.9781963 86.4254739,62.7579603 C82.5730976,61.5367689 79.3110533,60.2552747 76.6393411,58.9134779 C73.9676288,57.571681 73.1478046,57.8036146 74.1798684,59.6092786 L75.9223,60.7267103 Z" id="segment-5"/>
                    <path d="M61.3600442,54.9872083 C68.1966327,57.8097995 71.9710468,59.9849297 72.6832864,61.5125989 C73.3603136,62.964742 74.8420798,63.3399781 76.3356725,62.936162 C77.1989919,62.7027501 77.1990751,61.1626689 77.9171731,60.4662122 C78.7737568,59.6354433 80.2261712,59.4828512 80.4605775,58.39603 C80.7626529,56.9954613 78.9503802,56.0418958 77.9171731,56.0418958 C76.6459483,56.0418958 75.8787498,56.3576503 74.1266457,56.0418958 C73.3496593,55.9018716 70.9530518,55.2789591 69.4450051,54.9872083 C64.5363137,54.0375596 61.3600442,54.0799818 61.3600442,54.0799818 C61.3600442,54.0799818 61.3600442,54.3823906 61.3600442,54.9872083 Z" id="segment-4"/>
                    <path d="M45.3517434,49.3114271 C48.3393736,51.513901 50.4985533,52.615138 51.8292825,52.615138 C53.8253762,52.615138 57.6871926,53.0082044 59.6036965,55.8246107 C61.5202004,58.6410169 66.1857278,54.11172 63.4684426,52.8089857 C60.7511575,51.5062513 59.9249503,48.9925794 47.2492043,46.6629896 C44.3491392,46.6629896 43.7166523,47.5458021 45.3517434,49.3114271 Z" id="segment-3"/>
                    <path d="M32.3912942,19.8822279 C41.2374631,38.6720156 38.1207864,40.3958997 39.3556496,44.1385755 C40.5905129,47.8812513 42.8446795,50.7650404 45.0255715,50.7650404 C47.2064635,50.7650404 51.4719596,47.0432516 49.5538918,45.4325208 C45.7500575,42.2381849 45.7500575,37.8142661 44.2141103,33.7472653 C35.6100442,10.9647474 24.1283532,0.652094992 20.3746926,2.8080091 C18.8558777,3.6803401 18.7953281,4.32015771 19.9044941,4.78221072 C23.864919,6.43203254 26.5722209,7.52217096 32.3912942,19.8822279 Z" id="segment-2"/>
                    <path d="M1.92547387,2.22548957 C1.92547387,0.617896527 8.56219262,-0.118757118 21.8356301,0.0155286316 C24.172224,0.365463527 25.0796133,2.16217577 24.5577981,5.40566535 C24.3680299,6.58522263 24.4549373,8.94722969 23.1768873,8.94722969 C20.9204349,8.94722969 16.3851935,8.39980598 13.6671731,8.39980598 C10.0792825,8.39980598 6.25779007,9.66235511 1.92547387,7.61074348 C-2.40684233,5.55913184 1.92547387,4.63687913 1.92547387,2.22548957 Z" id="segment-1"/>
                </g>
                <g id="leg-2-right" transform="translate(45.500000, 264.588420) scale(-1, 1) translate(-45.500000, -264.588420) translate(0.000000, 231.088420)" fill="#EEA74C">
                    <path d="M75.9223,60.7267103 C81.7325214,62.6061048 84.7951028,64.0810397 85.1100442,65.151515 C85.5824563,66.7572279 87.8462793,66.8544885 88.5931985,66.4007825 C89.2224479,66.0185535 89.1995656,65.0394251 89.6215188,64.4913587 C90.2113275,63.7252682 90.9895207,62.9178904 89.6215188,62.4110807 C88.3293638,62.8625697 87.2640155,62.9781963 86.4254739,62.7579603 C82.5730976,61.5367689 79.3110533,60.2552747 76.6393411,58.9134779 C73.9676288,57.571681 73.1478046,57.8036146 74.1798684,59.6092786 L75.9223,60.7267103 Z" id="segment-5"/>
                    <path d="M61.3600442,54.9872083 C68.1966327,57.8097995 71.9710468,59.9849297 72.6832864,61.5125989 C73.3603136,62.964742 74.8420798,63.3399781 76.3356725,62.936162 C77.1989919,62.7027501 77.1990751,61.1626689 77.9171731,60.4662122 C78.7737568,59.6354433 80.2261712,59.4828512 80.4605775,58.39603 C80.7626529,56.9954613 78.9503802,56.0418958 77.9171731,56.0418958 C76.6459483,56.0418958 75.8787498,56.3576503 74.1266457,56.0418958 C73.3496593,55.9018716 70.9530518,55.2789591 69.4450051,54.9872083 C64.5363137,54.0375596 61.3600442,54.0799818 61.3600442,54.0799818 C61.3600442,54.0799818 61.3600442,54.3823906 61.3600442,54.9872083 Z" id="segment-4"/>
                    <path d="M45.3517434,49.3114271 C48.3393736,51.513901 50.4985533,52.615138 51.8292825,52.615138 C53.8253762,52.615138 57.6871926,53.0082044 59.6036965,55.8246107 C61.5202004,58.6410169 66.1857278,54.11172 63.4684426,52.8089857 C60.7511575,51.5062513 59.9249503,48.9925794 47.2492043,46.6629896 C44.3491392,46.6629896 43.7166523,47.5458021 45.3517434,49.3114271 Z" id="segment-3"/>
                    <path d="M32.3912942,19.8822279 C41.2374631,38.6720156 38.1207864,40.3958997 39.3556496,44.1385755 C40.5905129,47.8812513 42.8446795,50.7650404 45.0255715,50.7650404 C47.2064635,50.7650404 51.4719596,47.0432516 49.5538918,45.4325208 C45.7500575,42.2381849 45.7500575,37.8142661 44.2141103,33.7472653 C35.6100442,10.9647474 24.1283532,0.652094992 20.3746926,2.8080091 C18.8558777,3.6803401 18.7953281,4.32015771 19.9044941,4.78221072 C23.864919,6.43203254 26.5722209,7.52217096 32.3912942,19.8822279 Z" id="segment-2"/>
                    <path d="M1.92547387,2.22548957 C1.92547387,0.617896527 8.56219262,-0.118757118 21.8356301,0.0155286316 C24.172224,0.365463527 25.0796133,2.16217577 24.5577981,5.40566535 C24.3680299,6.58522263 24.4549373,8.94722969 23.1768873,8.94722969 C20.9204349,8.94722969 16.3851935,8.39980598 13.6671731,8.39980598 C10.0792825,8.39980598 6.25779007,9.66235511 1.92547387,7.61074348 C-2.40684233,5.55913184 1.92547387,4.63687913 1.92547387,2.22548957 Z" id="segment-1"/>
                </g>
                <g id="leg-1-right" transform="translate(163.451460, 130.455067)" fill="#EEA74C">
                    <path d="M50.9945216,9.02827543 C57.7777248,4.78901761 61.4137925,2.34256579 61.9027248,1.68891996 C62.4720607,-0.437056604 63.6678615,-0.437056604 63.9840236,1.02583402 C64.3680916,2.802927 65.1493621,2.65967659 64.7794338,3.50972074 C64.4714132,4.21750947 61.9775129,4.59012785 59.0437083,6.44429105 C53.015388,10.2541869 50.3323258,11.7981293 50.9945216,11.0761181 L50.9945216,9.02827543 Z" id="segment-4"/>
                    <path d="M32.9408107,22.3969278 C42.1986232,15.4994668 49.1309963,10.0788757 51.5399318,5.62433071 C53.9488673,1.16978575 53.5658348,6.2324044 55.238174,8.04390043 C57.1407859,10.1048304 58.2896254,10.0559674 57.8862833,11.8354043 C51.4966348,13.5068121 48.8624889,15.3017129 45.8592503,17.2699746 C42.8560116,19.2382364 39.8688199,21.5380411 35.309463,24.9457559 C33.9044076,25.4764095 31.9600447,23.6121996 32.9408107,22.3969278 Z" id="segment-3" stroke-linejoin="round"/>
                    <path d="M32.9481349,56.6522989 C31.2023899,55.3236856 35.4710841,54.6815957 34.3128315,46.2138223 C33.1545789,37.7460489 32.1126857,34.6029825 30.2713771,29.7939004 C28.787745,25.9189886 28.6061924,23.0771034 30.126405,21.484259 C30.4929004,21.1002535 32.3835558,20.1924325 32.9481349,20.5530532 C34.6081517,21.6133768 37.3024207,22.2126376 38.1161037,24.3017129 C38.4426883,25.1401967 39.3552885,29.2174246 39.5565334,30.5868692 C40.2591781,35.3682737 39.5565334,38.4025358 39.5565334,44.2655801 C39.5565334,50.1286244 39.4027805,51.6697922 38.1161037,54.6815957 C36.8294269,57.6933993 34.69388,57.9809121 32.9481349,56.6522989 Z" id="segment-2"/>
                    <path d="M2.15272477,57.716752 C5.95477377,53.6903848 7.28538143,56.1239786 20.1981349,56.1239786 C24.6214748,56.1239786 30.1087306,53.8639574 31.2796779,53.6991739 C34.448815,53.2531917 36.1729797,54.3834008 37.0423732,55.3988809 C37.8348868,56.3245627 37.4228526,58.5127551 35.1751857,60.1503457 C31.9061427,62.532084 32.3395307,62.6277669 23.9525295,65.7353067 C15.5655282,68.8428465 12.276645,70.1650051 5.07459977,69.7216348 C-0.255238885,69.3935207 -1.64932424,61.7431192 2.15272477,57.716752 Z" id="segment-1"/>
                </g>
                <g id="leg-1-left" transform="translate(69.951460, 165.455067) scale(-1, 1) translate(-69.951460, -165.455067) translate(37.451460, 130.455067)" fill="#EEA74C">
                    <path d="M50.9945216,9.02827543 C57.7777248,4.78901761 61.4137925,2.34256579 61.9027248,1.68891996 C62.4720607,-0.437056604 63.6678615,-0.437056604 63.9840236,1.02583402 C64.3680916,2.802927 65.1493621,2.65967659 64.7794338,3.50972074 C64.4714132,4.21750947 61.9775129,4.59012785 59.0437083,6.44429105 C53.015388,10.2541869 50.3323258,11.7981293 50.9945216,11.0761181 L50.9945216,9.02827543 Z" id="segment-4"/>
                    <path d="M32.9408107,22.3969278 C42.1986232,15.4994668 49.1309963,10.0788757 51.5399318,5.62433071 C53.9488673,1.16978575 53.5658348,6.2324044 55.238174,8.04390043 C57.1407859,10.1048304 58.2896254,10.0559674 57.8862833,11.8354043 C51.4966348,13.5068121 48.8624889,15.3017129 45.8592503,17.2699746 C42.8560116,19.2382364 39.8688199,21.5380411 35.309463,24.9457559 C33.9044076,25.4764095 31.9600447,23.6121996 32.9408107,22.3969278 Z" id="segment-3" stroke-linejoin="round"/>
                    <path d="M32.9481349,56.6522989 C31.2023899,55.3236856 35.4710841,54.6815957 34.3128315,46.2138223 C33.1545789,37.7460489 32.1126857,34.6029825 30.2713771,29.7939004 C28.787745,25.9189886 28.6061924,23.0771034 30.126405,21.484259 C30.4929004,21.1002535 32.3835558,20.1924325 32.9481349,20.5530532 C34.6081517,21.6133768 37.3024207,22.2126376 38.1161037,24.3017129 C38.4426883,25.1401967 39.3552885,29.2174246 39.5565334,30.5868692 C40.2591781,35.3682737 39.5565334,38.4025358 39.5565334,44.2655801 C39.5565334,50.1286244 39.4027805,51.6697922 38.1161037,54.6815957 C36.8294269,57.6933993 34.69388,57.9809121 32.9481349,56.6522989 Z" id="segment-2"/>
                    <path d="M2.15272477,57.716752 C5.95477377,53.6903848 7.28538143,56.1239786 20.1981349,56.1239786 C24.6214748,56.1239786 30.1087306,53.8639574 31.2796779,53.6991739 C34.448815,53.2531917 36.1729797,54.3834008 37.0423732,55.3988809 C37.8348868,56.3245627 37.4228526,58.5127551 35.1751857,60.1503457 C31.9061427,62.532084 32.3395307,62.6277669 23.9525295,65.7353067 C15.5655282,68.8428465 12.276645,70.1650051 5.07459977,69.7216348 C-0.255238885,69.3935207 -1.64932424,61.7431192 2.15272477,57.716752 Z" id="segment-1"/>
                </g>
                <path d="M121.820005,118.00971 C113.821633,133.449814 109.822447,146.118759 109.822447,156.016546 C109.822447,170.863226 127.113462,173.899358 133.817564,173.899358 C140.521665,173.899358 157.817564,170.863226 157.817564,156.016546 C157.817564,146.118759 153.818378,133.449814 145.820005,118.00971 C141.581398,120.373642 137.582212,121.938177 133.817564,121.938177 C130.052915,121.938177 126.058612,120.373642 121.820005,118.00971 Z" id="head" fill="#D64023"/>
                <path d="M134.59081,225.147405 C128.342457,225.147405 111.357845,222.428003 103.300221,216.147017 C95.2425961,209.866031 94.4662556,196.120965 95.8982664,188.06148 C97.6474631,178.216845 102.423493,170.041648 110.332786,166.614949 C116.781956,163.820847 126.390867,164.160385 134.090474,164.160385 C141.79008,164.160385 150.99951,163.820847 157.448681,166.614949 C165.357973,170.041648 170.134004,178.216845 171.8832,188.06148 C173.315211,196.120965 171.379063,208.787013 163.483124,216.147017 C155.587185,223.507021 140.839164,225.147405 134.59081,225.147405 Z" id="mid-body" fill="#D64023"/>
                <path d="M69.3175637,221.034124 C96.1235533,213.109645 112.662616,217.165634 118.934751,233.202093 C128.342954,257.25678 159.176939,379.432561 94.79022,409.166936 C91.9932907,410.136025 89.3802002,410.952841 86.9509485,411.617387 C81.7857156,413.030386 75.9079207,413.600939 69.3175637,413.329046 L69.3175637,221.034124 Z" id="bottom-body-left" fill="#783EBE" transform="translate(101.954352, 315.248875) scale(-1, 1) translate(-101.954352, -315.248875) "/>
                <path d="M134.317564,221.034124 C161.123553,213.109645 177.662616,217.165634 183.934751,233.202093 C193.342954,257.25678 224.176939,379.432561 159.79022,409.166936 C156.993291,410.136025 154.3802,410.952841 151.950948,411.617387 C146.785716,413.030386 140.907921,413.600939 134.317564,413.329046 L134.317564,221.034124 Z" id="bottom-body-right" fill="#D64023"/>
                <path d="M110.822447,150.687933 C106.440122,149.16303 104.368345,142.998479 107.231626,138.011663 C110.094907,133.024847 115.888853,130.832952 117.861997,132.733343 C119.835142,134.633733 121.094419,141.367167 119.835142,144.670354 C118.575864,147.973542 115.204771,152.212835 110.822447,150.687933 Z" id="eye-left" fill="#783EBE"/>
                <path d="M152.822447,150.687933 C148.440122,149.16303 146.368345,142.998479 149.231626,138.011663 C152.094907,133.024847 157.888853,130.832952 159.861997,132.733343 C161.835142,134.633733 163.094419,141.367167 161.835142,144.670354 C160.575864,147.973542 157.204771,152.212835 152.822447,150.687933 Z" id="eye-right" fill="#783EBE" transform="translate(155.126510, 141.531185) scale(-1, 1) translate(-155.126510, -141.531185) "/>
                <g id="antenna-right" transform="translate(140.559612, 0.000000)" fill="#783EBE">
                    <path d="M97.1739676,12.421331 C101.596448,7.51542749 104.459149,4.68551212 105.762072,3.93158492 C107.635393,2.84760054 109.23024,1.43774226 111.615374,0.540959919 C114.5701,-0.569982593 116.543757,-0.102238947 112.972307,3.19086226 C108.669362,7.15844898 103.669687,10.7525245 97.973284,13.9730888 L97.1739676,12.421331 Z" id="segment-9"/>
                    <path d="M81.7523367,23.402288 C87.2352469,17.8244886 91.9626232,13.6618095 95.9344656,10.9142509 C97.9471245,9.66595992 97.9937553,10.5614539 99.7254812,12.5040947 C101.457207,14.4467354 99.4851713,15.0169862 98.2220633,15.8405205 C92.2734658,20.0239515 86.783557,22.9989677 81.7523367,24.7655693 L81.7523367,23.402288 Z" id="segment-8"/>
                    <path d="M68.0438406,38.2284599 C69.5901487,35.3484484 72.1781207,31.4369087 75.8077566,26.4938408 C76.3905244,25.7001907 79.8460867,21.1063896 82.167864,21.1063896 C83.7767508,22.5136162 83.936907,23.5692802 85.0555594,24.4928642 C85.6135021,26.0503186 79.8342052,31.0590263 67.7176687,39.5189873 L68.0438406,38.2284599 Z" id="segment-7"/>
                    <path d="M55.3265555,51.1652275 C57.4374574,47.442117 60.3077263,43.1090279 63.9373622,38.1659599 C64.52013,37.3723099 67.8835846,33.8161008 68.6754324,34.1293388 C70.4291169,34.8230588 69.7884695,35.6381279 72.1183035,37.0187431 C72.6762462,38.5761975 67.2357351,43.8871513 55.7967703,52.9516045 L55.3265555,51.1652275 Z" id="segment-6"/>
                    <path d="M44.3849051,62.7211357 C47.94202,55.4527471 51.6439243,50.3694951 55.490618,47.4713798 C56.8402273,46.0883232 56.8402273,51.8312431 60.032366,51.216497 C60.790504,52.4575452 55.8608979,56.5690361 45.2435476,63.5509697 L44.3849051,62.7211357 Z" id="segment-5"/>
                    <path d="M34.3399832,77.2763115 C34.2743642,77.0612272 33.7488132,77.1266563 33.865618,76.5985962 C34.6751719,72.9387028 40.5011797,61.7040357 44.433489,60.1330009 C45.8822498,61.506726 46.6114417,62.1960372 48.5006277,62.756292 C48.961598,64.2672495 46.3709969,65.0518541 41.653147,70.0891212 C36.9352972,75.1263883 34.7736543,78.6977884 34.3399832,77.2763115 Z" id="segment-4"/>
                    <path d="M23.3082449,92.4430595 C25.6166759,86.7663017 28.8237885,80.8611097 32.9295828,74.7274834 C34.0366184,75.2126773 35.2292599,74.8251074 35.8819754,75.0656181 C36.7182469,75.3737651 36.9310445,76.2618757 37.7474539,76.5228935 C37.2366066,78.1705883 34.9076749,81.0972716 32.9295828,83.9503837 C30.4239217,87.5644379 27.054475,91.2618589 24.6280691,92.4430595 C24.3453949,92.5806684 23.9054535,92.5806684 23.3082449,92.4430595 Z" id="segment-3"/>
                    <path d="M25.2901785,89.9054619 C24.4755626,89.4941663 23.7213308,88.8326266 23.0274832,87.9208427 C23.0694754,89.2558037 22.8574799,90.1941175 22.3914969,90.7357841 C21.6925222,91.5482841 14.0764199,101.862249 14.5668984,104.406438 C15.0573769,106.950628 16.4825613,105.040028 17.7457449,103.975042 C19.0089285,102.910056 27.2113211,93.5934502 28.3468191,91.1981865 C27.0355398,90.7357841 26.3602469,90.3720146 25.2901785,89.9054619 Z" id="segment-2" stroke-linejoin="round"/>
                    <path d="M13.9762094,102.917758 C13.1527273,102.361028 12.7928807,103.629345 12.334368,104.53095 C10.9986746,107.157415 6.70204373,116.252874 2.62953397,118.00971 C-0.336424014,119.289192 -0.455074994,124.522892 0.61928006,125.984808 C1.02010486,126.530225 1.58636059,126.596624 1.96913358,126.596624 C4.11024686,126.596624 7.41224881,124.429388 7.7523367,121.830511 C8.09242459,119.231634 5.10746773,117.441106 15.1323701,109.365423 C15.4335316,108.950165 19.2047293,106.743622 18.5382254,104.766146 C18.4407639,104.476984 17.0229106,104.901582 15.8683035,104.53095 C14.9744462,104.244019 14.3355398,103.16069 13.9762094,102.917758 Z" id="segment-1"/>
                </g>
                <g id="antenna-left" transform="translate(68.059612, 63.500000) scale(-1, 1) translate(-68.059612, -63.500000) translate(10.559612, 0.000000)" fill="#783EBE">
                    <path d="M97.1739676,12.421331 C101.596448,7.51542749 104.459149,4.68551212 105.762072,3.93158492 C107.635393,2.84760054 109.23024,1.43774226 111.615374,0.540959919 C114.5701,-0.569982593 116.543757,-0.102238947 112.972307,3.19086226 C108.669362,7.15844898 103.669687,10.7525245 97.973284,13.9730888 L97.1739676,12.421331 Z" id="segment-9"/>
                    <path d="M81.7523367,23.402288 C87.2352469,17.8244886 91.9626232,13.6618095 95.9344656,10.9142509 C97.9471245,9.66595992 97.9937553,10.5614539 99.7254812,12.5040947 C101.457207,14.4467354 99.4851713,15.0169862 98.2220633,15.8405205 C92.2734658,20.0239515 86.783557,22.9989677 81.7523367,24.7655693 L81.7523367,23.402288 Z" id="segment-8"/>
                    <path d="M68.0438406,38.2284599 C69.5901487,35.3484484 72.1781207,31.4369087 75.8077566,26.4938408 C76.3905244,25.7001907 79.8460867,21.1063896 82.167864,21.1063896 C83.7767508,22.5136162 83.936907,23.5692802 85.0555594,24.4928642 C85.6135021,26.0503186 79.8342052,31.0590263 67.7176687,39.5189873 L68.0438406,38.2284599 Z" id="segment-7"/>
                    <path d="M55.3265555,51.1652275 C57.4374574,47.442117 60.3077263,43.1090279 63.9373622,38.1659599 C64.52013,37.3723099 67.8835846,33.8161008 68.6754324,34.1293388 C70.4291169,34.8230588 69.7884695,35.6381279 72.1183035,37.0187431 C72.6762462,38.5761975 67.2357351,43.8871513 55.7967703,52.9516045 L55.3265555,51.1652275 Z" id="segment-6"/>
                    <path d="M44.3849051,62.7211357 C47.94202,55.4527471 51.6439243,50.3694951 55.490618,47.4713798 C56.8402273,46.0883232 56.8402273,51.8312431 60.032366,51.216497 C60.790504,52.4575452 55.8608979,56.5690361 45.2435476,63.5509697 L44.3849051,62.7211357 Z" id="segment-5"/>
                    <path d="M34.3399832,77.2763115 C34.2743642,77.0612272 33.7488132,77.1266563 33.865618,76.5985962 C34.6751719,72.9387028 40.5011797,61.7040357 44.433489,60.1330009 C45.8822498,61.506726 46.6114417,62.1960372 48.5006277,62.756292 C48.961598,64.2672495 46.3709969,65.0518541 41.653147,70.0891212 C36.9352972,75.1263883 34.7736543,78.6977884 34.3399832,77.2763115 Z" id="segment-4"/>
                    <path d="M23.3082449,92.4430595 C25.6166759,86.7663017 28.8237885,80.8611097 32.9295828,74.7274834 C34.0366184,75.2126773 35.2292599,74.8251074 35.8819754,75.0656181 C36.7182469,75.3737651 36.9310445,76.2618757 37.7474539,76.5228935 C37.2366066,78.1705883 34.9076749,81.0972716 32.9295828,83.9503837 C30.4239217,87.5644379 27.054475,91.2618589 24.6280691,92.4430595 C24.3453949,92.5806684 23.9054535,92.5806684 23.3082449,92.4430595 Z" id="segment-3"/>
                    <path d="M25.2901785,89.9054619 C24.4755626,89.4941663 23.7213308,88.8326266 23.0274832,87.9208427 C23.0694754,89.2558037 22.8574799,90.1941175 22.3914969,90.7357841 C21.6925222,91.5482841 14.0764199,101.862249 14.5668984,104.406438 C15.0573769,106.950628 16.4825613,105.040028 17.7457449,103.975042 C19.0089285,102.910056 27.2113211,93.5934502 28.3468191,91.1981865 C27.0355398,90.7357841 26.3602469,90.3720146 25.2901785,89.9054619 Z" id="segment-2" stroke-linejoin="round"/>
                    <path d="M13.9762094,102.917758 C13.1527273,102.361028 12.7928807,103.629345 12.334368,104.53095 C10.9986746,107.157415 6.70204373,116.252874 2.62953397,118.00971 C-0.336424014,119.289192 -0.455074994,124.522892 0.61928006,125.984808 C1.02010486,126.530225 1.58636059,126.596624 1.96913358,126.596624 C4.11024686,126.596624 7.41224881,124.429388 7.7523367,121.830511 C8.09242459,119.231634 5.10746773,117.441106 15.1323701,109.365423 C15.4335316,108.950165 19.2047293,106.743622 18.5382254,104.766146 C18.4407639,104.476984 17.0229106,104.901582 15.8683035,104.53095 C14.9744462,104.244019 14.3355398,103.16069 13.9762094,102.917758 Z" id="segment-1"/>
                </g>
            </g>
            <g id="hello" transform="translate(0.000000, 500.000000)">
                <rect id="Rectangle" fill="#FFFFFF" x="0" y="0" width="500" height="100"/>
                <path d="M164.940918,66.3544922 C165.995605,64.1132812 166.522949,62.0258789 166.522949,60.0922852 C166.522949,58.6860352 166.098145,56.605957 165.248535,53.8520508 C166.449707,50.6293945 168.134277,46.894043 170.302246,42.6459961 C172.470215,38.3979492 174.242676,35.3657227 175.619629,33.5493164 L175.619629,33.5493164 L170.697754,33.5493164 L170.214355,34.340332 C167.299316,39.027832 164.889648,43.6787109 162.985352,48.2929688 C162.765625,47.7509766 162.619141,47.3994141 162.545898,47.2382812 L162.545898,47.2382812 L161.359375,44.315918 C159.923828,40.800293 158.048828,37.2114258 155.734375,33.5493164 L155.734375,33.5493164 L148,33.5493164 C150.021484,36.2299805 151.955078,39.2768555 153.800781,42.6899414 C155.646484,46.1030273 157.411621,49.8896484 159.096191,54.0498047 L159.096191,54.0498047 L159.425781,54.862793 C158.532227,57.5141602 158.085449,59.5283203 158.085449,60.9052734 C158.085449,62.5019531 158.532227,64.3183594 159.425781,66.3544922 L159.425781,66.3544922 L164.940918,66.3544922 Z M187.814453,58.2246094 C190.333984,58.2246094 193.153809,57.6899414 196.273926,56.6206055 L196.273926,56.6206055 L196.273926,52.4238281 C193.373535,53.5517578 191.037109,54.1157227 189.264648,54.1157227 C186.291016,54.1157227 184.804199,52.9804688 184.804199,50.7099609 C184.804199,48.1025391 186.994141,46.7988281 191.374023,46.7988281 L191.374023,46.7988281 L193.703125,46.7988281 L193.703125,42.7338867 L192.58252,42.7338867 C187.763184,42.7338867 185.353516,41.7011719 185.353516,39.6357422 C185.353516,37.9072266 186.818359,37.0429688 189.748047,37.0429688 C191.549805,37.0429688 193.505371,37.2553711 195.614746,37.6801758 L195.614746,37.6801758 L195.614746,33.637207 C193.505371,33.2124023 191.31543,33 189.044922,33 C185.880859,33 183.390625,33.5456543 181.574219,34.6369629 C179.757812,35.7282715 178.849609,37.2260742 178.849609,39.1303711 C178.849609,41.8110352 180.67334,43.612793 184.320801,44.5356445 C180.131348,46.1323242 178.036621,48.4174805 178.036621,51.3911133 C178.036621,53.4272461 178.9375,55.0751953 180.739258,56.3349609 C182.541016,57.5947266 184.899414,58.2246094 187.814453,58.2246094 Z M209.083984,58.2246094 C210.871094,58.2246094 212.63623,57.8583984 214.379395,57.1259766 L214.379395,57.1259766 L214.379395,53.0390625 C213.10498,53.6542969 211.984375,53.9619141 211.017578,53.9619141 C209.875,53.9619141 209.065674,53.5407715 208.5896,52.6984863 C208.113525,51.8562012 207.875488,50.409668 207.875488,48.3588867 L207.875488,48.3588867 L207.875488,33.5493164 L201.371582,33.5493164 L201.371582,47.9633789 C201.371582,50.6000977 201.529053,52.5117188 201.843994,53.6982422 C202.158936,54.8847656 202.770508,55.8588867 203.678711,56.6206055 C204.938477,57.6899414 206.740234,58.2246094 209.083984,58.2246094 Z M226.068848,58.2246094 C229.130371,58.2246094 232.521484,56.0639648 236.242188,51.7426758 C237.560547,54.027832 238.805664,56.0053711 239.977539,57.675293 L239.977539,57.675293 L247.206543,57.675293 C245.272949,55.331543 242.96582,51.7353516 240.285156,46.8867188 C242.277344,44.2792969 243.705566,42.0161133 244.569824,40.097168 C245.434082,38.1782227 246.012695,35.9956055 246.305664,33.5493164 L246.305664,33.5493164 L239.757812,33.5493164 C239.669922,35.2192383 239.453857,36.8378906 239.109619,38.4052734 C238.765381,39.9726562 238.300293,41.4960938 237.714355,42.9755859 C237.440918,42.4401042 237.22508,42.0153899 237.06684,41.7014431 L236.945312,41.4594727 L235.341309,38.1855469 C233.627441,34.7285156 231.400879,33 228.661621,33 C225.585449,33 223,34.3330078 220.905273,36.9990234 C218.810547,39.6650391 217.763184,42.9536133 217.763184,46.8647461 C217.763184,50.2338867 218.532227,52.9694824 220.070312,55.0715332 C221.608398,57.173584 223.60791,58.2246094 226.068848,58.2246094 Z M227.716797,53.5883789 C226.662109,53.5883789 225.874756,53.0024414 225.354736,51.8305664 C224.834717,50.6586914 224.574707,48.8935547 224.574707,46.5351562 C224.574707,44.1181641 224.922607,42.0820312 225.618408,40.4267578 C226.314209,38.7714844 227.174805,37.9438477 228.200195,37.9438477 C228.844727,37.9438477 229.489258,38.5224609 230.133789,39.6796875 L230.133789,39.6796875 L231.496094,42.1625977 C231.686523,42.5288086 232.082031,43.3710938 232.682617,44.6894531 C232.975586,45.3193359 233.209961,45.8320312 233.385742,46.2275391 L233.385742,46.2275391 L234.264648,48.0512695 C231.422852,51.7426758 229.240234,53.5883789 227.716797,53.5883789 Z M275.560938,58.2246094 C279.442773,58.2246094 282.493311,57.0930176 284.712549,54.829834 C286.931787,52.5666504 288.041406,49.4501953 288.041406,45.4804688 C288.041406,43.0195312 287.389551,40.5805664 286.08584,38.1635742 L286.08584,38.1635742 L292.348047,38.1635742 L292.348047,33.5493164 L279.691797,33.5493164 C278.080469,33.1831055 276.65957,33 275.429102,33 C271.649805,33 268.650537,34.1352539 266.431299,36.4057617 C264.212061,38.6762695 263.102441,41.7451172 263.102441,45.6123047 C263.102441,49.5087891 264.215723,52.5849609 266.442285,54.8408203 C268.668848,57.0966797 271.708398,58.2246094 275.560938,58.2246094 Z M275.516992,54.159668 C273.817773,54.159668 272.477441,53.390625 271.495996,51.8525391 C270.514551,50.3144531 270.023828,48.234375 270.023828,45.6123047 C270.023828,42.9609375 270.518213,40.8735352 271.506982,39.3500977 C272.495752,37.8266602 273.84707,37.0649414 275.560938,37.0649414 C277.289453,37.0649414 278.648096,37.8266602 279.636865,39.3500977 C280.625635,40.8735352 281.12002,42.9462891 281.12002,45.5683594 C281.12002,48.4394531 280.65127,50.5891113 279.71377,52.017334 C278.77627,53.4455566 277.377344,54.159668 275.516992,54.159668 Z M303.180566,58.2246094 C306.24209,58.2246094 309.633203,56.0639648 313.353906,51.7426758 C314.672266,54.027832 315.917383,56.0053711 317.089258,57.675293 L317.089258,57.675293 L324.318262,57.675293 C322.384668,55.331543 320.077539,51.7353516 317.396875,46.8867188 C319.389063,44.2792969 320.817285,42.0161133 321.681543,40.097168 C322.545801,38.1782227 323.124414,35.9956055 323.417383,33.5493164 L323.417383,33.5493164 L316.869531,33.5493164 C316.781641,35.2192383 316.565576,36.8378906 316.221338,38.4052734 C315.8771,39.9726562 315.412012,41.4960938 314.826074,42.9755859 C314.552637,42.4401042 314.336798,42.0153899 314.178559,41.7014431 L314.057031,41.4594727 L312.453027,38.1855469 C310.73916,34.7285156 308.512598,33 305.77334,33 C302.697168,33 300.111719,34.3330078 298.016992,36.9990234 C295.922266,39.6650391 294.874902,42.9536133 294.874902,46.8647461 C294.874902,50.2338867 295.643945,52.9694824 297.182031,55.0715332 C298.720117,57.173584 300.719629,58.2246094 303.180566,58.2246094 Z M304.828516,53.5883789 C303.773828,53.5883789 302.986475,53.0024414 302.466455,51.8305664 C301.946436,50.6586914 301.686426,48.8935547 301.686426,46.5351562 C301.686426,44.1181641 302.034326,42.0820312 302.730127,40.4267578 C303.425928,38.7714844 304.286523,37.9438477 305.311914,37.9438477 C305.956445,37.9438477 306.600977,38.5224609 307.245508,39.6796875 L307.245508,39.6796875 L308.607813,42.1625977 C308.798242,42.5288086 309.19375,43.3710938 309.794336,44.6894531 C310.087305,45.3193359 310.32168,45.8320312 310.497461,46.2275391 L310.497461,46.2275391 L311.376367,48.0512695 C308.53457,51.7426758 306.351953,53.5883789 304.828516,53.5883789 Z M340.819727,66.8818359 C344.144922,66.8818359 346.788965,66.1970215 348.751855,64.8273926 C350.714746,63.4577637 351.696191,61.6010742 351.696191,59.2573242 C351.696191,57.0161133 350.945459,55.3352051 349.443994,54.2145996 C347.942529,53.0939941 345.690332,52.5336914 342.687402,52.5336914 L342.687402,52.5336914 L341.25918,52.5336914 C338.812891,52.5336914 337.047754,52.0795898 335.96377,51.1713867 C334.879785,50.2631836 334.337793,48.7983398 334.337793,46.7768555 C334.337793,43.7446289 335.172754,41.3679199 336.842676,39.6467285 C338.512598,37.9255371 340.812402,37.0649414 343.74209,37.0649414 C345.529199,37.0649414 347.360254,37.3505859 349.235254,37.921875 L349.235254,37.921875 L349.235254,33.5273438 C347.49209,33.1757812 345.646387,33 343.698145,33 C339.098535,33 335.267969,34.3769531 332.206445,37.1308594 C329.144922,39.8847656 327.61416,43.3271484 327.61416,47.4580078 C327.61416,50.8710938 328.613916,53.4272461 330.613428,55.1264648 C332.612939,56.8256836 335.612207,57.675293 339.61123,57.675293 L339.61123,57.675293 L341.237207,57.675293 C343.229395,57.675293 344.599023,57.8364258 345.346094,58.1586914 C346.093164,58.480957 346.466699,59.0742188 346.466699,59.9384766 C346.466699,60.8027344 346.019922,61.4545898 345.126367,61.894043 C344.232813,62.3334961 342.899805,62.5532227 341.127344,62.5532227 C339.618555,62.5532227 338.161035,62.3701172 336.754785,62.0039062 L336.754785,62.0039062 L336.754785,66.4643555 C338.263574,66.7426758 339.618555,66.8818359 340.819727,66.8818359 Z" id="γειασας" fill="#414141" fill-rule="nonzero"/>
            </g>
            <g id="identifier" transform="translate(20.000000, 454.000000)" fill="#FFFFFF" font-family="Arial-BoldMT, Arial" font-size="10" font-weight="bold" opacity="0.451421693">
                <text id="ID">
                    <tspan x="0" y="24">QWXe3RVY</tspan>
                </text>
                <text id="BATCH-1">
                    <tspan x="0" y="9">BATCH 1</tspan>
                </text>
            </g>
            <g id="qrcode" opacity="0.448946221" transform="translate(20.000000, 20.000000)" fill="#FFFFFF">
                <rect width="2.5" height="2.5" x="0.0" y="0.0" style="fill:#FFFFFF"/><rect width="2.5" height="2.5" x="2.5" y="0.0" style="fill:#FFFFFF"/><rect width="2.5" height="2.5" x="5.0" y="0.0" style="fill:#FFFFFF"/><rect width="2.5" height="2.5" x="7.5" y="0.0" style="fill:#FFFFFF"/><rect width="2.5" height="2.5" x="10.0" y="0.0" style="fill:#FFFFFF"/><rect width="2.5" height="2.5" x="12.5" y="0.0" style="fill:#FFFFFF"/><rect width="2.5" height="2.5" x="15.0" y="0.0" style="fill:#FFFFFF"/><rect width="2.5" height="2.5" x="22.5" y="0.0" style="fill:#FFFFFF"/><rect width="2.5" height="2.5" x="25.0" y="0.0" style="fill:#FFFFFF"/><rect width="2.5" height="2.5" x="32.5" y="0.0" style="fill:#FFFFFF"/><rect width="2.5" height="2.5" x="35.0" y="0.0" style="fill:#FFFFFF"/><rect width="2.5" height="2.5" x="45.0" y="0.0" style="fill:#FFFFFF"/><rect width="2.5" height="2.5" x="47.5" y="0.0" style="fill:#FFFFFF"/><rect width="2.5" height="2.5" x="52.5" y="0.0" style="fill:#FFFFFF"/><rect width="2.5" height="2.5" x="57.5" y="0.0" style="fill:#FFFFFF"/><rect width="2.5" height="2.5" x="60.0" y="0.0" style="fill:#FFFFFF"/><rect width="2.5" height="2.5" x="65.0" y="0.0" style="fill:#FFFFFF"/><rect width="2.5" height="2.5" x="67.5" y="0.0" style="fill:#FFFFFF"/><rect width="2.5" height="2.5" x="70.0" y="0.0" style="fill:#FFFFFF"/><rect width="2.5" height="2.5" x="72.5" y="0.0" style="fill:#FFFFFF"/><rect width="2.5" height="2.5" x="75.0" y="0.0" style="fill:#FFFFFF"/><rect width="2.5" height="2.5" x="77.5" y="0.0" style="fill:#FFFFFF"/><rect width="2.5" height="2.5" x="80.0" y="0.0" style="fill:#FFFFFF"/><rect width="2.5" height="2.5" x="0.0" y="2.5" style="fill:#FFFFFF"/><rect width="2.5" height="2.5" x="15.0" y="2.5" style="fill:#FFFFFF"/><rect width="2.5" height="2.5" x="20.0" y="2.5" style="fill:#FFFFFF"/><rect width="2.5" height="2.5" x="25.0" y="2.5" style="fill:#FFFFFF"/><rect width="2.5" height="2.5" x="27.5" y="2.5" style="fill:#FFFFFF"/><rect width="2.5" height="2.5" x="30.0" y="2.5" style="fill:#FFFFFF"/><rect width="2.5" height="2.5" x="32.5" y="2.5" style="fill:#FFFFFF"/><rect width="2.5" height="2.5" x="35.0" y="2.5" style="fill:#FFFFFF"/><rect width="2.5" height="2.5" x="37.5" y="2.5" style="fill:#FFFFFF"/><rect width="2.5" height="2.5" x="42.5" y="2.5" style="fill:#FFFFFF"/><rect width="2.5" height="2.5" x="47.5" y="2.5" style="fill:#FFFFFF"/><rect width="2.5" height="2.5" x="50.0" y="2.5" style="fill:#FFFFFF"/><rect width="2.5" height="2.5" x="55.0" y="2.5" style="fill:#FFFFFF"/><rect width="2.5" height="2.5" x="60.0" y="2.5" style="fill:#FFFFFF"/><rect width="2.5" height="2.5" x="65.0" y="2.5" style="fill:#FFFFFF"/><rect width="2.5" height="2.5" x="80.0" y="2.5" style="fill:#FFFFFF"/><rect width="2.5" height="2.5" x="0.0" y="5.0" style="fill:#FFFFFF"/><rect width="2.5" height="2.5" x="5.0" y="5.0" style="fill:#FFFFFF"/><rect width="2.5" height="2.5" x="7.5" y="5.0" style="fill:#FFFFFF"/><rect width="2.5" height="2.5" x="10.0" y="5.0" style="fill:#FFFFFF"/><rect width="2.5" height="2.5" x="15.0" y="5.0" style="fill:#FFFFFF"/><rect width="2.5" height="2.5" x="22.5" y="5.0" style="fill:#FFFFFF"/><rect width="2.5" height="2.5" x="27.5" y="5.0" style="fill:#FFFFFF"/><rect width="2.5" height="2.5" x="30.0" y="5.0" style="fill:#FFFFFF"/><rect width="2.5" height="2.5" x="35.0" y="5.0" style="fill:#FFFFFF"/><rect width="2.5" height="2.5" x="37.5" y="5.0" style="fill:#FFFFFF"/><rect width="2.5" height="2.5" x="42.5" y="5.0" style="fill:#FFFFFF"/><rect width="2.5" height="2.5" x="52.5" y="5.0" style="fill:#FFFFFF"/><rect width="2.5" height="2.5" x="55.0" y="5.0" style="fill:#FFFFFF"/><rect width="2.5" height="2.5" x="65.0" y="5.0" style="fill:#FFFFFF"/><rect width="2.5" height="2.5" x="70.0" y="5.0" style="fill:#FFFFFF"/><rect width="2.5" height="2.5" x="72.5" y="5.0" style="fill:#FFFFFF"/><rect width="2.5" height="2.5" x="75.0" y="5.0" style="fill:#FFFFFF"/><rect width="2.5" height="2.5" x="80.0" y="5.0" style="fill:#FFFFFF"/><rect width="2.5" height="2.5" x="0.0" y="7.5" style="fill:#FFFFFF"/><rect width="2.5" height="2.5" x="5.0" y="7.5" style="fill:#FFFFFF"/><rect width="2.5" height="2.5" x="7.5" y="7.5" style="fill:#FFFFFF"/><rect width="2.5" height="2.5" x="10.0" y="7.5" style="fill:#FFFFFF"/><rect width="2.5" height="2.5" x="15.0" y="7.5" style="fill:#FFFFFF"/><rect width="2.5" height="2.5" x="25.0" y="7.5" style="fill:#FFFFFF"/><rect width="2.5" height="2.5" x="27.5" y="7.5" style="fill:#FFFFFF"/><rect width="2.5" height="2.5" x="32.5" y="7.5" style="fill:#FFFFFF"/><rect width="2.5" height="2.5" x="35.0" y="7.5" style="fill:#FFFFFF"/><rect width="2.5" height="2.5" x="42.5" y="7.5" style="fill:#FFFFFF"/><rect width="2.5" height="2.5" x="45.0" y="7.5" style="fill:#FFFFFF"/><rect width="2.5" height="2.5" x="50.0" y="7.5" style="fill:#FFFFFF"/><rect width="2.5" height="2.5" x="65.0" y="7.5" style="fill:#FFFFFF"/><rect width="2.5" height="2.5" x="70.0" y="7.5" style="fill:#FFFFFF"/><rect width="2.5" height="2.5" x="72.5" y="7.5" style="fill:#FFFFFF"/><rect width="2.5" height="2.5" x="75.0" y="7.5" style="fill:#FFFFFF"/><rect width="2.5" height="2.5" x="80.0" y="7.5" style="fill:#FFFFFF"/><rect width="2.5" height="2.5" x="0.0" y="10.0" style="fill:#FFFFFF"/><rect width="2.5" height="2.5" x="5.0" y="10.0" style="fill:#FFFFFF"/><rect width="2.5" height="2.5" x="7.5" y="10.0" style="fill:#FFFFFF"/><rect width="2.5" height="2.5" x="10.0" y="10.0" style="fill:#FFFFFF"/><rect width="2.5" height="2.5" x="15.0" y="10.0" style="fill:#FFFFFF"/><rect width="2.5" height="2.5" x="22.5" y="10.0" style="fill:#FFFFFF"/><rect width="2.5" height="2.5" x="27.5" y="10.0" style="fill:#FFFFFF"/><rect width="2.5" height="2.5" x="30.0" y="10.0" style="fill:#FFFFFF"/><rect width="2.5" height="2.5" x="32.5" y="10.0" style="fill:#FFFFFF"/><rect width="2.5" height="2.5" x="40.0" y="10.0" style="fill:#FFFFFF"/><rect width="2.5" height="2.5" x="65.0" y="10.0" style="fill:#FFFFFF"/><rect width="2.5" height="2.5" x="70.0" y="10.0" style="fill:#FFFFFF"/><rect width="2.5" height="2.5" x="72.5" y="10.0" style="fill:#FFFFFF"/><rect width="2.5" height="2.5" x="75.0" y="10.0" style="fill:#FFFFFF"/><rect width="2.5" height="2.5" x="80.0" y="10.0" style="fill:#FFFFFF"/><rect width="2.5" height="2.5" x="0.0" y="12.5" style="fill:#FFFFFF"/><rect width="2.5" height="2.5" x="15.0" y="12.5" style="fill:#FFFFFF"/><rect width="2.5" height="2.5" x="20.0" y="12.5" style="fill:#FFFFFF"/><rect width="2.5" height="2.5" x="22.5" y="12.5" style="fill:#FFFFFF"/><rect width="2.5" height="2.5" x="25.0" y="12.5" style="fill:#FFFFFF"/><rect width="2.5" height="2.5" x="37.5" y="12.5" style="fill:#FFFFFF"/><rect width="2.5" height="2.5" x="40.0" y="12.5" style="fill:#FFFFFF"/><rect width="2.5" height="2.5" x="42.5" y="12.5" style="fill:#FFFFFF"/><rect width="2.5" height="2.5" x="50.0" y="12.5" style="fill:#FFFFFF"/><rect width="2.5" height="2.5" x="57.5" y="12.5" style="fill:#FFFFFF"/><rect width="2.5" height="2.5" x="60.0" y="12.5" style="fill:#FFFFFF"/><rect width="2.5" height="2.5" x="65.0" y="12.5" style="fill:#FFFFFF"/><rect width="2.5" height="2.5" x="80.0" y="12.5" style="fill:#FFFFFF"/><rect width="2.5" height="2.5" x="0.0" y="15.0" style="fill:#FFFFFF"/><rect width="2.5" height="2.5" x="2.5" y="15.0" style="fill:#FFFFFF"/><rect width="2.5" height="2.5" x="5.0" y="15.0" style="fill:#FFFFFF"/><rect width="2.5" height="2.5" x="7.5" y="15.0" style="fill:#FFFFFF"/><rect width="2.5" height="2.5" x="10.0" y="15.0" style="fill:#FFFFFF"/><rect width="2.5" height="2.5" x="12.5" y="15.0" style="fill:#FFFFFF"/><rect width="2.5" height="2.5" x="15.0" y="15.0" style="fill:#FFFFFF"/><rect width="2.5" height="2.5" x="20.0" y="15.0" style="fill:#FFFFFF"/><rect width="2.5" height="2.5" x="25.0" y="15.0" style="fill:#FFFFFF"/><rect width="2.5" height="2.5" x="30.0" y="15.0" style="fill:#FFFFFF"/><rect width="2.5" height="2.5" x="35.0" y="15.0" style="fill:#FFFFFF"/><rect width="2.5" height="2.5" x="40.0" y="15.0" style="fill:#FFFFFF"/><rect width="2.5" height="2.5" x="45.0" y="15.0" style="fill:#FFFFFF"/><rect width="2.5" height="2.5" x="50.0" y="15.0" style="fill:#FFFFFF"/><rect width="2.5" height="2.5" x="55.0" y="15.0" style="fill:#FFFFFF"/><rect width="2.5" height="2.5" x="60.0" y="15.0" style="fill:#FFFFFF"/><rect width="2.5" height="2.5" x="65.0" y="15.0" style="fill:#FFFFFF"/><rect width="2.5" height="2.5" x="67.5" y="15.0" style="fill:#FFFFFF"/><rect width="2.5" height="2.5" x="70.0" y="15.0" style="fill:#FFFFFF"/><rect width="2.5" height="2.5" x="72.5" y="15.0" style="fill:#FFFFFF"/><rect width="2.5" height="2.5" x="75.0" y="15.0" style="fill:#FFFFFF"/><rect width="2.5" height="2.5" x="77.5" y="15.0" style="fill:#FFFFFF"/><rect width="2.5" height="2.5" x="80.0" y="15.0" style="fill:#FFFFFF"/><rect width="2.5" height="2.5" x="20.0" y="17.5" style="fill:#FFFFFF"/><rect width="2.5" height="2.5" x="30.0" y="17.5" style="fill:#FFFFFF"/><rect width="2.5" height="2.5" x="32.5" y="17.5" style="fill:#FFFFFF"/><rect width="2.5" height="2.5" x="35.0" y="17.5" style="fill:#FFFFFF"/><rect width="2.5" height="2.5" x="40.0" y="17.5" style="fill:#FFFFFF"/><rect width="2.5" height="2.5" x="42.5" y="17.5" style="fill:#FFFFFF"/><rect width="2.5" height="2.5" x="45.0" y="17.5" style="fill:#FFFFFF"/><rect width="2.5" height="2.5" x="52.5" y="17.5" style="fill:#FFFFFF"/><rect width="2.5" height="2.5" x="60.0" y="17.5" style="fill:#FFFFFF"/><rect width="2.5" height="2.5" x="10.0" y="20.0" style="fill:#FFFFFF"/><rect width="2.5" height="2.5" x="12.5" y="20.0" style="fill:#FFFFFF"/><rect width="2.5" height="2.5" x="15.0" y="20.0" style="fill:#FFFFFF"/><rect width="2.5" height="2.5" x="17.5" y="20.0" style="fill:#FFFFFF"/><rect width="2.5" height="2.5" x="30.0" y="20.0" style="fill:#FFFFFF"/><rect width="2.5" height="2.5" x="35.0" y="20.0" style="fill:#FFFFFF"/><rect width="2.5" height="2.5" x="42.5" y="20.0" style="fill:#FFFFFF"/><rect width="2.5" height="2.5" x="45.0" y="20.0" style="fill:#FFFFFF"/><rect width="2.5" height="2.5" x="50.0" y="20.0" style="fill:#FFFFFF"/><rect width="2.5" height="2.5" x="55.0" y="20.0" style="fill:#FFFFFF"/><rect width="2.5" height="2.5" x="57.5" y="20.0" style="fill:#FFFFFF"/><rect width="2.5" height="2.5" x="65.0" y="20.0" style="fill:#FFFFFF"/><rect width="2.5" height="2.5" x="67.5" y="20.0" style="fill:#FFFFFF"/><rect width="2.5" height="2.5" x="77.5" y="20.0" style="fill:#FFFFFF"/><rect width="2.5" height="2.5" x="0.0" y="22.5" style="fill:#FFFFFF"/><rect width="2.5" height="2.5" x="2.5" y="22.5" style="fill:#FFFFFF"/><rect width="2.5" height="2.5" x="5.0" y="22.5" style="fill:#FFFFFF"/><rect width="2.5" height="2.5" x="7.5" y="22.5" style="fill:#FFFFFF"/><rect width="2.5" height="2.5" x="12.5" y="22.5" style="fill:#FFFFFF"/><rect width="2.5" height="2.5" x="17.5" y="22.5" style="fill:#FFFFFF"/><rect width="2.5" height="2.5" x="20.0" y="22.5" style="fill:#FFFFFF"/><rect width="2.5" height="2.5" x="22.5" y="22.5" style="fill:#FFFFFF"/><rect width="2.5" height="2.5" x="25.0" y="22.5" style="fill:#FFFFFF"/><rect width="2.5" height="2.5" x="27.5" y="22.5" style="fill:#FFFFFF"/><rect width="2.5" height="2.5" x="32.5" y="22.5" style="fill:#FFFFFF"/><rect width="2.5" height="2.5" x="37.5" y="22.5" style="fill:#FFFFFF"/><rect width="2.5" height="2.5" x="40.0" y="22.5" style="fill:#FFFFFF"/><rect width="2.5" height="2.5" x="55.0" y="22.5" style="fill:#FFFFFF"/><rect width="2.5" height="2.5" x="67.5" y="22.5" style="fill:#FFFFFF"/><rect width="2.5" height="2.5" x="75.0" y="22.5" style="fill:#FFFFFF"/><rect width="2.5" height="2.5" x="0.0" y="25.0" style="fill:#FFFFFF"/><rect width="2.5" height="2.5" x="5.0" y="25.0" style="fill:#FFFFFF"/><rect width="2.5" height="2.5" x="12.5" y="25.0" style="fill:#FFFFFF"/><rect width="2.5" height="2.5" x="15.0" y="25.0" style="fill:#FFFFFF"/><rect width="2.5" height="2.5" x="25.0" y="25.0" style="fill:#FFFFFF"/><rect width="2.5" height="2.5" x="27.5" y="25.0" style="fill:#FFFFFF"/><rect width="2.5" height="2.5" x="30.0" y="25.0" style="fill:#FFFFFF"/><rect width="2.5" height="2.5" x="37.5" y="25.0" style="fill:#FFFFFF"/><rect width="2.5" height="2.5" x="40.0" y="25.0" style="fill:#FFFFFF"/><rect width="2.5" height="2.5" x="42.5" y="25.0" style="fill:#FFFFFF"/><rect width="2.5" height="2.5" x="47.5" y="25.0" style="fill:#FFFFFF"/><rect width="2.5" height="2.5" x="50.0" y="25.0" style="fill:#FFFFFF"/><rect width="2.5" height="2.5" x="52.5" y="25.0" style="fill:#FFFFFF"/><rect width="2.5" height="2.5" x="55.0" y="25.0" style="fill:#FFFFFF"/><rect width="2.5" height="2.5" x="57.5" y="25.0" style="fill:#FFFFFF"/><rect width="2.5" height="2.5" x="60.0" y="25.0" style="fill:#FFFFFF"/><rect width="2.5" height="2.5" x="62.5" y="25.0" style="fill:#FFFFFF"/><rect width="2.5" height="2.5" x="65.0" y="25.0" style="fill:#FFFFFF"/><rect width="2.5" height="2.5" x="67.5" y="25.0" style="fill:#FFFFFF"/><rect width="2.5" height="2.5" x="70.0" y="25.0" style="fill:#FFFFFF"/><rect width="2.5" height="2.5" x="72.5" y="25.0" style="fill:#FFFFFF"/><rect width="2.5" height="2.5" x="75.0" y="25.0" style="fill:#FFFFFF"/><rect width="2.5" height="2.5" x="77.5" y="25.0" style="fill:#FFFFFF"/><rect width="2.5" height="2.5" x="0.0" y="27.5" style="fill:#FFFFFF"/><rect width="2.5" height="2.5" x="2.5" y="27.5" style="fill:#FFFFFF"/><rect width="2.5" height="2.5" x="5.0" y="27.5" style="fill:#FFFFFF"/><rect width="2.5" height="2.5" x="10.0" y="27.5" style="fill:#FFFFFF"/><rect width="2.5" height="2.5" x="17.5" y="27.5" style="fill:#FFFFFF"/><rect width="2.5" height="2.5" x="20.0" y="27.5" style="fill:#FFFFFF"/><rect width="2.5" height="2.5" x="22.5" y="27.5" style="fill:#FFFFFF"/><rect width="2.5" height="2.5" x="27.5" y="27.5" style="fill:#FFFFFF"/><rect width="2.5" height="2.5" x="42.5" y="27.5" style="fill:#FFFFFF"/><rect width="2.5" height="2.5" x="52.5" y="27.5" style="fill:#FFFFFF"/><rect width="2.5" height="2.5" x="60.0" y="27.5" style="fill:#FFFFFF"/><rect width="2.5" height="2.5" x="65.0" y="27.5" style="fill:#FFFFFF"/><rect width="2.5" height="2.5" x="70.0" y="27.5" style="fill:#FFFFFF"/><rect width="2.5" height="2.5" x="77.5" y="27.5" style="fill:#FFFFFF"/><rect width="2.5" height="2.5" x="80.0" y="27.5" style="fill:#FFFFFF"/><rect width="2.5" height="2.5" x="0.0" y="30.0" style="fill:#FFFFFF"/><rect width="2.5" height="2.5" x="2.5" y="30.0" style="fill:#FFFFFF"/><rect width="2.5" height="2.5" x="5.0" y="30.0" style="fill:#FFFFFF"/><rect width="2.5" height="2.5" x="12.5" y="30.0" style="fill:#FFFFFF"/><rect width="2.5" height="2.5" x="15.0" y="30.0" style="fill:#FFFFFF"/><rect width="2.5" height="2.5" x="17.5" y="30.0" style="fill:#FFFFFF"/><rect width="2.5" height="2.5" x="22.5" y="30.0" style="fill:#FFFFFF"/><rect width="2.5" height="2.5" x="30.0" y="30.0" style="fill:#FFFFFF"/><rect width="2.5" height="2.5" x="35.0" y="30.0" style="fill:#FFFFFF"/><rect width="2.5" height="2.5" x="37.5" y="30.0" style="fill:#FFFFFF"/><rect width="2.5" height="2.5" x="40.0" y="30.0" style="fill:#FFFFFF"/><rect width="2.5" height="2.5" x="50.0" y="30.0" style="fill:#FFFFFF"/><rect width="2.5" height="2.5" x="57.5" y="30.0" style="fill:#FFFFFF"/><rect width="2.5" height="2.5" x="60.0" y="30.0" style="fill:#FFFFFF"/><rect width="2.5" height="2.5" x="65.0" y="30.0" style="fill:#FFFFFF"/><rect width="2.5" height="2.5" x="67.5" y="30.0" style="fill:#FFFFFF"/><rect width="2.5" height="2.5" x="72.5" y="30.0" style="fill:#FFFFFF"/><rect width="2.5" height="2.5" x="80.0" y="30.0" style="fill:#FFFFFF"/><rect width="2.5" height="2.5" x="0.0" y="32.5" style="fill:#FFFFFF"/><rect width="2.5" height="2.5" x="2.5" y="32.5" style="fill:#FFFFFF"/><rect width="2.5" height="2.5" x="5.0" y="32.5" style="fill:#FFFFFF"/><rect width="2.5" height="2.5" x="12.5" y="32.5" style="fill:#FFFFFF"/><rect width="2.5" height="2.5" x="17.5" y="32.5" style="fill:#FFFFFF"/><rect width="2.5" height="2.5" x="20.0" y="32.5" style="fill:#FFFFFF"/><rect width="2.5" height="2.5" x="30.0" y="32.5" style="fill:#FFFFFF"/><rect width="2.5" height="2.5" x="35.0" y="32.5" style="fill:#FFFFFF"/><rect width="2.5" height="2.5" x="40.0" y="32.5" style="fill:#FFFFFF"/><rect width="2.5" height="2.5" x="45.0" y="32.5" style="fill:#FFFFFF"/><rect width="2.5" height="2.5" x="50.0" y="32.5" style="fill:#FFFFFF"/><rect width="2.5" height="2.5" x="52.5" y="32.5" style="fill:#FFFFFF"/><rect width="2.5" height="2.5" x="55.0" y="32.5" style="fill:#FFFFFF"/><rect width="2.5" height="2.5" x="57.5" y="32.5" style="fill:#FFFFFF"/><rect width="2.5" height="2.5" x="62.5" y="32.5" style="fill:#FFFFFF"/><rect width="2.5" height="2.5" x="67.5" y="32.5" style="fill:#FFFFFF"/><rect width="2.5" height="2.5" x="72.5" y="32.5" style="fill:#FFFFFF"/><rect width="2.5" height="2.5" x="75.0" y="32.5" style="fill:#FFFFFF"/><rect width="2.5" height="2.5" x="77.5" y="32.5" style="fill:#FFFFFF"/><rect width="2.5" height="2.5" x="0.0" y="35.0" style="fill:#FFFFFF"/><rect width="2.5" height="2.5" x="2.5" y="35.0" style="fill:#FFFFFF"/><rect width="2.5" height="2.5" x="12.5" y="35.0" style="fill:#FFFFFF"/><rect width="2.5" height="2.5" x="15.0" y="35.0" style="fill:#FFFFFF"/><rect width="2.5" height="2.5" x="25.0" y="35.0" style="fill:#FFFFFF"/><rect width="2.5" height="2.5" x="30.0" y="35.0" style="fill:#FFFFFF"/><rect width="2.5" height="2.5" x="32.5" y="35.0" style="fill:#FFFFFF"/><rect width="2.5" height="2.5" x="35.0" y="35.0" style="fill:#FFFFFF"/><rect width="2.5" height="2.5" x="37.5" y="35.0" style="fill:#FFFFFF"/><rect width="2.5" height="2.5" x="40.0" y="35.0" style="fill:#FFFFFF"/><rect width="2.5" height="2.5" x="42.5" y="35.0" style="fill:#FFFFFF"/><rect width="2.5" height="2.5" x="47.5" y="35.0" style="fill:#FFFFFF"/><rect width="2.5" height="2.5" x="50.0" y="35.0" style="fill:#FFFFFF"/><rect width="2.5" height="2.5" x="57.5" y="35.0" style="fill:#FFFFFF"/><rect width="2.5" height="2.5" x="60.0" y="35.0" style="fill:#FFFFFF"/><rect width="2.5" height="2.5" x="62.5" y="35.0" style="fill:#FFFFFF"/><rect width="2.5" height="2.5" x="67.5" y="35.0" style="fill:#FFFFFF"/><rect width="2.5" height="2.5" x="77.5" y="35.0" style="fill:#FFFFFF"/><rect width="2.5" height="2.5" x="0.0" y="37.5" style="fill:#FFFFFF"/><rect width="2.5" height="2.5" x="2.5" y="37.5" style="fill:#FFFFFF"/><rect width="2.5" height="2.5" x="20.0" y="37.5" style="fill:#FFFFFF"/><rect width="2.5" height="2.5" x="22.5" y="37.5" style="fill:#FFFFFF"/><rect width="2.5" height="2.5" x="27.5" y="37.5" style="fill:#FFFFFF"/><rect width="2.5" height="2.5" x="30.0" y="37.5" style="fill:#FFFFFF"/><rect width="2.5" height="2.5" x="32.5" y="37.5" style="fill:#FFFFFF"/><rect width="2.5" height="2.5" x="35.0" y="37.5" style="fill:#FFFFFF"/><rect width="2.5" height="2.5" x="40.0" y="37.5" style="fill:#FFFFFF"/><rect width="2.5" height="2.5" x="45.0" y="37.5" style="fill:#FFFFFF"/><rect width="2.5" height="2.5" x="50.0" y="37.5" style="fill:#FFFFFF"/><rect width="2.5" height="2.5" x="52.5" y="37.5" style="fill:#FFFFFF"/><rect width="2.5" height="2.5" x="57.5" y="37.5" style="fill:#FFFFFF"/><rect width="2.5" height="2.5" x="60.0" y="37.5" style="fill:#FFFFFF"/><rect width="2.5" height="2.5" x="62.5" y="37.5" style="fill:#FFFFFF"/><rect width="2.5" height="2.5" x="65.0" y="37.5" style="fill:#FFFFFF"/><rect width="2.5" height="2.5" x="67.5" y="37.5" style="fill:#FFFFFF"/><rect width="2.5" height="2.5" x="70.0" y="37.5" style="fill:#FFFFFF"/><rect width="2.5" height="2.5" x="72.5" y="37.5" style="fill:#FFFFFF"/><rect width="2.5" height="2.5" x="77.5" y="37.5" style="fill:#FFFFFF"/><rect width="2.5" height="2.5" x="80.0" y="37.5" style="fill:#FFFFFF"/><rect width="2.5" height="2.5" x="0.0" y="40.0" style="fill:#FFFFFF"/><rect width="2.5" height="2.5" x="2.5" y="40.0" style="fill:#FFFFFF"/><rect width="2.5" height="2.5" x="10.0" y="40.0" style="fill:#FFFFFF"/><rect width="2.5" height="2.5" x="12.5" y="40.0" style="fill:#FFFFFF"/><rect width="2.5" height="2.5" x="15.0" y="40.0" style="fill:#FFFFFF"/><rect width="2.5" height="2.5" x="17.5" y="40.0" style="fill:#FFFFFF"/><rect width="2.5" height="2.5" x="20.0" y="40.0" style="fill:#FFFFFF"/><rect width="2.5" height="2.5" x="22.5" y="40.0" style="fill:#FFFFFF"/><rect width="2.5" height="2.5" x="30.0" y="40.0" style="fill:#FFFFFF"/><rect width="2.5" height="2.5" x="32.5" y="40.0" style="fill:#FFFFFF"/><rect width="2.5" height="2.5" x="35.0" y="40.0" style="fill:#FFFFFF"/><rect width="2.5" height="2.5" x="37.5" y="40.0" style="fill:#FFFFFF"/><rect width="2.5" height="2.5" x="50.0" y="40.0" style="fill:#FFFFFF"/><rect width="2.5" height="2.5" x="52.5" y="40.0" style="fill:#FFFFFF"/><rect width="2.5" height="2.5" x="65.0" y="40.0" style="fill:#FFFFFF"/><rect width="2.5" height="2.5" x="70.0" y="40.0" style="fill:#FFFFFF"/><rect width="2.5" height="2.5" x="72.5" y="40.0" style="fill:#FFFFFF"/><rect width="2.5" height="2.5" x="0.0" y="42.5" style="fill:#FFFFFF"/><rect width="2.5" height="2.5" x="2.5" y="42.5" style="fill:#FFFFFF"/><rect width="2.5" height="2.5" x="7.5" y="42.5" style="fill:#FFFFFF"/><rect width="2.5" height="2.5" x="10.0" y="42.5" style="fill:#FFFFFF"/><rect width="2.5" height="2.5" x="12.5" y="42.5" style="fill:#FFFFFF"/><rect width="2.5" height="2.5" x="17.5" y="42.5" style="fill:#FFFFFF"/><rect width="2.5" height="2.5" x="20.0" y="42.5" style="fill:#FFFFFF"/><rect width="2.5" height="2.5" x="22.5" y="42.5" style="fill:#FFFFFF"/><rect width="2.5" height="2.5" x="30.0" y="42.5" style="fill:#FFFFFF"/><rect width="2.5" height="2.5" x="32.5" y="42.5" style="fill:#FFFFFF"/><rect width="2.5" height="2.5" x="37.5" y="42.5" style="fill:#FFFFFF"/><rect width="2.5" height="2.5" x="40.0" y="42.5" style="fill:#FFFFFF"/><rect width="2.5" height="2.5" x="42.5" y="42.5" style="fill:#FFFFFF"/><rect width="2.5" height="2.5" x="52.5" y="42.5" style="fill:#FFFFFF"/><rect width="2.5" height="2.5" x="57.5" y="42.5" style="fill:#FFFFFF"/><rect width="2.5" height="2.5" x="60.0" y="42.5" style="fill:#FFFFFF"/><rect width="2.5" height="2.5" x="67.5" y="42.5" style="fill:#FFFFFF"/><rect width="2.5" height="2.5" x="77.5" y="42.5" style="fill:#FFFFFF"/><rect width="2.5" height="2.5" x="0.0" y="45.0" style="fill:#FFFFFF"/><rect width="2.5" height="2.5" x="7.5" y="45.0" style="fill:#FFFFFF"/><rect width="2.5" height="2.5" x="10.0" y="45.0" style="fill:#FFFFFF"/><rect width="2.5" height="2.5" x="15.0" y="45.0" style="fill:#FFFFFF"/><rect width="2.5" height="2.5" x="17.5" y="45.0" style="fill:#FFFFFF"/><rect width="2.5" height="2.5" x="20.0" y="45.0" style="fill:#FFFFFF"/><rect width="2.5" height="2.5" x="37.5" y="45.0" style="fill:#FFFFFF"/><rect width="2.5" height="2.5" x="45.0" y="45.0" style="fill:#FFFFFF"/><rect width="2.5" height="2.5" x="50.0" y="45.0" style="fill:#FFFFFF"/><rect width="2.5" height="2.5" x="52.5" y="45.0" style="fill:#FFFFFF"/><rect width="2.5" height="2.5" x="57.5" y="45.0" style="fill:#FFFFFF"/><rect width="2.5" height="2.5" x="60.0" y="45.0" style="fill:#FFFFFF"/><rect width="2.5" height="2.5" x="62.5" y="45.0" style="fill:#FFFFFF"/><rect width="2.5" height="2.5" x="67.5" y="45.0" style="fill:#FFFFFF"/><rect width="2.5" height="2.5" x="72.5" y="45.0" style="fill:#FFFFFF"/><rect width="2.5" height="2.5" x="77.5" y="45.0" style="fill:#FFFFFF"/><rect width="2.5" height="2.5" x="10.0" y="47.5" style="fill:#FFFFFF"/><rect width="2.5" height="2.5" x="12.5" y="47.5" style="fill:#FFFFFF"/><rect width="2.5" height="2.5" x="17.5" y="47.5" style="fill:#FFFFFF"/><rect width="2.5" height="2.5" x="20.0" y="47.5" style="fill:#FFFFFF"/><rect width="2.5" height="2.5" x="25.0" y="47.5" style="fill:#FFFFFF"/><rect width="2.5" height="2.5" x="32.5" y="47.5" style="fill:#FFFFFF"/><rect width="2.5" height="2.5" x="35.0" y="47.5" style="fill:#FFFFFF"/><rect width="2.5" height="2.5" x="37.5" y="47.5" style="fill:#FFFFFF"/><rect width="2.5" height="2.5" x="40.0" y="47.5" style="fill:#FFFFFF"/><rect width="2.5" height="2.5" x="42.5" y="47.5" style="fill:#FFFFFF"/><rect width="2.5" height="2.5" x="45.0" y="47.5" style="fill:#FFFFFF"/><rect width="2.5" height="2.5" x="47.5" y="47.5" style="fill:#FFFFFF"/><rect width="2.5" height="2.5" x="50.0" y="47.5" style="fill:#FFFFFF"/><rect width="2.5" height="2.5" x="52.5" y="47.5" style="fill:#FFFFFF"/><rect width="2.5" height="2.5" x="55.0" y="47.5" style="fill:#FFFFFF"/><rect width="2.5" height="2.5" x="65.0" y="47.5" style="fill:#FFFFFF"/><rect width="2.5" height="2.5" x="0.0" y="50.0" style="fill:#FFFFFF"/><rect width="2.5" height="2.5" x="5.0" y="50.0" style="fill:#FFFFFF"/><rect width="2.5" height="2.5" x="10.0" y="50.0" style="fill:#FFFFFF"/><rect width="2.5" height="2.5" x="12.5" y="50.0" style="fill:#FFFFFF"/><rect width="2.5" height="2.5" x="15.0" y="50.0" style="fill:#FFFFFF"/><rect width="2.5" height="2.5" x="17.5" y="50.0" style="fill:#FFFFFF"/><rect width="2.5" height="2.5" x="25.0" y="50.0" style="fill:#FFFFFF"/><rect width="2.5" height="2.5" x="32.5" y="50.0" style="fill:#FFFFFF"/><rect width="2.5" height="2.5" x="35.0" y="50.0" style="fill:#FFFFFF"/><rect width="2.5" height="2.5" x="42.5" y="50.0" style="fill:#FFFFFF"/><rect width="2.5" height="2.5" x="52.5" y="50.0" style="fill:#FFFFFF"/><rect width="2.5" height="2.5" x="55.0" y="50.0" style="fill:#FFFFFF"/><rect width="2.5" height="2.5" x="60.0" y="50.0" style="fill:#FFFFFF"/><rect width="2.5" height="2.5" x="65.0" y="50.0" style="fill:#FFFFFF"/><rect width="2.5" height="2.5" x="70.0" y="50.0" style="fill:#FFFFFF"/><rect width="2.5" height="2.5" x="72.5" y="50.0" style="fill:#FFFFFF"/><rect width="2.5" height="2.5" x="77.5" y="50.0" style="fill:#FFFFFF"/><rect width="2.5" height="2.5" x="0.0" y="52.5" style="fill:#FFFFFF"/><rect width="2.5" height="2.5" x="30.0" y="52.5" style="fill:#FFFFFF"/><rect width="2.5" height="2.5" x="32.5" y="52.5" style="fill:#FFFFFF"/><rect width="2.5" height="2.5" x="35.0" y="52.5" style="fill:#FFFFFF"/><rect width="2.5" height="2.5" x="37.5" y="52.5" style="fill:#FFFFFF"/><rect width="2.5" height="2.5" x="40.0" y="52.5" style="fill:#FFFFFF"/><rect width="2.5" height="2.5" x="42.5" y="52.5" style="fill:#FFFFFF"/><rect width="2.5" height="2.5" x="45.0" y="52.5" style="fill:#FFFFFF"/><rect width="2.5" height="2.5" x="47.5" y="52.5" style="fill:#FFFFFF"/><rect width="2.5" height="2.5" x="60.0" y="52.5" style="fill:#FFFFFF"/><rect width="2.5" height="2.5" x="65.0" y="52.5" style="fill:#FFFFFF"/><rect width="2.5" height="2.5" x="72.5" y="52.5" style="fill:#FFFFFF"/><rect width="2.5" height="2.5" x="75.0" y="52.5" style="fill:#FFFFFF"/><rect width="2.5" height="2.5" x="77.5" y="52.5" style="fill:#FFFFFF"/><rect width="2.5" height="2.5" x="5.0" y="55.0" style="fill:#FFFFFF"/><rect width="2.5" height="2.5" x="7.5" y="55.0" style="fill:#FFFFFF"/><rect width="2.5" height="2.5" x="10.0" y="55.0" style="fill:#FFFFFF"/><rect width="2.5" height="2.5" x="15.0" y="55.0" style="fill:#FFFFFF"/><rect width="2.5" height="2.5" x="25.0" y="55.0" style="fill:#FFFFFF"/><rect width="2.5" height="2.5" x="27.5" y="55.0" style="fill:#FFFFFF"/><rect width="2.5" height="2.5" x="30.0" y="55.0" style="fill:#FFFFFF"/><rect width="2.5" height="2.5" x="37.5" y="55.0" style="fill:#FFFFFF"/><rect width="2.5" height="2.5" x="42.5" y="55.0" style="fill:#FFFFFF"/><rect width="2.5" height="2.5" x="57.5" y="55.0" style="fill:#FFFFFF"/><rect width="2.5" height="2.5" x="60.0" y="55.0" style="fill:#FFFFFF"/><rect width="2.5" height="2.5" x="75.0" y="55.0" style="fill:#FFFFFF"/><rect width="2.5" height="2.5" x="77.5" y="55.0" style="fill:#FFFFFF"/><rect width="2.5" height="2.5" x="20.0" y="57.5" style="fill:#FFFFFF"/><rect width="2.5" height="2.5" x="22.5" y="57.5" style="fill:#FFFFFF"/><rect width="2.5" height="2.5" x="25.0" y="57.5" style="fill:#FFFFFF"/><rect width="2.5" height="2.5" x="40.0" y="57.5" style="fill:#FFFFFF"/><rect width="2.5" height="2.5" x="42.5" y="57.5" style="fill:#FFFFFF"/><rect width="2.5" height="2.5" x="45.0" y="57.5" style="fill:#FFFFFF"/><rect width="2.5" height="2.5" x="47.5" y="57.5" style="fill:#FFFFFF"/><rect width="2.5" height="2.5" x="52.5" y="57.5" style="fill:#FFFFFF"/><rect width="2.5" height="2.5" x="57.5" y="57.5" style="fill:#FFFFFF"/><rect width="2.5" height="2.5" x="70.0" y="57.5" style="fill:#FFFFFF"/><rect width="2.5" height="2.5" x="77.5" y="57.5" style="fill:#FFFFFF"/><rect width="2.5" height="2.5" x="80.0" y="57.5" style="fill:#FFFFFF"/><rect width="2.5" height="2.5" x="0.0" y="60.0" style="fill:#FFFFFF"/><rect width="2.5" height="2.5" x="2.5" y="60.0" style="fill:#FFFFFF"/><rect width="2.5" height="2.5" x="5.0" y="60.0" style="fill:#FFFFFF"/><rect width="2.5" height="2.5" x="7.5" y="60.0" style="fill:#FFFFFF"/><rect width="2.5" height="2.5" x="15.0" y="60.0" style="fill:#FFFFFF"/><rect width="2.5" height="2.5" x="17.5" y="60.0" style="fill:#FFFFFF"/><rect width="2.5" height="2.5" x="20.0" y="60.0" style="fill:#FFFFFF"/><rect width="2.5" height="2.5" x="22.5" y="60.0" style="fill:#FFFFFF"/><rect width="2.5" height="2.5" x="30.0" y="60.0" style="fill:#FFFFFF"/><rect width="2.5" height="2.5" x="35.0" y="60.0" style="fill:#FFFFFF"/><rect width="2.5" height="2.5" x="37.5" y="60.0" style="fill:#FFFFFF"/><rect width="2.5" height="2.5" x="40.0" y="60.0" style="fill:#FFFFFF"/><rect width="2.5" height="2.5" x="55.0" y="60.0" style="fill:#FFFFFF"/><rect width="2.5" height="2.5" x="57.5" y="60.0" style="fill:#FFFFFF"/><rect width="2.5" height="2.5" x="60.0" y="60.0" style="fill:#FFFFFF"/><rect width="2.5" height="2.5" x="62.5" y="60.0" style="fill:#FFFFFF"/><rect width="2.5" height="2.5" x="65.0" y="60.0" style="fill:#FFFFFF"/><rect width="2.5" height="2.5" x="67.5" y="60.0" style="fill:#FFFFFF"/><rect width="2.5" height="2.5" x="70.0" y="60.0" style="fill:#FFFFFF"/><rect width="2.5" height="2.5" x="72.5" y="60.0" style="fill:#FFFFFF"/><rect width="2.5" height="2.5" x="20.0" y="62.5" style="fill:#FFFFFF"/><rect width="2.5" height="2.5" x="25.0" y="62.5" style="fill:#FFFFFF"/><rect width="2.5" height="2.5" x="27.5" y="62.5" style="fill:#FFFFFF"/><rect width="2.5" height="2.5" x="32.5" y="62.5" style="fill:#FFFFFF"/><rect width="2.5" height="2.5" x="40.0" y="62.5" style="fill:#FFFFFF"/><rect width="2.5" height="2.5" x="47.5" y="62.5" style="fill:#FFFFFF"/><rect width="2.5" height="2.5" x="52.5" y="62.5" style="fill:#FFFFFF"/><rect width="2.5" height="2.5" x="55.0" y="62.5" style="fill:#FFFFFF"/><rect width="2.5" height="2.5" x="60.0" y="62.5" style="fill:#FFFFFF"/><rect width="2.5" height="2.5" x="70.0" y="62.5" style="fill:#FFFFFF"/><rect width="2.5" height="2.5" x="72.5" y="62.5" style="fill:#FFFFFF"/><rect width="2.5" height="2.5" x="75.0" y="62.5" style="fill:#FFFFFF"/><rect width="2.5" height="2.5" x="0.0" y="65.0" style="fill:#FFFFFF"/><rect width="2.5" height="2.5" x="2.5" y="65.0" style="fill:#FFFFFF"/><rect width="2.5" height="2.5" x="5.0" y="65.0" style="fill:#FFFFFF"/><rect width="2.5" height="2.5" x="7.5" y="65.0" style="fill:#FFFFFF"/><rect width="2.5" height="2.5" x="10.0" y="65.0" style="fill:#FFFFFF"/><rect width="2.5" height="2.5" x="12.5" y="65.0" style="fill:#FFFFFF"/><rect width="2.5" height="2.5" x="15.0" y="65.0" style="fill:#FFFFFF"/><rect width="2.5" height="2.5" x="20.0" y="65.0" style="fill:#FFFFFF"/><rect width="2.5" height="2.5" x="27.5" y="65.0" style="fill:#FFFFFF"/><rect width="2.5" height="2.5" x="30.0" y="65.0" style="fill:#FFFFFF"/><rect width="2.5" height="2.5" x="35.0" y="65.0" style="fill:#FFFFFF"/><rect width="2.5" height="2.5" x="47.5" y="65.0" style="fill:#FFFFFF"/><rect width="2.5" height="2.5" x="60.0" y="65.0" style="fill:#FFFFFF"/><rect width="2.5" height="2.5" x="65.0" y="65.0" style="fill:#FFFFFF"/><rect width="2.5" height="2.5" x="70.0" y="65.0" style="fill:#FFFFFF"/><rect width="2.5" height="2.5" x="77.5" y="65.0" style="fill:#FFFFFF"/><rect width="2.5" height="2.5" x="0.0" y="67.5" style="fill:#FFFFFF"/><rect width="2.5" height="2.5" x="15.0" y="67.5" style="fill:#FFFFFF"/><rect width="2.5" height="2.5" x="20.0" y="67.5" style="fill:#FFFFFF"/><rect width="2.5" height="2.5" x="22.5" y="67.5" style="fill:#FFFFFF"/><rect width="2.5" height="2.5" x="25.0" y="67.5" style="fill:#FFFFFF"/><rect width="2.5" height="2.5" x="27.5" y="67.5" style="fill:#FFFFFF"/><rect width="2.5" height="2.5" x="35.0" y="67.5" style="fill:#FFFFFF"/><rect width="2.5" height="2.5" x="40.0" y="67.5" style="fill:#FFFFFF"/><rect width="2.5" height="2.5" x="42.5" y="67.5" style="fill:#FFFFFF"/><rect width="2.5" height="2.5" x="45.0" y="67.5" style="fill:#FFFFFF"/><rect width="2.5" height="2.5" x="50.0" y="67.5" style="fill:#FFFFFF"/><rect width="2.5" height="2.5" x="55.0" y="67.5" style="fill:#FFFFFF"/><rect width="2.5" height="2.5" x="57.5" y="67.5" style="fill:#FFFFFF"/><rect width="2.5" height="2.5" x="60.0" y="67.5" style="fill:#FFFFFF"/><rect width="2.5" height="2.5" x="70.0" y="67.5" style="fill:#FFFFFF"/><rect width="2.5" height="2.5" x="72.5" y="67.5" style="fill:#FFFFFF"/><rect width="2.5" height="2.5" x="77.5" y="67.5" style="fill:#FFFFFF"/><rect width="2.5" height="2.5" x="80.0" y="67.5" style="fill:#FFFFFF"/><rect width="2.5" height="2.5" x="0.0" y="70.0" style="fill:#FFFFFF"/><rect width="2.5" height="2.5" x="5.0" y="70.0" style="fill:#FFFFFF"/><rect width="2.5" height="2.5" x="7.5" y="70.0" style="fill:#FFFFFF"/><rect width="2.5" height="2.5" x="10.0" y="70.0" style="fill:#FFFFFF"/><rect width="2.5" height="2.5" x="15.0" y="70.0" style="fill:#FFFFFF"/><rect width="2.5" height="2.5" x="20.0" y="70.0" style="fill:#FFFFFF"/><rect width="2.5" height="2.5" x="22.5" y="70.0" style="fill:#FFFFFF"/><rect width="2.5" height="2.5" x="25.0" y="70.0" style="fill:#FFFFFF"/><rect width="2.5" height="2.5" x="27.5" y="70.0" style="fill:#FFFFFF"/><rect width="2.5" height="2.5" x="30.0" y="70.0" style="fill:#FFFFFF"/><rect width="2.5" height="2.5" x="40.0" y="70.0" style="fill:#FFFFFF"/><rect width="2.5" height="2.5" x="47.5" y="70.0" style="fill:#FFFFFF"/><rect width="2.5" height="2.5" x="55.0" y="70.0" style="fill:#FFFFFF"/><rect width="2.5" height="2.5" x="60.0" y="70.0" style="fill:#FFFFFF"/><rect width="2.5" height="2.5" x="62.5" y="70.0" style="fill:#FFFFFF"/><rect width="2.5" height="2.5" x="65.0" y="70.0" style="fill:#FFFFFF"/><rect width="2.5" height="2.5" x="67.5" y="70.0" style="fill:#FFFFFF"/><rect width="2.5" height="2.5" x="70.0" y="70.0" style="fill:#FFFFFF"/><rect width="2.5" height="2.5" x="0.0" y="72.5" style="fill:#FFFFFF"/><rect width="2.5" height="2.5" x="5.0" y="72.5" style="fill:#FFFFFF"/><rect width="2.5" height="2.5" x="7.5" y="72.5" style="fill:#FFFFFF"/><rect width="2.5" height="2.5" x="10.0" y="72.5" style="fill:#FFFFFF"/><rect width="2.5" height="2.5" x="15.0" y="72.5" style="fill:#FFFFFF"/><rect width="2.5" height="2.5" x="22.5" y="72.5" style="fill:#FFFFFF"/><rect width="2.5" height="2.5" x="27.5" y="72.5" style="fill:#FFFFFF"/><rect width="2.5" height="2.5" x="35.0" y="72.5" style="fill:#FFFFFF"/><rect width="2.5" height="2.5" x="37.5" y="72.5" style="fill:#FFFFFF"/><rect width="2.5" height="2.5" x="40.0" y="72.5" style="fill:#FFFFFF"/><rect width="2.5" height="2.5" x="52.5" y="72.5" style="fill:#FFFFFF"/><rect width="2.5" height="2.5" x="57.5" y="72.5" style="fill:#FFFFFF"/><rect width="2.5" height="2.5" x="65.0" y="72.5" style="fill:#FFFFFF"/><rect width="2.5" height="2.5" x="67.5" y="72.5" style="fill:#FFFFFF"/><rect width="2.5" height="2.5" x="70.0" y="72.5" style="fill:#FFFFFF"/><rect width="2.5" height="2.5" x="75.0" y="72.5" style="fill:#FFFFFF"/><rect width="2.5" height="2.5" x="80.0" y="72.5" style="fill:#FFFFFF"/><rect width="2.5" height="2.5" x="0.0" y="75.0" style="fill:#FFFFFF"/><rect width="2.5" height="2.5" x="5.0" y="75.0" style="fill:#FFFFFF"/><rect width="2.5" height="2.5" x="7.5" y="75.0" style="fill:#FFFFFF"/><rect width="2.5" height="2.5" x="10.0" y="75.0" style="fill:#FFFFFF"/><rect width="2.5" height="2.5" x="15.0" y="75.0" style="fill:#FFFFFF"/><rect width="2.5" height="2.5" x="27.5" y="75.0" style="fill:#FFFFFF"/><rect width="2.5" height="2.5" x="35.0" y="75.0" style="fill:#FFFFFF"/><rect width="2.5" height="2.5" x="37.5" y="75.0" style="fill:#FFFFFF"/><rect width="2.5" height="2.5" x="40.0" y="75.0" style="fill:#FFFFFF"/><rect width="2.5" height="2.5" x="50.0" y="75.0" style="fill:#FFFFFF"/><rect width="2.5" height="2.5" x="52.5" y="75.0" style="fill:#FFFFFF"/><rect width="2.5" height="2.5" x="55.0" y="75.0" style="fill:#FFFFFF"/><rect width="2.5" height="2.5" x="57.5" y="75.0" style="fill:#FFFFFF"/><rect width="2.5" height="2.5" x="62.5" y="75.0" style="fill:#FFFFFF"/><rect width="2.5" height="2.5" x="65.0" y="75.0" style="fill:#FFFFFF"/><rect width="2.5" height="2.5" x="70.0" y="75.0" style="fill:#FFFFFF"/><rect width="2.5" height="2.5" x="75.0" y="75.0" style="fill:#FFFFFF"/><rect width="2.5" height="2.5" x="0.0" y="77.5" style="fill:#FFFFFF"/><rect width="2.5" height="2.5" x="15.0" y="77.5" style="fill:#FFFFFF"/><rect width="2.5" height="2.5" x="22.5" y="77.5" style="fill:#FFFFFF"/><rect width="2.5" height="2.5" x="25.0" y="77.5" style="fill:#FFFFFF"/><rect width="2.5" height="2.5" x="32.5" y="77.5" style="fill:#FFFFFF"/><rect width="2.5" height="2.5" x="35.0" y="77.5" style="fill:#FFFFFF"/><rect width="2.5" height="2.5" x="37.5" y="77.5" style="fill:#FFFFFF"/><rect width="2.5" height="2.5" x="50.0" y="77.5" style="fill:#FFFFFF"/><rect width="2.5" height="2.5" x="57.5" y="77.5" style="fill:#FFFFFF"/><rect width="2.5" height="2.5" x="60.0" y="77.5" style="fill:#FFFFFF"/><rect width="2.5" height="2.5" x="65.0" y="77.5" style="fill:#FFFFFF"/><rect width="2.5" height="2.5" x="67.5" y="77.5" style="fill:#FFFFFF"/><rect width="2.5" height="2.5" x="70.0" y="77.5" style="fill:#FFFFFF"/><rect width="2.5" height="2.5" x="0.0" y="80.0" style="fill:#FFFFFF"/><rect width="2.5" height="2.5" x="2.5" y="80.0" style="fill:#FFFFFF"/><rect width="2.5" height="2.5" x="5.0" y="80.0" style="fill:#FFFFFF"/><rect width="2.5" height="2.5" x="7.5" y="80.0" style="fill:#FFFFFF"/><rect width="2.5" height="2.5" x="10.0" y="80.0" style="fill:#FFFFFF"/><rect width="2.5" height="2.5" x="12.5" y="80.0" style="fill:#FFFFFF"/><rect width="2.5" height="2.5" x="15.0" y="80.0" style="fill:#FFFFFF"/><rect width="2.5" height="2.5" x="22.5" y="80.0" style="fill:#FFFFFF"/><rect width="2.5" height="2.5" x="25.0" y="80.0" style="fill:#FFFFFF"/><rect width="2.5" height="2.5" x="27.5" y="80.0" style="fill:#FFFFFF"/><rect width="2.5" height="2.5" x="30.0" y="80.0" style="fill:#FFFFFF"/><rect width="2.5" height="2.5" x="32.5" y="80.0" style="fill:#FFFFFF"/><rect width="2.5" height="2.5" x="37.5" y="80.0" style="fill:#FFFFFF"/><rect width="2.5" height="2.5" x="42.5" y="80.0" style="fill:#FFFFFF"/><rect width="2.5" height="2.5" x="47.5" y="80.0" style="fill:#FFFFFF"/><rect width="2.5" height="2.5" x="52.5" y="80.0" style="fill:#FFFFFF"/><rect width="2.5" height="2.5" x="57.5" y="80.0" style="fill:#FFFFFF"/><rect width="2.5" height="2.5" x="60.0" y="80.0" style="fill:#FFFFFF"/><rect width="2.5" height="2.5" x="62.5" y="80.0" style="fill:#FFFFFF"/><rect width="2.5" height="2.5" x="65.0" y="80.0" style="fill:#FFFFFF"/><rect width="2.5" height="2.5" x="67.5" y="80.0" style="fill:#FFFFFF"/><rect width="2.5" height="2.5" x="72.5" y="80.0" style="fill:#FFFFFF"/><rect width="2.5" height="2.5" x="75.0" y="80.0" style="fill:#FFFFFF"/><rect width="2.5" height="2.5" x="80.0" y="80.0" style="fill:#FFFFFF"/>
            </g>
        </g>
    </g>
</svg>
