<?xml version="1.0" encoding="UTF-8"?>
<svg width="500px" height="600px" viewBox="0 0 500 600" version="1.1" xmlns="http://www.w3.org/2000/svg" xmlns:xlink="http://www.w3.org/1999/xlink">
    <title>000044</title>
    <g id="Page-1" stroke="none" stroke-width="1" fill="none" fill-rule="evenodd">
        <g id="000044">
            <rect fill="#D3B1A7" x="0" y="0" width="500" height="600"></rect>
            <g id="bug" transform="translate(115.682436, 32.852595)" stroke="#000000">
                <g id="leg-3-right" transform="translate(189.005535, 290.884710)" fill="#527561">
                    <path d="M33.7993334,87.6118164 C36.9484298,90.0555013 39.4743852,92.9744466 41.3771994,96.3686523 C44.2314209,101.459961 46.230974,101.128224 46.230974,99.5244141 C46.230974,98.4552076 47.0692242,97.4032871 48.7457246,96.3686523 C48.7470296,95.2516798 48.3925034,94.6175652 47.6821459,94.4663086 C46.6166097,94.2394237 44.7700365,94.3224486 42.7470873,93.1953125 C40.7241381,92.0681764 36.1313646,87.5107422 36.1313646,86.0561523 C36.1313646,85.0864258 35.1167162,84.7648112 33.0874193,85.0913086 L33.7993334,87.6118164 Z" id="segment-5"></path>
                    <path d="M23.559099,78.7236328 C29.1144376,84.1223958 32.2824063,87.9829102 33.0630053,90.3051758 C34.2339037,93.7885742 34.5810717,94.1953125 36.0395678,94.1953125 C37.4980639,94.1953125 37.0136889,91.2133789 37.9389818,90.3051758 C38.8642748,89.3969727 39.5583803,88.7050781 41.6230639,88.7050781 C42.9428881,88.7050781 41.875017,85.3894043 38.6631029,85.3894043 C37.5926694,85.3894043 36.3031279,85.5906167 33.0630053,83.0107422 C27.6787279,78.7236328 24.3299946,76.9312387 23.559099,76.5834961 C23.0451686,76.3516677 23.0451686,77.0650466 23.559099,78.7236328 Z" id="segment-4"></path>
                    <path d="M7.6845873,61.8803711 C12.0582852,65.7556966 16.0654467,70.7200521 19.7060717,76.7734375 C21.2494265,79.3396236 22.4062406,81.2359465 22.9262865,81.6523438 C24.2463477,82.7093078 24.7004349,80.6655685 25.0854662,79.6030273 C25.61067,78.1536631 27.9895263,77.5118028 26.2324389,75.0170898 C25.5836093,74.0958815 23.4790199,74.5593815 21.6660326,72.7841797 C14.8381829,66.0986328 14.9263207,66.0986328 10.5856062,58.4130859 C7.69179655,53.289388 6.72479025,54.4451497 7.6845873,61.8803711 Z" id="segment-3"></path>
                    <path d="M24.8584154,16.4658203 C27.0408277,22.0208333 21.6515048,33.0071615 8.69044668,49.4248047 C4.86086857,52.8550234 3.74846509,54.5982308 2.68165761,56.1674805 C0.944125278,58.7233512 0.0172117753,62.4039358 3.38380605,64.0742188 C8.81741679,66.7700195 9.66891633,62.0142338 12.1831225,59.5405273 C13.7671982,57.9819684 13.3255722,55.6471909 14.8381829,53.2836914 C21.9714836,42.1376953 28.7348803,35.0776367 28.7348803,14.2490234 C26.1505704,11.7360026 24.8584154,12.4749349 24.8584154,16.4658203 Z" id="segment-2"></path>
                    <path d="M4.7080248,14.3110352 C12.89602,15.3390288 15.9023607,12.2958984 20.828142,16.2255859 C25.7539232,20.1552734 26.2993334,17.9277344 27.6801928,17.0766602 C29.0610521,16.2255859 31.3803881,14.3110352 27.6801928,10.1416016 C23.9799975,5.97216797 14.8381829,0 4.7080248,0 C-0.708501825,1.61865234 -0.708501825,3.97730017 1.03029043,7.96728516 C2.06533434,10.3423876 -3.4799704,13.2830415 4.7080248,14.3110352 Z" id="segment-1"></path>
                </g>
                <g id="leg-3-right" transform="translate(55.505535, 341.384710) scale(-1, 1) translate(-55.505535, -341.384710) translate(31.005535, 290.884710)" fill="#527561">
                    <path d="M33.7993334,87.6118164 C36.9484298,90.0555013 39.4743852,92.9744466 41.3771994,96.3686523 C44.2314209,101.459961 46.230974,101.128224 46.230974,99.5244141 C46.230974,98.4552076 47.0692242,97.4032871 48.7457246,96.3686523 C48.7470296,95.2516798 48.3925034,94.6175652 47.6821459,94.4663086 C46.6166097,94.2394237 44.7700365,94.3224486 42.7470873,93.1953125 C40.7241381,92.0681764 36.1313646,87.5107422 36.1313646,86.0561523 C36.1313646,85.0864258 35.1167162,84.7648112 33.0874193,85.0913086 L33.7993334,87.6118164 Z" id="segment-5"></path>
                    <path d="M23.559099,78.7236328 C29.1144376,84.1223958 32.2824063,87.9829102 33.0630053,90.3051758 C34.2339037,93.7885742 34.5810717,94.1953125 36.0395678,94.1953125 C37.4980639,94.1953125 37.0136889,91.2133789 37.9389818,90.3051758 C38.8642748,89.3969727 39.5583803,88.7050781 41.6230639,88.7050781 C42.9428881,88.7050781 41.875017,85.3894043 38.6631029,85.3894043 C37.5926694,85.3894043 36.3031279,85.5906167 33.0630053,83.0107422 C27.6787279,78.7236328 24.3299946,76.9312387 23.559099,76.5834961 C23.0451686,76.3516677 23.0451686,77.0650466 23.559099,78.7236328 Z" id="segment-4"></path>
                    <path d="M7.6845873,61.8803711 C12.0582852,65.7556966 16.0654467,70.7200521 19.7060717,76.7734375 C21.2494265,79.3396236 22.4062406,81.2359465 22.9262865,81.6523438 C24.2463477,82.7093078 24.7004349,80.6655685 25.0854662,79.6030273 C25.61067,78.1536631 27.9895263,77.5118028 26.2324389,75.0170898 C25.5836093,74.0958815 23.4790199,74.5593815 21.6660326,72.7841797 C14.8381829,66.0986328 14.9263207,66.0986328 10.5856062,58.4130859 C7.69179655,53.289388 6.72479025,54.4451497 7.6845873,61.8803711 Z" id="segment-3"></path>
                    <path d="M24.8584154,16.4658203 C27.0408277,22.0208333 21.6515048,33.0071615 8.69044668,49.4248047 C4.86086857,52.8550234 3.74846509,54.5982308 2.68165761,56.1674805 C0.944125278,58.7233512 0.0172117753,62.4039358 3.38380605,64.0742188 C8.81741679,66.7700195 9.66891633,62.0142338 12.1831225,59.5405273 C13.7671982,57.9819684 13.3255722,55.6471909 14.8381829,53.2836914 C21.9714836,42.1376953 28.7348803,35.0776367 28.7348803,14.2490234 C26.1505704,11.7360026 24.8584154,12.4749349 24.8584154,16.4658203 Z" id="segment-2"></path>
                    <path d="M4.7080248,14.3110352 C12.89602,15.3390288 15.9023607,12.2958984 20.828142,16.2255859 C25.7539232,20.1552734 26.2993334,17.9277344 27.6801928,17.0766602 C29.0610521,16.2255859 31.3803881,14.3110352 27.6801928,10.1416016 C23.9799975,5.97216797 14.8381829,0 4.7080248,0 C-0.708501825,1.61865234 -0.708501825,3.97730017 1.03029043,7.96728516 C2.06533434,10.3423876 -3.4799704,13.2830415 4.7080248,14.3110352 Z" id="segment-1"></path>
                </g>
                <g id="leg-2-right" transform="translate(177.000000, 231.088420)" fill="#527561">
                    <path d="M75.9223,60.7267103 C81.7325214,62.6061048 84.7951028,64.0810397 85.1100442,65.151515 C85.5824563,66.7572279 87.8462793,66.8544885 88.5931985,66.4007825 C89.2224479,66.0185535 89.1995656,65.0394251 89.6215188,64.4913587 C90.2113275,63.7252682 90.9895207,62.9178904 89.6215188,62.4110807 C88.3293638,62.8625697 87.2640155,62.9781963 86.4254739,62.7579603 C82.5730976,61.5367689 79.3110533,60.2552747 76.6393411,58.9134779 C73.9676288,57.571681 73.1478046,57.8036146 74.1798684,59.6092786 L75.9223,60.7267103 Z" id="segment-5"></path>
                    <path d="M61.3600442,54.9872083 C68.1966327,57.8097995 71.9710468,59.9849297 72.6832864,61.5125989 C73.3603136,62.964742 74.8420798,63.3399781 76.3356725,62.936162 C77.1989919,62.7027501 77.1990751,61.1626689 77.9171731,60.4662122 C78.7737568,59.6354433 80.2261712,59.4828512 80.4605775,58.39603 C80.7626529,56.9954613 78.9503802,56.0418958 77.9171731,56.0418958 C76.6459483,56.0418958 75.8787498,56.3576503 74.1266457,56.0418958 C73.3496593,55.9018716 70.9530518,55.2789591 69.4450051,54.9872083 C64.5363137,54.0375596 61.3600442,54.0799818 61.3600442,54.0799818 C61.3600442,54.0799818 61.3600442,54.3823906 61.3600442,54.9872083 Z" id="segment-4"></path>
                    <path d="M45.3517434,49.3114271 C48.3393736,51.513901 50.4985533,52.615138 51.8292825,52.615138 C53.8253762,52.615138 57.6871926,53.0082044 59.6036965,55.8246107 C61.5202004,58.6410169 66.1857278,54.11172 63.4684426,52.8089857 C60.7511575,51.5062513 59.9249503,48.9925794 47.2492043,46.6629896 C44.3491392,46.6629896 43.7166523,47.5458021 45.3517434,49.3114271 Z" id="segment-3"></path>
                    <path d="M32.3912942,19.8822279 C41.2374631,38.6720156 38.1207864,40.3958997 39.3556496,44.1385755 C40.5905129,47.8812513 42.8446795,50.7650404 45.0255715,50.7650404 C47.2064635,50.7650404 51.4719596,47.0432516 49.5538918,45.4325208 C45.7500575,42.2381849 45.7500575,37.8142661 44.2141103,33.7472653 C35.6100442,10.9647474 24.1283532,0.652094992 20.3746926,2.8080091 C18.8558777,3.6803401 18.7953281,4.32015771 19.9044941,4.78221072 C23.864919,6.43203254 26.5722209,7.52217096 32.3912942,19.8822279 Z" id="segment-2"></path>
                    <path d="M1.92547387,2.22548957 C1.92547387,0.617896527 8.56219262,-0.118757118 21.8356301,0.0155286316 C24.172224,0.365463527 25.0796133,2.16217577 24.5577981,5.40566535 C24.3680299,6.58522263 24.4549373,8.94722969 23.1768873,8.94722969 C20.9204349,8.94722969 16.3851935,8.39980598 13.6671731,8.39980598 C10.0792825,8.39980598 6.25779007,9.66235511 1.92547387,7.61074348 C-2.40684233,5.55913184 1.92547387,4.63687913 1.92547387,2.22548957 Z" id="segment-1"></path>
                </g>
                <g id="leg-2-right" transform="translate(45.500000, 264.588420) scale(-1, 1) translate(-45.500000, -264.588420) translate(0.000000, 231.088420)" fill="#527561">
                    <path d="M75.9223,60.7267103 C81.7325214,62.6061048 84.7951028,64.0810397 85.1100442,65.151515 C85.5824563,66.7572279 87.8462793,66.8544885 88.5931985,66.4007825 C89.2224479,66.0185535 89.1995656,65.0394251 89.6215188,64.4913587 C90.2113275,63.7252682 90.9895207,62.9178904 89.6215188,62.4110807 C88.3293638,62.8625697 87.2640155,62.9781963 86.4254739,62.7579603 C82.5730976,61.5367689 79.3110533,60.2552747 76.6393411,58.9134779 C73.9676288,57.571681 73.1478046,57.8036146 74.1798684,59.6092786 L75.9223,60.7267103 Z" id="segment-5"></path>
                    <path d="M61.3600442,54.9872083 C68.1966327,57.8097995 71.9710468,59.9849297 72.6832864,61.5125989 C73.3603136,62.964742 74.8420798,63.3399781 76.3356725,62.936162 C77.1989919,62.7027501 77.1990751,61.1626689 77.9171731,60.4662122 C78.7737568,59.6354433 80.2261712,59.4828512 80.4605775,58.39603 C80.7626529,56.9954613 78.9503802,56.0418958 77.9171731,56.0418958 C76.6459483,56.0418958 75.8787498,56.3576503 74.1266457,56.0418958 C73.3496593,55.9018716 70.9530518,55.2789591 69.4450051,54.9872083 C64.5363137,54.0375596 61.3600442,54.0799818 61.3600442,54.0799818 C61.3600442,54.0799818 61.3600442,54.3823906 61.3600442,54.9872083 Z" id="segment-4"></path>
                    <path d="M45.3517434,49.3114271 C48.3393736,51.513901 50.4985533,52.615138 51.8292825,52.615138 C53.8253762,52.615138 57.6871926,53.0082044 59.6036965,55.8246107 C61.5202004,58.6410169 66.1857278,54.11172 63.4684426,52.8089857 C60.7511575,51.5062513 59.9249503,48.9925794 47.2492043,46.6629896 C44.3491392,46.6629896 43.7166523,47.5458021 45.3517434,49.3114271 Z" id="segment-3"></path>
                    <path d="M32.3912942,19.8822279 C41.2374631,38.6720156 38.1207864,40.3958997 39.3556496,44.1385755 C40.5905129,47.8812513 42.8446795,50.7650404 45.0255715,50.7650404 C47.2064635,50.7650404 51.4719596,47.0432516 49.5538918,45.4325208 C45.7500575,42.2381849 45.7500575,37.8142661 44.2141103,33.7472653 C35.6100442,10.9647474 24.1283532,0.652094992 20.3746926,2.8080091 C18.8558777,3.6803401 18.7953281,4.32015771 19.9044941,4.78221072 C23.864919,6.43203254 26.5722209,7.52217096 32.3912942,19.8822279 Z" id="segment-2"></path>
                    <path d="M1.92547387,2.22548957 C1.92547387,0.617896527 8.56219262,-0.118757118 21.8356301,0.0155286316 C24.172224,0.365463527 25.0796133,2.16217577 24.5577981,5.40566535 C24.3680299,6.58522263 24.4549373,8.94722969 23.1768873,8.94722969 C20.9204349,8.94722969 16.3851935,8.39980598 13.6671731,8.39980598 C10.0792825,8.39980598 6.25779007,9.66235511 1.92547387,7.61074348 C-2.40684233,5.55913184 1.92547387,4.63687913 1.92547387,2.22548957 Z" id="segment-1"></path>
                </g>
                <g id="leg-1-right" transform="translate(163.451460, 130.455067)" fill="#527561">
                    <path d="M50.9945216,9.02827543 C57.7777248,4.78901761 61.4137925,2.34256579 61.9027248,1.68891996 C62.4720607,-0.437056604 63.6678615,-0.437056604 63.9840236,1.02583402 C64.3680916,2.802927 65.1493621,2.65967659 64.7794338,3.50972074 C64.4714132,4.21750947 61.9775129,4.59012785 59.0437083,6.44429105 C53.015388,10.2541869 50.3323258,11.7981293 50.9945216,11.0761181 L50.9945216,9.02827543 Z" id="segment-4"></path>
                    <path d="M32.9408107,22.3969278 C42.1986232,15.4994668 49.1309963,10.0788757 51.5399318,5.62433071 C53.9488673,1.16978575 53.5658348,6.2324044 55.238174,8.04390043 C57.1407859,10.1048304 58.2896254,10.0559674 57.8862833,11.8354043 C51.4966348,13.5068121 48.8624889,15.3017129 45.8592503,17.2699746 C42.8560116,19.2382364 39.8688199,21.5380411 35.309463,24.9457559 C33.9044076,25.4764095 31.9600447,23.6121996 32.9408107,22.3969278 Z" id="segment-3" stroke-linejoin="round"></path>
                    <path d="M32.9481349,56.6522989 C31.2023899,55.3236856 35.4710841,54.6815957 34.3128315,46.2138223 C33.1545789,37.7460489 32.1126857,34.6029825 30.2713771,29.7939004 C28.787745,25.9189886 28.6061924,23.0771034 30.126405,21.484259 C30.4929004,21.1002535 32.3835558,20.1924325 32.9481349,20.5530532 C34.6081517,21.6133768 37.3024207,22.2126376 38.1161037,24.3017129 C38.4426883,25.1401967 39.3552885,29.2174246 39.5565334,30.5868692 C40.2591781,35.3682737 39.5565334,38.4025358 39.5565334,44.2655801 C39.5565334,50.1286244 39.4027805,51.6697922 38.1161037,54.6815957 C36.8294269,57.6933993 34.69388,57.9809121 32.9481349,56.6522989 Z" id="segment-2"></path>
                    <path d="M2.15272477,57.716752 C5.95477377,53.6903848 7.28538143,56.1239786 20.1981349,56.1239786 C24.6214748,56.1239786 30.1087306,53.8639574 31.2796779,53.6991739 C34.448815,53.2531917 36.1729797,54.3834008 37.0423732,55.3988809 C37.8348868,56.3245627 37.4228526,58.5127551 35.1751857,60.1503457 C31.9061427,62.532084 32.3395307,62.6277669 23.9525295,65.7353067 C15.5655282,68.8428465 12.276645,70.1650051 5.07459977,69.7216348 C-0.255238885,69.3935207 -1.64932424,61.7431192 2.15272477,57.716752 Z" id="segment-1"></path>
                </g>
                <g id="leg-1-left" transform="translate(69.951460, 165.455067) scale(-1, 1) translate(-69.951460, -165.455067) translate(37.451460, 130.455067)" fill="#527561">
                    <path d="M50.9945216,9.02827543 C57.7777248,4.78901761 61.4137925,2.34256579 61.9027248,1.68891996 C62.4720607,-0.437056604 63.6678615,-0.437056604 63.9840236,1.02583402 C64.3680916,2.802927 65.1493621,2.65967659 64.7794338,3.50972074 C64.4714132,4.21750947 61.9775129,4.59012785 59.0437083,6.44429105 C53.015388,10.2541869 50.3323258,11.7981293 50.9945216,11.0761181 L50.9945216,9.02827543 Z" id="segment-4"></path>
                    <path d="M32.9408107,22.3969278 C42.1986232,15.4994668 49.1309963,10.0788757 51.5399318,5.62433071 C53.9488673,1.16978575 53.5658348,6.2324044 55.238174,8.04390043 C57.1407859,10.1048304 58.2896254,10.0559674 57.8862833,11.8354043 C51.4966348,13.5068121 48.8624889,15.3017129 45.8592503,17.2699746 C42.8560116,19.2382364 39.8688199,21.5380411 35.309463,24.9457559 C33.9044076,25.4764095 31.9600447,23.6121996 32.9408107,22.3969278 Z" id="segment-3" stroke-linejoin="round"></path>
                    <path d="M32.9481349,56.6522989 C31.2023899,55.3236856 35.4710841,54.6815957 34.3128315,46.2138223 C33.1545789,37.7460489 32.1126857,34.6029825 30.2713771,29.7939004 C28.787745,25.9189886 28.6061924,23.0771034 30.126405,21.484259 C30.4929004,21.1002535 32.3835558,20.1924325 32.9481349,20.5530532 C34.6081517,21.6133768 37.3024207,22.2126376 38.1161037,24.3017129 C38.4426883,25.1401967 39.3552885,29.2174246 39.5565334,30.5868692 C40.2591781,35.3682737 39.5565334,38.4025358 39.5565334,44.2655801 C39.5565334,50.1286244 39.4027805,51.6697922 38.1161037,54.6815957 C36.8294269,57.6933993 34.69388,57.9809121 32.9481349,56.6522989 Z" id="segment-2"></path>
                    <path d="M2.15272477,57.716752 C5.95477377,53.6903848 7.28538143,56.1239786 20.1981349,56.1239786 C24.6214748,56.1239786 30.1087306,53.8639574 31.2796779,53.6991739 C34.448815,53.2531917 36.1729797,54.3834008 37.0423732,55.3988809 C37.8348868,56.3245627 37.4228526,58.5127551 35.1751857,60.1503457 C31.9061427,62.532084 32.3395307,62.6277669 23.9525295,65.7353067 C15.5655282,68.8428465 12.276645,70.1650051 5.07459977,69.7216348 C-0.255238885,69.3935207 -1.64932424,61.7431192 2.15272477,57.716752 Z" id="segment-1"></path>
                </g>
                <path d="M121.820005,118.00971 C113.821633,133.449814 109.822447,146.118759 109.822447,156.016546 C109.822447,170.863226 127.113462,173.899358 133.817564,173.899358 C140.521665,173.899358 157.817564,170.863226 157.817564,156.016546 C157.817564,146.118759 153.818378,133.449814 145.820005,118.00971 C141.581398,120.373642 137.582212,121.938177 133.817564,121.938177 C130.052915,121.938177 126.058612,120.373642 121.820005,118.00971 Z" id="head" fill="#DFBA47"></path>
                <path d="M134.59081,225.147405 C128.342457,225.147405 111.357845,222.428003 103.300221,216.147017 C95.2425961,209.866031 94.4662556,196.120965 95.8982664,188.06148 C97.6474631,178.216845 102.423493,170.041648 110.332786,166.614949 C116.781956,163.820847 126.390867,164.160385 134.090474,164.160385 C141.79008,164.160385 150.99951,163.820847 157.448681,166.614949 C165.357973,170.041648 170.134004,178.216845 171.8832,188.06148 C173.315211,196.120965 171.379063,208.787013 163.483124,216.147017 C155.587185,223.507021 140.839164,225.147405 134.59081,225.147405 Z" id="mid-body" fill="#DFBA47"></path>
                <path d="M69.3175637,221.034124 C96.1235533,213.109645 112.662616,217.165634 118.934751,233.202093 C128.342954,257.25678 159.176939,379.432561 94.79022,409.166936 C91.9932907,410.136025 89.3802002,410.952841 86.9509485,411.617387 C81.7857156,413.030386 75.9079207,413.600939 69.3175637,413.329046 L69.3175637,221.034124 Z" id="bottom-body-left" fill="#8DBFA3" transform="translate(101.954352, 315.248875) scale(-1, 1) translate(-101.954352, -315.248875) "></path>
                <path d="M134.317564,221.034124 C161.123553,213.109645 177.662616,217.165634 183.934751,233.202093 C193.342954,257.25678 224.176939,379.432561 159.79022,409.166936 C156.993291,410.136025 154.3802,410.952841 151.950948,411.617387 C146.785716,413.030386 140.907921,413.600939 134.317564,413.329046 L134.317564,221.034124 Z" id="bottom-body-right" fill="#CB664F"></path>
                <path d="M110.822447,150.687933 C106.440122,149.16303 104.368345,142.998479 107.231626,138.011663 C110.094907,133.024847 115.888853,130.832952 117.861997,132.733343 C119.835142,134.633733 121.094419,141.367167 119.835142,144.670354 C118.575864,147.973542 115.204771,152.212835 110.822447,150.687933 Z" id="eye-left" fill="#8DBFA3"></path>
                <path d="M152.822447,150.687933 C148.440122,149.16303 146.368345,142.998479 149.231626,138.011663 C152.094907,133.024847 157.888853,130.832952 159.861997,132.733343 C161.835142,134.633733 163.094419,141.367167 161.835142,144.670354 C160.575864,147.973542 157.204771,152.212835 152.822447,150.687933 Z" id="eye-right" fill="#8DBFA3" transform="translate(155.126510, 141.531185) scale(-1, 1) translate(-155.126510, -141.531185) "></path>
                <g id="antenna-right" transform="translate(140.559612, 0.000000)" fill="#CB664F">
                    <path d="M97.1739676,12.421331 C101.596448,7.51542749 104.459149,4.68551212 105.762072,3.93158492 C107.635393,2.84760054 109.23024,1.43774226 111.615374,0.540959919 C114.5701,-0.569982593 116.543757,-0.102238947 112.972307,3.19086226 C108.669362,7.15844898 103.669687,10.7525245 97.973284,13.9730888 L97.1739676,12.421331 Z" id="segment-9"></path>
                    <path d="M81.7523367,23.402288 C87.2352469,17.8244886 91.9626232,13.6618095 95.9344656,10.9142509 C97.9471245,9.66595992 97.9937553,10.5614539 99.7254812,12.5040947 C101.457207,14.4467354 99.4851713,15.0169862 98.2220633,15.8405205 C92.2734658,20.0239515 86.783557,22.9989677 81.7523367,24.7655693 L81.7523367,23.402288 Z" id="segment-8"></path>
                    <path d="M68.0438406,38.2284599 C69.5901487,35.3484484 72.1781207,31.4369087 75.8077566,26.4938408 C76.3905244,25.7001907 79.8460867,21.1063896 82.167864,21.1063896 C83.7767508,22.5136162 83.936907,23.5692802 85.0555594,24.4928642 C85.6135021,26.0503186 79.8342052,31.0590263 67.7176687,39.5189873 L68.0438406,38.2284599 Z" id="segment-7"></path>
                    <path d="M55.3265555,51.1652275 C57.4374574,47.442117 60.3077263,43.1090279 63.9373622,38.1659599 C64.52013,37.3723099 67.8835846,33.8161008 68.6754324,34.1293388 C70.4291169,34.8230588 69.7884695,35.6381279 72.1183035,37.0187431 C72.6762462,38.5761975 67.2357351,43.8871513 55.7967703,52.9516045 L55.3265555,51.1652275 Z" id="segment-6"></path>
                    <path d="M44.3849051,62.7211357 C47.94202,55.4527471 51.6439243,50.3694951 55.490618,47.4713798 C56.8402273,46.0883232 56.8402273,51.8312431 60.032366,51.216497 C60.790504,52.4575452 55.8608979,56.5690361 45.2435476,63.5509697 L44.3849051,62.7211357 Z" id="segment-5"></path>
                    <path d="M34.3399832,77.2763115 C34.2743642,77.0612272 33.7488132,77.1266563 33.865618,76.5985962 C34.6751719,72.9387028 40.5011797,61.7040357 44.433489,60.1330009 C45.8822498,61.506726 46.6114417,62.1960372 48.5006277,62.756292 C48.961598,64.2672495 46.3709969,65.0518541 41.653147,70.0891212 C36.9352972,75.1263883 34.7736543,78.6977884 34.3399832,77.2763115 Z" id="segment-4"></path>
                    <path d="M23.3082449,92.4430595 C25.6166759,86.7663017 28.8237885,80.8611097 32.9295828,74.7274834 C34.0366184,75.2126773 35.2292599,74.8251074 35.8819754,75.0656181 C36.7182469,75.3737651 36.9310445,76.2618757 37.7474539,76.5228935 C37.2366066,78.1705883 34.9076749,81.0972716 32.9295828,83.9503837 C30.4239217,87.5644379 27.054475,91.2618589 24.6280691,92.4430595 C24.3453949,92.5806684 23.9054535,92.5806684 23.3082449,92.4430595 Z" id="segment-3"></path>
                    <path d="M25.2901785,89.9054619 C24.4755626,89.4941663 23.7213308,88.8326266 23.0274832,87.9208427 C23.0694754,89.2558037 22.8574799,90.1941175 22.3914969,90.7357841 C21.6925222,91.5482841 14.0764199,101.862249 14.5668984,104.406438 C15.0573769,106.950628 16.4825613,105.040028 17.7457449,103.975042 C19.0089285,102.910056 27.2113211,93.5934502 28.3468191,91.1981865 C27.0355398,90.7357841 26.3602469,90.3720146 25.2901785,89.9054619 Z" id="segment-2" stroke-linejoin="round"></path>
                    <path d="M13.9762094,102.917758 C13.1527273,102.361028 12.7928807,103.629345 12.334368,104.53095 C10.9986746,107.157415 6.70204373,116.252874 2.62953397,118.00971 C-0.336424014,119.289192 -0.455074994,124.522892 0.61928006,125.984808 C1.02010486,126.530225 1.58636059,126.596624 1.96913358,126.596624 C4.11024686,126.596624 7.41224881,124.429388 7.7523367,121.830511 C8.09242459,119.231634 5.10746773,117.441106 15.1323701,109.365423 C15.4335316,108.950165 19.2047293,106.743622 18.5382254,104.766146 C18.4407639,104.476984 17.0229106,104.901582 15.8683035,104.53095 C14.9744462,104.244019 14.3355398,103.16069 13.9762094,102.917758 Z" id="segment-1"></path>
                </g>
                <g id="antenna-left" transform="translate(68.059612, 63.500000) scale(-1, 1) translate(-68.059612, -63.500000) translate(10.559612, 0.000000)" fill="#CB664F">
                    <path d="M97.1739676,12.421331 C101.596448,7.51542749 104.459149,4.68551212 105.762072,3.93158492 C107.635393,2.84760054 109.23024,1.43774226 111.615374,0.540959919 C114.5701,-0.569982593 116.543757,-0.102238947 112.972307,3.19086226 C108.669362,7.15844898 103.669687,10.7525245 97.973284,13.9730888 L97.1739676,12.421331 Z" id="segment-9"></path>
                    <path d="M81.7523367,23.402288 C87.2352469,17.8244886 91.9626232,13.6618095 95.9344656,10.9142509 C97.9471245,9.66595992 97.9937553,10.5614539 99.7254812,12.5040947 C101.457207,14.4467354 99.4851713,15.0169862 98.2220633,15.8405205 C92.2734658,20.0239515 86.783557,22.9989677 81.7523367,24.7655693 L81.7523367,23.402288 Z" id="segment-8"></path>
                    <path d="M68.0438406,38.2284599 C69.5901487,35.3484484 72.1781207,31.4369087 75.8077566,26.4938408 C76.3905244,25.7001907 79.8460867,21.1063896 82.167864,21.1063896 C83.7767508,22.5136162 83.936907,23.5692802 85.0555594,24.4928642 C85.6135021,26.0503186 79.8342052,31.0590263 67.7176687,39.5189873 L68.0438406,38.2284599 Z" id="segment-7"></path>
                    <path d="M55.3265555,51.1652275 C57.4374574,47.442117 60.3077263,43.1090279 63.9373622,38.1659599 C64.52013,37.3723099 67.8835846,33.8161008 68.6754324,34.1293388 C70.4291169,34.8230588 69.7884695,35.6381279 72.1183035,37.0187431 C72.6762462,38.5761975 67.2357351,43.8871513 55.7967703,52.9516045 L55.3265555,51.1652275 Z" id="segment-6"></path>
                    <path d="M44.3849051,62.7211357 C47.94202,55.4527471 51.6439243,50.3694951 55.490618,47.4713798 C56.8402273,46.0883232 56.8402273,51.8312431 60.032366,51.216497 C60.790504,52.4575452 55.8608979,56.5690361 45.2435476,63.5509697 L44.3849051,62.7211357 Z" id="segment-5"></path>
                    <path d="M34.3399832,77.2763115 C34.2743642,77.0612272 33.7488132,77.1266563 33.865618,76.5985962 C34.6751719,72.9387028 40.5011797,61.7040357 44.433489,60.1330009 C45.8822498,61.506726 46.6114417,62.1960372 48.5006277,62.756292 C48.961598,64.2672495 46.3709969,65.0518541 41.653147,70.0891212 C36.9352972,75.1263883 34.7736543,78.6977884 34.3399832,77.2763115 Z" id="segment-4"></path>
                    <path d="M23.3082449,92.4430595 C25.6166759,86.7663017 28.8237885,80.8611097 32.9295828,74.7274834 C34.0366184,75.2126773 35.2292599,74.8251074 35.8819754,75.0656181 C36.7182469,75.3737651 36.9310445,76.2618757 37.7474539,76.5228935 C37.2366066,78.1705883 34.9076749,81.0972716 32.9295828,83.9503837 C30.4239217,87.5644379 27.054475,91.2618589 24.6280691,92.4430595 C24.3453949,92.5806684 23.9054535,92.5806684 23.3082449,92.4430595 Z" id="segment-3"></path>
                    <path d="M25.2901785,89.9054619 C24.4755626,89.4941663 23.7213308,88.8326266 23.0274832,87.9208427 C23.0694754,89.2558037 22.8574799,90.1941175 22.3914969,90.7357841 C21.6925222,91.5482841 14.0764199,101.862249 14.5668984,104.406438 C15.0573769,106.950628 16.4825613,105.040028 17.7457449,103.975042 C19.0089285,102.910056 27.2113211,93.5934502 28.3468191,91.1981865 C27.0355398,90.7357841 26.3602469,90.3720146 25.2901785,89.9054619 Z" id="segment-2" stroke-linejoin="round"></path>
                    <path d="M13.9762094,102.917758 C13.1527273,102.361028 12.7928807,103.629345 12.334368,104.53095 C10.9986746,107.157415 6.70204373,116.252874 2.62953397,118.00971 C-0.336424014,119.289192 -0.455074994,124.522892 0.61928006,125.984808 C1.02010486,126.530225 1.58636059,126.596624 1.96913358,126.596624 C4.11024686,126.596624 7.41224881,124.429388 7.7523367,121.830511 C8.09242459,119.231634 5.10746773,117.441106 15.1323701,109.365423 C15.4335316,108.950165 19.2047293,106.743622 18.5382254,104.766146 C18.4407639,104.476984 17.0229106,104.901582 15.8683035,104.53095 C14.9744462,104.244019 14.3355398,103.16069 13.9762094,102.917758 Z" id="segment-1"></path>
                </g>
            </g>
            <g id="hello" transform="translate(0.000000, 500.000000)">
                <rect id="Rectangle" fill="#FFFFFF" x="0" y="0" width="500" height="100"></rect>
                <path d="M184.175,61.375 L184.175,35.275 L196.82,35.275 L196.82,61.375 L202.04,61.375 L202.04,31 L179,31 L179,61.375 L184.175,61.375 Z M213.515,68.665 L213.515,58.855 L213.605,58.855 C214.775,60.7 217.115,61.915 219.86,61.915 C224.9,61.915 229.85,58.045 229.85,50.125 C229.85,43.33 225.755,39.01 220.625,39.01 C217.25,39.01 214.73,40.405 213.065,42.925 L212.975,42.925 L212.705,39.46 L208.16,39.46 C208.25,41.53 208.34,43.87 208.34,46.75 L208.34,68.665 L213.515,68.665 Z M218.78,57.865 C216.305,57.865 214.235,56.155 213.65,53.815 C213.56,53.32 213.515,52.825 213.515,52.285 L213.515,48.82 C213.515,48.325 213.605,47.83 213.695,47.38 C214.325,44.815 216.53,43.105 218.96,43.105 C222.605,43.105 224.63,46.39 224.63,50.35 C224.63,54.85 222.47,57.865 218.78,57.865 Z M240.605,61.375 C242.585,57.73 244.7,53.725 246.5,50.44 C247.58,48.28 248.345,46.705 249.515,44.05 L249.65,44.05 C249.47,48.055 249.38,49.72 249.38,53.23 L249.38,61.375 L254.33,61.375 L254.33,39.46 L248.03,39.46 L242.405,49.99 C241.1,52.33 240.47,53.905 239.255,56.515 L239.075,56.515 C239.255,53.41 239.39,51.115 239.39,47.605 L239.39,39.46 L234.44,39.46 L234.44,61.375 L240.605,61.375 Z M279.215,55.075 C279.215,51.97 276.92,50.215 273.725,49.72 L273.725,49.63 C276.02,49.135 278.18,47.515 278.18,44.725 C278.18,39.73 271.7,39.235 268.055,39.235 C265.085,39.235 261.845,39.415 260.225,39.73 L260.225,61.375 C261.485,61.42 264.365,61.645 267.065,61.645 C271.385,61.645 279.215,61.015 279.215,55.075 Z M267.74,48.415 L265.355,48.415 L265.355,42.79 C266.165,42.7 266.885,42.61 268.1,42.61 C271.52,42.61 273.095,43.555 273.095,45.4 C273.095,47.65 270.575,48.415 267.74,48.415 Z M268.1,58.36 C266.93,58.36 266.21,58.315 265.31,58.225 L265.31,51.565 L267.74,51.565 C271.25,51.565 273.86,52.33 273.86,54.94 C273.86,57.73 270.575,58.36 268.1,58.36 Z M293.525,61.87 C296.765,61.87 299.375,61.285 301.13,60.475 C300.86,59.26 300.635,58.09 300.32,56.92 C298.7,57.46 296.9,57.91 294.245,57.91 C290.645,57.91 287.495,56.065 287.36,51.835 L302.21,51.835 C302.3,51.385 302.345,50.575 302.345,49.585 C302.345,44.95 300.14,39.01 293.03,39.01 C286.1,39.01 282.365,44.635 282.365,50.8 C282.365,57.46 286.55,61.87 293.525,61.87 Z M297.395,48.19 L287.36,48.19 C287.63,45.805 289.115,42.61 292.67,42.61 C296.45,42.61 297.395,45.895 297.395,48.055 L297.395,48.19 Z M316.205,61.375 L316.205,43.51 L322.82,43.51 L322.82,39.46 L304.415,39.46 L304.415,43.51 L311.03,43.51 L311.03,61.375 L316.205,61.375 Z" id="Привет" fill="#414141" fill-rule="nonzero"></path>
            </g>
            <g id="identifier" transform="translate(20.000000, 454.000000)" fill="#000000" font-family="Arial-BoldMT, Arial" font-size="10" font-weight="bold" opacity="0.451421693">
                <text id="ID">
                    <tspan x="0" y="24">ID</tspan>
                </text>
                <text id="BATCH-1">
                    <tspan x="0" y="9">BATCH 1</tspan>
                </text>
            </g>
            <g id="qrcode" opacity="0.448946221" transform="translate(20.000000, 20.000000)" fill="#000000">
                <rect id="Rectangle" x="0" y="0" width="80" height="80"></rect>
            </g>
        </g>
    </g>
</svg>