<?xml version="1.0" encoding="UTF-8"?>
<svg width="500px" height="600px" viewBox="0 0 500 600" version="1.1" xmlns="http://www.w3.org/2000/svg" xmlns:xlink="http://www.w3.org/1999/xlink">
    <title>000015</title>
    <g id="Page-1" stroke="none" stroke-width="1" fill="none" fill-rule="evenodd">
        <g id="000015">
            <rect fill="#071D21" x="0" y="0" width="500" height="600"></rect>
            <g id="bug" transform="translate(115.682436, 32.852595)" stroke="#000000">
                <g id="leg-3-right" transform="translate(189.005535, 290.884710)" fill="#ECBA90">
                    <path d="M33.7993334,87.6118164 C36.9484298,90.0555013 39.4743852,92.9744466 41.3771994,96.3686523 C44.2314209,101.459961 46.230974,101.128224 46.230974,99.5244141 C46.230974,98.4552076 47.0692242,97.4032871 48.7457246,96.3686523 C48.7470296,95.2516798 48.3925034,94.6175652 47.6821459,94.4663086 C46.6166097,94.2394237 44.7700365,94.3224486 42.7470873,93.1953125 C40.7241381,92.0681764 36.1313646,87.5107422 36.1313646,86.0561523 C36.1313646,85.0864258 35.1167162,84.7648112 33.0874193,85.0913086 L33.7993334,87.6118164 Z" id="segment-5"></path>
                    <path d="M23.559099,78.7236328 C29.1144376,84.1223958 32.2824063,87.9829102 33.0630053,90.3051758 C34.2339037,93.7885742 34.5810717,94.1953125 36.0395678,94.1953125 C37.4980639,94.1953125 37.0136889,91.2133789 37.9389818,90.3051758 C38.8642748,89.3969727 39.5583803,88.7050781 41.6230639,88.7050781 C42.9428881,88.7050781 41.875017,85.3894043 38.6631029,85.3894043 C37.5926694,85.3894043 36.3031279,85.5906167 33.0630053,83.0107422 C27.6787279,78.7236328 24.3299946,76.9312387 23.559099,76.5834961 C23.0451686,76.3516677 23.0451686,77.0650466 23.559099,78.7236328 Z" id="segment-4"></path>
                    <path d="M7.6845873,61.8803711 C12.0582852,65.7556966 16.0654467,70.7200521 19.7060717,76.7734375 C21.2494265,79.3396236 22.4062406,81.2359465 22.9262865,81.6523438 C24.2463477,82.7093078 24.7004349,80.6655685 25.0854662,79.6030273 C25.61067,78.1536631 27.9895263,77.5118028 26.2324389,75.0170898 C25.5836093,74.0958815 23.4790199,74.5593815 21.6660326,72.7841797 C14.8381829,66.0986328 14.9263207,66.0986328 10.5856062,58.4130859 C7.69179655,53.289388 6.72479025,54.4451497 7.6845873,61.8803711 Z" id="segment-3"></path>
                    <path d="M24.8584154,16.4658203 C27.0408277,22.0208333 21.6515048,33.0071615 8.69044668,49.4248047 C4.86086857,52.8550234 3.74846509,54.5982308 2.68165761,56.1674805 C0.944125278,58.7233512 0.0172117753,62.4039358 3.38380605,64.0742188 C8.81741679,66.7700195 9.66891633,62.0142338 12.1831225,59.5405273 C13.7671982,57.9819684 13.3255722,55.6471909 14.8381829,53.2836914 C21.9714836,42.1376953 28.7348803,35.0776367 28.7348803,14.2490234 C26.1505704,11.7360026 24.8584154,12.4749349 24.8584154,16.4658203 Z" id="segment-2"></path>
                    <path d="M4.7080248,14.3110352 C12.89602,15.3390288 15.9023607,12.2958984 20.828142,16.2255859 C25.7539232,20.1552734 26.2993334,17.9277344 27.6801928,17.0766602 C29.0610521,16.2255859 31.3803881,14.3110352 27.6801928,10.1416016 C23.9799975,5.97216797 14.8381829,0 4.7080248,0 C-0.708501825,1.61865234 -0.708501825,3.97730017 1.03029043,7.96728516 C2.06533434,10.3423876 -3.4799704,13.2830415 4.7080248,14.3110352 Z" id="segment-1"></path>
                </g>
                <g id="leg-3-right" transform="translate(55.505535, 341.384710) scale(-1, 1) translate(-55.505535, -341.384710) translate(31.005535, 290.884710)" fill="#ECBA90">
                    <path d="M33.7993334,87.6118164 C36.9484298,90.0555013 39.4743852,92.9744466 41.3771994,96.3686523 C44.2314209,101.459961 46.230974,101.128224 46.230974,99.5244141 C46.230974,98.4552076 47.0692242,97.4032871 48.7457246,96.3686523 C48.7470296,95.2516798 48.3925034,94.6175652 47.6821459,94.4663086 C46.6166097,94.2394237 44.7700365,94.3224486 42.7470873,93.1953125 C40.7241381,92.0681764 36.1313646,87.5107422 36.1313646,86.0561523 C36.1313646,85.0864258 35.1167162,84.7648112 33.0874193,85.0913086 L33.7993334,87.6118164 Z" id="segment-5"></path>
                    <path d="M23.559099,78.7236328 C29.1144376,84.1223958 32.2824063,87.9829102 33.0630053,90.3051758 C34.2339037,93.7885742 34.5810717,94.1953125 36.0395678,94.1953125 C37.4980639,94.1953125 37.0136889,91.2133789 37.9389818,90.3051758 C38.8642748,89.3969727 39.5583803,88.7050781 41.6230639,88.7050781 C42.9428881,88.7050781 41.875017,85.3894043 38.6631029,85.3894043 C37.5926694,85.3894043 36.3031279,85.5906167 33.0630053,83.0107422 C27.6787279,78.7236328 24.3299946,76.9312387 23.559099,76.5834961 C23.0451686,76.3516677 23.0451686,77.0650466 23.559099,78.7236328 Z" id="segment-4"></path>
                    <path d="M7.6845873,61.8803711 C12.0582852,65.7556966 16.0654467,70.7200521 19.7060717,76.7734375 C21.2494265,79.3396236 22.4062406,81.2359465 22.9262865,81.6523438 C24.2463477,82.7093078 24.7004349,80.6655685 25.0854662,79.6030273 C25.61067,78.1536631 27.9895263,77.5118028 26.2324389,75.0170898 C25.5836093,74.0958815 23.4790199,74.5593815 21.6660326,72.7841797 C14.8381829,66.0986328 14.9263207,66.0986328 10.5856062,58.4130859 C7.69179655,53.289388 6.72479025,54.4451497 7.6845873,61.8803711 Z" id="segment-3"></path>
                    <path d="M24.8584154,16.4658203 C27.0408277,22.0208333 21.6515048,33.0071615 8.69044668,49.4248047 C4.86086857,52.8550234 3.74846509,54.5982308 2.68165761,56.1674805 C0.944125278,58.7233512 0.0172117753,62.4039358 3.38380605,64.0742188 C8.81741679,66.7700195 9.66891633,62.0142338 12.1831225,59.5405273 C13.7671982,57.9819684 13.3255722,55.6471909 14.8381829,53.2836914 C21.9714836,42.1376953 28.7348803,35.0776367 28.7348803,14.2490234 C26.1505704,11.7360026 24.8584154,12.4749349 24.8584154,16.4658203 Z" id="segment-2"></path>
                    <path d="M4.7080248,14.3110352 C12.89602,15.3390288 15.9023607,12.2958984 20.828142,16.2255859 C25.7539232,20.1552734 26.2993334,17.9277344 27.6801928,17.0766602 C29.0610521,16.2255859 31.3803881,14.3110352 27.6801928,10.1416016 C23.9799975,5.97216797 14.8381829,0 4.7080248,0 C-0.708501825,1.61865234 -0.708501825,3.97730017 1.03029043,7.96728516 C2.06533434,10.3423876 -3.4799704,13.2830415 4.7080248,14.3110352 Z" id="segment-1"></path>
                </g>
                <g id="leg-2-right" transform="translate(177.000000, 231.088420)" fill="#ECBA90">
                    <path d="M75.9223,60.7267103 C81.7325214,62.6061048 84.7951028,64.0810397 85.1100442,65.151515 C85.5824563,66.7572279 87.8462793,66.8544885 88.5931985,66.4007825 C89.2224479,66.0185535 89.1995656,65.0394251 89.6215188,64.4913587 C90.2113275,63.7252682 90.9895207,62.9178904 89.6215188,62.4110807 C88.3293638,62.8625697 87.2640155,62.9781963 86.4254739,62.7579603 C82.5730976,61.5367689 79.3110533,60.2552747 76.6393411,58.9134779 C73.9676288,57.571681 73.1478046,57.8036146 74.1798684,59.6092786 L75.9223,60.7267103 Z" id="segment-5"></path>
                    <path d="M61.3600442,54.9872083 C68.1966327,57.8097995 71.9710468,59.9849297 72.6832864,61.5125989 C73.3603136,62.964742 74.8420798,63.3399781 76.3356725,62.936162 C77.1989919,62.7027501 77.1990751,61.1626689 77.9171731,60.4662122 C78.7737568,59.6354433 80.2261712,59.4828512 80.4605775,58.39603 C80.7626529,56.9954613 78.9503802,56.0418958 77.9171731,56.0418958 C76.6459483,56.0418958 75.8787498,56.3576503 74.1266457,56.0418958 C73.3496593,55.9018716 70.9530518,55.2789591 69.4450051,54.9872083 C64.5363137,54.0375596 61.3600442,54.0799818 61.3600442,54.0799818 C61.3600442,54.0799818 61.3600442,54.3823906 61.3600442,54.9872083 Z" id="segment-4"></path>
                    <path d="M45.3517434,49.3114271 C48.3393736,51.513901 50.4985533,52.615138 51.8292825,52.615138 C53.8253762,52.615138 57.6871926,53.0082044 59.6036965,55.8246107 C61.5202004,58.6410169 66.1857278,54.11172 63.4684426,52.8089857 C60.7511575,51.5062513 59.9249503,48.9925794 47.2492043,46.6629896 C44.3491392,46.6629896 43.7166523,47.5458021 45.3517434,49.3114271 Z" id="segment-3"></path>
                    <path d="M32.3912942,19.8822279 C41.2374631,38.6720156 38.1207864,40.3958997 39.3556496,44.1385755 C40.5905129,47.8812513 42.8446795,50.7650404 45.0255715,50.7650404 C47.2064635,50.7650404 51.4719596,47.0432516 49.5538918,45.4325208 C45.7500575,42.2381849 45.7500575,37.8142661 44.2141103,33.7472653 C35.6100442,10.9647474 24.1283532,0.652094992 20.3746926,2.8080091 C18.8558777,3.6803401 18.7953281,4.32015771 19.9044941,4.78221072 C23.864919,6.43203254 26.5722209,7.52217096 32.3912942,19.8822279 Z" id="segment-2"></path>
                    <path d="M1.92547387,2.22548957 C1.92547387,0.617896527 8.56219262,-0.118757118 21.8356301,0.0155286316 C24.172224,0.365463527 25.0796133,2.16217577 24.5577981,5.40566535 C24.3680299,6.58522263 24.4549373,8.94722969 23.1768873,8.94722969 C20.9204349,8.94722969 16.3851935,8.39980598 13.6671731,8.39980598 C10.0792825,8.39980598 6.25779007,9.66235511 1.92547387,7.61074348 C-2.40684233,5.55913184 1.92547387,4.63687913 1.92547387,2.22548957 Z" id="segment-1"></path>
                </g>
                <g id="leg-2-right" transform="translate(45.500000, 264.588420) scale(-1, 1) translate(-45.500000, -264.588420) translate(0.000000, 231.088420)" fill="#ECBA90">
                    <path d="M75.9223,60.7267103 C81.7325214,62.6061048 84.7951028,64.0810397 85.1100442,65.151515 C85.5824563,66.7572279 87.8462793,66.8544885 88.5931985,66.4007825 C89.2224479,66.0185535 89.1995656,65.0394251 89.6215188,64.4913587 C90.2113275,63.7252682 90.9895207,62.9178904 89.6215188,62.4110807 C88.3293638,62.8625697 87.2640155,62.9781963 86.4254739,62.7579603 C82.5730976,61.5367689 79.3110533,60.2552747 76.6393411,58.9134779 C73.9676288,57.571681 73.1478046,57.8036146 74.1798684,59.6092786 L75.9223,60.7267103 Z" id="segment-5"></path>
                    <path d="M61.3600442,54.9872083 C68.1966327,57.8097995 71.9710468,59.9849297 72.6832864,61.5125989 C73.3603136,62.964742 74.8420798,63.3399781 76.3356725,62.936162 C77.1989919,62.7027501 77.1990751,61.1626689 77.9171731,60.4662122 C78.7737568,59.6354433 80.2261712,59.4828512 80.4605775,58.39603 C80.7626529,56.9954613 78.9503802,56.0418958 77.9171731,56.0418958 C76.6459483,56.0418958 75.8787498,56.3576503 74.1266457,56.0418958 C73.3496593,55.9018716 70.9530518,55.2789591 69.4450051,54.9872083 C64.5363137,54.0375596 61.3600442,54.0799818 61.3600442,54.0799818 C61.3600442,54.0799818 61.3600442,54.3823906 61.3600442,54.9872083 Z" id="segment-4"></path>
                    <path d="M45.3517434,49.3114271 C48.3393736,51.513901 50.4985533,52.615138 51.8292825,52.615138 C53.8253762,52.615138 57.6871926,53.0082044 59.6036965,55.8246107 C61.5202004,58.6410169 66.1857278,54.11172 63.4684426,52.8089857 C60.7511575,51.5062513 59.9249503,48.9925794 47.2492043,46.6629896 C44.3491392,46.6629896 43.7166523,47.5458021 45.3517434,49.3114271 Z" id="segment-3"></path>
                    <path d="M32.3912942,19.8822279 C41.2374631,38.6720156 38.1207864,40.3958997 39.3556496,44.1385755 C40.5905129,47.8812513 42.8446795,50.7650404 45.0255715,50.7650404 C47.2064635,50.7650404 51.4719596,47.0432516 49.5538918,45.4325208 C45.7500575,42.2381849 45.7500575,37.8142661 44.2141103,33.7472653 C35.6100442,10.9647474 24.1283532,0.652094992 20.3746926,2.8080091 C18.8558777,3.6803401 18.7953281,4.32015771 19.9044941,4.78221072 C23.864919,6.43203254 26.5722209,7.52217096 32.3912942,19.8822279 Z" id="segment-2"></path>
                    <path d="M1.92547387,2.22548957 C1.92547387,0.617896527 8.56219262,-0.118757118 21.8356301,0.0155286316 C24.172224,0.365463527 25.0796133,2.16217577 24.5577981,5.40566535 C24.3680299,6.58522263 24.4549373,8.94722969 23.1768873,8.94722969 C20.9204349,8.94722969 16.3851935,8.39980598 13.6671731,8.39980598 C10.0792825,8.39980598 6.25779007,9.66235511 1.92547387,7.61074348 C-2.40684233,5.55913184 1.92547387,4.63687913 1.92547387,2.22548957 Z" id="segment-1"></path>
                </g>
                <g id="leg-1-right" transform="translate(163.451460, 130.455067)" fill="#ECBA90">
                    <path d="M50.9945216,9.02827543 C57.7777248,4.78901761 61.4137925,2.34256579 61.9027248,1.68891996 C62.4720607,-0.437056604 63.6678615,-0.437056604 63.9840236,1.02583402 C64.3680916,2.802927 65.1493621,2.65967659 64.7794338,3.50972074 C64.4714132,4.21750947 61.9775129,4.59012785 59.0437083,6.44429105 C53.015388,10.2541869 50.3323258,11.7981293 50.9945216,11.0761181 L50.9945216,9.02827543 Z" id="segment-4"></path>
                    <path d="M32.9408107,22.3969278 C42.1986232,15.4994668 49.1309963,10.0788757 51.5399318,5.62433071 C53.9488673,1.16978575 53.5658348,6.2324044 55.238174,8.04390043 C57.1407859,10.1048304 58.2896254,10.0559674 57.8862833,11.8354043 C51.4966348,13.5068121 48.8624889,15.3017129 45.8592503,17.2699746 C42.8560116,19.2382364 39.8688199,21.5380411 35.309463,24.9457559 C33.9044076,25.4764095 31.9600447,23.6121996 32.9408107,22.3969278 Z" id="segment-3" stroke-linejoin="round"></path>
                    <path d="M32.9481349,56.6522989 C31.2023899,55.3236856 35.4710841,54.6815957 34.3128315,46.2138223 C33.1545789,37.7460489 32.1126857,34.6029825 30.2713771,29.7939004 C28.787745,25.9189886 28.6061924,23.0771034 30.126405,21.484259 C30.4929004,21.1002535 32.3835558,20.1924325 32.9481349,20.5530532 C34.6081517,21.6133768 37.3024207,22.2126376 38.1161037,24.3017129 C38.4426883,25.1401967 39.3552885,29.2174246 39.5565334,30.5868692 C40.2591781,35.3682737 39.5565334,38.4025358 39.5565334,44.2655801 C39.5565334,50.1286244 39.4027805,51.6697922 38.1161037,54.6815957 C36.8294269,57.6933993 34.69388,57.9809121 32.9481349,56.6522989 Z" id="segment-2"></path>
                    <path d="M2.15272477,57.716752 C5.95477377,53.6903848 7.28538143,56.1239786 20.1981349,56.1239786 C24.6214748,56.1239786 30.1087306,53.8639574 31.2796779,53.6991739 C34.448815,53.2531917 36.1729797,54.3834008 37.0423732,55.3988809 C37.8348868,56.3245627 37.4228526,58.5127551 35.1751857,60.1503457 C31.9061427,62.532084 32.3395307,62.6277669 23.9525295,65.7353067 C15.5655282,68.8428465 12.276645,70.1650051 5.07459977,69.7216348 C-0.255238885,69.3935207 -1.64932424,61.7431192 2.15272477,57.716752 Z" id="segment-1"></path>
                </g>
                <g id="leg-1-left" transform="translate(69.951460, 165.455067) scale(-1, 1) translate(-69.951460, -165.455067) translate(37.451460, 130.455067)" fill="#ECBA90">
                    <path d="M50.9945216,9.02827543 C57.7777248,4.78901761 61.4137925,2.34256579 61.9027248,1.68891996 C62.4720607,-0.437056604 63.6678615,-0.437056604 63.9840236,1.02583402 C64.3680916,2.802927 65.1493621,2.65967659 64.7794338,3.50972074 C64.4714132,4.21750947 61.9775129,4.59012785 59.0437083,6.44429105 C53.015388,10.2541869 50.3323258,11.7981293 50.9945216,11.0761181 L50.9945216,9.02827543 Z" id="segment-4"></path>
                    <path d="M32.9408107,22.3969278 C42.1986232,15.4994668 49.1309963,10.0788757 51.5399318,5.62433071 C53.9488673,1.16978575 53.5658348,6.2324044 55.238174,8.04390043 C57.1407859,10.1048304 58.2896254,10.0559674 57.8862833,11.8354043 C51.4966348,13.5068121 48.8624889,15.3017129 45.8592503,17.2699746 C42.8560116,19.2382364 39.8688199,21.5380411 35.309463,24.9457559 C33.9044076,25.4764095 31.9600447,23.6121996 32.9408107,22.3969278 Z" id="segment-3" stroke-linejoin="round"></path>
                    <path d="M32.9481349,56.6522989 C31.2023899,55.3236856 35.4710841,54.6815957 34.3128315,46.2138223 C33.1545789,37.7460489 32.1126857,34.6029825 30.2713771,29.7939004 C28.787745,25.9189886 28.6061924,23.0771034 30.126405,21.484259 C30.4929004,21.1002535 32.3835558,20.1924325 32.9481349,20.5530532 C34.6081517,21.6133768 37.3024207,22.2126376 38.1161037,24.3017129 C38.4426883,25.1401967 39.3552885,29.2174246 39.5565334,30.5868692 C40.2591781,35.3682737 39.5565334,38.4025358 39.5565334,44.2655801 C39.5565334,50.1286244 39.4027805,51.6697922 38.1161037,54.6815957 C36.8294269,57.6933993 34.69388,57.9809121 32.9481349,56.6522989 Z" id="segment-2"></path>
                    <path d="M2.15272477,57.716752 C5.95477377,53.6903848 7.28538143,56.1239786 20.1981349,56.1239786 C24.6214748,56.1239786 30.1087306,53.8639574 31.2796779,53.6991739 C34.448815,53.2531917 36.1729797,54.3834008 37.0423732,55.3988809 C37.8348868,56.3245627 37.4228526,58.5127551 35.1751857,60.1503457 C31.9061427,62.532084 32.3395307,62.6277669 23.9525295,65.7353067 C15.5655282,68.8428465 12.276645,70.1650051 5.07459977,69.7216348 C-0.255238885,69.3935207 -1.64932424,61.7431192 2.15272477,57.716752 Z" id="segment-1"></path>
                </g>
                <path d="M121.820005,118.00971 C113.821633,133.449814 109.822447,146.118759 109.822447,156.016546 C109.822447,170.863226 127.113462,173.899358 133.817564,173.899358 C140.521665,173.899358 157.817564,170.863226 157.817564,156.016546 C157.817564,146.118759 153.818378,133.449814 145.820005,118.00971 C141.581398,120.373642 137.582212,121.938177 133.817564,121.938177 C130.052915,121.938177 126.058612,120.373642 121.820005,118.00971 Z" id="head" fill="#1D7470"></path>
                <path d="M134.59081,225.147405 C128.342457,225.147405 111.357845,222.428003 103.300221,216.147017 C95.2425961,209.866031 94.4662556,196.120965 95.8982664,188.06148 C97.6474631,178.216845 102.423493,170.041648 110.332786,166.614949 C116.781956,163.820847 126.390867,164.160385 134.090474,164.160385 C141.79008,164.160385 150.99951,163.820847 157.448681,166.614949 C165.357973,170.041648 170.134004,178.216845 171.8832,188.06148 C173.315211,196.120965 171.379063,208.787013 163.483124,216.147017 C155.587185,223.507021 140.839164,225.147405 134.59081,225.147405 Z" id="mid-body" fill="#23736F"></path>
                <path d="M69.3175637,221.034124 C96.1235533,213.109645 112.662616,217.165634 118.934751,233.202093 C128.342954,257.25678 159.176939,379.432561 94.79022,409.166936 C91.9932907,410.136025 89.3802002,410.952841 86.9509485,411.617387 C81.7857156,413.030386 75.9079207,413.600939 69.3175637,413.329046 L69.3175637,221.034124 Z" id="bottom-body-left" fill="#E82C2F" transform="translate(101.954352, 315.248875) scale(-1, 1) translate(-101.954352, -315.248875) "></path>
                <path d="M134.317564,221.034124 C161.123553,213.109645 177.662616,217.165634 183.934751,233.202093 C193.342954,257.25678 224.176939,379.432561 159.79022,409.166936 C156.993291,410.136025 154.3802,410.952841 151.950948,411.617387 C146.785716,413.030386 140.907921,413.600939 134.317564,413.329046 L134.317564,221.034124 Z" id="bottom-body-right" fill="#E8D32C"></path>
                <path d="M110.822447,150.687933 C106.440122,149.16303 104.368345,142.998479 107.231626,138.011663 C110.094907,133.024847 115.888853,130.832952 117.861997,132.733343 C119.835142,134.633733 121.094419,141.367167 119.835142,144.670354 C118.575864,147.973542 115.204771,152.212835 110.822447,150.687933 Z" id="eye-left" fill="#E82C2F"></path>
                <path d="M152.822447,150.687933 C148.440122,149.16303 146.368345,142.998479 149.231626,138.011663 C152.094907,133.024847 157.888853,130.832952 159.861997,132.733343 C161.835142,134.633733 163.094419,141.367167 161.835142,144.670354 C160.575864,147.973542 157.204771,152.212835 152.822447,150.687933 Z" id="eye-right" fill="#E82C2F" transform="translate(155.126510, 141.531185) scale(-1, 1) translate(-155.126510, -141.531185) "></path>
                <g id="antenna-right" transform="translate(140.559612, 0.000000)" fill="#ECBA90">
                    <path d="M97.1739676,12.421331 C101.596448,7.51542749 104.459149,4.68551212 105.762072,3.93158492 C107.635393,2.84760054 109.23024,1.43774226 111.615374,0.540959919 C114.5701,-0.569982593 116.543757,-0.102238947 112.972307,3.19086226 C108.669362,7.15844898 103.669687,10.7525245 97.973284,13.9730888 L97.1739676,12.421331 Z" id="segment-9"></path>
                    <path d="M81.7523367,23.402288 C87.2352469,17.8244886 91.9626232,13.6618095 95.9344656,10.9142509 C97.9471245,9.66595992 97.9937553,10.5614539 99.7254812,12.5040947 C101.457207,14.4467354 99.4851713,15.0169862 98.2220633,15.8405205 C92.2734658,20.0239515 86.783557,22.9989677 81.7523367,24.7655693 L81.7523367,23.402288 Z" id="segment-8"></path>
                    <path d="M68.0438406,38.2284599 C69.5901487,35.3484484 72.1781207,31.4369087 75.8077566,26.4938408 C76.3905244,25.7001907 79.8460867,21.1063896 82.167864,21.1063896 C83.7767508,22.5136162 83.936907,23.5692802 85.0555594,24.4928642 C85.6135021,26.0503186 79.8342052,31.0590263 67.7176687,39.5189873 L68.0438406,38.2284599 Z" id="segment-7"></path>
                    <path d="M55.3265555,51.1652275 C57.4374574,47.442117 60.3077263,43.1090279 63.9373622,38.1659599 C64.52013,37.3723099 67.8835846,33.8161008 68.6754324,34.1293388 C70.4291169,34.8230588 69.7884695,35.6381279 72.1183035,37.0187431 C72.6762462,38.5761975 67.2357351,43.8871513 55.7967703,52.9516045 L55.3265555,51.1652275 Z" id="segment-6"></path>
                    <path d="M44.3849051,62.7211357 C47.94202,55.4527471 51.6439243,50.3694951 55.490618,47.4713798 C56.8402273,46.0883232 56.8402273,51.8312431 60.032366,51.216497 C60.790504,52.4575452 55.8608979,56.5690361 45.2435476,63.5509697 L44.3849051,62.7211357 Z" id="segment-5"></path>
                    <path d="M34.3399832,77.2763115 C34.2743642,77.0612272 33.7488132,77.1266563 33.865618,76.5985962 C34.6751719,72.9387028 40.5011797,61.7040357 44.433489,60.1330009 C45.8822498,61.506726 46.6114417,62.1960372 48.5006277,62.756292 C48.961598,64.2672495 46.3709969,65.0518541 41.653147,70.0891212 C36.9352972,75.1263883 34.7736543,78.6977884 34.3399832,77.2763115 Z" id="segment-4"></path>
                    <path d="M23.3082449,92.4430595 C25.6166759,86.7663017 28.8237885,80.8611097 32.9295828,74.7274834 C34.0366184,75.2126773 35.2292599,74.8251074 35.8819754,75.0656181 C36.7182469,75.3737651 36.9310445,76.2618757 37.7474539,76.5228935 C37.2366066,78.1705883 34.9076749,81.0972716 32.9295828,83.9503837 C30.4239217,87.5644379 27.054475,91.2618589 24.6280691,92.4430595 C24.3453949,92.5806684 23.9054535,92.5806684 23.3082449,92.4430595 Z" id="segment-3"></path>
                    <path d="M25.2901785,89.9054619 C24.4755626,89.4941663 23.7213308,88.8326266 23.0274832,87.9208427 C23.0694754,89.2558037 22.8574799,90.1941175 22.3914969,90.7357841 C21.6925222,91.5482841 14.0764199,101.862249 14.5668984,104.406438 C15.0573769,106.950628 16.4825613,105.040028 17.7457449,103.975042 C19.0089285,102.910056 27.2113211,93.5934502 28.3468191,91.1981865 C27.0355398,90.7357841 26.3602469,90.3720146 25.2901785,89.9054619 Z" id="segment-2" stroke-linejoin="round"></path>
                    <path d="M13.9762094,102.917758 C13.1527273,102.361028 12.7928807,103.629345 12.334368,104.53095 C10.9986746,107.157415 6.70204373,116.252874 2.62953397,118.00971 C-0.336424014,119.289192 -0.455074994,124.522892 0.61928006,125.984808 C1.02010486,126.530225 1.58636059,126.596624 1.96913358,126.596624 C4.11024686,126.596624 7.41224881,124.429388 7.7523367,121.830511 C8.09242459,119.231634 5.10746773,117.441106 15.1323701,109.365423 C15.4335316,108.950165 19.2047293,106.743622 18.5382254,104.766146 C18.4407639,104.476984 17.0229106,104.901582 15.8683035,104.53095 C14.9744462,104.244019 14.3355398,103.16069 13.9762094,102.917758 Z" id="segment-1"></path>
                </g>
                <g id="antenna-left" transform="translate(68.059612, 63.500000) scale(-1, 1) translate(-68.059612, -63.500000) translate(10.559612, 0.000000)" fill="#ECBA90">
                    <path d="M97.1739676,12.421331 C101.596448,7.51542749 104.459149,4.68551212 105.762072,3.93158492 C107.635393,2.84760054 109.23024,1.43774226 111.615374,0.540959919 C114.5701,-0.569982593 116.543757,-0.102238947 112.972307,3.19086226 C108.669362,7.15844898 103.669687,10.7525245 97.973284,13.9730888 L97.1739676,12.421331 Z" id="segment-9"></path>
                    <path d="M81.7523367,23.402288 C87.2352469,17.8244886 91.9626232,13.6618095 95.9344656,10.9142509 C97.9471245,9.66595992 97.9937553,10.5614539 99.7254812,12.5040947 C101.457207,14.4467354 99.4851713,15.0169862 98.2220633,15.8405205 C92.2734658,20.0239515 86.783557,22.9989677 81.7523367,24.7655693 L81.7523367,23.402288 Z" id="segment-8"></path>
                    <path d="M68.0438406,38.2284599 C69.5901487,35.3484484 72.1781207,31.4369087 75.8077566,26.4938408 C76.3905244,25.7001907 79.8460867,21.1063896 82.167864,21.1063896 C83.7767508,22.5136162 83.936907,23.5692802 85.0555594,24.4928642 C85.6135021,26.0503186 79.8342052,31.0590263 67.7176687,39.5189873 L68.0438406,38.2284599 Z" id="segment-7"></path>
                    <path d="M55.3265555,51.1652275 C57.4374574,47.442117 60.3077263,43.1090279 63.9373622,38.1659599 C64.52013,37.3723099 67.8835846,33.8161008 68.6754324,34.1293388 C70.4291169,34.8230588 69.7884695,35.6381279 72.1183035,37.0187431 C72.6762462,38.5761975 67.2357351,43.8871513 55.7967703,52.9516045 L55.3265555,51.1652275 Z" id="segment-6"></path>
                    <path d="M44.3849051,62.7211357 C47.94202,55.4527471 51.6439243,50.3694951 55.490618,47.4713798 C56.8402273,46.0883232 56.8402273,51.8312431 60.032366,51.216497 C60.790504,52.4575452 55.8608979,56.5690361 45.2435476,63.5509697 L44.3849051,62.7211357 Z" id="segment-5"></path>
                    <path d="M34.3399832,77.2763115 C34.2743642,77.0612272 33.7488132,77.1266563 33.865618,76.5985962 C34.6751719,72.9387028 40.5011797,61.7040357 44.433489,60.1330009 C45.8822498,61.506726 46.6114417,62.1960372 48.5006277,62.756292 C48.961598,64.2672495 46.3709969,65.0518541 41.653147,70.0891212 C36.9352972,75.1263883 34.7736543,78.6977884 34.3399832,77.2763115 Z" id="segment-4"></path>
                    <path d="M23.3082449,92.4430595 C25.6166759,86.7663017 28.8237885,80.8611097 32.9295828,74.7274834 C34.0366184,75.2126773 35.2292599,74.8251074 35.8819754,75.0656181 C36.7182469,75.3737651 36.9310445,76.2618757 37.7474539,76.5228935 C37.2366066,78.1705883 34.9076749,81.0972716 32.9295828,83.9503837 C30.4239217,87.5644379 27.054475,91.2618589 24.6280691,92.4430595 C24.3453949,92.5806684 23.9054535,92.5806684 23.3082449,92.4430595 Z" id="segment-3"></path>
                    <path d="M25.2901785,89.9054619 C24.4755626,89.4941663 23.7213308,88.8326266 23.0274832,87.9208427 C23.0694754,89.2558037 22.8574799,90.1941175 22.3914969,90.7357841 C21.6925222,91.5482841 14.0764199,101.862249 14.5668984,104.406438 C15.0573769,106.950628 16.4825613,105.040028 17.7457449,103.975042 C19.0089285,102.910056 27.2113211,93.5934502 28.3468191,91.1981865 C27.0355398,90.7357841 26.3602469,90.3720146 25.2901785,89.9054619 Z" id="segment-2" stroke-linejoin="round"></path>
                    <path d="M13.9762094,102.917758 C13.1527273,102.361028 12.7928807,103.629345 12.334368,104.53095 C10.9986746,107.157415 6.70204373,116.252874 2.62953397,118.00971 C-0.336424014,119.289192 -0.455074994,124.522892 0.61928006,125.984808 C1.02010486,126.530225 1.58636059,126.596624 1.96913358,126.596624 C4.11024686,126.596624 7.41224881,124.429388 7.7523367,121.830511 C8.09242459,119.231634 5.10746773,117.441106 15.1323701,109.365423 C15.4335316,108.950165 19.2047293,106.743622 18.5382254,104.766146 C18.4407639,104.476984 17.0229106,104.901582 15.8683035,104.53095 C14.9744462,104.244019 14.3355398,103.16069 13.9762094,102.917758 Z" id="segment-1"></path>
                </g>
            </g>
            <g id="hello" transform="translate(0.000000, 500.000000)">
                <rect id="Rectangle" fill="#FFFFFF" x="0" y="0" width="500" height="100"></rect>
                <path d="M206.898438,70.2460938 C207.203125,70.2460938 207.689453,70.2109375 208.357422,70.140625 C209.388672,69.9765625 210.273438,69.3847656 211.011719,68.3652344 C211.328125,67.9082031 211.574219,67.4335938 211.75,66.9414062 C211.925781,66.4492188 212.013672,65.9511719 212.013672,65.4472656 C212.013672,64.1113281 211.544922,62.9746094 210.607422,62.0371094 L210.607422,62.0371094 L210.625,62.0371094 C209.699219,61.0996094 208.556641,60.6308594 207.197266,60.6308594 C207.033203,60.6308594 206.880859,60.6367188 206.740234,60.6484375 C206.599609,60.6601562 206.447266,60.6777344 206.283203,60.7011719 C206.259766,60.5136719 206.248047,60.3232422 206.248047,60.1298828 L206.248047,60.1298828 L206.248047,59.6113281 C206.248047,59.1191406 206.268555,58.6796875 206.30957,58.2929688 C206.350586,57.90625 206.423828,57.5605469 206.529297,57.2558594 L206.529297,57.2558594 L206.529297,57.2734375 C206.892578,56.1132812 207.572266,55.5332031 208.568359,55.5332031 C210.279297,55.5332031 211.925781,57.1269531 213.507812,60.3144531 C214.796875,62.9277344 215.441406,65.2070312 215.441406,67.1523438 L215.441406,67.1523438 L215.441406,70 L220.714844,70 L220.714844,52.984375 C220.714844,51.7890625 220.492188,50.6230469 220.046875,49.4863281 L220.046875,49.4863281 L220.046875,49.5039062 C219.941406,49.2460938 219.830078,49.0029297 219.712891,48.7744141 C219.595703,48.5458984 219.472656,48.3320312 219.34375,48.1328125 L219.34375,48.1328125 L219.818359,47.8515625 C221.458984,46.8203125 222.279297,45.3671875 222.279297,43.4921875 L222.279297,43.4921875 L216.724609,42.0859375 C216.724609,43.3164062 216.572266,44.1367188 216.267578,44.546875 C216.056641,44.8046875 215.822266,45.0507812 215.564453,45.2851562 C214.837891,45.0039062 214.026367,44.7958984 213.129883,44.6611328 C212.233398,44.5263672 211.234375,44.4589844 210.132812,44.4589844 C208.796875,44.4589844 207.595703,44.5820312 206.529297,44.828125 C205.919922,44.9804688 205.354492,45.1474609 204.833008,45.3291016 C204.311523,45.5107422 203.851562,45.7011719 203.453125,45.9003906 C202.597656,46.3222656 201.771484,46.9257812 200.974609,47.7109375 L200.974609,47.7109375 L199.058594,50.0839844 L202.486328,52.7734375 C203.001953,51.3203125 203.845703,50.2421875 205.017578,49.5390625 C206.201172,48.7890625 207.871094,48.4140625 210.027344,48.4140625 C212.335938,48.4140625 213.876953,48.9765625 214.650391,50.1015625 L214.650391,50.1015625 L214.650391,50.0839844 C214.908203,50.4589844 215.104492,50.9394531 215.239258,51.5253906 C215.374023,52.1113281 215.441406,52.8085938 215.441406,53.6171875 L215.441406,53.6171875 L215.441406,56.0957031 C214.28125,54.3261719 213.039062,53.1191406 211.714844,52.4746094 C210.378906,51.8417969 209.113281,51.5253906 207.917969,51.5253906 C206.851562,51.5253906 205.878906,51.7480469 205,52.1933594 C204.121094,52.6386719 203.347656,53.2890625 202.679688,54.1445312 C202.117188,54.9179688 201.683594,55.9375 201.378906,57.203125 C201.074219,58.46875 200.921875,59.9746094 200.921875,61.7207031 C200.921875,65.0136719 201.53125,67.2695312 202.75,68.4882812 L202.75,68.4882812 L202.732422,68.4882812 C203.869141,69.6601562 205.257812,70.2460938 206.898438,70.2460938 Z M207.179688,67.2753906 C206.945312,67.2753906 206.725586,67.2255859 206.520508,67.1259766 C206.31543,67.0263672 206.133789,66.8945312 205.975586,66.7304688 C205.817383,66.5664062 205.691406,66.3730469 205.597656,66.1503906 C205.503906,65.9277344 205.457031,65.6933594 205.457031,65.4472656 C205.457031,65.2128906 205.503906,64.984375 205.597656,64.7617188 C205.691406,64.5390625 205.817383,64.3398438 205.975586,64.1640625 C206.133789,63.9882812 206.31543,63.8476562 206.520508,63.7421875 C206.725586,63.6367188 206.945312,63.5839844 207.179688,63.5839844 C207.4375,63.5839844 207.677734,63.6337891 207.900391,63.7333984 C208.123047,63.8330078 208.316406,63.9677734 208.480469,64.1376953 C208.644531,64.3076172 208.773438,64.5039062 208.867188,64.7265625 C208.960938,64.9492188 209.007812,65.1894531 209.007812,65.4472656 C209.007812,65.9628906 208.832031,66.3964844 208.480469,66.7480469 C208.128906,67.0996094 207.695312,67.2753906 207.179688,67.2753906 Z M243.126953,40.4160156 C245.927734,40.4160156 248.517578,39.4257812 250.896484,37.4453125 C253.181641,35.5703125 254.324219,33.1738281 254.324219,30.2558594 L254.324219,30.2558594 L248.875,30.2558594 C248.875,32.4707031 248.242188,34.09375 246.976562,35.125 C246.039062,35.8867188 245.013672,36.3554688 243.900391,36.53125 C244.123047,36.015625 244.234375,35.3945312 244.234375,34.6679688 C244.234375,33.9765625 244.102539,33.3496094 243.838867,32.7871094 C243.575195,32.2246094 243.167969,31.7324219 242.617188,31.3105469 L242.617188,31.3105469 L242.617188,31.328125 C241.691406,30.5546875 240.537109,30.1679688 239.154297,30.1679688 C237.806641,30.1679688 236.658203,30.6015625 235.708984,31.46875 C234.689453,32.3828125 234.179688,33.5078125 234.179688,34.84375 C234.179688,36.90625 235.210938,38.4355469 237.273438,39.4316406 L237.273438,39.4316406 L237.255859,39.4316406 C238.603516,40.0878906 240.560547,40.4160156 243.126953,40.4160156 Z M239.119141,36.8125 C238.638672,36.8125 238.222656,36.625 237.871094,36.25 L237.871094,36.25 L237.871094,36.2675781 C237.695312,36.0449219 237.554688,35.8105469 237.449219,35.5644531 C237.34375,35.3183594 237.291016,35.0664062 237.291016,34.8085938 C237.291016,34.5859375 237.34082,34.3574219 237.44043,34.1230469 C237.540039,33.8886719 237.674805,33.6777344 237.844727,33.4902344 C238.014648,33.3027344 238.208008,33.1503906 238.424805,33.0332031 C238.641602,32.9160156 238.873047,32.8574219 239.119141,32.8574219 C239.341797,32.8574219 239.573242,32.9101562 239.813477,33.015625 C240.053711,33.1210938 240.270508,33.2646484 240.463867,33.4462891 C240.657227,33.6279297 240.818359,33.8359375 240.947266,34.0703125 C241.076172,34.3046875 241.140625,34.5507812 241.140625,34.8085938 C241.140625,35.0664062 241.09082,35.3154297 240.991211,35.5556641 C240.891602,35.7958984 240.753906,36.0097656 240.578125,36.1972656 C240.402344,36.3847656 240.188477,36.5341797 239.936523,36.6455078 C239.68457,36.7568359 239.412109,36.8125 239.119141,36.8125 Z M238.609375,70.3515625 C239.347656,70.3515625 240.030273,70.2167969 240.657227,69.9472656 C241.28418,69.6777344 241.84375,69.2792969 242.335938,68.7519531 C242.851562,68.1894531 243.24707,67.5712891 243.522461,66.8974609 C243.797852,66.2236328 243.935547,65.5117188 243.935547,64.7617188 L243.935547,64.7617188 L243.935547,52.984375 C243.935547,50.171875 243.050781,48.0507812 241.28125,46.6210938 C239.488281,45.1796875 237.132812,44.4589844 234.214844,44.4589844 C231.285156,44.4589844 229.076172,45.0917969 227.587891,46.3574219 C226.169922,47.5644531 225.103516,49.1582031 224.388672,51.1386719 L224.388672,51.1386719 L227.746094,53.3007812 C228.238281,51.7539062 228.830078,50.6523438 229.521484,49.9960938 C230.646484,48.9414062 232.169922,48.4140625 234.091797,48.4140625 C235.966797,48.4140625 237.273438,48.9589844 238.011719,50.0488281 C238.445312,50.7167969 238.662109,51.90625 238.662109,53.6171875 L238.662109,53.6171875 L238.662109,60.7890625 C238.580078,60.7773438 238.486328,60.7714844 238.380859,60.7714844 L238.380859,60.7714844 L238.099609,60.7714844 C236.775391,60.7714844 235.638672,61.2285156 234.689453,62.1425781 C233.740234,63.0566406 233.265625,64.1816406 233.265625,65.5175781 C233.265625,66.1503906 233.374023,66.7333984 233.59082,67.2666016 C233.807617,67.7998047 234.121094,68.2890625 234.53125,68.734375 C234.941406,69.1445312 235.410156,69.484375 235.9375,69.7539062 C236.464844,70.0234375 237.027344,70.1875 237.625,70.2460938 C237.8125,70.2929688 237.985352,70.3222656 238.143555,70.3339844 C238.301758,70.3457031 238.457031,70.3515625 238.609375,70.3515625 Z M238.117188,67.4335938 C237.847656,67.4335938 237.595703,67.3837891 237.361328,67.2841797 C237.126953,67.1845703 236.921875,67.0498047 236.746094,66.8798828 C236.570312,66.7099609 236.429688,66.5078125 236.324219,66.2734375 C236.21875,66.0390625 236.166016,65.7871094 236.166016,65.5175781 C236.166016,65.2597656 236.21875,65.0166016 236.324219,64.7880859 C236.429688,64.5595703 236.573242,64.3574219 236.754883,64.1816406 C236.936523,64.0058594 237.144531,63.8652344 237.378906,63.7597656 C237.613281,63.6542969 237.859375,63.6015625 238.117188,63.6015625 C238.375,63.6015625 238.618164,63.6513672 238.84668,63.7509766 C239.075195,63.8505859 239.274414,63.9853516 239.444336,64.1552734 C239.614258,64.3251953 239.749023,64.5273438 239.848633,64.7617188 C239.948242,64.9960938 239.998047,65.2480469 239.998047,65.5175781 C239.998047,66.7949219 239.371094,67.4335938 238.117188,67.4335938 Z M256.732422,70.2460938 C257.037109,70.2460938 257.523438,70.2109375 258.191406,70.140625 C259.222656,69.9765625 260.107422,69.3847656 260.845703,68.3652344 C261.162109,67.9082031 261.408203,67.4335938 261.583984,66.9414062 C261.759766,66.4492188 261.847656,65.9511719 261.847656,65.4472656 C261.847656,64.1113281 261.378906,62.9746094 260.441406,62.0371094 L260.441406,62.0371094 L260.458984,62.0371094 C259.533203,61.0996094 258.390625,60.6308594 257.03125,60.6308594 C256.867188,60.6308594 256.714844,60.6367188 256.574219,60.6484375 C256.433594,60.6601562 256.28125,60.6777344 256.117188,60.7011719 C256.09375,60.5136719 256.082031,60.3232422 256.082031,60.1298828 L256.082031,60.1298828 L256.082031,59.6113281 C256.082031,59.1191406 256.102539,58.6796875 256.143555,58.2929688 C256.18457,57.90625 256.257812,57.5605469 256.363281,57.2558594 L256.363281,57.2558594 L256.363281,57.2734375 C256.726562,56.1132812 257.40625,55.5332031 258.402344,55.5332031 C260.113281,55.5332031 261.759766,57.1269531 263.341797,60.3144531 C264.630859,62.9277344 265.275391,65.2070312 265.275391,67.1523438 L265.275391,67.1523438 L265.275391,70 L270.548828,70 L270.548828,52.984375 C270.548828,51.7890625 270.326172,50.6230469 269.880859,49.4863281 L269.880859,49.4863281 L269.880859,49.5039062 C269.775391,49.2460938 269.664062,49.0029297 269.546875,48.7744141 C269.429688,48.5458984 269.306641,48.3320312 269.177734,48.1328125 L269.177734,48.1328125 L269.652344,47.8515625 C271.292969,46.8203125 272.113281,45.3671875 272.113281,43.4921875 L272.113281,43.4921875 L266.558594,42.0859375 C266.558594,43.3164062 266.40625,44.1367188 266.101562,44.546875 C265.890625,44.8046875 265.65625,45.0507812 265.398438,45.2851562 C264.671875,45.0039062 263.860352,44.7958984 262.963867,44.6611328 C262.067383,44.5263672 261.068359,44.4589844 259.966797,44.4589844 C258.630859,44.4589844 257.429688,44.5820312 256.363281,44.828125 C255.753906,44.9804688 255.188477,45.1474609 254.666992,45.3291016 C254.145508,45.5107422 253.685547,45.7011719 253.287109,45.9003906 C252.431641,46.3222656 251.605469,46.9257812 250.808594,47.7109375 L250.808594,47.7109375 L248.892578,50.0839844 L252.320312,52.7734375 C252.835938,51.3203125 253.679688,50.2421875 254.851562,49.5390625 C256.035156,48.7890625 257.705078,48.4140625 259.861328,48.4140625 C262.169922,48.4140625 263.710938,48.9765625 264.484375,50.1015625 L264.484375,50.1015625 L264.484375,50.0839844 C264.742188,50.4589844 264.938477,50.9394531 265.073242,51.5253906 C265.208008,52.1113281 265.275391,52.8085938 265.275391,53.6171875 L265.275391,53.6171875 L265.275391,56.0957031 C264.115234,54.3261719 262.873047,53.1191406 261.548828,52.4746094 C260.212891,51.8417969 258.947266,51.5253906 257.751953,51.5253906 C256.685547,51.5253906 255.712891,51.7480469 254.833984,52.1933594 C253.955078,52.6386719 253.181641,53.2890625 252.513672,54.1445312 C251.951172,54.9179688 251.517578,55.9375 251.212891,57.203125 C250.908203,58.46875 250.755859,59.9746094 250.755859,61.7207031 C250.755859,65.0136719 251.365234,67.2695312 252.583984,68.4882812 L252.583984,68.4882812 L252.566406,68.4882812 C253.703125,69.6601562 255.091797,70.2460938 256.732422,70.2460938 Z M257.013672,67.2753906 C256.779297,67.2753906 256.55957,67.2255859 256.354492,67.1259766 C256.149414,67.0263672 255.967773,66.8945312 255.80957,66.7304688 C255.651367,66.5664062 255.525391,66.3730469 255.431641,66.1503906 C255.337891,65.9277344 255.291016,65.6933594 255.291016,65.4472656 C255.291016,65.2128906 255.337891,64.984375 255.431641,64.7617188 C255.525391,64.5390625 255.651367,64.3398438 255.80957,64.1640625 C255.967773,63.9882812 256.149414,63.8476562 256.354492,63.7421875 C256.55957,63.6367188 256.779297,63.5839844 257.013672,63.5839844 C257.271484,63.5839844 257.511719,63.6337891 257.734375,63.7333984 C257.957031,63.8330078 258.150391,63.9677734 258.314453,64.1376953 C258.478516,64.3076172 258.607422,64.5039062 258.701172,64.7265625 C258.794922,64.9492188 258.841797,65.1894531 258.841797,65.4472656 C258.841797,65.9628906 258.666016,66.3964844 258.314453,66.7480469 C257.962891,67.0996094 257.529297,67.2753906 257.013672,67.2753906 Z M300.203125,40.9257812 L299.552734,39.4316406 L299.552734,30.0449219 L294.296875,30.0449219 L294.296875,32.9101562 C292.890625,32.0078125 291.091797,31.5566406 288.900391,31.5566406 C286.287109,31.5566406 284.21875,32.1484375 282.695312,33.3320312 C280.550781,35.03125 279.267578,37.46875 278.845703,40.6445312 C282.513672,39.9882812 285.865234,39.6601562 288.900391,39.6601562 C291.841797,39.6601562 294.425781,39.8652344 296.652344,40.2753906 L296.652344,40.2753906 L300.203125,40.9257812 Z M295.263672,37.0410156 C294.267578,36.8652344 293.303711,36.7392578 292.37207,36.6630859 C291.44043,36.5869141 290.529297,36.5488281 289.638672,36.5488281 C288.724609,36.5488281 287.760742,36.5634766 286.74707,36.5927734 C285.733398,36.6220703 284.640625,36.6542969 283.46875,36.6894531 C283.667969,36.3144531 283.887695,35.9716797 284.12793,35.6611328 C284.368164,35.3505859 284.623047,35.0957031 284.892578,34.8964844 C285.748047,34.2519531 286.949219,33.9296875 288.496094,33.9296875 C289.867188,33.9296875 291.118164,34.1845703 292.249023,34.6943359 C293.379883,35.2041016 294.384766,35.9863281 295.263672,37.0410156 Z M284.189453,70 C284.294922,69.8476562 284.379883,69.7246094 284.444336,69.6308594 C284.508789,69.5371094 284.558594,69.4580078 284.59375,69.3935547 C284.628906,69.3291016 284.658203,69.2734375 284.681641,69.2265625 C284.705078,69.1796875 284.734375,69.1269531 284.769531,69.0683594 C284.816406,68.9980469 284.869141,68.9130859 284.927734,68.8134766 C284.986328,68.7138672 285.039062,68.6289062 285.085938,68.5585938 C285.648438,67.6679688 286.134766,66.9003906 286.544922,66.2558594 C286.955078,65.6113281 287.3125,65.0664062 287.617188,64.6210938 L287.617188,64.6210938 L287.617188,64.6386719 L290.060547,61.0527344 L291.132812,59.4882812 C292.164062,57.8828125 292.679688,56.6523438 292.679688,55.796875 C292.679688,54.6601562 292.363281,53.5820312 291.730469,52.5625 C290.898438,51.2617188 289.5625,50.6113281 287.722656,50.6113281 C285.414062,50.6113281 283.837891,51.625 282.994141,53.6523438 C282.783203,54.203125 282.677734,54.8066406 282.677734,55.4628906 C282.677734,56.8691406 283.041016,57.9003906 283.767578,58.5566406 L283.767578,58.5566406 L283.767578,58.5390625 C284.107422,58.84375 284.432617,59.0986328 284.743164,59.3037109 C285.053711,59.5087891 285.384766,59.6757812 285.736328,59.8046875 C285.654297,59.9101562 285.601562,59.9804688 285.578125,60.015625 C285.554688,60.0507812 285.537109,60.0800781 285.525391,60.1035156 C285.513672,60.1269531 285.493164,60.1591797 285.463867,60.2001953 C285.43457,60.2412109 285.373047,60.3261719 285.279297,60.4550781 C284.904297,60.9824219 284.549805,61.4951172 284.21582,61.9931641 C283.881836,62.4912109 283.556641,62.9863281 283.240234,63.4785156 C283.123047,62.4941406 282.923828,61.3867188 282.642578,60.15625 L282.642578,60.15625 L282.642578,60.1738281 L282.009766,57.2734375 C281.892578,56.7929688 281.807617,56.3007812 281.754883,55.796875 C281.702148,55.2929688 281.675781,54.7773438 281.675781,54.25 C281.675781,53.3710938 281.839844,52.5478516 282.167969,51.7802734 C282.496094,51.0126953 282.923828,50.3652344 283.451172,49.8378906 C283.978516,49.4277344 284.599609,49.0878906 285.314453,48.8183594 C286.029297,48.5488281 286.791016,48.4140625 287.599609,48.4140625 C289.685547,48.4140625 291.203125,48.8710938 292.152344,49.7851562 C293.007812,50.59375 293.435547,51.7304688 293.435547,53.1953125 L293.435547,53.1953125 L293.435547,70 L298.708984,70 L298.708984,53.40625 C298.708984,50.546875 297.794922,48.34375 295.966797,46.796875 C294.103516,45.2382812 291.332031,44.4589844 287.652344,44.4589844 C286.035156,44.4589844 284.564453,44.6611328 283.240234,45.0654297 C281.916016,45.4697266 280.726562,46.0703125 279.671875,46.8671875 C278.535156,47.7460938 277.682617,48.7861328 277.114258,49.9873047 C276.545898,51.1884766 276.261719,52.5566406 276.261719,54.0917969 C276.261719,55.0761719 276.349609,55.9550781 276.525391,56.7285156 C276.841797,58.2753906 277.128906,59.6230469 277.386719,60.7714844 C277.644531,61.9199219 277.867188,62.875 278.054688,63.6367188 L278.054688,63.6367188 L278.037109,63.5839844 C278.177734,64.4980469 278.280273,65.3505859 278.344727,66.1416016 C278.40918,66.9326172 278.441406,67.6738281 278.441406,68.3652344 L278.441406,68.3652344 L278.441406,68.5585938 C278.441406,68.6289062 278.435547,68.7167969 278.423828,68.8222656 L278.423828,68.8222656 L278.423828,69.0683594 C278.423828,69.1855469 278.420898,69.3085938 278.415039,69.4375 C278.40918,69.5664062 278.40625,69.6865234 278.40625,69.7978516 L278.40625,69.7978516 L278.40625,70 L284.189453,70 Z M287.669922,57.484375 C287.412109,57.484375 287.163086,57.4316406 286.922852,57.3261719 C286.682617,57.2207031 286.46875,57.0800781 286.28125,56.9042969 C286.09375,56.7285156 285.941406,56.5234375 285.824219,56.2890625 C285.707031,56.0546875 285.648438,55.8085938 285.648438,55.5507812 C285.648438,55.2695312 285.707031,55.0087891 285.824219,54.7685547 C285.941406,54.5283203 286.09668,54.3203125 286.290039,54.1445312 C286.483398,53.96875 286.700195,53.8310547 286.94043,53.7314453 C287.180664,53.6318359 287.423828,53.5820312 287.669922,53.5820312 C287.951172,53.5820312 288.211914,53.6318359 288.452148,53.7314453 C288.692383,53.8310547 288.90332,53.96875 289.084961,54.1445312 C289.266602,54.3203125 289.407227,54.5283203 289.506836,54.7685547 C289.606445,55.0087891 289.65625,55.2695312 289.65625,55.5507812 C289.65625,55.8320312 289.600586,56.0898438 289.489258,56.3242188 C289.37793,56.5585938 289.228516,56.7636719 289.041016,56.9394531 C288.853516,57.1152344 288.639648,57.25 288.399414,57.34375 C288.15918,57.4375 287.916016,57.484375 287.669922,57.484375 Z" id="สวัสดี" fill="#414141" fill-rule="nonzero"></path>
            </g>
            <g id="identifier" transform="translate(20.000000, 454.000000)" fill="#FFFFFF" font-family="Arial-BoldMT, Arial" font-size="10" font-weight="bold" opacity="0.451421693">
                <text id="ID">
                    <tspan x="0" y="24">ID</tspan>
                </text>
                <text id="BATCH-1">
                    <tspan x="0" y="9">BATCH 1</tspan>
                </text>
            </g>
            <g id="qrcode" opacity="0.448946221" transform="translate(20.000000, 20.000000)" fill="#FFFFFF">
                <rect id="Rectangle" x="0" y="0" width="80" height="80"></rect>
            </g>
        </g>
    </g>
</svg>